<?xml version="1.0" standalone="no"?>
<!DOCTYPE svg PUBLIC "-//W3C//DTD SVG 1.1//EN" "http://www.w3.org/Graphics/SVG/1.1/DTD/svg11.dtd" >
<svg>
<metadata>
Created by FontForge 20090622 at Tue Jun 28 14:45:45 2016
 By deploy user
Copyright \251 DoubleAlex Team.      All rights reserved.
</metadata>
<defs>
<font id="EskizTwoC-Bold" horiz-adv-x="641" >
  <font-face 
    font-family="EskizTwoC"
    font-weight="700"
    font-stretch="normal"
    units-per-em="1000"
    panose-1="0 0 8 0 0 0 0 0 0 0"
    ascent="694"
    descent="-306"
    x-height="454"
    cap-height="664"
    bbox="-110 -306 1000 916"
    underline-thickness="50"
    underline-position="-50"
    unicode-range="U+0020-U+2265"
  />
<missing-glyph horiz-adv-x="1000" 
 />
    <glyph glyph-name=".notdef" horiz-adv-x="1000" 
 />
    <glyph glyph-name=".null" horiz-adv-x="0" 
 />
    <glyph glyph-name="nonmarkingreturn" horiz-adv-x="333" 
 />
    <glyph glyph-name="space" unicode=" " horiz-adv-x="250" 
 />
    <glyph glyph-name="space" unicode="&#xa0;" horiz-adv-x="250" 
 />
    <glyph glyph-name="exclam" unicode="!" horiz-adv-x="212" 
d="M144 35q0 -19 -12 -29.5t-28 -10.5t-28 10.5t-12 29.5v14q0 19 12 29.5t28 10.5t28 -10.5t12 -29.5v-14zM144 171q0 -19 -12 -30t-28 -11t-28 11t-12 30v461q0 19 12 29.5t28 10.5t28 -10.5t12 -29.5v-461z" />
    <glyph glyph-name="quotedbl" unicode="&#x22;" horiz-adv-x="302" 
d="M117 475q0 -19 -12 -29.5t-28 -10.5t-28 10.5t-12 29.5v170q0 19 12 29.5t28 10.5t28 -10.5t12 -29.5v-170zM265 475q0 -19 -12 -29.5t-28 -10.5t-28 10.5t-12 29.5v170q0 19 12 29.5t28 10.5t28 -10.5t12 -29.5v-170z" />
    <glyph glyph-name="numbersign" unicode="#" 
d="M564 424h-89l-53 -171h68q25 0 35.5 -20t0 -40t-35.5 -20h-93l-46 -147q-8 -24 -30 -28t-38 11.5t-8 39.5l38 124h-86l-46 -147q-8 -24 -30 -28t-38 11.5t-8 39.5l38 124h-47q-25 0 -35.5 20t0 40t35.5 20h72l53 171h-50q-25 0 -36 20t0 40t36 20h75l41 131q8 24 30 28
t38.5 -11.5t8.5 -39.5l-34 -108h86l41 131q8 24 30 28t38.5 -11.5t8.5 -39.5l-34 -108h64q26 0 36 -20t0 -40t-36 -20zM391 424h-86l-53 -171h86z" />
    <glyph glyph-name="dollar" unicode="$" 
d="M552 300q0 -91 -55 -170.5t-137 -97.5v-80q0 -25 -20 -36t-40 0t-20 36v77q-68 4 -112 29t-66 82q-9 24 5.5 41t37 15t31.5 -26q12 -29 34 -43t70 -18v192q-37 -20 -71 -20q-61 0 -85.5 38.5t-24.5 91.5q0 76 53 141.5t128 82.5v47q0 26 20 36t40 0t20 -36v-43
q51 -3 82.5 -16t63.5 -44q18 -17 11 -39.5t-27 -28t-40 9.5q-21 20 -38 28t-52 10v-120q33 12 60 12q63 0 97.5 -44t34.5 -107zM280 394v158q-41 -16 -71 -56.5t-30 -84.5q0 -31 7 -40.5t23 -9.5q21 0 71 33zM472 300q0 71 -52 71q-25 0 -60 -21v-234q46 19 79 70.5
t33 113.5z" />
    <glyph glyph-name="percent" unicode="%" 
d="M296 566q0 -64 -46.5 -113.5t-105.5 -49.5q-52 0 -78 32.5t-26 74.5q0 65 46.5 120t111.5 55q29 0 49.5 -12t30.5 -31.5t14 -38t4 -37.5zM466 617l-231 -599q-9 -23 -31.5 -25.5t-37.5 14t-6 40.5l231 599q9 23 31.5 25.5t37.5 -14t6 -40.5zM596 141q0 -64 -47 -113.5
t-106 -49.5q-52 0 -78 32.5t-26 74.5q0 65 46.5 120t111.5 55q29 0 50 -12t31 -31.5t14 -38t4 -37.5zM216 566q0 39 -18 39q-27 0 -52.5 -29t-25.5 -66q0 -27 24 -27t48 25.5t24 57.5zM516 141q0 39 -19 39q-27 0 -52.5 -29.5t-25.5 -65.5q0 -27 24 -27t48.5 25.5t24.5 57.5
z" />
    <glyph glyph-name="ampersand" unicode="&#x26;" 
d="M613 59q-2 -1 -15.5 -15.5t-25.5 -24t-27.5 -19t-30 -7t-24.5 17.5l-61 92q-116 -116 -250 -116q-77 0 -118 46.5t-41 118.5q0 103 47 170.5t134 122.5l-22 33q-34 48 -34 99q0 48 42.5 71t94.5 23q155 0 155 -101q0 -49 -31 -82t-92 -69l122 -183q24 33 41 62
q13 22 36 20t33 -20t-1 -41q-26 -45 -61 -92l48 -71q61 53 84 22q15 -20 4 -46q-2 -7 -7 -11zM357 570q0 21 -75 21q-46 0 -57 -14q0 -24 20 -55l25 -36q87 49 87 84zM384 171l-139 208q-68 -42 -106.5 -94t-38.5 -133q0 -85 79 -85q108 0 205 104z" />
    <glyph glyph-name="quotesingle" unicode="'" horiz-adv-x="146" 
d="M112 475q0 -25 -20 -35.5t-40 0t-20 35.5v170q0 25 20 36t40 0t20 -36v-170z" />
    <glyph glyph-name="parenleft" unicode="(" horiz-adv-x="345" 
d="M288 -152q20 -16 15.5 -38.5t-23.5 -30t-41 5.5q-56 43 -93.5 102t-55.5 127.5t-25 131t-7 136.5q0 292 186 397q22 12 41 -1t19 -33.5t-21 -35.5q-145 -82 -145 -327q0 -148 32.5 -257.5t117.5 -176.5z" />
    <glyph glyph-name="parenright" unicode=")" horiz-adv-x="345" 
d="M295 282q0 -74 -7 -136.5t-25 -131t-55.5 -127.5t-93.5 -102q-20 -16 -41 -6t-23.5 30.5t15.5 38.5q85 67 117.5 176t32.5 258q0 245 -145 327q-13 7 -18 19.5t-1.5 24t11.5 21t21 11t26 -5.5q186 -105 186 -397z" />
    <glyph glyph-name="asterisk" unicode="*" horiz-adv-x="369" 
d="M324 538l-62 -18l54 -58q17 -18 9 -40t-28 -26t-40 12l-49 53l-23 -66q-8 -24 -30.5 -27.5t-38 13t-7.5 40.5l22 62l-59 -17q-24 -7 -39.5 9.5t-11 38.5t28.5 29l65 18l-42 45q-17 18 -9 40t28 26.5t40 -11.5l43 -48l18 52q8 24 30.5 27.5t38 -12.5t7.5 -40l-13 -38
l46 13q24 7 39.5 -9.5t11 -38.5t-28.5 -29z" />
    <glyph glyph-name="plus" unicode="+" horiz-adv-x="554" 
d="M475 188h-164v-158q0 -19 -12 -29.5t-28 -10.5t-28 10.5t-12 29.5v158h-139q-18 0 -29 12t-11 28t11 28t29 12h139v149q0 19 12 29.5t28 10.5t28 -10.5t12 -29.5v-149h164q19 0 29.5 -12t10.5 -28t-10.5 -28t-29.5 -12z" />
    <glyph glyph-name="comma" unicode="," horiz-adv-x="208" 
d="M151 21l-41 -93q-10 -24 -35 -24q-16 0 -29 11t-13 28q0 10 4 18l41 92q10 24 35 24q16 0 29 -11t13 -28q0 -9 -4 -17z" />
    <glyph glyph-name="hyphen" unicode="-" horiz-adv-x="348" 
d="M280 260l-186 -14h-2q-1 -1 -2 -1q-18 0 -28.5 12.5t-10.5 28.5q0 15 9.5 26.5t27.5 12.5l186 15h4q18 0 28.5 -12t10.5 -28q0 -15 -9.5 -27t-27.5 -13z" />
    <glyph glyph-name="hyphen" unicode="&#xad;" horiz-adv-x="348" 
d="M280 260l-186 -14h-2q-1 -1 -2 -1q-18 0 -28.5 12.5t-10.5 28.5q0 15 9.5 26.5t27.5 12.5l186 15h4q18 0 28.5 -12t10.5 -28q0 -15 -9.5 -27t-27.5 -13z" />
    <glyph glyph-name="period" unicode="." horiz-adv-x="208" 
d="M147 26q0 -19 -12 -29.5t-28 -10.5t-28 10.5t-12 29.5v14q0 19 12 29.5t28 10.5t28 -10.5t12 -29.5v-14z" />
    <glyph glyph-name="slash" unicode="/" horiz-adv-x="322" 
d="M305 618l-217 -598q-9 -27 -36 -27q-16 0 -29 11t-13 28q0 8 3 15l217 598q10 27 36 27q16 0 29 -11t13 -28q0 -7 -3 -15z" />
    <glyph glyph-name="zero" unicode="0" 
d="M614 432q0 -85 -26 -164.5t-73 -142t-120.5 -100.5t-160.5 -38q-104 0 -153 63.5t-49 158.5q0 87 23 169t65 147.5t108.5 105.5t146.5 40q107 0 173 -71t66 -168zM534 432q0 66 -43.5 112.5t-115.5 46.5q-113 0 -188 -109.5t-75 -272.5q0 -142 122 -142q132 0 216 106.5
t84 258.5z" />
    <glyph glyph-name="one" unicode="1" 
d="M380 34q0 -19 -12 -29.5t-28 -10.5t-28 10.5t-12 29.5v495l-59 -65q-13 -13 -29 -13t-28.5 12.5t-12.5 28.5q0 15 11 27q4 4 32 36.5l49.5 55.5t49 44.5t43.5 21.5q24 0 24 -46v-597z" />
    <glyph glyph-name="two" unicode="2" 
d="M565 74q-1 -2 -4.5 -16.5t-6.5 -22t-9 -19t-14.5 -17t-19.5 -5.5h-411q-22 0 -33 14.5t-5 35.5q24 86 91 161t153 126q1 1 25.5 15t30 18t25.5 17.5t26.5 22l18 23t15.5 29t4 31.5q0 43 -27.5 70t-81.5 27q-154 0 -198 -128q-9 -24 -31 -27.5t-37.5 13t-7.5 40.5
q29 83 98 132.5t176 49.5q85 0 137 -49.5t52 -127.5q0 -55 -28 -98.5t-62 -66l-86 -54.5t-78 -54q-76 -64 -117 -140h321l7 23q7 24 29 28t38.5 -11.5t9.5 -39.5z" />
    <glyph glyph-name="three" unicode="3" 
d="M583 282q0 -132 -100.5 -213.5t-254.5 -81.5q-174 0 -189 163q-1 15 6 26t18.5 15t23.5 2.5t21.5 -11t10.5 -24.5q5 -50 28.5 -70.5t80.5 -20.5q127 0 201 61t74 154q0 46 -26 79.5t-73 33.5q-34 0 -70 -11t-52.5 -19.5l-60.5 -32.5q-18 -10 -26 -14q-25 -9 -42.5 4.5
t-15.5 35.5t25 34q13 5 22 10q58 36 191 181h-221l-9 -66q-4 -25 -25 -32.5t-39.5 5.5t-15.5 38q0 1 0.5 19t3 35t7.5 37t16 32t27 12h343q106 0 -54 -162l-25 -26h21q88 0 133.5 -61t45.5 -132z" />
    <glyph glyph-name="four" unicode="4" 
d="M381 296v233l-8 -9q-31 -38 -92.5 -123t-96.5 -127zM578 241l-117 -16v-193q0 -19 -12 -29.5t-28 -10.5t-28 10.5t-12 29.5v182l-309 -41q-3 -1 -9 -1q-19 0 -30.5 10.5t-11.5 25.5q0 23 25 39q40 25 88.5 85t87 119.5t87.5 120t91 86.5q16 8 27 8q15 0 24.5 -11.5
t9.5 -31.5v-317l107 14h6q18 0 28.5 -12t10.5 -28q0 -15 -9 -26t-26 -13z" />
    <glyph glyph-name="five" unicode="5" 
d="M590 281q0 -56 -21.5 -105t-56 -83t-78.5 -58.5t-89.5 -36t-88.5 -11.5q-79 0 -125.5 34t-67.5 80q-11 23 2.5 41t36 17.5t33.5 -23.5q32 -69 121 -69q96 0 175 60.5t79 153.5q0 117 -140 117q-96 0 -240 -121q-29 -24 -52.5 -7.5t-10.5 51.5q26 73 23 277q-1 14 10.5 26
t25.5 14l361 33q25 2 37 -17t3.5 -40t-33.5 -23l-324 -29q-2 -107 -8 -160q115 76 208 76q110 0 165 -54.5t55 -142.5z" />
    <glyph glyph-name="six" unicode="6" 
d="M622 278q0 -81 -55 -149.5t-132 -104.5t-152 -36q-121 0 -199 98q-20 2 -32 19t-3 38q-26 57 -26 114q0 86 36 166.5t91.5 135.5t120.5 88t124 33q72 0 110.5 -24t61.5 -65q13 -22 0 -41t-33.5 -19t-35.5 21q-9 16 -16.5 24t-29.5 16t-57 8q-41 0 -91.5 -26.5
t-95.5 -70.5t-75 -109.5t-30 -136.5q0 -14 3 -29q69 90 157.5 154t175.5 64q28 0 57.5 -9t59 -27t48 -52.5t18.5 -79.5zM542 278q0 42 -31 65t-72 23q-73 0 -157 -70t-140 -154q54 -74 141 -74q93 0 176 65t83 145z" />
    <glyph glyph-name="seven" unicode="7" 
d="M569 625q-68 -115 -174 -326.5t-123 -280.5q-4 -15 -14.5 -23t-22.5 -7.5t-23 5.5t-16.5 17t-1.5 27q17 66 100 237t162 313q-117 -15 -285 -22l-10 -53q-3 -15 -12.5 -23.5t-21.5 -9t-23.5 4t-18 16.5t-3.5 27q0 1 3 25t6.5 40.5t15 33t28.5 17.5q37 0 196.5 12
t184.5 26q33 17 52.5 -3.5t0.5 -52.5z" />
    <glyph glyph-name="eight" unicode="8" 
d="M613 309q0 -70 -68.5 -147t-165.5 -126t-178 -49q-77 0 -125 51.5t-48 113.5q0 118 134 214q-54 31 -54 106q0 95 66.5 153t157.5 58q79 0 125 -33.5t46 -96.5q0 -53 -45 -105q67 -12 111 -47.5t44 -91.5zM423 553q0 50 -91 50q-62 0 -103 -36.5t-41 -94.5q0 -16 4.5 -26
t16.5 -15t18.5 -6.5t25.5 -4.5q4 0 5 -1q36 16 71 24q1 3 4 4q90 60 90 106zM533 309q0 13 -12.5 27t-45 26t-78.5 12q-51 0 -118.5 -31.5t-119 -84.5t-51.5 -106q0 -31 25.5 -58t67.5 -27q68 0 147.5 43t132 100t52.5 99z" />
    <glyph glyph-name="nine" unicode="9" 
d="M587 375q0 -90 -44.5 -179t-126 -149t-176.5 -60q-50 0 -87 13.5t-59 39t-33 46.5t-21 50q-8 24 7 40.5t37 13.5t31 -27q9 -25 15.5 -38t20.5 -28.5t35.5 -22.5t53.5 -7q104 0 185.5 97t81.5 211l-1 5q-48 -54 -124.5 -87.5t-141.5 -33.5q-77 0 -129.5 47t-52.5 114
q0 103 83 177t201 74q80 0 133 -31t72 -84l6 -9q34 -75 34 -172zM476 501q0 37 -30.5 63.5t-103.5 26.5q-88 0 -146 -52.5t-58 -118.5q0 -30 27.5 -55.5t74.5 -25.5q80 0 158 53.5t78 108.5z" />
    <glyph glyph-name="colon" unicode=":" horiz-adv-x="208" 
d="M147 31q0 -19 -12 -29.5t-28 -10.5t-28 10.5t-12 29.5v14q0 19 12 29.5t28 10.5t28 -10.5t12 -29.5v-14zM147 360q0 -19 -12 -29.5t-28 -10.5t-28 10.5t-12 29.5v14q0 19 12 29.5t28 10.5t28 -10.5t12 -29.5v-14z" />
    <glyph glyph-name="semicolon" unicode=";" horiz-adv-x="208" 
d="M151 21l-41 -93q-10 -24 -35 -24q-16 0 -29 11t-13 28q0 10 4 18l41 92q10 24 35 24q16 0 29 -11t13 -28q0 -9 -4 -17zM147 360q0 -19 -12 -29.5t-28 -10.5t-28 10.5t-12 29.5v14q0 19 12 29.5t28 10.5t28 -10.5t12 -29.5v-14z" />
    <glyph glyph-name="less" unicode="&#x3c;" horiz-adv-x="554" 
d="M453 376l-259 -138l255 -167q19 -13 19 -32q0 -17 -12 -29.5t-28 -12.5q-12 0 -23 7l-312 204q-22 15 -22 34q0 22 25 35l320 169q10 6 20 6q16 0 27.5 -13t11.5 -29q0 -23 -22 -34z" />
    <glyph glyph-name="equal" unicode="=" horiz-adv-x="554" 
d="M472 93h-383q-19 0 -29.5 12t-10.5 28t10.5 28t29.5 12h383q19 0 29.5 -12t10.5 -28t-10.5 -28t-29.5 -12zM472 281h-383q-19 0 -29.5 12t-10.5 28t10.5 28t29.5 12h383q19 0 29.5 -12t10.5 -28t-10.5 -28t-29.5 -12z" />
    <glyph glyph-name="greater" unicode="&#x3e;" horiz-adv-x="554" 
d="M469 208l-312 -204q-11 -7 -22 -7q-17 0 -28.5 12.5t-11.5 29.5q0 20 18 32l256 167l-260 138q-22 12 -22 34q0 16 11.5 29t28.5 13q10 0 19 -6l320 -169q25 -13 25 -35q0 -19 -22 -34z" />
    <glyph glyph-name="question" unicode="?" horiz-adv-x="554" 
d="M268 35q0 -19 -12 -29.5t-28 -10.5t-28 10.5t-12 29.5v14q0 19 12 29.5t28 10.5t28 -10.5t12 -29.5v-14zM478 559q0 -36 -28 -75.5t-67.5 -73.5l-79 -65t-67.5 -59t-28 -48q0 -11 2 -12.5t14 -1.5q35 0 54 27q12 18 32 18q17 0 29.5 -11.5t12.5 -27.5q0 -13 -7 -23
q-43 -63 -121 -63q-46 0 -71 24t-25 70q0 35 28 73.5t67.5 72l79 64.5t67.5 60.5t28 50.5q0 22 -17.5 37.5t-54.5 15.5q-92 0 -192 -126q-13 -16 -30 -16t-29.5 12.5t-12.5 28.5q0 11 9 25q126 156 255 156q66 0 109 -37t43 -96z" />
    <glyph glyph-name="at" unicode="@" horiz-adv-x="753" 
d="M737 406q0 -72 -24 -143.5t-71 -121.5t-103 -50q-93 0 -82 108l5 44q-51 -58 -107.5 -96t-94.5 -38q-49 0 -79.5 25.5t-30.5 81.5q0 81 49.5 164t122.5 135.5t140 52.5q28 0 46 -7q18 15 43 3t21 -40l-35 -333q-1 -7 -1 -19v-1h3q35 -1 76.5 69t41.5 166q0 102 -40 155
t-132 53q-76 0 -149.5 -36.5t-124.5 -92.5t-82.5 -123.5t-31.5 -129.5q0 -164 152 -164q47 0 76 13t73 46q27 20 48 0q23 -20 4 -53q-11 -17 -33 -33q-76 -53 -168 -53q-107 0 -169.5 63.5t-62.5 180.5q0 104 61.5 210t172 179t234.5 73q69 0 119.5 -23.5t78.5 -64.5
t41 -90.5t13 -109.5zM483 461q0 15 -5 25l-1 1l-5 1h-10q-68 0 -150 -89.5t-82 -182.5q0 -18 5 -22.5t25 -4.5q17 0 54 26.5t74.5 65t66 89t28.5 91.5z" />
    <glyph glyph-name="A" unicode="A" horiz-adv-x="630" 
d="M406 333l-78 196l-90 -205zM606 48q3 -7 3 -16q0 -17 -13 -28t-29 -11q-24 0 -36 26l-94 236l-235 -13l-100 -225q-10 -24 -35 -24q-16 0 -29 11t-13 28q0 10 4 18l265 598q12 30 36 30q25 0 37 -31z" />
    <glyph glyph-name="B" unicode="B" horiz-adv-x="613" 
d="M511 306q0 24 -16 39.5t-45 21.5t-51.5 8t-53.5 2q-22 0 -43.5 -1.5t-44.5 -6l-35.5 -7t-39 -8.5t-33.5 -8v-272q51 4 110.5 21.5t117 46t96 72t38.5 92.5zM437 577q-15 9 -60 9q-118 0 -228 -50v-116q81 19 167 51q53 20 87 48t34 58zM591 306q0 -59 -33 -111t-85 -88
t-115 -62.5t-124 -39t-112 -12.5q-53 0 -53 40v590q0 19 12 29.5t28 10.5t28 -10.5t12 -29.5v-1q116 44 228 44q140 0 140 -85q0 -44 -31 -82.5t-90 -55.5q50 2 91.5 -8.5t72.5 -43.5t31 -85z" />
    <glyph glyph-name="C" unicode="C" horiz-adv-x="574" 
d="M534 578q14 -21 3 -41t-31.5 -21.5t-37.5 17.5q-14 21 -48.5 39.5t-83.5 18.5q-82 0 -152 -97t-70 -226q0 -89 37 -148.5t97 -59.5q56 0 117 44t79 80q14 21 35 22.5t34.5 -17.5t2.5 -41q-28 -52 -107 -110t-161 -58q-56 0 -99.5 27.5t-67.5 72t-35.5 92.5t-11.5 96
q0 98 39 190.5t109.5 152.5t153.5 60q70 0 121.5 -28t76.5 -65z" />
    <glyph glyph-name="D" unicode="D" horiz-adv-x="608" 
d="M579 440q0 -93 -39 -173.5t-104 -135.5t-145 -90t-165 -47q-7 -1 -13 0q-17 -2 -31 8.5t-14 30.5v590q0 23 17 33.5t36 4.5t25 -25q91 36 194 36q105 0 172 -66.5t67 -165.5zM499 440q0 66 -43.5 109t-115.5 43q-114 0 -192 -43v-470q149 29 250 126.5t101 234.5z" />
    <glyph glyph-name="E" unicode="E" horiz-adv-x="546" 
d="M502 26l-375 -32h-6q-20 0 -33 12t-13 37v243q-22 9 -22 37q0 26 22 35v185q-22 11 -22 37t22 36v7q0 19 12 29.5t28 10.5t27.5 -10t12.5 -29l313 23h4q18 0 28.5 -12t10.5 -28q0 -15 -9.5 -27t-27.5 -13l-319 -23v-174l263 31h6q18 0 28.5 -12t10.5 -29q0 -15 -9 -26
t-26 -13l-273 -32v-213l341 29l2 1h2q18 0 28.5 -12.5t10.5 -28.5q0 -15 -9.5 -26.5t-27.5 -12.5z" />
    <glyph glyph-name="F" unicode="F" horiz-adv-x="505" 
d="M455 588l-294 -42v-160l257 34h6q18 0 28.5 -12t10.5 -28q0 -15 -9 -26t-26 -13l-267 -36v-272q0 -19 -12 -29.5t-28 -10.5t-28 10.5t-12 29.5v265q-28 8 -28 39q0 29 28 38v163q-28 8 -28 39q0 29 28 38v9q0 18 12 29t28 11q15 0 27 -10t13 -28l282 41q2 0 4 0.5t3 0.5
q18 0 28.5 -12.5t10.5 -28.5q0 -15 -9 -26t-25 -13z" />
    <glyph glyph-name="G" unicode="G" horiz-adv-x="722" 
d="M698 369q-10 -160 -132 -272t-283 -112q-28 0 -56.5 5t-65 22t-64 45t-46.5 80t-19 120q0 113 69.5 210t174 150.5t212.5 53.5q71 0 113 -27t60 -64q10 -23 -3.5 -41t-36 -17.5t-33.5 23.5q-21 46 -100 46q-90 0 -177 -45.5t-143 -123.5t-56 -165q0 -61 17.5 -102.5
t47 -59.5t54 -24t52.5 -6q114 0 206 71.5t120 179.5q-136 -35 -212 -35q-25 0 -36 20t0 40t36 20q49 0 130.5 18t117.5 30q24 9 39.5 -2.5t13.5 -37.5z" />
    <glyph glyph-name="H" unicode="H" 
d="M570 34q0 -19 -12 -29.5t-28 -10.5t-28 10.5t-12 29.5v337q0 13 -8.5 19.5t-17 7.5t-24.5 1q-102 0 -276 -71v-294q0 -19 -12 -29.5t-28 -10.5t-28 10.5t-12 29.5v270q-12 4 -20 15.5t-8 24.5q0 25 25 35l3 2v242q0 19 12 29.5t28 10.5t28 -10.5t12 -29.5v-209
q171 65 276 65q29 0 50 -6v150q0 19 12 29.5t28 10.5t28 -10.5t12 -29.5v-252v-337z" />
    <glyph glyph-name="I" unicode="I" horiz-adv-x="220" 
d="M149 33q0 -19 -12 -29.5t-28 -10.5t-28 10.5t-12 29.5v590q0 19 12 29.5t28 10.5t28 -10.5t12 -29.5v-590z" />
    <glyph glyph-name="J" unicode="J" horiz-adv-x="520" 
d="M461 203q0 -80 -84 -148t-190 -68q-54 0 -91 16.5t-54 43.5t-23.5 51.5t-6.5 49.5q0 39 17 58.5t40 19.5q16 0 28.5 -9.5t12.5 -23.5t-13 -30q-5 -5 -5 -15q0 -16 2.5 -27.5t11 -25t29 -21t52.5 -7.5q79 0 136.5 47.5t57.5 88.5v420q0 19 12 29.5t28 10.5t28 -10.5
t12 -29.5v-420z" />
    <glyph glyph-name="K" unicode="K" horiz-adv-x="560" 
d="M559 49q12 -12 12 -28q0 -17 -12.5 -29.5t-28.5 -12.5q-15 0 -27 13l-355 351v-311q0 -19 -12 -29.5t-28 -10.5t-28 10.5t-12 29.5v591q0 19 12 29.5t28 10.5t28 -10.5t12 -29.5v-155q35 34 132.5 100t124.5 87q12 9 25 9q16 0 28 -12.5t12 -29.5q0 -18 -16 -30
l-250 -192z" />
    <glyph glyph-name="L" unicode="L" horiz-adv-x="458" 
d="M411 32l-297 -38q-28 -3 -36.5 9t-8.5 40v580q0 19 12 29.5t28 10.5t28 -10.5t12 -29.5v-545l252 34h6q18 0 28.5 -12t10.5 -29q0 -15 -9 -26t-26 -13z" />
    <glyph glyph-name="M" unicode="M" horiz-adv-x="755" 
d="M681 34q0 -19 -12 -29.5t-28 -10.5t-28 10.5t-12 29.5v383q-1 -1 -66 -107t-100 -174.5t-37 -103.5q-1 -20 -12.5 -31t-27.5 -11q-15 0 -27 10.5t-13 29.5q-2 27 -14.5 65t-34 84.5t-39 80.5l-44.5 84.5t-35 66.5v-377q0 -19 -12 -29.5t-28 -10.5t-28 10.5t-12 29.5v590
q0 20 12 31t28 11t28 -11t12 -31q0 -29 44.5 -122.5l99.5 -199.5t67 -135q14 28 78.5 134t112.5 196.5t48 126.5q0 20 12 31t28 11t28 -11t12 -31v-590z" />
    <glyph glyph-name="N" unicode="N" horiz-adv-x="612" 
d="M543 34q0 -20 -12 -31t-28 -11t-28 11t-12 31h-1q-15 34 -47.5 78.5t-81.5 102.5t-59 71q-75 93 -127 168v-420q0 -19 -12 -29.5t-28 -10.5t-28 10.5t-12 29.5v589q0 20 12 31t28 11t28 -11t12 -31q0 -22 44.5 -90t93.5 -132l110 -140.5t68 -86.5v449q0 19 12.5 29.5
t28.5 10.5q39 0 39 -40v-589z" />
    <glyph glyph-name="O" unicode="O" horiz-adv-x="613" 
d="M580 374q0 -67 -20 -133.5t-59 -125t-104.5 -95t-147.5 -36.5q-47 0 -85.5 20t-62 50t-39 69t-22 73.5t-6.5 66.5q0 70 23.5 144.5t64.5 138t103 104t132 40.5q53 0 93.5 -19.5t64.5 -50t39 -73t20.5 -84.5t5.5 -89zM500 374q0 236 -143 236q-61 0 -117.5 -51t-91 -131.5
t-34.5 -164.5q0 -78 36.5 -138.5t98.5 -60.5q115 0 183 93.5t68 216.5z" />
    <glyph glyph-name="P" unicode="P" horiz-adv-x="575" 
d="M479 558q0 26 -58 26q-5 0 -11 -0.5t-8 -0.5q-40 0 -107 -22t-125 -51v-122q66 12 127.5 37t99 51t60 48.5t22.5 33.5zM559 558q0 -48 -56 -101t-146.5 -94t-186.5 -56v-273q0 -19 -12 -29.5t-28 -10.5t-28 10.5t-12 29.5v443q-13 3 -22 15t-9 26q0 21 19 33q2 1 6 3.5
t6 3.5v65q0 19 12 29.5t28 10.5t28 -10.5t12 -29.5v-24q147 64 232 64q157 0 157 -105z" />
    <glyph glyph-name="Q" unicode="Q" horiz-adv-x="638" 
d="M625 15q18 -18 10.5 -40t-27.5 -27t-40 11l-110 111q-102 -90 -222 -90q-56 0 -96.5 21t-62.5 59t-32.5 82.5t-10.5 98.5q0 103 47.5 205t132.5 170.5t181 68.5q69 0 118.5 -44t70 -104t20.5 -126q0 -163 -91 -282zM524 411q0 43 -11.5 85t-42 75.5t-75.5 33.5
q-68 0 -133.5 -52.5t-106.5 -138t-41 -173.5q0 -93 30 -137t92 -44q87 0 166 68l-85 85q-17 18 -9.5 40t27 27t39.5 -11l82 -82q68 95 68 224z" />
    <glyph glyph-name="R" unicode="R" horiz-adv-x="615" 
d="M454 555q0 29 -58 29q-79 0 -227 -68v-113q285 59 285 152zM569 65q16 -13 16 -31q0 -16 -12.5 -28.5t-28.5 -12.5q-12 0 -25 9l-350 272v-240q0 -19 -12 -29.5t-28 -10.5t-28 10.5t-12 29.5v450q-15 2 -24.5 14.5t-9.5 27.5q0 23 22 33q4 3 12 7v58q0 19 12 29.5
t28 10.5t28 -10.5t12 -29.5v-21q2 1 8.5 3.5t10.5 4.5q129 53 208 53q68 0 103 -31t35 -78q0 -152 -311 -222z" />
    <glyph glyph-name="S" unicode="S" horiz-adv-x="626" 
d="M593 291q0 -74 -39 -135t-98 -96.5t-121.5 -54t-117.5 -18.5q-152 0 -180 153q-3 15 3.5 26.5t18 16t23.5 4t21.5 -9t12.5 -23.5q7 -41 28 -64t73 -23q66 0 133 26.5t115 79.5t48 118q0 33 -18 44t-61 11q-46 0 -134 -29t-134 -29q-129 0 -129 111q0 105 99.5 188.5
t213.5 83.5q109 0 160 -72q14 -21 3 -41.5t-31.5 -22t-37.5 17.5q-25 38 -94 38q-86 0 -159.5 -62.5t-73.5 -129.5q0 -23 9 -27t40 -4q43 0 131.5 29t136.5 29q159 0 159 -135z" />
    <glyph glyph-name="T" unicode="T" horiz-adv-x="483" 
d="M454 599l-184 -33v-532q0 -19 -12 -29.5t-28 -10.5t-28 10.5t-12 29.5v518l-139 -25q-3 -1 -8 -1q-18 0 -28.5 12t-10.5 29q0 32 33 38l403 73h9q17 0 27.5 -12t10.5 -29q0 -32 -33 -38z" />
    <glyph glyph-name="U" unicode="U" horiz-adv-x="579" 
d="M511 193q0 -40 -21 -74.5t-53 -58t-70.5 -40.5t-74.5 -25t-64 -8q-79 0 -118.5 38.5t-39.5 106.5v491q0 19 12 29.5t28 10.5t28 -10.5t12 -29.5v-491q0 -34 15.5 -49.5t62.5 -15.5q68 0 135.5 40.5t67.5 85.5v430q0 19 12 29.5t28 10.5t28 -10.5t12 -29.5v-430z" />
    <glyph glyph-name="V" unicode="V" horiz-adv-x="570" 
d="M537 603q-155 -256 -212 -373q-63 -130 -78 -210q-4 -18 -15 -27.5t-25 -9.5q-16 0 -28 11.5t-12 32.5q0 44 -14.5 113t-28.5 117.5t-41.5 135.5t-33.5 108q-24 79 -28 119v4q0 18 12 28.5t28 10.5t27.5 -9t12.5 -27q5 -51 58.5 -222.5t62.5 -207.5q64 148 246 447
q13 20 33 20q16 0 29 -11.5t13 -28.5q0 -10 -6 -21z" />
    <glyph glyph-name="W" unicode="W" horiz-adv-x="751" 
d="M733 623q0 -32 -29.5 -129.5t-72.5 -222t-47 -137.5q-26 -86 -28 -104q-1 -19 -13 -30t-27 -11t-26.5 10.5t-13.5 29.5q-1 13 -13.5 52.5t-25 74.5l-29.5 81t-19 51q-35 99 -51 151q-36 -137 -79 -270.5t-62 -159.5q-15 -21 -37 -21q-15 0 -25 12t-10 34q0 29 -8.5 80.5
t-25 130t-17.5 82.5q0 2 -9 46.5t-17 88t-15 91.5t-7 68q0 3 0.5 6.5t0.5 4.5q7 32 38 32q17 0 29 -11t12 -28q0 -6 -1 -10q4 -55 17 -127.5t33.5 -170.5t26.5 -131q40 127 78 268t38 169q0 21 12 32t28 11q15 0 27 -11t13 -30q1 -29 10 -71t29 -102l31 -93t37.5 -105
t28.5 -77l46 136t66 202t27 108q0 19 12 29.5t28 10.5t28 -10.5t12 -29.5z" />
    <glyph glyph-name="X" unicode="X" horiz-adv-x="486" 
d="M459 591q-76 -95 -171 -243q128 -238 161 -294q6 -8 6 -21q0 -17 -12.5 -28.5t-28.5 -11.5q-22 0 -33 20q-44 71 -142 257q-96 -155 -146 -255q-12 -22 -35 -22q-16 0 -29 11.5t-13 27.5q0 8 5 20q67 128 175 299q-81 151 -156 248q-9 13 -9 25q0 16 13 28t29 12
q18 0 31 -16q71 -95 141 -221q84 130 152 214q12 16 30 16q16 0 29 -12.5t13 -28.5q0 -14 -10 -25z" />
    <glyph glyph-name="Y" unicode="Y" horiz-adv-x="594" 
d="M576 595l-108 -114l-85 -91.5t-50 -45.5v-310q0 -19 -12 -29.5t-28 -10.5t-28 10.5t-12 29.5v312q-20 14 -48 45.5l-81 91.5l-102 113q-12 12 -12 27q0 16 12.5 28.5t28.5 12.5t29 -13l213 -226l227 227q11 12 28 12q16 0 28.5 -12.5t12.5 -28.5q0 -15 -13 -28z" />
    <glyph glyph-name="Z" unicode="Z" horiz-adv-x="568" 
d="M546 607l-397 -530l364 14h2q18 0 28.5 -12t10.5 -28t-10 -27.5t-28 -12.5l-448 -17h-3q-20 0 -31.5 9t-11.5 24t12 31l396 528l-279 -16q-1 -1 -3 -1q-18 0 -28.5 12.5t-10.5 28.5q0 15 9.5 26.5t27.5 12.5l366 22h4q19 0 30.5 -9t11.5 -24q0 -14 -12 -31z" />
    <glyph glyph-name="bracketleft" unicode="[" horiz-adv-x="341" 
d="M285 -203q-20 -2 -59.5 -8.5t-63.5 -9t-51 -2.5t-40.5 10.5t-13.5 30.5v789q0 16 15 29t41 20.5t50.5 12.5t54 9.5t41.5 7.5q15 3 27 -2.5t17 -16.5t5 -23t-8 -22.5t-23 -13.5l-140 -33v-713l140 15q15 1 26 -6t15 -18.5t2.5 -23.5t-11 -21.5t-24.5 -10.5z" />
    <glyph glyph-name="backslash" unicode="\" horiz-adv-x="322" 
d="M309 43q8 -24 -7 -40.5t-38 -13.5t-31 27l-214 592q-9 24 6.5 40.5t38 13.5t31.5 -27z" />
    <glyph glyph-name="bracketright" unicode="]" horiz-adv-x="341" 
d="M280 -142q0 -16 -15 -29t-41 -20.5t-50.5 -12.5t-54 -9.5t-41.5 -7.5q-15 -3 -27 2.5t-17 16.5t-5 23t8 22.5t23 13.5l140 33v713l-140 -15q-15 -1 -26 6t-15 18.5t-2.5 23.5t11 21.5t24.5 10.5q20 2 59.5 8.5t63.5 9t51 2.5t40.5 -10.5t13.5 -30.5v-789z" />
    <glyph glyph-name="asciicircum" unicode="^" horiz-adv-x="554" 
d="M487 464q10 -13 10 -26q0 -16 -12.5 -28.5t-29.5 -12.5t-30 15l-131 157l-144 -158q-13 -14 -29 -14t-28.5 12.5t-12.5 28.5q0 15 11 27l64.5 72.5l50.5 59t35 39.5t30.5 26.5t23.5 7.5t23 -7.5t29 -26.5t33 -39l47 -59.5z" />
    <glyph glyph-name="underscore" unicode="_" horiz-adv-x="500" 
d="M488 -130h-501q-19 0 -29.5 12t-10.5 28t10.5 28t29.5 12h501q19 0 29.5 -12t10.5 -28t-10.5 -28t-29.5 -12z" />
    <glyph glyph-name="grave" unicode="`" horiz-adv-x="263" 
d="M226 567q15 -20 5 -41t-30.5 -23.5t-38.5 15.5l-128 165q-15 20 -5 41t30.5 23.5t38.5 -15.5z" />
    <glyph glyph-name="a" unicode="a" horiz-adv-x="512" 
d="M377 195v34q-65 -7 -136.5 -33.5t-110.5 -68.5q-9 -9 -21 -28.5t-12 -29.5q0 -8 50 -1q100 21 230 127zM457 30q0 -19 -12 -29.5t-28 -10.5t-28 10.5t-12 29.5v64q-155 -110 -268 -110q-39 0 -66 16.5t-27 53.5q0 57 36 105t92 78.5t116.5 49t116.5 22.5v64q0 11 -2.5 13
t-14.5 2h-1q-63 0 -111 -23.5t-101 -70.5q-12 -11 -27 -11q-16 0 -28 12.5t-12 29.5q0 16 14 29q64 57 125.5 85.5t139.5 28.5q98 0 98 -97v-341z" />
    <glyph glyph-name="b" unicode="b" horiz-adv-x="463" 
d="M364 367q0 14 -22 14h-8q-51 0 -107 -31.5t-98 -72.5v-197q93 33 164 123t71 164zM444 367q0 -74 -49.5 -158.5t-135.5 -148.5t-179 -73h-5q-18 0 -28.5 12.5t-10.5 28.5q0 18 13 30v565q0 19 12 29.5t28 10.5t28 -10.5t12 -29.5v-241q109 79 205 79q49 0 79.5 -23.5
t30.5 -70.5z" />
    <glyph glyph-name="c" unicode="c" horiz-adv-x="477" 
d="M440 155q-33 -71 -99 -121t-143 -50q-75 0 -120 42.5t-45 129.5q0 93 45.5 167t107 109.5t119.5 35.5q40 0 76 -21.5t46 -58.5q7 -25 -9.5 -40t-38.5 -10.5t-29 28.5q-12 22 -45 22q-27 0 -59 -15.5t-62.5 -43t-50.5 -73.5t-20 -100q0 -52 21 -72t64 -20q50 0 97.5 35.5
t71.5 88.5q11 23 33.5 24t36 -16.5t3.5 -40.5z" />
    <glyph glyph-name="d" unicode="d" horiz-adv-x="513" 
d="M370 314v1q0 27 -5 34.5t-30 7.5q-44 0 -102 -43t-100 -106.5t-42 -115.5q0 -15 3.5 -20t18.5 -5q36 0 98 44.5t110.5 104t48.5 98.5zM455 34q0 -19 -12 -29.5t-28 -10.5t-28 10.5t-12 29.5v121q-58 -69 -134 -118.5t-128 -49.5q-50 0 -76 27.5t-26 77.5q0 72 51.5 153.5
t128 136.5t144.5 55q24 0 40 -4v190q0 19 12 29.5t28 10.5t28 -10.5t12 -29.5v-589z" />
    <glyph glyph-name="e" unicode="e" horiz-adv-x="479" 
d="M440 333q0 -62 -293 -112q-10 -1 -14 -2q-16 -45 -16 -88q0 -39 14.5 -53t52.5 -14q56 0 105 37t70 79q14 21 35 22t34.5 -18t1.5 -41q-30 -58 -96.5 -108.5t-149.5 -50.5q-70 0 -108.5 37.5t-38.5 109.5q0 46 17 101.5t48 107.5t82 87t110 35q77 0 111.5 -40.5
t34.5 -88.5zM356 355q-15 27 -62 27q-64 0 -117 -74q122 22 179 47z" />
    <glyph glyph-name="f" unicode="f" horiz-adv-x="352" 
d="M377 619q7 -11 7 -22q0 -16 -13 -28t-29 -12q-20 0 -32 19q-18 28 -61 28q-52 0 -52 -146v-13l139 26q3 1 9 1q17 0 27.5 -12t10.5 -29q0 -32 -32 -38l-153 -30v-329q0 -19 -12 -29.5t-28 -10.5t-28 10.5t-12 29.5v314l-55 -11q-2 0 -5 -0.5t-4 -0.5q-18 0 -28.5 12.5
t-10.5 28.5q0 32 32 39l71 13v8q0 31 1 51.5t4.5 53.5t12 54.5t22.5 43.5t37 33t54 11q88 0 128 -65z" />
    <glyph glyph-name="g" unicode="g" horiz-adv-x="476" 
d="M339 374q-33 -4 -73.5 -26.5t-78.5 -58.5t-63.5 -91t-25.5 -116l3 -22q24 0 64.5 31.5t79 77t66.5 102t28 100.5v3zM424 27q0 -109 -52 -175t-143 -66q-78 0 -114.5 26.5t-36.5 60.5q0 18 10 31.5t25 13.5q16 0 32 -19q10 -12 16.5 -18t23.5 -10.5t44 -4.5q51 0 83 39.5
t32 121.5v142q-53 -79 -123 -133.5t-120 -54.5q-41 0 -62 29t-21 72q0 84 36.5 158t90 119t109 71t99.5 26q26 0 48.5 -15.5t22.5 -39.5v-374z" />
    <glyph glyph-name="h" unicode="h" horiz-adv-x="479" 
d="M415 34q0 -19 -12 -29.5t-28 -10.5t-28 10.5t-12 29.5v333q0 13 -8 13q-39 0 -115 -63q-38 -30 -76 -70v-213q0 -19 -12 -29.5t-28 -10.5t-28 10.5t-12 29.5v589q0 19 12 29.5t28 10.5t28 -10.5t12 -29.5v-265q115 102 197 102t82 -93v-333z" />
    <glyph glyph-name="i" unicode="i" horiz-adv-x="200" 
d="M140 33q0 -19 -12 -29.5t-28 -10.5t-28 10.5t-12 29.5v391q0 18 12 29t28 11t28 -11t12 -29v-391zM140 562q0 -18 -12 -29t-28 -11t-28 11t-12 29v24q0 19 12 29.5t28 10.5t28 -10.5t12 -29.5v-24z" />
    <glyph glyph-name="j" unicode="j" horiz-adv-x="221" 
d="M153 -54q0 -36 -6.5 -67.5t-21.5 -60.5t-43.5 -46t-67.5 -17q-64 0 -94 25.5t-30 59.5q0 21 10 36t24 15q19 0 34 -26q11 -18 22.5 -24t33.5 -6q59 0 59 111v461q0 19 12 29.5t28 10.5t28 -10.5t12 -29.5v-461zM153 559q0 -19 -12 -29.5t-28 -10.5t-28 10.5t-12 29.5v23
q0 19 12 29.5t28 10.5t28 -10.5t12 -29.5v-23z" />
    <glyph glyph-name="k" unicode="k" horiz-adv-x="459" 
d="M455 51q16 -13 16 -30t-12.5 -29.5t-28.5 -12.5q-12 0 -25 9l-158.5 119t-111.5 85v-159q0 -19 -12 -29.5t-28 -10.5t-28 10.5t-12 29.5v590q0 19 12 29.5t28 10.5t28 -10.5t12 -29.5v-326q16 15 45 37.5l76 59l88 69.5q10 9 25 9q16 0 28.5 -12.5t12.5 -28.5
q0 -17 -16 -30l-189 -154z" />
    <glyph glyph-name="l" unicode="l" horiz-adv-x="200" 
d="M142 34q0 -19 -12 -29.5t-28 -10.5t-28 10.5t-12 29.5v589q0 19 12 29.5t28 10.5t28 -10.5t12 -29.5v-589z" />
    <glyph glyph-name="m" unicode="m" horiz-adv-x="719" 
d="M664 30q0 -19 -12 -29.5t-28 -10.5t-28 10.5t-12 29.5v353q-67 -26 -192 -128v-225q0 -19 -12 -29.5t-28 -10.5t-28 10.5t-12 29.5v353q-60 -21 -177 -116v-237q0 -19 -12 -29.5t-28 -10.5t-28 10.5t-12 29.5v399q0 19 12 29.5t28 10.5t28 -10.5t12 -29.5v-60
q132 100 200 100q28 0 42.5 -20t14.5 -46v-46q146 112 215 112q29 0 43 -19.5t14 -46.5v-373z" />
    <glyph glyph-name="n" unicode="n" horiz-adv-x="479" 
d="M417 30q0 -19 -12 -29.5t-28 -10.5t-28 10.5t-12 29.5v356q-52 -19 -196 -140v-216q0 -19 -12 -29.5t-28 -10.5t-28 10.5t-12 29.5v198q-11 13 -11 29q0 15 11 26v146q0 19 12 29.5t28 10.5t28 -10.5t12 -29.5v-78q146 118 205 118q26 0 48.5 -15.5t22.5 -50.5v-373z" />
    <glyph glyph-name="o" unicode="o" horiz-adv-x="504" 
d="M468 271q0 -112 -82.5 -199.5t-182.5 -87.5q-84 0 -126 52t-42 121q0 116 82.5 213.5t193.5 97.5q45 0 77.5 -18.5t49 -49t23.5 -62.5t7 -67zM388 271q0 117 -77 117q-73 0 -134.5 -71.5t-61.5 -159.5q0 -42 21.5 -67.5t66.5 -25.5q66 0 125.5 63t59.5 144z" />
    <glyph glyph-name="p" unicode="p" horiz-adv-x="482" 
d="M381 310q0 38 -9.5 51t-45.5 13q-51 0 -101.5 -49t-87.5 -108q-1 -2 -3 -4v-125q13 -29 42 -29q62 0 133.5 84.5t71.5 166.5zM461 310q0 -70 -42 -148t-109.5 -130.5t-133.5 -52.5q-21 0 -42 7v-252q0 -19 -12 -29.5t-28 -10.5t-28 10.5t-12 29.5v680q0 19 12 29.5
t28 10.5t28 -10.5t12 -29.5v-68q93 108 192 108q135 0 135 -144z" />
    <glyph glyph-name="q" unicode="q" horiz-adv-x="498" 
d="M345 370q-9 4 -22 4q-95 0 -160.5 -67t-65.5 -170q0 -58 26 -76q52 0 124 103.5t98 205.5zM526 -191q-19 -31 -51.5 -59.5t-65.5 -45.5q-12 -6 -24 -6q-15 0 -24.5 11t-9.5 31v437q-48 -86 -106 -141.5t-119 -55.5q-53 0 -81 50t-28 107q0 136 88.5 226.5t217.5 90.5
q34 0 70.5 -16.5t37.5 -46.5v-572q16 15 27 33q12 19 33 19q16 0 29 -11.5t13 -28.5q0 -11 -7 -22z" />
    <glyph glyph-name="r" unicode="r" horiz-adv-x="373" 
d="M374 353v-9q0 -17 -12 -27.5t-29 -10.5q-32 0 -38 33q-1 2 -2.5 13t-3.5 17q-67 -31 -154 -102v-237q0 -19 -12 -29.5t-28 -10.5t-28 10.5t-12 29.5v399q0 19 12 29.5t28 10.5t28 -10.5t12 -29.5v-61q124 90 176 90q10 0 20 -5q5 -3 9.5 -7t8 -10l6 -10t5 -12t4 -12
t3.5 -13.5t2.5 -11.5t2.5 -12.5t2 -11.5z" />
    <glyph glyph-name="s" unicode="s" horiz-adv-x="498" 
d="M467 226q0 -65 -46 -122.5t-109 -88.5t-120 -31q-104 0 -149 73q-14 21 -2 41t33 20.5t37 -19.5q13 -22 31.5 -28.5t49.5 -6.5q64 0 129.5 52.5t65.5 109.5q0 18 -4.5 23t-24.5 5q-39 0 -120 -44.5t-124 -44.5q-40 0 -62 27t-22 69q0 64 48.5 114t121 75.5t150.5 25.5
q26 0 36 -20t0 -40t-36 -20q-103 0 -171.5 -43.5t-68.5 -91.5q0 -14 3 -17q20 0 60.5 22.5t90.5 45t94 22.5q56 0 82.5 -29.5t26.5 -78.5z" />
    <glyph glyph-name="t" unicode="t" horiz-adv-x="456" 
d="M429 154q-148 -162 -277 -162q-16 0 -28 12t-12 28v350l-85 -12h-7q-18 0 -28 12t-10 28q0 35 34 39l96 14v89q0 18 12 29t28 11t28 -11t12 -29v-78l141 20h7q18 0 28.5 -12t10.5 -29q0 -14 -9 -25t-26 -13l-152 -22v-315q83 25 179 130q12 13 28 13q17 0 29.5 -12
t12.5 -28q0 -15 -12 -27z" />
    <glyph glyph-name="u" unicode="u" horiz-adv-x="480" 
d="M418 30q0 -19 -12 -29.5t-28 -10.5t-28 10.5t-12 29.5v9q-84 -55 -169 -55q-46 0 -78 25t-32 73v337q0 19 12 29.5t28 10.5t28 -10.5t12 -29.5v-337q0 -6 1 -9t8 -6t21 -3q76 0 169 73v282q0 19 12 29.5t28 10.5t28 -10.5t12 -29.5v-389z" />
    <glyph glyph-name="v" unicode="v" horiz-adv-x="422" 
d="M412 402q-12 -24 -100.5 -172t-106.5 -216q-9 -36 -39 -36q-14 0 -24.5 10.5t-14.5 29.5q-10 58 -56.5 186.5t-55.5 199.5v6q0 18 12 28.5t29 10.5q15 0 26 -9t13 -26q4 -32 14 -70t18.5 -64.5t24 -70.5l22.5 -65q25 47 82.5 144t84.5 150q12 22 34 22q16 0 29 -11.5
t13 -27.5q0 -11 -5 -19z" />
    <glyph glyph-name="w" unicode="w" horiz-adv-x="596" 
d="M583 402q-16 -55 -84 -180t-79 -204q-3 -19 -14 -30t-25 -11q-30 0 -40 37l-69 254l-111 -260q-13 -31 -39 -31q-15 0 -26 12t-12 32q-3 45 -19.5 143t-31.5 174l-15 75q-1 3 -1 8q0 18 12.5 29t29.5 11q31 0 37 -32q28 -137 48 -257l95 221l-5 15q-1 4 -1 12
q0 17 12.5 28t28.5 11q29 0 38 -30l70 -260q12 26 61 115t64 140q9 29 37 29q16 0 28.5 -11t12.5 -28q0 -8 -2 -12z" />
    <glyph glyph-name="x" unicode="x" horiz-adv-x="433" 
d="M421 36v-7q0 -18 -12 -28.5t-28 -10.5q-15 0 -26 9t-13 25q-4 26 -124 140l-126 -159q-12 -15 -31 -15q-16 0 -28.5 12t-12.5 28q0 15 9 25l132 166q-102 110 -132 181q-4 12 -4 17q0 17 13 28t29 11q25 0 36 -25q26 -59 110 -147l125 157q12 15 30 15q17 0 29.5 -12
t12.5 -28q0 -13 -9 -25l-132 -165l74 -75t48.5 -59t29.5 -58z" />
    <glyph glyph-name="y" unicode="y" horiz-adv-x="475" 
d="M464 401l-163 -455q-26 -72 -68.5 -109.5t-93.5 -37.5q-57 0 -94.5 33t-50.5 83q-2 8 -2 12q0 17 12.5 27.5t29.5 10.5q30 0 37 -30q15 -56 68 -56q20 0 44 20.5t43 73.5l12 34l-215 381q-6 10 -6 20q0 17 13 28.5t29 11.5q22 0 33 -21l182 -321l115 322q10 26 37 26
q16 0 28.5 -10.5t12.5 -27.5q0 -8 -3 -15z" />
    <glyph glyph-name="z" unicode="z" horiz-adv-x="438" 
d="M426 74q0 -2 -2.5 -18t-4.5 -23.5t-7 -19t-14 -17t-21 -5.5h-309q-13 -8 -23 -8q-16 0 -28.5 12.5t-12.5 28.5q0 15 10 26l274 316h-183v-10q0 -19 -12 -29.5t-28 -10.5t-28 10.5t-12 29.5v50q0 16 12 28t28 12h293q12 12 28 12t28.5 -12t12.5 -28q0 -15 -10 -26
l-279 -321h206l3 17q6 33 39 33q16 0 28.5 -10.5t12.5 -27.5q0 -1 -0.5 -4t-0.5 -5z" />
    <glyph glyph-name="braceleft" unicode="{" horiz-adv-x="347" 
d="M328 -203q-36 -17 -79 -17q-68 0 -98 30.5t-30 95.5q0 14 7.5 63t7.5 80q0 96 -17.5 125t-82.5 36q-26 3 -36 21.5t0.5 37t36.5 21.5q68 6 88.5 38.5t20.5 118.5q0 127 31.5 179.5t112.5 70.5q15 3 27 -2.5t17 -16.5t5 -23t-8 -22.5t-23 -13.5q-21 -5 -30 -8t-21.5 -13
t-17.5 -27.5t-9 -47.5t-4 -76q0 -71 -14 -119.5t-53 -78.5q34 -28 45.5 -76t11.5 -124q0 -31 -7.5 -80t-7.5 -63q0 -32 6.5 -39t41.5 -7q19 0 47 10q23 10 40.5 -4t16 -36.5t-24.5 -32.5z" />
    <glyph glyph-name="bar" unicode="|" horiz-adv-x="200" 
d="M144 24q0 -19 -12 -29.5t-28 -10.5t-28.5 10.5t-12.5 29.5v620q0 19 12 29.5t28 10.5t28.5 -10.5t12.5 -29.5v-620z" />
    <glyph glyph-name="braceright" unicode="}" horiz-adv-x="347" 
d="M308 268q26 -3 36.5 -22t0 -37.5t-36.5 -20.5q-69 -7 -89.5 -39t-20.5 -118q0 -127 -31.5 -179.5t-112.5 -70.5q-15 -3 -27 2.5t-16.5 16.5t-5 23t8 22.5t23.5 13.5q20 5 29 8t21.5 13t17.5 27.5t9 48t4 75.5q0 71 14 119.5t54 78.5q-35 28 -46.5 75.5t-11.5 124.5
q0 31 8 80t8 63q0 32 -7 39t-42 7q-19 0 -47 -10q-23 -10 -40.5 4t-15.5 36.5t25 32.5q42 17 78 17q69 0 99 -30.5t30 -95.5q0 -14 -8 -63t-8 -80q0 -96 17.5 -125t82.5 -36z" />
    <glyph glyph-name="asciitilde" unicode="~" horiz-adv-x="554" 
d="M516 266q-10 -30 -18.5 -50t-24 -41.5t-38.5 -32.5t-53 -11q-38 0 -67.5 16t-44.5 34.5t-31 34.5t-30 16q-23 0 -41 -16t-39 -51q-11 -20 -33 -20q-16 0 -29 11.5t-13 28.5q0 11 6 21q17 29 32.5 48t47.5 38.5t69 19.5q32 0 57.5 -16t39 -34.5t34 -34.5t42.5 -16
q7 0 13 2.5t10.5 5.5t9 10l7 11t6 13t5 12.5t4.5 13t3 11.5q8 28 37 28q17 0 29.5 -10.5t12.5 -27.5q0 -6 -3 -14z" />
    <glyph glyph-name="sterling" unicode="&#xa3;" 
d="M599 122q-50 -135 -186 -135q-38 0 -109 19.5t-110 19.5q-40 0 -120 -18q-26 -5 -41 11t-9.5 37.5t30.5 29.5q16 5 29.5 13.5t22 16.5t16 23l11.5 23t7.5 28t4.5 27t3.5 30t3.5 28q2 22 3 35l-60 -4q-25 -2 -37 17t-2.5 40t34.5 22l71 5q4 46 10 79.5t19.5 72t33 63.5
t53.5 41.5t78 16.5q103 0 151 -72q11 -18 5.5 -32t-17 -23t-28 -7t-27.5 18q-22 36 -84 36q-52 0 -75 -35.5t-33 -126.5q-1 -7 -3 -25l194 13q25 1 36.5 -18t2.5 -40t-34 -22l-206 -14q-14 -163 -41 -209q42 0 111 -19.5t106 -19.5q48 0 72 22t39 60q5 14 16.5 21t23 5.5
t22 -8t14.5 -19t-1 -26.5z" />
    <glyph glyph-name="currency" unicode="&#xa4;" horiz-adv-x="498" 
d="M482 510l-46 -51q39 -62 39 -131q0 -80 -45 -148l37 -34q19 -17 12.5 -39.5t-26 -28.5t-40.5 9l-37 34q-59 -44 -142 -44q-67 0 -118 36l-32 -31q-18 -17 -40 -9.5t-26.5 27.5t11.5 40l32 31q-38 64 -38 136q0 85 43 155l-45 53q-10 12 -10.5 25t7 22.5t18 15.5t23.5 3.5
t23 -14.5l38 -45q57 42 137 42q71 0 126 -44l40 44q17 19 39 12.5t28.5 -26t-8.5 -40.5zM395 328q0 60 -41 108t-97 48q-62 0 -102 -38q-5 -11 -15 -17q-37 -50 -37 -122q0 -62 35 -106t96 -44q78 0 119.5 53.5t41.5 117.5z" />
    <glyph glyph-name="section" unicode="&#xa7;" 
d="M582 303q0 -45 -31 -86q15 -25 15 -60q0 -54 -30.5 -98.5t-77 -70.5t-95.5 -40t-91 -14q-173 0 -205 137q-4 18 5.5 31.5t24.5 17t29.5 -4.5t18.5 -26q9 -35 36 -55t91 -20q78 0 146 43.5t68 99.5q0 22 -22.5 40t-65.5 18q-34 0 -100.5 -14.5t-101.5 -14.5
q-55 0 -89 31.5t-34 77.5q0 49 34 93q-14 25 -14 61q0 54 28 97t71 67.5t89 37t89 12.5q56 0 93.5 -15.5t68.5 -51.5q17 -19 8 -40.5t-29.5 -25.5t-39.5 13q-19 22 -39.5 31t-61.5 9q-78 0 -137.5 -38.5t-59.5 -95.5q0 -15 3 -22.5t17 -12.5t43 -5q31 0 89.5 16.5t90.5 16.5
q73 0 119.5 -39t46.5 -100zM502 303q0 23 -21 41t-65 18q-30 0 -89 -16.5t-91 -16.5q-37 0 -67 9q-16 -22 -16 -43q0 -11 9.5 -20t33.5 -9q34 0 100.5 14.5t101.5 14.5q51 0 95 -23q9 16 9 31z" />
    <glyph glyph-name="copyright" unicode="&#xa9;" horiz-adv-x="786" 
d="M740 369q0 -40 -14 -89.5t-46 -104t-77 -99.5t-115 -74.5t-152 -29.5q-92 0 -160 43t-100 106t-32 135q0 83 34.5 160t88.5 131t122 86.5t134 32.5q78 0 140.5 -27.5t100 -72t57 -95.5t19.5 -102zM660 369q0 38 -14 75t-41.5 69.5t-75 52.5t-106.5 20q-49 0 -102 -26
t-96.5 -69t-72 -105.5t-28.5 -129.5q0 -82 56 -143t156 -61q64 0 120 23.5t92 59t62.5 79t38 83.5t11.5 72zM544 486q14 -21 3 -41t-31.5 -21.5t-37.5 17.5q-20 27 -66 27q-41 0 -79.5 -52t-38.5 -125q0 -50 19 -79.5t46 -29.5q28 0 61 24t42 42q14 21 35 22t34.5 -17.5
t2.5 -41.5q-18 -34 -69.5 -71.5t-105.5 -37.5q-39 0 -68.5 19t-45.5 48.5t-23.5 60.5t-7.5 61q0 96 57 176.5t141 80.5q46 0 80 -18.5t52 -43.5z" />
    <glyph glyph-name="guillemotleft" unicode="&#xab;" horiz-adv-x="452" 
d="M236 141q11 -13 11 -26q0 -16 -12.5 -28.5t-29.5 -12.5q-16 0 -29 14l-59 64l-47.5 50.5t-31.5 35.5t-21 30t-6 24t6 24t21 30t31.5 35l47.5 50l59 64q13 14 29 14q17 0 29.5 -12.5t12.5 -28.5q0 -13 -11 -26l-133 -150zM406 141q11 -13 11 -26q0 -16 -12.5 -28.5
t-29.5 -12.5q-16 0 -29 14l-59 64l-47.5 50.5t-31.5 35.5t-21 30t-6 24t6 24t21 30t31.5 35l47.5 50l59 64q13 14 29 14q17 0 29.5 -12.5t12.5 -28.5q0 -13 -11 -26l-133 -150z" />
    <glyph glyph-name="logicalnot" unicode="&#xac;" horiz-adv-x="554" 
d="M80 361h391q16 0 28 -12t12 -28v-133q0 -19 -12 -29.5t-28 -10.5t-28 10.5t-12 29.5v93h-351q-18 0 -29 12t-11 28t11 28t29 12z" />
    <glyph glyph-name="registered" unicode="&#xae;" horiz-adv-x="786" 
d="M744 369q0 -40 -14 -89.5t-46 -104t-77 -99.5t-114.5 -74.5t-151.5 -29.5q-92 0 -160 43t-100 106t-32 135q0 83 34.5 160t88.5 131t122 86.5t134 32.5q78 0 140.5 -27.5t99.5 -72t56.5 -95.5t19.5 -102zM664 369q0 52 -23.5 99.5t-79 82.5t-133.5 35q-65 0 -133 -42
q23 -5 29 -28q75 29 121 29q47 0 73 -23t26 -58q0 -96 -167 -141l182 -140q13 -12 15 -26q44 49 67 108t23 104zM462 463q-6 2 -17 2q-42 0 -120 -35v-37q137 30 137 70zM525 112q-8 2 -15 7l-185 143v-111q0 -25 -20 -35.5t-40 0t-20 35.5v259q-19 12 -21 34.5t21 35.5v25
v1q-52 -48 -84 -113t-32 -137q0 -82 56 -143t156 -61q104 0 184 60z" />
    <glyph glyph-name="degree" unicode="&#xb0;" horiz-adv-x="241" 
d="M233 567q0 -18 -4.5 -37t-15.5 -41.5t-37 -36.5t-62 -14q-50 0 -76.5 36t-26.5 75q0 59 35.5 94.5t87.5 35.5q42 0 70.5 -30.5t28.5 -81.5zM153 567q0 32 -19 32q-43 0 -43 -50q0 -13 7.5 -22t15.5 -9q22 0 30.5 12t8.5 37z" />
    <glyph glyph-name="plusminus" unicode="&#xb1;" horiz-adv-x="554" 
d="M472 -5h-386q-18 0 -29 12t-11 28t11 28t29 12h386q18 0 29 -12t11 -28t-11 -28t-29 -12zM472 216h-163v-96q0 -19 -12 -29.5t-28 -10.5t-28 10.5t-12 29.5v96h-143q-18 0 -29 12t-11 28t11 28t29 12h143v118q0 19 12 29.5t28 10.5t28 -10.5t12 -29.5v-118h163
q18 0 29 -12t11 -28t-11 -28t-29 -12z" />
    <glyph glyph-name="mu" unicode="&#xb5;" horiz-adv-x="480" 
d="M415 26q0 -19 -12 -29.5t-28 -10.5t-28 10.5t-12 29.5v9q-86 -55 -169 -55q-15 0 -30 3v-193q0 -19 -12 -29.5t-28 -10.5t-28 10.5t-12 29.5v625q0 19 12 29.5t28 10.5t28 -10.5t12 -29.5v-343l1 -3q9 -9 29 -9q74 0 169 73v282q0 19 12 29.5t28 10.5t28 -10.5t12 -29.5
v-389z" />
    <glyph glyph-name="mu" unicode="&#x3bc;" horiz-adv-x="480" 
d="M415 26q0 -19 -12 -29.5t-28 -10.5t-28 10.5t-12 29.5v9q-86 -55 -169 -55q-15 0 -30 3v-193q0 -19 -12 -29.5t-28 -10.5t-28 10.5t-12 29.5v625q0 19 12 29.5t28 10.5t28 -10.5t12 -29.5v-343l1 -3q9 -9 29 -9q74 0 169 73v282q0 19 12 29.5t28 10.5t28 -10.5t12 -29.5
v-389z" />
    <glyph glyph-name="paragraph" unicode="&#xb6;" horiz-adv-x="507" 
d="M257 450v113q-71 -24 -115.5 -58t-44.5 -59q9 -10 66 -10q42 0 94 14zM460 595v-561q0 -19 -12 -29.5t-28 -10.5t-28 10.5t-12 29.5v554q-23 -2 -43 -6v-548q0 -19 -12 -29.5t-28 -10.5t-28 10.5t-12 29.5v334q-51 -12 -94 -12q-36 0 -65.5 6t-55 27.5t-25.5 56.5
q0 64 68 117t164.5 80.5t192.5 27.5q19 0 29.5 -12t10.5 -28q0 -26 -22 -36z" />
    <glyph glyph-name="guillemotright" unicode="&#xbb;" horiz-adv-x="452" 
d="M166 292l-133 150q-11 11 -11 26q0 16 12.5 28.5t29.5 12.5q16 0 29 -14l59 -64l47.5 -50t31.5 -35t21 -30t6 -24t-6 -24t-21 -30t-31.5 -35.5l-47.5 -50.5l-59 -64q-13 -14 -29 -14q-17 0 -29.5 12.5t-12.5 28.5q0 15 11 26zM336 292l-133 150q-11 11 -11 26
q0 16 12.5 28.5t29.5 12.5q16 0 29 -14l59 -64l47.5 -50t31.5 -35t21 -30t6 -24t-6 -24t-21 -30t-31.5 -35.5l-47.5 -50.5l-59 -64q-13 -14 -29 -14q-17 0 -29.5 12.5t-12.5 28.5q0 15 11 26z" />
    <glyph glyph-name="divide" unicode="&#xf7;" horiz-adv-x="554" 
d="M231 105v8q0 19 12 29.5t28 10.5t28 -10.5t12 -29.5v-8q0 -19 -12 -29.5t-28 -10.5t-28 10.5t-12 29.5zM231 345v8q0 19 12 29.5t28 10.5t28 -10.5t12 -29.5v-8q0 -19 -12 -29.5t-28 -10.5t-28 10.5t-12 29.5zM81 271h392q19 0 29.5 -12t10.5 -28t-10.5 -28t-29.5 -12
h-392q-19 0 -29.5 12t-10.5 28t10.5 28t29.5 12z" />
    <glyph glyph-name="florin" unicode="&#x192;" horiz-adv-x="522" 
d="M518 601q16 -48 -18 -51q-28 -2 -52 23q-7 7 -10 14q-7 17 -34 17q-33 0 -57 -54t-45 -154l128 7q26 1 37 -18t2 -40t-35 -22l-149 -8q-43 -226 -66 -300q-53 -169 -135 -169q-100 0 -128 107q-4 15 1.5 27t16 17.5t22.5 6t22.5 -7.5t14.5 -23q7 -26 16.5 -36.5
t34.5 -10.5q13 0 28 31t33 101t28 114.5l30 138.5l-84 -5q-25 -1 -36.5 18.5t-2 40t34.5 21.5l105 6q19 87 29 119q57 173 155 173q86 0 114 -83z" />
    <glyph glyph-name="afii10023" unicode="&#x401;" horiz-adv-x="546" 
d="M502 26l-375 -32h-6q-20 0 -33 12t-13 37v243q-22 9 -22 37q0 26 22 35v185q-22 11 -22 37t22 36v7q0 19 12 29.5t28 10.5t27.5 -10t12.5 -29l313 23h4q18 0 28.5 -12t10.5 -28q0 -15 -9.5 -27t-27.5 -13l-319 -23v-174l263 31h6q18 0 28.5 -12t10.5 -29q0 -15 -9 -26
t-26 -13l-273 -32v-213l341 29l2 1h2q18 0 28.5 -12.5t10.5 -28.5q0 -15 -9.5 -26.5t-27.5 -12.5zM426 749q0 -19 -12 -29.5t-28 -10.5t-28 10.5t-12 29.5v19q0 18 12 29t28 11t28 -11t12 -29v-19zM222 749q0 -19 -12 -29.5t-28 -10.5t-28 10.5t-12 29.5v19q0 18 12 29
t28 11t28 -11t12 -29v-19z" />
    <glyph glyph-name="afii10051" unicode="&#x402;" horiz-adv-x="610" 
d="M542 129q0 -53 -17.5 -91.5t-41 -58.5t-57 -32t-56.5 -14.5t-49 -2.5q-25 0 -35.5 20t0 40t35.5 20q29 0 50.5 4t44 15t34.5 36.5t12 63.5v237q0 3 0.5 7.5t0.5 5.5h-3q-30 0 -82 -30t-102 -75v-241q0 -26 -20 -36t-40 0t-20 36v200q-16 9 -20.5 26.5t9.5 36.5q6 5 11 11
v244l-138 -25q-15 -3 -27 3.5t-16.5 17.5t-4 23t9 21.5t23.5 12.5l404 73q15 3 26.5 -3.5t16 -18t4 -23.5t-9 -21.5t-23.5 -12.5l-185 -33v-187q107 81 184 81q82 0 82 -93v-237z" />
    <glyph glyph-name="afii10052" unicode="&#x403;" horiz-adv-x="505" 
d="M456 588l-293 -43v-525q0 -19 -12 -29.5t-28 -10.5t-28 10.5t-12 29.5v517q-28 8 -28 40q0 30 28 37v9q0 19 12 29.5t28 10.5q15 0 27 -9.5t13 -27.5l282 41h7q18 0 28.5 -12t10.5 -28q0 -15 -9 -26t-26 -13zM208 774l109 127q12 15 29 15t29.5 -12.5t12.5 -28.5
q0 -13 -10 -26l-109 -127q-13 -14 -29 -14q-17 0 -29.5 12t-12.5 28q0 15 10 26z" />
    <glyph glyph-name="afii10053" unicode="&#x404;" horiz-adv-x="539" 
d="M525 578q14 -21 3 -41t-31.5 -21.5t-37.5 17.5q-14 21 -48 39.5t-83 18.5q-63 0 -122.5 -60.5t-85.5 -152.5l238 28q25 3 38 -15.5t5 -39.5t-33 -24l-262 -31q-1 -10 -1 -28q0 -89 37 -148.5t97 -59.5q56 0 117 44t80 80q7 14 19 19.5t23.5 2t21 -11t11.5 -20t-4 -26.5
q-27 -52 -106 -110t-162 -58q-56 0 -99.5 27.5t-67.5 72t-35.5 92.5t-11.5 96q0 98 39 190.5t110 152.5t154 60q70 0 121 -28t76 -65z" />
    <glyph glyph-name="afii10054" unicode="&#x405;" horiz-adv-x="626" 
d="M593 291q0 -74 -39 -135t-98 -96.5t-121.5 -54t-117.5 -18.5q-152 0 -180 153q-3 15 3.5 26.5t18 16t23.5 4t21.5 -9t12.5 -23.5q7 -41 28 -64t73 -23q66 0 133 26.5t115 79.5t48 118q0 33 -18 44t-61 11q-46 0 -134 -29t-134 -29q-129 0 -129 111q0 105 99.5 188.5
t213.5 83.5q109 0 160 -72q14 -21 3 -41.5t-31.5 -22t-37.5 17.5q-25 38 -94 38q-86 0 -159.5 -62.5t-73.5 -129.5q0 -23 9 -27t40 -4q43 0 131.5 29t136.5 29q159 0 159 -135z" />
    <glyph glyph-name="afii10055" unicode="&#x406;" horiz-adv-x="220" 
d="M149 33q0 -19 -12 -29.5t-28 -10.5t-28 10.5t-12 29.5v590q0 19 12 29.5t28 10.5t28 -10.5t12 -29.5v-590z" />
    <glyph glyph-name="afii10056" unicode="&#x407;" horiz-adv-x="220" 
d="M149 33q0 -19 -12 -29.5t-28 -10.5t-28 10.5t-12 29.5v590q0 19 12 29.5t28 10.5t28 -10.5t12 -29.5v-590zM256 749q0 -19 -12 -29.5t-28 -10.5t-28 10.5t-12 29.5v19q0 18 12 29t28 11t28 -11t12 -29v-19zM52 749q0 -19 -12 -29.5t-28 -10.5t-28 10.5t-12 29.5v19
q0 18 12 29t28 11t28 -11t12 -29v-19z" />
    <glyph glyph-name="afii10057" unicode="&#x408;" horiz-adv-x="520" 
d="M461 203q0 -80 -84 -148t-190 -68q-54 0 -91 16.5t-54 43.5t-23.5 51.5t-6.5 49.5q0 39 17 58.5t40 19.5q16 0 28.5 -9.5t12.5 -23.5t-13 -30q-5 -5 -5 -15q0 -16 2.5 -27.5t11 -25t29 -21t52.5 -7.5q79 0 136.5 47.5t57.5 88.5v420q0 19 12 29.5t28 10.5t28 -10.5
t12 -29.5v-420z" />
    <glyph glyph-name="afii10058" unicode="&#x409;" horiz-adv-x="950" 
d="M835 273q0 16 -3 23.5t-20.5 13.5t-53.5 6q-44 0 -122 -19.5t-135 -45.5l60 -175q114 24 194 89.5t80 107.5zM915 273q0 -87 -115 -174t-259 -107q-3 -1 -7 -1q-23 0 -33 20q-4 4 -6 11l-66 190h-6q-16 0 -28 12.5t-12 28.5q0 19 15 31q4 2 5 4l-72 211
q-24 -48 -69.5 -121l-78 -125.5t-58.5 -113t-26 -104.5q0 -19 -12 -29.5t-28 -10.5t-28 10.5t-12 29.5q0 54 22.5 115t58 119l72.5 113.5t71 117.5t49 113l-6 17q-3 8 -3 14q0 17 12.5 28t29.5 11q27 0 36 -27l114 -329q67 29 150 49t133 20q157 0 157 -123z" />
    <glyph glyph-name="afii10059" unicode="&#x40a;" horiz-adv-x="983" 
d="M965 296q0 -56 -59 -123t-156.5 -119.5t-198.5 -66.5q-63 -9 -63 46v283q-174 -36 -326 -93v-190q0 -19 -12 -29.5t-28 -10.5t-28 10.5t-12 29.5v159q-1 0 -3.5 -0.5t-3.5 -0.5q-17 0 -28 13t-11 29q0 25 24 35q2 1 9.5 4.5t12.5 5.5v345q0 19 12 29.5t28 10.5t28 -10.5
t12 -29.5v-315q155 55 326 90v225q0 19 12 29.5t28 10.5t28 -10.5t12 -29.5v-211q128 20 226 20q74 0 122.5 -34.5t48.5 -101.5zM885 296q0 56 -91 56q-102 0 -226 -21v-260q66 13 128 44t101.5 65.5t63.5 66t24 49.5z" />
    <glyph glyph-name="afii10060" unicode="&#x40b;" horiz-adv-x="595" 
d="M529 34q0 -19 -12 -29.5t-28 -10.5t-28 10.5t-12 29.5v333v11v2h-2q-31 0 -83 -30t-101 -75v-241q0 -19 -12 -29.5t-28 -10.5t-28 10.5t-12 29.5v200q-22 12 -22 36q0 15 11 27q2 1 3.5 3t4 4.5l3.5 3.5v244l-139 -25q-3 -1 -8 -1q-18 0 -28.5 12t-10.5 29q0 32 33 38
l403 73h9q17 0 28 -12t11 -29q0 -32 -33 -38l-185 -33v-187q107 81 184 81q82 0 82 -93v-333z" />
    <glyph glyph-name="afii10061" unicode="&#x40c;" horiz-adv-x="560" 
d="M559 49q12 -12 12 -28q0 -17 -12.5 -29.5t-28.5 -12.5q-15 0 -27 13l-355 351v-311q0 -19 -12 -29.5t-28 -10.5t-28 10.5t-12 29.5v591q0 19 12 29.5t28 10.5t28 -10.5t12 -29.5v-155q35 34 132.5 100t124.5 87q12 9 25 9q16 0 28 -12.5t12 -29.5q0 -18 -16 -30
l-250 -192zM208 774l109 127q12 15 29 15t29.5 -12.5t12.5 -28.5q0 -13 -10 -26l-109 -127q-13 -14 -29 -14q-17 0 -29.5 12t-12.5 28q0 15 10 26z" />
    <glyph glyph-name="afii10062" unicode="&#x40e;" horiz-adv-x="541" 
d="M523 606l-238 -489q-54 -111 -204 -129q-2 -1 -6 -1q-18 0 -28.5 12.5t-10.5 28.5q0 15 9 26t26 13q31 4 51.5 9.5t47.5 24.5t43 51l28 59l-225 393q-6 10 -6 20q0 17 13 28.5t29 11.5q21 0 34 -21l198 -345l167 343q11 23 35 23q16 0 29 -11.5t13 -27.5q0 -9 -5 -19z
M186 832q1 -7 8 -15.5t28.5 -17t52.5 -8.5q67 0 86 48q9 27 36 27q16 0 29 -11t13 -28q0 -7 -3 -15q-17 -45 -57.5 -73t-103.5 -28q-66 0 -113 30t-55 78v8q0 18 12 28.5t29 10.5q14 0 25 -9t13 -25z" />
    <glyph glyph-name="afii10145" unicode="&#x40f;" horiz-adv-x="579" 
d="M512 191q0 -64 -48 -110t-118 -72v-137q0 -19 -12 -29.5t-28 -10.5t-28 10.5t-12 29.5v116q-21 -3 -37 -3q-79 0 -119 38.5t-40 106.5v491q0 19 12 29.5t28 10.5t28 -10.5t12 -29.5v-491q0 -34 16 -49.5t63 -15.5q17 0 37 3q1 18 12.5 27.5t27.5 9.5q20 0 31 -14
q41 19 68 46t27 54v430q0 19 12 29.5t28 10.5t28 -10.5t12 -29.5v-430z" />
    <glyph glyph-name="afii10017" unicode="&#x410;" horiz-adv-x="630" 
d="M406 333l-78 196l-90 -205zM606 48q3 -7 3 -16q0 -17 -13 -28t-29 -11q-24 0 -36 26l-94 236l-235 -13l-100 -225q-10 -24 -35 -24q-16 0 -29 11t-13 28q0 10 4 18l265 598q12 30 36 30q25 0 37 -31z" />
    <glyph glyph-name="afii10018" unicode="&#x411;" horiz-adv-x="613" 
d="M508 306q0 29 -32.5 47.5t-101.5 18.5q-117 0 -228 -34v-263q51 4 110.5 21.5t117.5 45.5t96 71.5t38 92.5zM588 306q0 -72 -49.5 -134t-124 -99.5t-152.5 -58.5t-143 -21h-13q-16 0 -28 10.5t-12 29.5v513q-25 9 -25 39q0 27 25 36v2q0 19 12 29.5t28 10.5q14 0 25 -7.5
t14 -21.5l286 41h7q18 0 28.5 -12t10.5 -28q0 -15 -9 -26t-25 -13l-297 -43v-132q117 31 228 31q38 0 72 -6.5t68 -22t54 -45.5t20 -72z" />
    <glyph glyph-name="afii10019" unicode="&#x412;" horiz-adv-x="613" 
d="M511 306q0 24 -16 39.5t-45 21.5t-51.5 8t-53.5 2q-22 0 -43.5 -1.5t-44.5 -6l-35.5 -7t-39 -8.5t-33.5 -8v-272q51 4 110.5 21.5t117 46t96 72t38.5 92.5zM437 577q-15 9 -60 9q-118 0 -228 -50v-116q81 19 167 51q53 20 87 48t34 58zM591 306q0 -59 -33 -111t-85 -88
t-115 -62.5t-124 -39t-112 -12.5q-53 0 -53 40v590q0 19 12 29.5t28 10.5t28 -10.5t12 -29.5v-1q116 44 228 44q140 0 140 -85q0 -44 -31 -82.5t-90 -55.5q50 2 91.5 -8.5t72.5 -43.5t31 -85z" />
    <glyph glyph-name="afii10020" unicode="&#x413;" horiz-adv-x="505" 
d="M456 588l-293 -43v-525q0 -19 -12 -29.5t-28 -10.5t-28 10.5t-12 29.5v517q-28 8 -28 40q0 30 28 37v9q0 19 12 29.5t28 10.5q15 0 27 -9.5t13 -27.5l282 41h7q18 0 28.5 -12t10.5 -28q0 -15 -9 -26t-26 -13z" />
    <glyph glyph-name="afii10021" unicode="&#x414;" horiz-adv-x="624" 
d="M523 440q0 66 -43.5 109t-115.5 43q-103 0 -192 -35v-478q149 29 250 126.5t101 234.5zM603 440q0 -93 -39 -173.5t-104 -135.5t-145 -90t-165 -47q-6 -1 -18 -1q-16 1 -28 11.5t-12 28.5v480l-11 -8q-11 -10 -26 -10q-16 0 -28 12.5t-12 28.5q0 18 15 30q26 22 62 41v16
q0 19 12 29.5t28 10.5q27 0 36 -22q91 31 196 31t172 -66.5t67 -165.5z" />
    <glyph glyph-name="afii10022" unicode="&#x415;" horiz-adv-x="546" 
d="M502 26l-375 -32h-6q-20 0 -33 12t-13 37v243q-22 9 -22 37q0 26 22 35v185q-22 11 -22 37t22 36v7q0 19 12 29.5t28 10.5t27.5 -10t12.5 -29l313 23h4q18 0 28.5 -12t10.5 -28q0 -15 -9.5 -27t-27.5 -13l-319 -23v-174l263 31h6q18 0 28.5 -12t10.5 -29q0 -15 -9 -26
t-26 -13l-273 -32v-213l341 29l2 1h2q18 0 28.5 -12.5t10.5 -28.5q0 -15 -9.5 -26.5t-27.5 -12.5z" />
    <glyph glyph-name="afii10024" unicode="&#x416;" horiz-adv-x="838" 
d="M833 62q11 -12 11 -28t-12.5 -28t-28.5 -12t-29 13l-327 351v-324q0 -19 -12 -29.5t-28 -10.5t-28 10.5t-12 29.5v326l-325 -353q-13 -13 -29 -13t-28.5 12t-12.5 28t11 27l318 345l-230 187q-15 12 -15 30q0 17 12 29.5t28 12.5q13 0 26 -10l245 -199v168q0 18 12 29
t28 11t28 -11t12 -29v-167l244 198q13 10 26 10q16 0 28 -12.5t12 -29.5q0 -18 -15 -30l-230 -187z" />
    <glyph glyph-name="afii10025" unicode="&#x417;" horiz-adv-x="587" 
d="M559 276q0 -114 -99 -201.5t-248 -87.5q-118 0 -171 73q-15 21 -4 41.5t31.5 22.5t37.5 -17q27 -40 106 -40q119 0 193 65.5t74 143.5q0 41 -24 67.5t-75 26.5q-34 0 -53 -4t-59 -19q-25 -9 -42 5.5t-14 37t27 31.5q83 35 110 60q31 28 31 62q0 14 -4.5 22.5t-28.5 17
t-68 8.5q-48 0 -99.5 -29t-60.5 -54q-9 -24 -31.5 -26.5t-37.5 14t-6 40.5q20 53 94 94t141 41q181 0 181 -128q0 -80 -56 -108q78 3 116.5 -45.5t38.5 -113.5z" />
    <glyph glyph-name="afii10026" unicode="&#x418;" horiz-adv-x="612" 
d="M544 34q0 -19 -12 -29.5t-28 -10.5t-28 10.5t-12 29.5v420q-40 -57 -149 -191t-156 -210q-8 -14 -10 -19q-1 0 -1 1q0 -19 -12 -29.5t-28 -10.5t-28 10.5t-12 29.5v588q0 19 12 29.5t28 10.5t28 -10.5t12 -29.5v-445l50 65l50 61.5t26 31.5q190 236 190 287q0 20 12 31
t28 11t28 -11t12 -31v-589z" />
    <glyph glyph-name="afii10027" unicode="&#x419;" horiz-adv-x="612" 
d="M544 34q0 -19 -12 -29.5t-28 -10.5t-28 10.5t-12 29.5v420q-40 -57 -149 -191t-156 -210q-8 -14 -10 -19q-1 0 -1 1q0 -19 -12 -29.5t-28 -10.5t-28 10.5t-12 29.5v588q0 19 12 29.5t28 10.5t28 -10.5t12 -29.5v-445l50 65l50 61.5t26 31.5q190 236 190 287q0 20 12 31
t28 11t28 -11t12 -31v-589zM226 832q1 -7 8 -15.5t28.5 -17t52.5 -8.5q67 0 86 48q9 27 36 27q16 0 29 -11t13 -28q0 -7 -3 -15q-17 -45 -57.5 -73t-103.5 -28q-66 0 -113 30t-55 78v8q0 18 12 28.5t29 10.5q14 0 25 -9t13 -25z" />
    <glyph glyph-name="afii10028" unicode="&#x41a;" horiz-adv-x="560" 
d="M559 49q12 -12 12 -28q0 -17 -12.5 -29.5t-28.5 -12.5q-15 0 -27 13l-355 351v-311q0 -19 -12 -29.5t-28 -10.5t-28 10.5t-12 29.5v591q0 19 12 29.5t28 10.5t28 -10.5t12 -29.5v-155q35 34 132.5 100t124.5 87q12 9 25 9q16 0 28 -12.5t12 -29.5q0 -18 -16 -30
l-250 -192z" />
    <glyph glyph-name="afii10029" unicode="&#x41b;" horiz-adv-x="572" 
d="M564 48q2 -5 2 -14q0 -17 -12.5 -28t-28.5 -11q-27 0 -37 27l-164 477q-27 -54 -91.5 -155t-102.5 -177t-38 -132q0 -19 -12 -29.5t-28 -10.5t-28 10.5t-12 29.5q0 66 35.5 146t80.5 144.5t92.5 145.5t64.5 142l-6 17q-2 10 -2 15q0 17 12.5 27.5t28.5 10.5q27 0 37 -27z
" />
    <glyph glyph-name="afii10030" unicode="&#x41c;" horiz-adv-x="755" 
d="M681 34q0 -19 -12 -29.5t-28 -10.5t-28 10.5t-12 29.5v383q-1 -1 -66 -107t-100 -174.5t-37 -103.5q-1 -20 -12.5 -31t-27.5 -11q-15 0 -27 10.5t-13 29.5q-2 27 -14.5 65t-34 84.5t-39 80.5l-44.5 84.5t-35 66.5v-377q0 -19 -12 -29.5t-28 -10.5t-28 10.5t-12 29.5v590
q0 20 12 31t28 11t28 -11t12 -31q0 -29 44.5 -122.5l99.5 -199.5t67 -135q14 28 78.5 134t112.5 196.5t48 126.5q0 20 12 31t28 11t28 -11t12 -31v-590z" />
    <glyph glyph-name="afii10031" unicode="&#x41d;" 
d="M570 34q0 -19 -12 -29.5t-28 -10.5t-28 10.5t-12 29.5v337q0 13 -8.5 19.5t-17 7.5t-24.5 1q-102 0 -276 -71v-294q0 -19 -12 -29.5t-28 -10.5t-28 10.5t-12 29.5v270q-12 4 -20 15.5t-8 24.5q0 25 25 35l3 2v242q0 19 12 29.5t28 10.5t28 -10.5t12 -29.5v-209
q171 65 276 65q29 0 50 -6v150q0 19 12 29.5t28 10.5t28 -10.5t12 -29.5v-252v-337z" />
    <glyph glyph-name="afii10032" unicode="&#x41e;" horiz-adv-x="613" 
d="M580 374q0 -67 -20 -133.5t-59 -125t-104.5 -95t-147.5 -36.5q-47 0 -85.5 20t-62 50t-39 69t-22 73.5t-6.5 66.5q0 70 23.5 144.5t64.5 138t103 104t132 40.5q53 0 93.5 -19.5t64.5 -50t39 -73t20.5 -84.5t5.5 -89zM500 374q0 236 -143 236q-61 0 -117.5 -51t-91 -131.5
t-34.5 -164.5q0 -78 36.5 -138.5t98.5 -60.5q115 0 183 93.5t68 216.5z" />
    <glyph glyph-name="afii10033" unicode="&#x41f;" horiz-adv-x="626" 
d="M556 34q0 -19 -12 -29.5t-28 -10.5t-28 10.5t-12 29.5v546l-326 -21v-525q0 -19 -12 -29.5t-28 -10.5t-28 10.5t-12 29.5v522q-27 8 -27 39t28 38q6 30 39 30q28 0 37 -24l359 23q6 2 10 2q16 0 28 -11t12 -30v-589z" />
    <glyph glyph-name="afii10034" unicode="&#x420;" horiz-adv-x="575" 
d="M479 558q0 26 -58 26q-5 0 -11 -0.5t-8 -0.5q-40 0 -107 -22t-125 -51v-122q66 12 127.5 37t99 51t60 48.5t22.5 33.5zM559 558q0 -48 -56 -101t-146.5 -94t-186.5 -56v-273q0 -19 -12 -29.5t-28 -10.5t-28 10.5t-12 29.5v443q-13 3 -22 15t-9 26q0 21 19 33q2 1 6 3.5
t6 3.5v65q0 19 12 29.5t28 10.5t28 -10.5t12 -29.5v-24q147 64 232 64q157 0 157 -105z" />
    <glyph glyph-name="afii10035" unicode="&#x421;" horiz-adv-x="574" 
d="M534 578q14 -21 3 -41t-31.5 -21.5t-37.5 17.5q-14 21 -48.5 39.5t-83.5 18.5q-82 0 -152 -97t-70 -226q0 -89 37 -148.5t97 -59.5q56 0 117 44t79 80q14 21 35 22.5t34.5 -17.5t2.5 -41q-28 -52 -107 -110t-161 -58q-56 0 -99.5 27.5t-67.5 72t-35.5 92.5t-11.5 96
q0 98 39 190.5t109.5 152.5t153.5 60q70 0 121.5 -28t76.5 -65z" />
    <glyph glyph-name="afii10036" unicode="&#x422;" horiz-adv-x="483" 
d="M454 599l-184 -33v-532q0 -19 -12 -29.5t-28 -10.5t-28 10.5t-12 29.5v518l-139 -25q-3 -1 -8 -1q-18 0 -28.5 12t-10.5 29q0 32 33 38l403 73h9q17 0 27.5 -12t10.5 -29q0 -32 -33 -38z" />
    <glyph glyph-name="afii10037" unicode="&#x423;" horiz-adv-x="541" 
d="M523 606l-238 -489q-54 -111 -204 -129q-2 -1 -6 -1q-18 0 -28.5 12.5t-10.5 28.5q0 15 9 26t26 13q31 4 51.5 9.5t47.5 24.5t43 51l28 59l-225 393q-6 10 -6 20q0 17 13 28.5t29 11.5q21 0 34 -21l198 -345l167 343q11 23 35 23q16 0 29 -11.5t13 -27.5q0 -9 -5 -19z
" />
    <glyph glyph-name="afii10038" unicode="&#x424;" horiz-adv-x="671" 
d="M281 216v284q-83 -32 -125.5 -90.5t-42.5 -125.5q0 -79 73 -79q49 0 95 11zM559 453q0 34 -20 57.5t-61 23.5q-62 0 -117 -11v-279q86 40 142 105.5t56 103.5zM639 453q0 -71 -79 -160.5t-199 -135.5v-124q0 -19 -12 -29.5t-28 -10.5t-28 10.5t-12 29.5v101
q-45 -9 -95 -9q-46 0 -78.5 17t-47.5 44t-21 51t-6 47q0 102 65.5 182.5t182.5 118.5v38q0 19 12 29.5t28 10.5t28 -10.5t12 -29.5v-19q53 10 117 10q79 0 120 -49.5t41 -111.5z" />
    <glyph glyph-name="afii10039" unicode="&#x425;" horiz-adv-x="486" 
d="M459 591q-76 -95 -171 -243q128 -238 161 -294q6 -8 6 -21q0 -17 -12.5 -28.5t-28.5 -11.5q-22 0 -33 20q-44 71 -142 257q-96 -155 -146 -255q-12 -22 -35 -22q-16 0 -29 11.5t-13 27.5q0 8 5 20q67 128 175 299q-81 151 -156 248q-9 13 -9 25q0 16 13 28t29 12
q18 0 31 -16q71 -95 141 -221q84 130 152 214q12 16 30 16q16 0 29 -12.5t13 -28.5q0 -14 -10 -25z" />
    <glyph glyph-name="afii10040" unicode="&#x426;" horiz-adv-x="642" 
d="M636 -136q0 -19 -12 -29.5t-28 -10.5t-28 10.5t-12 29.5v156l-435 -28q-4 0 -10.5 -0.5t-9.5 -0.5q-16 0 -28 10.5t-12 29.5v590q0 19 12 29.5t28 10.5t28 -10.5t12 -29.5v-547l326 21v526q0 19 12 29.5t28 10.5t28 -10.5t12 -29.5v-521q47 3 49 3q16 0 28 -11.5
t12 -28.5v-199z" />
    <glyph glyph-name="afii10041" unicode="&#x427;" horiz-adv-x="586" 
d="M522 357l-9 -6v-317q0 -19 -12 -29.5t-28 -10.5t-28 10.5t-12 29.5v274q-158 -78 -261 -78q-64 0 -95 25t-31 84v284q0 19 12 29.5t28 10.5t28 -10.5t12 -29.5v-284q0 -5 0.5 -8.5t1 -6.5t2.5 -5.5t2.5 -4t4 -2t5 -1.5t6.5 -1h6.5h8.5h9q99 0 261 88v225q0 19 12 29.5
t28 10.5t28 -10.5t12 -29.5v-192q13 -4 21.5 -15.5t8.5 -25.5q0 -22 -21 -33z" />
    <glyph glyph-name="afii10042" unicode="&#x428;" horiz-adv-x="782" 
d="M714 34q0 -19 -12 -29.5t-28 -10.5q-21 0 -32 14l-513 -13q-3 0 -9 -0.5t-9 -0.5q-16 0 -28 10.5t-12 29.5v590q0 18 12 29t28 11t28 -11t12 -29v-549l206 6v544q0 19 12 29.5t28 10.5t28 -10.5t12 -29.5v-542l197 5v536q0 18 12 29t28 11t28 -11t12 -29v-590z" />
    <glyph glyph-name="afii10043" unicode="&#x429;" horiz-adv-x="798" 
d="M804 -128q0 -19 -12 -29.5t-28 -10.5t-28 10.5t-12 29.5v151l-598 -31q-4 0 -10.5 -0.5t-9.5 -0.5q-16 0 -28 10.5t-12 29.5v590q0 19 12 29.5t28 10.5t28 -10.5t12 -29.5v-548l194 10v539q0 19 12 29.5t28 10.5t28 -10.5t12 -29.5v-535l198 11v523q0 19 12 29.5t28 10.5
t28 -10.5t12 -29.5v-519q65 3 66 3q16 0 28 -11.5t12 -28.5v-193z" />
    <glyph glyph-name="afii10044" unicode="&#x42a;" horiz-adv-x="650" 
d="M550 296q0 24 -13 33.5t-65 9.5q-38 0 -106.5 -28t-128.5 -64v-175q125 27 219 104t94 120zM630 296q0 -56 -59 -123t-156.5 -119.5t-199.5 -66.5h-6q-19 0 -35.5 14t-16.5 32v172q-14 3 -23.5 15t-9.5 26q0 17 16 30l17 14v293h-130q-19 0 -29.5 12t-10.5 28t10.5 28
t29.5 12h170q17 0 28.5 -11.5t11.5 -28.5v-284q147 80 235 80q158 0 158 -123z" />
    <glyph glyph-name="afii10045" unicode="&#x42b;" horiz-adv-x="738" 
d="M461 296q0 16 -3 23.5t-20.5 13.5t-53.5 6q-39 0 -107.5 -29t-127.5 -66v-172q125 27 218.5 104t93.5 120zM541 296q0 -56 -59 -123t-156.5 -119.5t-198.5 -66.5h-7q-18 0 -34.5 14t-16.5 32v173q-12 5 -20.5 16t-8.5 24q0 18 16 30q6 6 13 10v337q0 19 12 29.5t28 10.5
t28 -10.5t12 -29.5v-286q148 82 235 82q157 0 157 -123zM671 34q0 -19 -12 -29.5t-28 -10.5t-28 10.5t-12 29.5v589q0 19 12 29.5t28 10.5t28 -10.5t12 -29.5v-589z" />
    <glyph glyph-name="afii10046" unicode="&#x42c;" horiz-adv-x="564" 
d="M461 296q0 16 -3 23.5t-20.5 13.5t-53.5 6q-39 0 -107.5 -29t-127.5 -66v-172q125 27 218.5 104t93.5 120zM541 296q0 -56 -59 -123t-156.5 -119.5t-198.5 -66.5h-7q-18 0 -34.5 14t-16.5 32v173q-12 5 -20.5 16t-8.5 24q0 18 16 30q6 6 13 10v337q0 19 12 29.5t28 10.5
t28 -10.5t12 -29.5v-286q148 82 235 82q157 0 157 -123z" />
    <glyph glyph-name="afii10047" unicode="&#x42d;" horiz-adv-x="575" 
d="M542 383q0 -98 -39 -190.5t-110 -152.5t-154 -60q-70 0 -121.5 28t-76.5 65q-14 21 -3 41t31.5 21.5t37.5 -17.5q14 -21 48.5 -39.5t83.5 -18.5q71 0 136 76t82 186l-240 -29q-25 -3 -38 15.5t-5 39.5t33 24l254 31q-4 82 -40.5 135t-93.5 53q-65 0 -106.5 -20t-77.5 -64
q-9 -12 -22 -15t-23.5 2.5t-18.5 15t-7.5 22.5t9.5 25q47 58 104.5 86t141.5 28q56 0 99.5 -27.5t67.5 -72t36 -92.5t12 -96z" />
    <glyph glyph-name="afii10048" unicode="&#x42e;" horiz-adv-x="794" 
d="M678 379q0 237 -143 237q-61 0 -118 -52t-91.5 -133.5t-34.5 -165.5q0 -78 36.5 -139t99.5 -61q114 0 182.5 95t68.5 219zM758 379q0 -67 -20.5 -134t-59 -126.5t-104 -96.5t-147.5 -37q-59 0 -103.5 29.5t-67.5 74.5t-34 90t-11 86q0 25 2 38h-65v-269q0 -19 -12 -29.5
t-28 -10.5t-28 10.5t-12 29.5v271q-27 7 -27 38t27 38v243q0 19 12 29.5t28 10.5t28 -10.5t12 -29.5v-241h79q32 128 115 220.5t193 92.5q65 0 111 -28t69 -77t33 -100.5t10 -111.5z" />
    <glyph glyph-name="afii10049" unicode="&#x42f;" horiz-adv-x="585" 
d="M428 400v175q-43 -13 -86.5 -30.5t-89.5 -43t-74.5 -58t-28.5 -65.5q0 -22 51 -22q110 0 228 44zM520 354l-12 -10v-311q0 -19 -12 -29.5t-28 -10.5t-28 10.5t-12 29.5v246l-366 -296q-13 -10 -26 -10q-16 0 -28 12.5t-12 29.5q0 18 15 30l296 239q-54 -8 -107 -8
q-62 0 -96.5 28.5t-34.5 73.5q0 57 40.5 108t103.5 85.5t122.5 57t113.5 34.5q6 1 19 1q16 0 28 -11t12 -29v-198q31 -5 31 -36q0 -20 -19 -36z" />
    <glyph glyph-name="afii10065" unicode="&#x430;" horiz-adv-x="512" 
d="M377 195v34q-65 -7 -136.5 -33.5t-110.5 -68.5q-9 -9 -21 -28.5t-12 -29.5q0 -8 50 -1q100 21 230 127zM457 30q0 -19 -12 -29.5t-28 -10.5t-28 10.5t-12 29.5v64q-155 -110 -268 -110q-39 0 -66 16.5t-27 53.5q0 57 36 105t92 78.5t116.5 49t116.5 22.5v64q0 11 -2.5 13
t-14.5 2h-1q-63 0 -111 -23.5t-101 -70.5q-12 -11 -27 -11q-16 0 -28 12.5t-12 29.5q0 16 14 29q64 57 125.5 85.5t139.5 28.5q98 0 98 -97v-341z" />
    <glyph glyph-name="afii10066" unicode="&#x431;" horiz-adv-x="466" 
d="M364 313q0 79 -67 79q-31 0 -86.5 -30.5t-79.5 -55.5v-135q0 -5 -0.5 -17.5t-0.5 -18.5q0 -68 48 -68q60 0 123 79.5t63 166.5zM444 313q0 -72 -36.5 -147.5t-99.5 -127t-130 -51.5q-35 0 -60 11.5t-37.5 27t-19.5 43t-8.5 48.5t-1.5 54v135q0 74 17.5 126.5t44.5 77.5
t61 42.5t65 23.5t59.5 18t41.5 29q3 4 5 16q6 32 38 32q17 0 29 -10.5t12 -27.5q0 -6 -1 -9q-8 -44 -42.5 -71t-73.5 -37t-83.5 -29t-66.5 -45q-6 -7 -12 -26q90 56 152 56q71 0 109 -46.5t38 -112.5z" />
    <glyph glyph-name="afii10067" unicode="&#x432;" horiz-adv-x="501" 
d="M407 224q0 21 -63 21q-42 0 -107 -27q-12 -4 -18 -4q-17 0 -28 12t-11 29q0 25 25 37q97 43 97 79q0 17 -49 17q-37 0 -109 -29v-288q57 11 109 33.5t84 46.5t51 44t19 29zM487 224q0 -72 -117 -147t-252 -91h-5q-19 0 -34 13t-15 31v299q-15 2 -25 14.5t-10 27.5
q0 23 23 34l12 6v18q0 19 12 29.5t28 10.5q29 0 38 -25q67 24 111 24q129 0 129 -92q0 -43 -45 -68q65 21 107.5 -3.5t42.5 -80.5z" />
    <glyph glyph-name="afii10068" unicode="&#x433;" horiz-adv-x="463" 
d="M414 89q-33 -38 -101.5 -71t-138.5 -33q-52 0 -92.5 25t-40.5 75q0 38 18.5 72.5t46 58.5t59.5 47.5t59.5 41t46 37t18.5 37.5q0 9 -23 9h-6q-36 0 -79.5 -18t-65.5 -36q-11 -10 -26 -10q-16 0 -28 12.5t-12 28.5q0 18 15 30q31 26 87.5 49.5t108.5 23.5q24 0 45.5 -5
t42.5 -26.5t21 -57.5q0 -33 -16 -60.5t-33 -41.5t-50 -36.5t-47 -33.5q-6 -5 -25 -18.5t-29 -22t-23 -22t-19 -28t-6 -31.5q0 -20 53 -20q51 0 104 25.5t76 51.5q13 14 29 14q17 0 29.5 -12.5t12.5 -28.5q0 -13 -11 -26z" />
    <glyph glyph-name="afii10069" unicode="&#x434;" horiz-adv-x="476" 
d="M339 374q-33 -4 -73.5 -26.5t-78.5 -58.5t-63.5 -91t-25.5 -116l3 -22q24 0 64.5 31.5t79 77t66.5 102t28 100.5v3zM424 27q0 -109 -52 -175t-143 -66q-78 0 -114.5 26.5t-36.5 60.5q0 18 10 31.5t25 13.5q16 0 32 -19q10 -12 16.5 -18t23.5 -10.5t44 -4.5q51 0 83 39.5
t32 121.5v142q-53 -79 -123 -133.5t-120 -54.5q-41 0 -62 29t-21 72q0 84 36.5 158t90 119t109 71t99.5 26q26 0 48.5 -15.5t22.5 -39.5v-374z" />
    <glyph glyph-name="afii10070" unicode="&#x435;" horiz-adv-x="479" 
d="M440 333q0 -62 -293 -112q-10 -1 -14 -2q-16 -45 -16 -88q0 -39 14.5 -53t52.5 -14q56 0 105 37t70 79q14 21 35 22t34.5 -18t1.5 -41q-30 -58 -96.5 -108.5t-149.5 -50.5q-70 0 -108.5 37.5t-38.5 109.5q0 46 17 101.5t48 107.5t82 87t110 35q77 0 111.5 -40.5
t34.5 -88.5zM356 355q-15 27 -62 27q-64 0 -117 -74q122 22 179 47z" />
    <glyph glyph-name="afii10072" unicode="&#x436;" horiz-adv-x="616" 
d="M606 45q12 -13 12 -28q0 -16 -12.5 -28.5t-29.5 -12.5q-15 0 -28 13q-50 52 -116 113.5t-83 80.5v-153q0 -19 -12 -29.5t-28 -10.5t-28 10.5t-12 29.5v152q-16 -17 -81.5 -78.5l-117.5 -114.5q-13 -13 -28 -13q-16 0 -28.5 12t-12.5 29q0 16 12 28l192 196l-176 157
q-14 13 -14 29t12.5 28.5t28.5 12.5q15 0 27 -11l78 -67.5l67.5 -57.5t40.5 -37v133q0 18 12 29t28 11t28 -11t12 -29v-133q15 15 40.5 37l68 58l78.5 67q11 11 26 11q16 0 28.5 -12.5t12.5 -28.5t-14 -29l-175 -157z" />
    <glyph glyph-name="afii10073" unicode="&#x437;" horiz-adv-x="434" 
d="M411 193q0 -83 -77.5 -146t-178.5 -63q-55 0 -90 27.5t-43 63.5q-3 15 3 27t17 17t23 5t22 -8.5t13 -23.5q11 -28 55 -28q73 0 124.5 43t51.5 86q0 32 -10 43.5t-38 11.5q-10 0 -18 -1.5t-13 -3.5t-15.5 -7l-19.5 -9q-25 -10 -42.5 4t-15 37t26.5 33q62 26 76 49
q6 11 6 22q0 4 -2 7t-6.5 5t-8.5 3t-10 1h-10.5h-10h-6.5q-30 0 -65.5 -18t-38.5 -27q-9 -24 -31 -27t-37.5 13.5t-7.5 40.5q15 42 74 70t106 28q134 0 134 -96q0 -43 -32 -62q95 0 95 -117z" />
    <glyph glyph-name="afii10074" unicode="&#x438;" horiz-adv-x="480" 
d="M418 30q0 -19 -12 -29.5t-28 -10.5t-28 10.5t-12 29.5v9q-84 -55 -169 -55q-46 0 -78 25t-32 73v337q0 19 12 29.5t28 10.5t28 -10.5t12 -29.5v-337q0 -6 1 -9t8 -6t21 -3q76 0 169 73v282q0 19 12 29.5t28 10.5t28 -10.5t12 -29.5v-389z" />
    <glyph glyph-name="afii10075" unicode="&#x439;" horiz-adv-x="480" 
d="M418 30q0 -19 -12 -29.5t-28 -10.5t-28 10.5t-12 29.5v9q-84 -55 -169 -55q-46 0 -78 25t-32 73v337q0 19 12 29.5t28 10.5t28 -10.5t12 -29.5v-337q0 -6 1 -9t8 -6t21 -3q76 0 169 73v282q0 19 12 29.5t28 10.5t28 -10.5t12 -29.5v-389zM152 637q1 -7 7.5 -15.5
t28 -17.5t52.5 -9q67 0 86 49q10 27 36 27q16 0 29 -11t13 -28q0 -8 -3 -15q-16 -45 -57 -73.5t-104 -28.5q-66 0 -113 30t-54 79q-1 3 -1 8q0 17 12 27.5t29 10.5q33 0 39 -33z" />
    <glyph glyph-name="afii10076" unicode="&#x43a;" horiz-adv-x="472" 
d="M458 49q17 -13 17 -31q0 -17 -12.5 -29.5t-28.5 -12.5q-13 0 -24 8l-162 115t-114 82v-151q0 -19 -12 -29.5t-28 -10.5t-28 10.5t-12 29.5v398q0 18 12 29t28 11t28 -11t12 -29v-143q19 18 90.5 74.5l122.5 99.5q13 10 26 10q16 0 28.5 -12.5t12.5 -28.5t-15 -30
l-194 -163z" />
    <glyph glyph-name="afii10077" unicode="&#x43b;" horiz-adv-x="465" 
d="M450 42q3 -9 3 -16q0 -17 -12.5 -27.5t-29.5 -10.5q-26 0 -36 26l-116 310q-17 -29 -66 -99.5t-73 -116.5t-24 -80q0 -19 -12 -29.5t-28 -10.5t-28 10.5t-12 29.5q0 48 26 103.5t59 98.5t69 98t50 98l-2 7q-3 9 -3 16q0 17 12.5 28t28.5 11q27 0 37 -27z" />
    <glyph glyph-name="afii10078" unicode="&#x43c;" horiz-adv-x="604" 
d="M545 31q0 -19 -12 -29.5t-28 -10.5t-28 10.5t-12 29.5v227l-33.5 -48.5l-47.5 -69t-38.5 -63.5t-19.5 -49q-1 -20 -12.5 -31t-26.5 -11t-27 11t-13 30q-5 52 -112 224v-220q0 -19 -12 -29.5t-28 -10.5t-28 10.5t-12 29.5v398q0 20 12 31t28 11t28 -11t12 -31
q0 -15 33 -75l73.5 -128.5t48.5 -83.5q7 12 55.5 81.5t84 127.5t35.5 78t12 31t28 11t28 -11t12 -31v-398z" />
    <glyph glyph-name="afii10079" unicode="&#x43d;" horiz-adv-x="479" 
d="M417 30q0 -19 -12 -29.5t-28 -10.5t-28 10.5t-12 29.5v211l-1 1v3q-9 3 -22 3q-55 0 -173 -45v-173q0 -19 -12 -29.5t-28 -10.5t-28 10.5t-12 29.5v158q-20 12 -20 36q0 22 20 33v171q0 19 12 29.5t28 10.5t28 -10.5t12 -29.5v-139q111 39 173 39q9 0 23 -2v102
q0 19 12 29.5t28 10.5t28 -10.5t12 -29.5v-187v-211z" />
    <glyph glyph-name="afii10080" unicode="&#x43e;" horiz-adv-x="504" 
d="M468 271q0 -112 -82.5 -199.5t-182.5 -87.5q-84 0 -126 52t-42 121q0 116 82.5 213.5t193.5 97.5q45 0 77.5 -18.5t49 -49t23.5 -62.5t7 -67zM388 271q0 117 -77 117q-73 0 -134.5 -71.5t-61.5 -159.5q0 -42 21.5 -67.5t66.5 -25.5q66 0 125.5 63t59.5 144z" />
    <glyph glyph-name="afii10081" unicode="&#x43f;" horiz-adv-x="479" 
d="M417 30q0 -19 -12 -29.5t-28 -10.5t-28 10.5t-12 29.5v356q-52 -19 -196 -140v-216q0 -19 -12 -29.5t-28 -10.5t-28 10.5t-12 29.5v198q-11 13 -11 29q0 15 11 26v146q0 19 12 29.5t28 10.5t28 -10.5t12 -29.5v-78q146 118 205 118q26 0 48.5 -15.5t22.5 -50.5v-373z" />
    <glyph glyph-name="afii10082" unicode="&#x440;" horiz-adv-x="482" 
d="M381 310q0 38 -9.5 51t-45.5 13q-51 0 -101.5 -49t-87.5 -108q-1 -2 -3 -4v-125q13 -29 42 -29q62 0 133.5 84.5t71.5 166.5zM461 310q0 -70 -42 -148t-109.5 -130.5t-133.5 -52.5q-21 0 -42 7v-252q0 -19 -12 -29.5t-28 -10.5t-28 10.5t-12 29.5v680q0 19 12 29.5
t28 10.5t28 -10.5t12 -29.5v-68q93 108 192 108q135 0 135 -144z" />
    <glyph glyph-name="afii10083" unicode="&#x441;" horiz-adv-x="477" 
d="M440 155q-33 -71 -99 -121t-143 -50q-75 0 -120 42.5t-45 129.5q0 93 45.5 167t107 109.5t119.5 35.5q40 0 76 -21.5t46 -58.5q7 -25 -9.5 -40t-38.5 -10.5t-29 28.5q-12 22 -45 22q-27 0 -59 -15.5t-62.5 -43t-50.5 -73.5t-20 -100q0 -52 21 -72t64 -20q50 0 97.5 35.5
t71.5 88.5q11 23 33.5 24t36 -16.5t3.5 -40.5z" />
    <glyph glyph-name="afii10084" unicode="&#x442;" horiz-adv-x="719" 
d="M664 30q0 -19 -12 -29.5t-28 -10.5t-28 10.5t-12 29.5v353q-67 -26 -192 -128v-225q0 -19 -12 -29.5t-28 -10.5t-28 10.5t-12 29.5v353q-60 -21 -177 -116v-237q0 -19 -12 -29.5t-28 -10.5t-28 10.5t-12 29.5v399q0 19 12 29.5t28 10.5t28 -10.5t12 -29.5v-60
q132 100 200 100q28 0 42.5 -20t14.5 -46v-46q146 112 215 112q29 0 43 -19.5t14 -46.5v-373z" />
    <glyph glyph-name="afii10085" unicode="&#x443;" horiz-adv-x="475" 
d="M464 401l-163 -455q-26 -72 -68.5 -109.5t-93.5 -37.5q-57 0 -94.5 33t-50.5 83q-2 8 -2 12q0 17 12.5 27.5t29.5 10.5q30 0 37 -30q15 -56 68 -56q20 0 44 20.5t43 73.5l12 34l-215 381q-6 10 -6 20q0 17 13 28.5t29 11.5q22 0 33 -21l182 -321l115 322q10 26 37 26
q16 0 28.5 -10.5t12.5 -27.5q0 -8 -3 -15z" />
    <glyph glyph-name="afii10086" unicode="&#x444;" horiz-adv-x="600" 
d="M256 67v292q-70 -27 -112 -78t-42 -121q0 -43 28 -69.5t70 -26.5q29 0 56 3zM498 309q0 77 -94 77q-40 0 -68 -5v-297q84 28 123 89.5t39 135.5zM578 309q0 -106 -60.5 -191t-181.5 -118v-264q0 -19 -12 -29.5t-28 -10.5t-28 10.5t-12 29.5v250q-36 -2 -56 -2
q-73 0 -125.5 48.5t-52.5 127.5q0 109 66 180t168 103v176q0 19 12 29.5t28 10.5t28 -10.5t12 -29.5v-158q29 5 68 5q69 0 121.5 -38t52.5 -119z" />
    <glyph glyph-name="afii10087" unicode="&#x445;" horiz-adv-x="433" 
d="M421 36v-7q0 -18 -12 -28.5t-28 -10.5q-15 0 -26 9t-13 25q-4 26 -124 140l-126 -159q-12 -15 -31 -15q-16 0 -28.5 12t-12.5 28q0 15 9 25l132 166q-102 110 -132 181q-4 12 -4 17q0 17 13 28t29 11q25 0 36 -25q26 -59 110 -147l125 157q12 15 30 15q17 0 29.5 -12
t12.5 -28q0 -13 -9 -25l-132 -165l74 -75t48.5 -59t29.5 -58z" />
    <glyph glyph-name="afii10088" unicode="&#x446;" horiz-adv-x="520" 
d="M521 -102q0 -19 -12 -29.5t-28 -10.5t-28 10.5t-12 29.5v90q-17 -6 -33 -6q-59 0 -69 54q-85 -54 -170 -54q-46 0 -78 25t-32 73v337q0 19 12 29.5t28 10.5t28 -10.5t12 -29.5v-337q0 -6 1 -9t8 -6t21 -3q77 0 169 70v285q0 19 12 29.5t28 10.5t28 -10.5t12 -29.5v-351
l8 8q9 8 12.5 10.5l12.5 9t15 9.5t15 5.5t17 2.5q23 0 23 -46v-167z" />
    <glyph glyph-name="afii10089" unicode="&#x447;" horiz-adv-x="454" 
d="M394 241l-6 -3v-208q0 -19 -12 -29.5t-28 -10.5t-28 10.5t-12 29.5v169q-110 -49 -173 -49q-99 0 -99 87v192q0 19 12 29.5t28 10.5t28 -10.5t12 -29.5v-192q0 -2 0.5 -4t1.5 -2.5t3 -0.5h4h5h5q57 0 173 57v142q0 19 12 29.5t28 10.5t28 -10.5t12 -29.5v-114
q27 -10 27 -40q0 -21 -21 -34z" />
    <glyph glyph-name="afii10090" unicode="&#x448;" horiz-adv-x="724" 
d="M661 30q0 -19 -12 -29.5t-28 -10.5t-28 10.5t-12 29.5v13q-100 -59 -175 -59q-58 0 -79 56q-102 -56 -180 -56q-45 0 -65 30t-20 59v355q0 19 12 29.5t28 10.5t28 -10.5t12 -29.5v-355q0 -4 5 -9q39 0 89 21t85 44v299q0 19 12 29.5t28 10.5t28 -10.5t12 -29.5v-355
q0 -1 1 -3t2.5 -3.5t1.5 -2.5q38 0 88.5 24t86.5 50v290q0 19 12 29.5t28 10.5t28 -10.5t12 -29.5v-398z" />
    <glyph glyph-name="afii10091" unicode="&#x449;" horiz-adv-x="759" 
d="M763 -102q0 -19 -12 -29.5t-28 -10.5t-28 10.5t-12 29.5v90q-15 -6 -33 -6q-28 0 -47 16t-22 43q-100 -59 -175 -59q-58 0 -79 56q-102 -56 -180 -56q-45 0 -65 30t-20 59v355q0 19 12 29.5t28 10.5t28 -10.5t12 -29.5v-355q0 -4 5 -9q39 0 89 21t85 44v299q0 19 12 29.5
t28 10.5t28 -10.5t12 -29.5v-355q0 -1 1 -3t2.5 -3.5t1.5 -2.5q38 0 88.5 24t86.5 50v290q0 19 12 29.5t28 10.5t28 -10.5t12 -29.5v-361q41 46 80 46q22 0 22 -46v-167z" />
    <glyph glyph-name="afii10092" unicode="&#x44a;" horiz-adv-x="527" 
d="M429 216q0 5 -2 8.5t-6 5.5t-7.5 3t-9.5 1.5t-10 0.5h-9.5h-7.5q-28 0 -79 -19t-95 -44v-101q64 14 119 46t81 59t26 40zM509 216q0 -45 -49 -95.5t-126.5 -88t-157.5 -47.5h-6q-18 0 -32.5 14t-14.5 31v113q-24 12 -24 38q0 18 17 31q1 1 7 5v172h-100q-19 0 -29.5 12
t-10.5 28t10.5 28t29.5 12h140q16 0 28 -12t12 -28v-167q108 53 174 53q132 0 132 -99z" />
    <glyph glyph-name="afii10093" unicode="&#x44b;" horiz-adv-x="623" 
d="M370 216q0 7 -3.5 11t-11 5.5t-12 2t-14 0t-10.5 -0.5q-62 0 -174 -63v-99q64 14 118.5 45.5t80.5 58.5t26 40zM450 216q0 -45 -48.5 -95t-126 -87.5t-156.5 -47.5h-6q-18 0 -33 13t-15 31v113q-23 11 -23 38q0 18 17 31l6 4v213q0 19 12 29.5t28 10.5t28 -10.5t12 -29.5
v-168q108 53 174 53q131 0 131 -98zM564 30q0 -19 -12 -29.5t-28 -10.5t-28 10.5t-12 29.5v399q0 19 12 29.5t28 10.5t28 -10.5t12 -29.5v-399z" />
    <glyph glyph-name="afii10094" unicode="&#x44c;" horiz-adv-x="472" 
d="M370 216q0 7 -3.5 11t-11 5.5t-12 2t-14 0t-10.5 -0.5q-62 0 -174 -63v-99q64 14 118.5 45.5t80.5 58.5t26 40zM450 216q0 -45 -48.5 -95t-126 -87.5t-156.5 -47.5h-6q-18 0 -33 13t-15 31v113q-23 11 -23 38q0 18 17 31l6 4v213q0 19 12 29.5t28 10.5t28 -10.5t12 -29.5
v-168q108 53 174 53q131 0 131 -98z" />
    <glyph glyph-name="afii10095" unicode="&#x44d;" horiz-adv-x="423" 
d="M404 262q0 -108 -69 -196.5t-166 -88.5q-53 0 -93.5 20t-60.5 47q-15 20 -4.5 40.5t31 23t37.5 -15.5q9 -12 32 -23.5t58 -11.5q46 0 89.5 42.5t59.5 106.5l-164 -19q-25 -3 -37.5 16t-4.5 40t33 24l178 20q-5 47 -26.5 75t-51.5 28q-84 0 -140 -61q-17 -19 -39 -13
t-28.5 25.5t7.5 40.5q80 88 200 88q42 0 74.5 -20.5t50 -53t26 -66.5t8.5 -68z" />
    <glyph glyph-name="afii10096" unicode="&#x44e;" horiz-adv-x="656" 
d="M552 271q0 117 -77 117q-73 0 -134.5 -71.5t-61.5 -159.5q0 -42 21.5 -67.5t66.5 -25.5q66 0 125.5 63t59.5 144zM632 271q0 -112 -82.5 -199.5t-182.5 -87.5q-84 0 -126 52t-42 121q0 26 5 56h-54v-183q0 -19 -12 -29.5t-28 -10.5t-28 10.5t-12 29.5v185q-29 6 -29 38
t29 39v136q0 19 12 29.5t28 10.5t28 -10.5t12 -29.5v-135h81q36 76 102 125.5t142 49.5q45 0 77.5 -18.5t49 -49t23.5 -62.5t7 -67z" />
    <glyph glyph-name="afii10097" unicode="&#x44f;" horiz-adv-x="464" 
d="M314 288v92q-148 -40 -194 -87q-11 -11 -11 -21q0 -18 40 -18q93 0 165 34zM398 234l-4 -3v-201q0 -19 -12 -29.5t-28 -10.5t-28 10.5t-12 29.5v148l-273 -181q-11 -7 -23 -7q-16 0 -28 13t-12 29q0 20 19 32l193 124q-13 -7 -52 -7q-51 0 -82.5 20.5t-31.5 60.5
q0 44 35 82t89 62t101.5 39t89.5 22q3 1 7.5 1h7.5q16 0 28 -11t12 -29v-121q27 -10 27 -36q0 -23 -23 -37z" />
    <glyph glyph-name="afii10071" unicode="&#x451;" horiz-adv-x="479" 
d="M440 333q0 -62 -293 -112q-10 -1 -14 -2q-16 -45 -16 -88q0 -39 14.5 -53t52.5 -14q56 0 105 37t70 79q14 21 35 22t34.5 -18t1.5 -41q-30 -58 -96.5 -108.5t-149.5 -50.5q-70 0 -108.5 37.5t-38.5 109.5q0 46 17 101.5t48 107.5t82 87t110 35q77 0 111.5 -40.5
t34.5 -88.5zM356 355q-15 27 -62 27q-64 0 -117 -74q122 22 179 47zM416 556q0 -19 -12 -29.5t-28 -10.5t-28 10.5t-12 29.5v19q0 19 12 29.5t28 10.5t28 -10.5t12 -29.5v-19zM212 556q0 -19 -12 -29.5t-28 -10.5t-28 10.5t-12 29.5v19q0 19 12 29.5t28 10.5t28 -10.5
t12 -29.5v-19z" />
    <glyph glyph-name="afii10099" unicode="&#x452;" horiz-adv-x="497" 
d="M434 127q0 -172 -205 -315q-21 -14 -41 -3t-22 31.5t17 37.5q171 118 171 249v237v13h-2q-33 0 -88 -37.5t-109 -95.5v-213q0 -26 -20 -36t-40 0t-20 36v421l-36 -7q-25 -5 -39 12.5t-7.5 39.5t31.5 27l51 10v87q0 25 20 35.5t40 0t20 -35.5v-71l106 21q15 3 26.5 -3
t16.5 -17t5 -23t-8.5 -22t-23.5 -13l-122 -25v-113q115 102 197 102t82 -93v-237z" />
    <glyph glyph-name="afii10100" unicode="&#x453;" horiz-adv-x="463" 
d="M414 89q-33 -38 -101.5 -71t-138.5 -33q-52 0 -92.5 25t-40.5 75q0 38 18.5 72.5t46 58.5t59.5 47.5t59.5 41t46 37t18.5 37.5q0 9 -23 9h-6q-36 0 -79.5 -18t-65.5 -36q-11 -10 -26 -10q-16 0 -28 12.5t-12 28.5q0 18 15 30q31 26 87.5 49.5t108.5 23.5q24 0 45.5 -5
t42.5 -26.5t21 -57.5q0 -33 -16 -60.5t-33 -41.5t-50 -36.5t-47 -33.5q-6 -5 -25 -18.5t-29 -22t-23 -22t-19 -28t-6 -31.5q0 -20 53 -20q51 0 104 25.5t76 51.5q13 14 29 14q17 0 29.5 -12.5t12.5 -28.5q0 -13 -11 -26zM153 560l109 127q12 15 29 15t29.5 -12t12.5 -28
q0 -15 -10 -26l-109 -127q-12 -15 -30 -15q-16 0 -28.5 12t-12.5 28q0 15 10 26z" />
    <glyph glyph-name="afii10101" unicode="&#x454;" horiz-adv-x="456" 
d="M434 155q-32 -71 -98.5 -121t-143.5 -50q-75 0 -119.5 42.5t-44.5 129.5q0 71 26.5 132t67.5 99t87.5 59.5t89.5 21.5q40 0 76 -21.5t46 -58.5q7 -25 -9.5 -40t-38.5 -10.5t-29 28.5q-10 22 -45 22q-39 0 -87 -31t-76 -84l156 18q25 3 37.5 -16t4.5 -40t-33 -24l-191 -21
q-2 -11 -2 -34q0 -52 20.5 -72t63.5 -20q50 0 98 35.5t72 88.5q10 23 32.5 24t36.5 -16.5t3 -40.5z" />
    <glyph glyph-name="afii10102" unicode="&#x455;" horiz-adv-x="498" 
d="M467 226q0 -65 -46 -122.5t-109 -88.5t-120 -31q-104 0 -149 73q-14 21 -2 41t33 20.5t37 -19.5q13 -22 31.5 -28.5t49.5 -6.5q64 0 129.5 52.5t65.5 109.5q0 18 -4.5 23t-24.5 5q-39 0 -120 -44.5t-124 -44.5q-40 0 -62 27t-22 69q0 64 48.5 114t121 75.5t150.5 25.5
q26 0 36 -20t0 -40t-36 -20q-103 0 -171.5 -43.5t-68.5 -91.5q0 -14 3 -17q20 0 60.5 22.5t90.5 45t94 22.5q56 0 82.5 -29.5t26.5 -78.5z" />
    <glyph glyph-name="afii10103" unicode="&#x456;" horiz-adv-x="200" 
d="M140 33q0 -19 -12 -29.5t-28 -10.5t-28 10.5t-12 29.5v391q0 18 12 29t28 11t28 -11t12 -29v-391zM140 562q0 -18 -12 -29t-28 -11t-28 11t-12 29v24q0 19 12 29.5t28 10.5t28 -10.5t12 -29.5v-24z" />
    <glyph glyph-name="afii10104" unicode="&#x457;" horiz-adv-x="200" 
d="M140 424v-391q0 -19 -12 -29.5t-28 -10.5t-28 10.5t-12 29.5v391q0 18 12 29t28 11t28 -11t12 -29zM243 556q0 -19 -12 -29.5t-28 -10.5t-28 10.5t-12 29.5v19q0 19 12 29.5t28 10.5t28 -10.5t12 -29.5v-19zM39 556q0 -19 -12 -29.5t-28 -10.5t-28 10.5t-12 29.5v19
q0 19 12 29.5t28 10.5t28 -10.5t12 -29.5v-19z" />
    <glyph glyph-name="afii10105" unicode="&#x458;" horiz-adv-x="221" 
d="M153 -54q0 -36 -6.5 -67.5t-21.5 -60.5t-43.5 -46t-67.5 -17q-64 0 -94 25.5t-30 59.5q0 21 10 36t24 15q19 0 34 -26q11 -18 22.5 -24t33.5 -6q59 0 59 111v461q0 19 12 29.5t28 10.5t28 -10.5t12 -29.5v-461zM153 559q0 -19 -12 -29.5t-28 -10.5t-28 10.5t-12 29.5v23
q0 19 12 29.5t28 10.5t28 -10.5t12 -29.5v-23z" />
    <glyph glyph-name="afii10106" unicode="&#x459;" horiz-adv-x="747" 
d="M651 216q0 19 -36 19h-15q-29 0 -91 -18t-115 -40l40 -106q63 13 116 44.5t77 59t24 41.5zM731 216q0 -69 -97.5 -141.5t-218.5 -87.5q-33 -5 -45 27l-48 127q-3 -1 -9 -1q-16 0 -28 12.5t-12 29.5q0 18 17 31l4 2l-40 109q-17 -29 -66 -99.5t-73 -116.5t-24 -80
q0 -19 -12 -29.5t-28 -10.5t-28 10.5t-12 29.5q0 48 26 103.5t59 98.5t69 98t50 98l-2 7q-3 9 -3 16q0 17 12.5 27.5t28.5 10.5q27 0 37 -26l78 -209q61 25 129 44t105 19q131 0 131 -99z" />
    <glyph glyph-name="afii10107" unicode="&#x45a;" horiz-adv-x="724" 
d="M618 216q0 7 -3.5 11t-11 5.5t-12 2t-14.5 0t-11 -0.5q-80 0 -174 -22v-140q64 14 119 45.5t81 58.5t26 40zM698 216q0 -69 -105 -141.5t-227 -88.5q-19 -2 -36.5 11t-17.5 33v161q-94 -28 -171 -62v-99q0 -19 -12 -29.5t-28 -10.5t-28 10.5t-12 29.5v64h-1
q-16 0 -27.5 13t-11.5 29q0 23 21 34l19 10v248q0 19 12 29.5t28 10.5t28 -10.5t12 -29.5v-212q88 35 171 58v154q0 19 12 29.5t28 10.5t28 -10.5t12 -29.5v-134q98 20 174 20q132 0 132 -98z" />
    <glyph glyph-name="afii10108" unicode="&#x45b;" horiz-adv-x="485" 
d="M424 34q0 -19 -12 -29.5t-28 -10.5t-28 10.5t-12 29.5v333v11v2h-3q-33 0 -87 -37.5t-109 -95.5v-213q0 -19 -12 -29.5t-28 -10.5t-28 10.5t-12 29.5v421l-36 -7q-4 -1 -10 -1q-17 0 -27.5 12.5t-10.5 28.5q0 32 32 38l52 11v86q0 19 12 29.5t28 10.5t28 -10.5t12 -29.5
v-70l105 21q4 1 10 1q17 0 27.5 -12t10.5 -29q0 -32 -32 -38l-121 -25v-113q113 102 196 102t83 -93v-333z" />
    <glyph glyph-name="afii10109" unicode="&#x45c;" horiz-adv-x="472" 
d="M458 49q17 -13 17 -31q0 -17 -12.5 -29.5t-28.5 -12.5q-13 0 -24 8l-162 115t-114 82v-151q0 -19 -12 -29.5t-28 -10.5t-28 10.5t-12 29.5v398q0 18 12 29t28 11t28 -11t12 -29v-143q19 18 90.5 74.5l122.5 99.5q13 10 26 10q16 0 28.5 -12.5t12.5 -28.5t-15 -30
l-194 -163zM178 560l109 127q12 15 29 15t29.5 -12t12.5 -28q0 -15 -10 -26l-109 -127q-12 -15 -30 -15q-16 0 -28.5 12t-12.5 28q0 15 10 26z" />
    <glyph glyph-name="afii10110" unicode="&#x45e;" horiz-adv-x="475" 
d="M464 401l-163 -455q-26 -72 -68.5 -109.5t-93.5 -37.5q-57 0 -94.5 33t-50.5 83q-2 8 -2 12q0 17 12.5 27.5t29.5 10.5q30 0 37 -30q15 -56 68 -56q20 0 44 20.5t43 73.5l12 34l-215 381q-6 10 -6 20q0 17 13 28.5t29 11.5q22 0 33 -21l182 -321l115 322q10 26 37 26
q16 0 28.5 -10.5t12.5 -27.5q0 -8 -3 -15zM152 637q1 -7 7.5 -15.5t28 -17.5t52.5 -9q67 0 86 49q10 27 36 27q16 0 29 -11t13 -28q0 -8 -3 -15q-16 -45 -57 -73.5t-104 -28.5q-66 0 -113 30t-54 79q-1 3 -1 8q0 17 12 27.5t29 10.5q33 0 39 -33z" />
    <glyph glyph-name="afii10193" unicode="&#x45f;" horiz-adv-x="480" 
d="M415 28q0 -19 -12 -29.5t-28 -10.5t-28 10.5t-12 29.5v9q-34 -22 -62 -33v-106q0 -19 -12 -29.5t-28 -10.5t-28 10.5t-12 29.5v85q-5 0 -14 -0.5t-13 -0.5q-46 0 -78 24.5t-32 73.5v337q0 19 12 29.5t28 10.5t28 -10.5t12 -29.5v-337q0 -6 1 -9t8 -6t21 -3q9 0 27 2v1v1
q0 18 11.5 28.5t27.5 10.5q22 0 34 -16q32 17 69 46v282q0 19 12 29.5t28 10.5t28 -10.5t12 -29.5v-389z" />
    <glyph glyph-name="afii10050" unicode="&#x490;" horiz-adv-x="474" 
d="M207 187v269q-46 -30 -73.5 -76t-27.5 -90q0 -48 23.5 -76t56.5 -28q4 0 11 0.5t10 0.5zM443 233q-57 -75 -156 -110v-147q0 -18 -12 -29t-28 -11t-28 11t-12 29v131q-7 -1 -21 -1q-73 0 -116.5 54.5t-43.5 129.5q0 76 50 148.5t131 107.5v84q0 19 12 29.5t28 10.5
t28 -10.5t12 -29.5v-61q21 3 44 3q40 0 71 -25t40 -56q2 -5 2 -13q0 -17 -12.5 -28t-28.5 -11q-28 0 -37 29q-3 8 -13 16t-22 8q-25 0 -44 -4v-278q58 28 94 73q12 15 30 15q17 0 29.5 -12t12.5 -28q0 -14 -10 -25z" />
    <glyph glyph-name="afii10098" unicode="&#x491;" horiz-adv-x="485" 
d="M465 313q0 -133 -83 -230t-189 -97q-170 0 -170 162q0 74 25.5 136t65.5 100t87 58.5t93 20.5q40 0 70 -12q-4 10 -15 32q-15 31 -68 64.5t-106 41.5q-25 3 -32.5 24.5t5.5 39.5t38 15q70 -10 139.5 -53.5t95.5 -96.5q25 -50 34.5 -91t9.5 -114zM383 290q-3 8 -3 18
q0 29 -20 52t-66 23q-67 0 -129 -62t-62 -173q0 -46 19 -64t71 -18q77 0 129.5 71.5t60.5 152.5z" />
    <glyph glyph-name="endash" unicode="&#x2013;" horiz-adv-x="500" 
d="M43 332h416q19 0 29.5 -12t10.5 -28t-10.5 -28t-29.5 -12h-416q-19 0 -29.5 12t-10.5 28t10.5 28t29.5 12z" />
    <glyph glyph-name="emdash" unicode="&#x2014;" horiz-adv-x="1000" 
d="M41 330h919q19 0 29.5 -12t10.5 -28t-10.5 -28t-29.5 -12h-919q-19 0 -29.5 12t-10.5 28t10.5 28t29.5 12z" />
    <glyph glyph-name="quoteleft" unicode="&#x2018;" horiz-adv-x="208" 
d="M49 564l41 113q8 24 30.5 27t38 -13.5t6.5 -40.5l-41 -113q-11 -31 -43 -26q-27 4 -33 28q-4 12 1 25z" />
    <glyph glyph-name="quoteright" unicode="&#x2019;" horiz-adv-x="208" 
d="M45 564l41 113q8 24 30.5 27t37.5 -13.5t7 -40.5l-41 -113q-3 -8 -8 -14t-11 -8.5t-12.5 -3.5t-13 0.5t-12.5 4.5t-10.5 8t-7.5 11t-3 13.5t3 15.5z" />
    <glyph glyph-name="quotesinglbase" unicode="&#x201a;" horiz-adv-x="208" 
d="M30 -63l41 112q9 24 31 27t37 -13.5t7 -40.5l-41 -113q-9 -24 -31 -26.5t-37 14t-7 40.5z" />
    <glyph glyph-name="quotedblleft" unicode="&#x201c;" horiz-adv-x="306" 
d="M29 564l41 113q8 24 30.5 27t38 -13.5t6.5 -40.5l-41 -113q-3 -8 -8 -14t-11 -8.5t-12.5 -3.5t-13 0.5t-12.5 4.5t-10.5 8t-7.5 11t-3 13.5t3 15.5zM156 564l41 113q9 24 31 27t37 -13.5t7 -40.5l-41 -113q-9 -24 -31 -27t-37 13.5t-7 40.5z" />
    <glyph glyph-name="quotedblright" unicode="&#x201d;" horiz-adv-x="306" 
d="M31 564l41 113q8 24 30.5 27t38 -13.5t6.5 -40.5l-41 -113q-4 -10 -11 -16.5t-15 -8.5t-17 -1t-16 5.5t-12 11.5t-6 16.5t2 19.5zM158 564l41 113q6 18 21.5 23.5t29.5 0.5t22 -19t2 -32l-41 -113q-3 -9 -9 -15t-13 -8.5t-14.5 -3t-14.5 2.5t-13 7.5t-9.5 11.5t-4 14.5
t2.5 17.5z" />
    <glyph glyph-name="quotedblbase" unicode="&#x201e;" horiz-adv-x="305" 
d="M30 -63l41 112q9 24 31 27t37 -13.5t7 -40.5l-41 -113q-9 -24 -31 -26.5t-37 14t-7 40.5zM157 -63l41 112q8 24 30.5 27t37.5 -13.5t7 -40.5l-41 -113q-9 -24 -31 -26.5t-37 14t-7 40.5z" />
    <glyph glyph-name="dagger" unicode="&#x2020;" horiz-adv-x="449" 
d="M380 400h-117v-367q0 -25 -20 -35.5t-40 0t-20 35.5v367h-110q-25 0 -35.5 20t0 40t35.5 20h110v140q0 25 20 35.5t40 0t20 -35.5v-140h117q25 0 36 -20t0 -40t-36 -20z" />
    <glyph glyph-name="bullet" unicode="&#x2022;" horiz-adv-x="396" 
d="M382 339q0 -61 -26 -105.5t-64.5 -65t-70 -29.5t-55.5 -9q-40 0 -72 19t-49.5 47.5t-26.5 56.5t-9 50q0 59 16.5 102.5t40 66.5t55.5 36.5t55 17t48 3.5q33 0 57.5 -7t49 -25.5t38 -58.5t13.5 -99z" />
    <glyph glyph-name="ellipsis" unicode="&#x2026;" horiz-adv-x="871" 
d="M179 26q0 -19 -12 -29.5t-28 -10.5t-28 10.5t-12 29.5v14q0 19 12 29.5t28 10.5t28 -10.5t12 -29.5v-14zM478 26q0 -19 -12 -29.5t-28 -10.5t-28 10.5t-12 29.5v14q0 19 12 29.5t28 10.5t28 -10.5t12 -29.5v-14zM776 26q0 -19 -12 -29.5t-28 -10.5t-28 10.5t-12 29.5v14
q0 19 12 29.5t28 10.5t28 -10.5t12 -29.5v-14z" />
    <glyph glyph-name="perthousand" unicode="&#x2030;" horiz-adv-x="971" 
d="M296 566q0 -64 -46.5 -113.5t-105.5 -49.5q-52 0 -78 32.5t-26 74.5q0 65 46.5 120t111.5 55q29 0 49.5 -12t30.5 -31.5t14 -38t4 -37.5zM466 617l-231 -599q-9 -23 -31.5 -25.5t-37.5 14t-6 40.5l231 599q9 23 31.5 25.5t37.5 -14t6 -40.5zM596 141q0 -64 -47 -113.5
t-106 -49.5q-52 0 -78 32.5t-26 74.5q0 65 46.5 120t111.5 55q29 0 50 -12t31 -31.5t14 -38t4 -37.5zM216 566q0 39 -18 39q-27 0 -52.5 -29t-25.5 -66q0 -27 24 -27t48 25.5t24 57.5zM516 141q0 39 -19 39q-27 0 -52.5 -29.5t-25.5 -65.5q0 -27 24 -27t48.5 25.5t24.5 57.5
zM926 141q0 -64 -47 -113.5t-106 -49.5q-52 0 -78 32.5t-26 74.5q0 65 46.5 120t111.5 55q29 0 50 -12t31 -31.5t14 -38t4 -37.5zM846 141q0 39 -19 39q-27 0 -52.5 -29.5t-25.5 -65.5q0 -27 24 -27t48.5 25.5t24.5 57.5z" />
    <glyph glyph-name="guilsinglleft" unicode="&#x2039;" horiz-adv-x="283" 
d="M236 141q11 -13 11 -26q0 -16 -12.5 -28.5t-29.5 -12.5q-16 0 -29 14l-59 64l-47.5 50.5t-31.5 35.5t-21 30t-6 24t6 24t21 30t31.5 35l47.5 50l59 64q13 14 29 14q17 0 29.5 -12.5t12.5 -28.5q0 -13 -11 -26l-133 -150z" />
    <glyph glyph-name="guilsinglright" unicode="&#x203a;" horiz-adv-x="283" 
d="M166 292l-133 150q-11 11 -11 26q0 16 12.5 28.5t29.5 12.5q16 0 29 -14l59 -64l47.5 -50t31.5 -35t21 -30t6 -24t-6 -24t-21 -30t-31.5 -35.5l-47.5 -50.5l-59 -64q-13 -14 -29 -14q-17 0 -29.5 12.5t-12.5 28.5q0 15 11 26z" />
    <glyph glyph-name="Euro" unicode="&#x20ac;" 
d="M588 531h-20q-8 54 -53 80t-113 26q-108 0 -158.5 -63t-64.5 -179h346l-16 -33h-333q-1 -9 -1 -31v-32h303l-16 -33h-284q11 -117 69 -181t156 -64q63 0 109.5 26.5t55.5 83.5h20l-7 -78q-56 -65 -192 -65q-130 0 -202.5 71t-86.5 207h-76l16 33h56q-1 8 -1 33q0 22 1 30
h-72l16 33h59q19 135 85 205.5t205 70.5q136 0 192 -60z" />
    <glyph glyph-name="afii61352" unicode="&#x2116;" horiz-adv-x="917" 
d="M794 283q0 53 -28 53q-35 0 -67 -37t-32 -82q0 -38 35 -38q32 0 62 32t30 72zM547 20q0 -20 -12 -31t-28 -11t-28 11t-12 31h-1q-16 35 -48 80t-83 107.5l-58 71.5q-84 110 -126 172v-431q0 -19 -12 -29.5t-28 -10.5t-28 10.5t-12 29.5v603q0 20 12 31t28 11t28 -11
t12 -31q0 -18 27 -65t71 -107.5l84.5 -114l83 -108t50.5 -65.5v460q0 19 12 29.5t28 10.5t28 -10.5t12 -29.5v-603zM834 -17h-217q-19 0 -29.5 12t-10.5 28t10.5 28t29.5 12h217q19 0 29.5 -12t10.5 -28t-10.5 -28t-29.5 -12zM874 283q0 -72 -53 -128t-119 -56q-57 0 -86 36
t-29 82q0 74 53 136.5t126 62.5q59 0 83.5 -41t24.5 -92z" />
    <glyph glyph-name="trademark" unicode="&#x2122;" horiz-adv-x="805" 
d="M746 327q0 -26 -20 -36t-40 0t-20 36v171l-9 -14q-2 -3 -12 -19.5l-17 -28l-17.5 -30t-17 -32t-12 -27.5t-5.5 -22q-1 -27 -20 -38t-38 -0.5t-21 36.5q-3 41 -69 165v-161q0 -25 -20 -36t-40 0t-20 36v349q-8 -18 -29 -21l-97 -18v-306q0 -25 -20 -35.5t-40 0t-20 35.5
v292l-65 -12q-25 -4 -38.5 14t-7 39.5t31.5 25.5l242 43q19 4 32 -6.5t15 -27.5q11 28 43.5 22.5t32.5 -40.5q0 -14 23 -62t53.5 -106t35.5 -69q2 3 40.5 66t62 108t23.5 63q0 26 20 36.5t40 0t20 -36.5v-354z" />
    <glyph glyph-name="approxequal" unicode="&#x2248;" horiz-adv-x="584" 
d="M554 154q0 -78 -56.5 -122t-133.5 -44q-54 0 -83.5 11.5t-64.5 45.5q-29 28 -9 50q20 21 55 8q13 -5 25 -16q22 -19 77 -19q51 0 80.5 24t29.5 62q0 25 -22 47.5t-53.5 40.5l-63 37.5t-53.5 46.5t-22 58q0 32 19.5 56t42.5 35.5t42.5 30t19.5 41.5q0 24 -20 44t-64 20
q-49 0 -85 -28t-36 -56v-493q0 -25 -20 -35.5t-40 0t-20 35.5v315l-53 -12q-15 -3 -27 3t-16.5 17t-5 23t8 22t23.5 13l70 16v96q0 70 64 117t137 47q77 0 120.5 -43.5t43.5 -100.5q0 -39 -19.5 -69.5t-42.5 -45l-42.5 -27.5t-19.5 -21q0 -12 33.5 -33.5t73.5 -44
t73.5 -63.5t33.5 -89z" />
    <glyph glyph-name="lessequal" unicode="&#x2264;" horiz-adv-x="554" 
d="M457 231q21 -14 18.5 -37t-20.5 -32t-41 2l-313 203q-2 1 -6 5q-16 13 -16 34.5t21 32.5l317 170q22 12 41 -1.5t18.5 -34.5t-21.5 -35l-258 -138zM457 70q21 -14 18.5 -37t-20.5 -32t-41 2l-316 204q-21 14 -18.5 37t20.5 32t41 -2z" />
    <glyph glyph-name="greaterequal" unicode="&#x2265;" horiz-adv-x="554" 
d="M460 372q-4 -4 -6 -5l-313 -203q-21 -14 -41 -2t-21 32.5t18 36.5l261 169l-258 138q-21 14 -21.5 35t18.5 34.5t41 1.5l317 -170q21 -11 21 -32.5t-16 -34.5zM457 207l-316 -204q-21 -14 -41 -2t-21 32.5t19 36.5l316 204q21 14 41 2t21 -32.5t-19 -36.5z" />
    <glyph glyph-name="hyphenminus" horiz-adv-x="348" 
d="M280 260l-186 -14h-2q-1 -1 -2 -1q-18 0 -28.5 12.5t-10.5 28.5q0 15 9.5 26.5t27.5 12.5l186 15h4q18 0 28.5 -12t10.5 -28q0 -15 -9.5 -27t-27.5 -13z" />
    <glyph glyph-name="nbspace" horiz-adv-x="250" 
 />
    </font>
</defs>
</svg>
