<?xml version="1.0" standalone="no"?>
<!DOCTYPE svg PUBLIC "-//W3C//DTD SVG 1.1//EN" "http://www.w3.org/Graphics/SVG/1.1/DTD/svg11.dtd" >
<svg>
<metadata>
Created by FontForge 20090622 at Tue Jun 28 14:45:18 2016
 By deploy user
Copyright \251 DoubleAlex Team.      All rights reserved.
</metadata>
<defs>
<font id="EskizTwoC" horiz-adv-x="630" >
  <font-face 
    font-family="EskizTwoC"
    font-weight="400"
    font-stretch="normal"
    units-per-em="1000"
    panose-1="0 0 5 0 0 0 0 0 0 0"
    ascent="686"
    descent="-314"
    x-height="451"
    cap-height="664"
    bbox="-92 -314 1000 866"
    underline-thickness="50"
    underline-position="-50"
    unicode-range="U+0020-U+2265"
  />
<missing-glyph horiz-adv-x="1000" 
 />
    <glyph glyph-name=".notdef" horiz-adv-x="1000" 
 />
    <glyph glyph-name=".null" horiz-adv-x="0" 
 />
    <glyph glyph-name="nonmarkingreturn" horiz-adv-x="333" 
 />
    <glyph glyph-name="space" unicode=" " horiz-adv-x="250" 
 />
    <glyph glyph-name="space" unicode="&#xa0;" horiz-adv-x="250" 
 />
    <glyph glyph-name="exclam" unicode="!" horiz-adv-x="212" 
d="M125 14q0 -9 -6 -14.5t-14 -5.5t-14.5 5.5t-6.5 14.5v32q0 9 6 14.5t14 5.5t14.5 -5.5t6.5 -14.5v-32zM125 149q0 -20 -20 -20q-21 0 -21 20v503q0 20 20 20q21 0 21 -20v-503z" />
    <glyph glyph-name="quotedbl" unicode="&#x22;" horiz-adv-x="302" 
d="M97 469q0 -9 -6 -14.5t-14 -5.5t-14 5.5t-6 14.5v182q0 9 6 14.5t14 5.5t14 -5.5t6 -14.5v-182zM245 469q0 -9 -6 -14.5t-14 -5.5t-14 5.5t-6 14.5v182q0 9 6 14.5t14 5.5t14 -5.5t6 -14.5v-182z" />
    <glyph glyph-name="numbersign" unicode="#" 
d="M409 453h-129l-66 -228h128zM554 453h-104l-66 -228h95q20 0 20 -20t-20 -20h-107l-51 -173q-5 -15 -18 -15q-9 0 -15 5.5t-6 14.5q0 4 1 6l47 162h-128l-51 -173q-5 -15 -18 -15q-9 0 -15 5.5t-6 14.5q0 4 1 6l47 162h-74q-20 0 -20 20t20 20h86l67 228h-79
q-20 0 -20 20t20 20h90l46 156q4 15 19 15q8 0 14 -5.5t6 -14.5q0 -4 -1 -6l-42 -145h128l46 156q4 15 19 15q8 0 14 -5.5t6 -14.5q0 -4 -1 -6l-42 -145h92q20 0 20 -20t-20 -20z" />
    <glyph glyph-name="dollar" unicode="$" 
d="M486 298q0 47 -20 73t-52 26q-33 0 -80 -31v-293q61 11 106.5 77t45.5 148zM294 386v211q-54 -10 -97.5 -63.5t-43.5 -116.5q0 -76 50 -76q14 0 31.5 7.5t27 14t32.5 23.5zM526 298q0 -95 -56 -175.5t-136 -90.5v-105q0 -20 -20 -20t-20 20v104q-73 2 -115.5 25.5
t-63.5 80.5q-2 6 -2 8q0 9 6.5 14t14.5 5q14 0 18 -13q16 -42 47.5 -60t94.5 -20v267q-52 -37 -91 -37q-90 0 -90 116q0 78 54.5 144.5t126.5 76.5v69q0 20 20 20t20 -20v-68q59 -1 90 -14t63 -45q6 -6 6 -14t-6.5 -14t-14.5 -6t-14 6q-25 26 -48.5 36t-75.5 11v-186
q43 24 80 24q53 0 82.5 -40t29.5 -99z" />
    <glyph glyph-name="percent" unicode="%" 
d="M535 128q0 64 -38 64q-37 0 -68 -38.5t-31 -85.5q0 -51 44 -51q32 0 62.5 33.5t30.5 77.5zM236 582q0 65 -39 65q-36 0 -67 -38.5t-31 -86.5q0 -51 44 -51q32 0 62.5 33.5t30.5 77.5zM575 128q0 -59 -41 -105t-92 -46q-42 0 -63 27.5t-21 63.5q0 61 41 112.5t98 51.5
q42 0 60 -31.5t18 -72.5zM447 645l-231 -639q-4 -14 -18 -14q-8 0 -14.5 5.5t-6.5 14.5q0 1 0.5 3t0.5 4l231 640q4 13 18 13q8 0 14.5 -5.5t6.5 -13.5q0 -5 -1 -8zM276 582q0 -58 -41 -104.5t-92 -46.5q-42 0 -63 27.5t-21 63.5q0 61 41 113t97 52q43 0 61 -31.5t18 -73.5z
" />
    <glyph glyph-name="ampersand" unicode="&#x26;" 
d="M414 158l-159 254q-51 -33 -84 -62.5t-60 -85t-27 -125.5q0 -53 25 -82.5t74 -29.5q125 0 231 131zM381 586q0 24 -20 35t-74 11q-25 0 -51.5 -9t-26.5 -29q0 -32 25 -72l34 -55l9 5q104 61 104 114zM605 58l-25.5 -26t-31.5 -29.5t-22 -9.5q-8 0 -15 10l-74 119
q-117 -135 -254 -135q-68 0 -103.5 42.5t-35.5 109.5q0 75 26.5 134.5t64.5 96.5t99 76l-34 55q-31 49 -31 93q0 40 37 59t81 19q62 0 98 -18t36 -68q0 -25 -9.5 -46.5t-31.5 -41t-39 -31.5t-52 -34l151 -241q26 35 58 92q6 10 17 10q8 0 14.5 -5.5t6.5 -13.5q0 -5 -3 -11
q-40 -69 -70 -109l69 -110l46 42q6 6 13 6q8 0 14.5 -6.5t6.5 -14.5t-7 -14z" />
    <glyph glyph-name="quotesingle" unicode="'" horiz-adv-x="146" 
d="M97 469q0 -9 -6 -14.5t-14 -5.5t-14 5.5t-6 14.5v182q0 9 6 14.5t14 5.5t14 -5.5t6 -14.5v-182z" />
    <glyph glyph-name="parenleft" unicode="(" horiz-adv-x="345" 
d="M268 -196q8 -7 8 -15t-6 -14.5t-14 -6.5q-6 0 -13 5q-52 44 -88 104t-53.5 130t-24.5 135t-7 143q0 298 175 404q5 4 11 4q8 0 14 -6.5t6 -14.5q0 -11 -10 -17q-156 -94 -156 -370q0 -161 34 -283.5t124 -197.5z" />
    <glyph glyph-name="parenright" unicode=")" horiz-adv-x="345" 
d="M279 285q0 -78 -7 -143t-24.5 -135t-53.5 -130t-88 -104q-7 -5 -13 -5q-8 0 -14 6.5t-6 14.5t7 15q90 75 124.5 197.5t34.5 283.5q0 276 -156 370q-10 6 -10 17q0 8 5.5 14.5t14.5 6.5q6 0 10 -4q176 -106 176 -404z" />
    <glyph glyph-name="asterisk" unicode="*" horiz-adv-x="369" 
d="M318 557l-89 -25l73 -84q6 -6 6 -13q0 -8 -6.5 -14t-14.5 -6t-15 7l-71 81l-35 -102q-4 -13 -18 -13q-8 0 -14.5 5t-6.5 14q0 5 1 7l34 98l-95 -27q-2 -1 -6 -1q-9 0 -14.5 6.5t-5.5 14.5q0 15 15 19l102 29l-62 70q-6 6 -6 13q0 8 6.5 14.5t14.5 6.5t15 -7l60 -69l26 78
q4 14 18 14q9 0 15 -5.5t6 -14.5q0 -4 -1 -7l-25 -74l82 23q2 1 6 1q9 0 14.5 -6t5.5 -14q0 -14 -15 -19z" />
    <glyph glyph-name="plus" unicode="+" horiz-adv-x="554" 
d="M476 209h-184v-192q0 -9 -6 -14.5t-14 -5.5t-14 5.5t-6 14.5v192h-159q-20 0 -20 20t20 20h159v181q0 9 6 14.5t14 5.5t14 -5.5t6 -14.5v-181h184q20 0 20 -20t-20 -20z" />
    <glyph glyph-name="comma" unicode="," horiz-adv-x="208" 
d="M137 34l-31 -94q-4 -13 -19 -13q-8 0 -14 5t-6 14q0 4 1 7l31 93q4 14 18 14q8 0 14.5 -5.5t6.5 -13.5q0 -5 -1 -7z" />
    <glyph glyph-name="hyphen" unicode="-" horiz-adv-x="348" 
d="M255 281l-161 -16h-2q-20 0 -20 20q0 19 18 20l162 15q0 1 2 1q19 0 19 -21q0 -18 -18 -19z" />
    <glyph glyph-name="hyphen" unicode="&#xad;" horiz-adv-x="348" 
d="M255 281l-161 -16h-2q-20 0 -20 20q0 19 18 20l162 15q0 1 2 1q19 0 19 -21q0 -18 -18 -19z" />
    <glyph glyph-name="period" unicode="." horiz-adv-x="208" 
d="M127 25q0 -20 -20 -20t-20 20v31q0 9 6 14.5t14 5.5t14 -5.5t6 -14.5v-31z" />
    <glyph glyph-name="slash" unicode="/" horiz-adv-x="322" 
d="M299 645l-217 -638q-4 -14 -18 -14q-8 0 -14.5 5.5t-6.5 13.5q0 5 1 8l217 638q4 14 18 14q8 0 14.5 -5.5t6.5 -13.5q0 -1 -0.5 -4t-0.5 -4z" />
    <glyph glyph-name="zero" unicode="0" 
d="M549 439q0 80 -49.5 136.5t-129.5 56.5q-82 0 -147.5 -58.5t-100.5 -156.5t-35 -216q0 -174 142 -174q94 0 168 57.5t113 150.5t39 204zM589 439q0 -117 -42 -219t-125.5 -167.5t-192.5 -65.5q-95 0 -138.5 60t-43.5 154q0 122 37 228t112.5 174.5t173.5 68.5
q99 0 159 -69t60 -164z" />
    <glyph glyph-name="one" unicode="1" 
d="M354 13q0 -9 -6 -14.5t-14 -5.5t-14 5.5t-6 14.5v585l-94 -109q-6 -7 -15 -7q-8 0 -14 6t-6 14t5 13l129 150q8 10 18 10q17 0 17 -23v-639z" />
    <glyph glyph-name="two" unicode="2" 
d="M550 75l-2 -8q-1 -8 -3 -18t-6 -20t-10 -17t-14 -7h-410q-20 0 -20 19q0 4 1 6q22 86 86.5 163t148.5 129l26 16t28 18l24.5 17.5t25 20.5l20 22t17.5 26.5t9.5 28.5t4.5 34q0 57 -34 92t-96 35q-168 0 -217 -152q-4 -14 -18 -14q-8 0 -14.5 5.5t-6.5 13.5q0 1 0.5 3.5
t0.5 3.5q26 82 90 131t165 49q78 0 124 -47t46 -120q0 -43 -16 -78t-45 -60t-59 -44l-67 -43t-60 -44q-99 -90 -137 -191h368l11 41q4 14 19 14q8 0 14.5 -5t6.5 -14q0 -4 -1 -6z" />
    <glyph glyph-name="three" unicode="3" 
d="M568 279q0 -129 -94 -210.5t-242 -81.5q-80 0 -121 38t-48 116v2q0 9 6 14t14 5q19 0 20 -18q5 -63 35 -90t94 -27q134 0 215 70.5t81 181.5q0 57 -31 100.5t-88 43.5q-16 0 -31 -1.5t-31.5 -6.5t-25.5 -8t-27.5 -12.5t-24 -12t-27.5 -15t-25 -14.5q-2 -1 -11 -6.5
t-14 -7.5q-6 -2 -9 -2q-9 0 -14.5 6t-5.5 14q0 12 12 18q8 4 22 12q78 50 228 237h-284l-12 -91q-1 -17 -19 -17q-8 0 -14.5 5t-6.5 14q0 2 1 3q1 7 2 26t2 34t4 31.5t9.5 25.5t15.5 9h344q22 0 22 -17q0 -7 -6 -15q-49 -63 -109 -130q-13 -16 -46 -51q41 12 81 12
q78 0 118.5 -58t40.5 -126z" />
    <glyph glyph-name="four" unicode="4" 
d="M396 273v327q-53 -56 -137 -183.5t-135 -182.5zM571 257l-135 -19v-231q0 -9 -6 -14.5t-14 -5.5t-14 5.5t-6 14.5v225l-332 -47h-4q-21 0 -21 17q0 12 12 19q38 25 88 90.5t90.5 131t89.5 130t86 88.5q7 4 14 4q17 0 17 -21v-366l129 19h4q9 0 14 -6t5 -14q0 -17 -17 -20
z" />
    <glyph glyph-name="five" unicode="5" 
d="M562 278q0 -55 -19.5 -103t-52 -81.5t-73.5 -58t-84.5 -36.5t-84.5 -12q-128 0 -175 109q-2 3 -2 9q0 8 6.5 13.5t14.5 5.5q12 0 17 -12q39 -85 139 -85q64 0 125.5 28.5t105 88t43.5 134.5q0 147 -160 147q-102 0 -252 -134q-8 -7 -17 -7q-17 0 -17 19q0 6 2 10
q24 71 24 273v30v1q0 7 5.5 13t12.5 7l361 35h2q20 0 20 -20q0 -19 -19 -20l-342 -33v-8q0 -141 -13 -231q129 105 233 105q102 0 151 -51.5t49 -135.5z" />
    <glyph glyph-name="six" unicode="6" 
d="M558 275q0 57 -38.5 86.5t-84.5 29.5q-83 0 -175 -84t-147 -178q27 -46 69.5 -74t95.5 -28q64 0 128.5 33t108 91.5t43.5 123.5zM598 275q0 -78 -50.5 -146t-124 -105t-145.5 -37q-118 0 -190 106q-2 -1 -7 -1q-7 0 -13 5.5t-6 14.5q0 7 5 17q-28 59 -28 123
q0 87 34.5 169t86.5 137.5t113.5 89t116.5 33.5q67 0 101 -22.5t55 -61.5q2 -6 2 -10q0 -8 -6.5 -13.5t-14.5 -5.5q-11 0 -17 10q-11 20 -21 31.5t-35.5 21.5t-63.5 10q-45 0 -99 -30t-101 -79.5t-79 -124.5t-32 -155q0 -40 14 -80q65 101 158.5 180t183.5 79q59 0 111 -39
t52 -117z" />
    <glyph glyph-name="seven" unicode="7" 
d="M554 657q-67 -120 -174.5 -349.5t-125.5 -305.5q-3 -16 -19 -16q-8 0 -14 5.5t-6 14.5v5q18 74 112 277t170 346q-95 -19 -341 -32l-13 -73q-3 -17 -19 -17q-8 0 -14 5t-6 14v4q1 6 2.5 22t3 28.5t5 26t9.5 21.5t14 8q12 0 91.5 5t178.5 15.5t119 22.5q7 4 14 4
q17 0 17 -17q0 -7 -4 -14z" />
    <glyph glyph-name="eight" unicode="8" 
d="M548 307q0 37 -42.5 64.5t-112.5 27.5q-54 0 -125.5 -34.5t-127.5 -97t-56 -128.5q0 -42 31.5 -77.5t81.5 -35.5q71 0 154.5 47.5t140 114t56.5 119.5zM439 568q0 76 -112 76q-69 0 -116.5 -45t-47.5 -118q0 -21 5.5 -35.5t19 -22.5t21 -11.5t26 -7t19.5 -3.5
q38 18 80 30q1 1 21 17t37 31.5t32 40.5t15 48zM588 307q0 -67 -64 -143t-156.5 -127t-170.5 -51q-69 0 -111 47.5t-42 105.5q0 68 44 128.5t114 104.5q-38 11 -58.5 36.5t-20.5 72.5q0 90 60 146.5t144 56.5q73 0 112.5 -30.5t39.5 -85.5q0 -65 -72 -129q76 -4 128.5 -39.5
t52.5 -92.5z" />
    <glyph glyph-name="nine" unicode="9" 
d="M492 513q0 50 -38 84t-116 34q-96 0 -160.5 -61.5t-64.5 -143.5q0 -43 34.5 -76t88.5 -33q85 0 170.5 62t85.5 134zM562 378q0 -91 -42 -181t-119 -150.5t-165 -60.5q-46 0 -79.5 13t-53.5 37.5t-29.5 44.5t-19.5 50q-2 6 -2 7q0 9 6.5 14.5t14.5 5.5q13 0 19 -14
q9 -27 17 -44t23.5 -36t41.5 -28.5t62 -9.5q74 0 141 52.5t106 134t39 165.5q0 32 -5 70q-32 -72 -118 -121.5t-163 -49.5q-70 0 -116.5 44.5t-46.5 104.5q0 99 76.5 172t188.5 73q74 0 118.5 -27t73.5 -92q32 -72 32 -174z" />
    <glyph glyph-name="colon" unicode=":" horiz-adv-x="208" 
d="M127 19q0 -9 -6 -14.5t-14 -5.5t-14 5.5t-6 14.5v31q0 20 20 20t20 -20v-31zM127 355q0 -20 -20 -20t-20 20v31q0 9 6 14.5t14 5.5t14 -5.5t6 -14.5v-31z" />
    <glyph glyph-name="semicolon" unicode=";" horiz-adv-x="208" 
d="M118 28l-41 -121q-4 -13 -18 -13q-8 0 -14.5 5t-6.5 14q0 3 2 7l40 121q6 14 19 14q8 0 14 -5.5t6 -14.5q0 -4 -1 -7zM124 357q0 -20 -20 -20t-20 20v31q0 9 6 14.5t14 5.5t14 -5.5t6 -14.5v-31z" />
    <glyph glyph-name="less" unicode="&#x3c;" horiz-adv-x="554" 
d="M416 406l-292 -165l286 -200q9 -5 9 -16q0 -8 -6 -14.5t-14 -6.5q-4 0 -12 4q-33 23 -125 80t-143.5 96t-51.5 61q0 9 10 15l320 181q5 3 10 3q8 0 14 -6.5t6 -14.5q0 -10 -11 -17z" />
    <glyph glyph-name="equal" unicode="=" horiz-adv-x="554" 
d="M448 107h-383q-20 0 -20 20t20 20h383q20 0 20 -20t-20 -20zM448 307h-383q-20 0 -20 20t20 20h383q20 0 20 -20t-20 -20z" />
    <glyph glyph-name="greater" unicode="&#x3e;" horiz-adv-x="554" 
d="M439 226l-312 -218q-8 -4 -12 -4q-8 0 -14 6.5t-6 14.5q0 11 9 16l286 200l-292 165q-11 7 -11 17q0 8 6 14.5t14 6.5q5 0 10 -3l107 -51.5t161 -86t62 -62.5q0 -10 -8 -15z" />
    <glyph glyph-name="question" unicode="?" horiz-adv-x="412" 
d="M172 14q0 -9 -6 -14.5t-14 -5.5t-14 5.5t-6 14.5v31q0 20 20 20t20 -20v-31zM382 574q0 -35 -28 -74.5t-67.5 -74.5l-79 -68.5t-67.5 -66.5t-28 -59q0 -22 7 -30t29 -8q47 0 71 39q5 9 16 9q9 0 15 -5.5t6 -14.5q0 -5 -3 -11q-37 -57 -105 -57q-76 0 -76 78q0 33 28 71.5
t67.5 73l79 68t67.5 68t28 62.5q0 34 -24 56.5t-68 22.5q-101 0 -207 -143q-5 -8 -15 -8q-8 0 -14.5 6t-6.5 14q0 7 4 12q119 159 239 159q60 0 96 -33.5t36 -85.5z" />
    <glyph glyph-name="at" unicode="@" horiz-adv-x="753" 
d="M495 469q0 30 -9 41t-32 11q-48 0 -107.5 -46t-102.5 -121t-43 -147q0 -29 12 -40t38 -11q22 0 62.5 30t81 74.5t70.5 102.5t30 106zM709 410q0 -115 -53.5 -214t-125.5 -99q-63 0 -63 69q0 4 0.5 11t0.5 10l13 123q-49 -78 -118.5 -136t-111.5 -58q-90 0 -90 91
q0 80 47 164t116 137t130 53q31 0 51 -14q3 14 19 14q8 0 14 -5t6 -14v-3l-36 -356q-2 -14 -2 -21q0 -25 24 -25q47 0 93 82.5t46 190.5q0 245 -192 245q-107 0 -203 -68.5t-150.5 -167.5t-54.5 -195q0 -100 45.5 -149t126.5 -49q49 0 81 15.5t78 51.5q5 5 13 5t14 -6.5
t6 -14.5q0 -10 -8 -15q-51 -41 -89 -58.5t-95 -17.5q-99 0 -155.5 61.5t-56.5 176.5q0 78 35.5 161.5t94 152t143.5 113t175 44.5q63 0 109.5 -22.5t72.5 -63t38 -89.5t12 -110z" />
    <glyph glyph-name="A" unicode="A" 
d="M441 313l-107 285l-123 -299zM592 20q2 -6 2 -8q0 -8 -6.5 -13.5t-14.5 -5.5q-14 0 -18 13l-100 267l-261 -15l-105 -252q-4 -13 -18 -13q-8 0 -14 5.5t-6 13.5q0 6 1 9l265 639q6 16 18 16q13 0 19 -16z" />
    <glyph glyph-name="B" unicode="B" horiz-adv-x="613" 
d="M545 304q0 46 -41 69.5t-113 23.5q-87 0 -245 -30q-1 -1 -3 -1v-333q50 1 115 19t131 50t111 85.5t45 116.5zM471 598q0 29 -80 29q-66 0 -135 -19.5t-110 -41.5h-1q-1 -1 -2 -1v-158l45.5 12.5l59.5 17t61.5 20t61.5 26.5t50 31t37.5 38.5t12.5 45.5zM585 304
q0 -63 -36 -117.5t-89 -89t-116.5 -59t-117 -35t-90.5 -10.5h-2q-31 0 -31 20v630q0 20 20 20t20 -20v-34q120 58 248 58q120 0 120 -69q0 -97 -145 -161h25q81 0 137.5 -31.5t56.5 -101.5z" />
    <glyph glyph-name="C" unicode="C" horiz-adv-x="539" 
d="M511 582q4 -8 4 -11q0 -8 -6.5 -14t-14.5 -6q-10 0 -17 10q-16 26 -54.5 48.5t-92.5 22.5q-92 0 -167.5 -111.5t-75.5 -256.5q0 -101 41 -173t113 -72q62 0 127.5 51t86.5 94q5 11 18 11q8 0 14 -5.5t6 -13.5q0 -6 -2 -9q-25 -51 -99.5 -109.5t-150.5 -58.5
q-50 0 -89 26.5t-61 69.5t-33 91t-11 98q0 101 37.5 194.5t103.5 153.5t142 60q65 0 112 -27.5t69 -62.5z" />
    <glyph glyph-name="D" unicode="D" horiz-adv-x="608" 
d="M524 447q0 81 -49.5 133.5t-129.5 52.5q-70 0 -128 -18t-84 -38v-543q162 27 276.5 139t114.5 274zM564 447q0 -93 -37 -174.5t-99 -138t-139 -93t-161 -48.5h-8q-27 0 -27 20v629q0 20 20 20t20 -20v-19q92 50 212 50q97 0 158 -65t61 -161z" />
    <glyph glyph-name="E" unicode="E" horiz-adv-x="560" 
d="M499 28l-384 -35h-2q-8 0 -14 5.5t-6 14.5v289h-2q-20 0 -20 20q0 17 18 20h4v235h-2q-20 0 -20 20q0 19 19 20h3v26q0 9 6 14.5t14 5.5t14 -5.5t6 -14.5v-23l335 26h2q9 0 14 -6t5 -14q0 -18 -18 -20l-338 -26v-233l286 36h3q9 0 14 -6t5 -14q0 -17 -17 -20l-291 -36
v-272l362 32q1 1 3 1q9 0 14 -6.5t5 -14.5q0 -17 -18 -19z" />
    <glyph glyph-name="F" unicode="F" horiz-adv-x="498" 
d="M443 628l-311 -48v-216l279 40h4q19 0 19 -21q0 -16 -17 -19l-285 -41v-310q0 -9 -6 -14.5t-14 -5.5t-14 5.5t-6 14.5v305l-5 -1h-3q-20 0 -20 20q0 17 17 20l11 1v216l-5 -1h-4q-9 0 -14 6t-5 14q0 17 17 20l11 2v29q0 9 6 14.5t14 5.5t14 -5.5t6 -14.5v-23l305 47h4
q19 0 19 -21q0 -16 -17 -19z" />
    <glyph glyph-name="G" unicode="G" horiz-adv-x="715" 
d="M671 373q-9 -160 -125 -274.5t-270 -114.5q-27 0 -53.5 5t-60 22t-58 44.5t-42 78.5t-17.5 118q0 113 65.5 211.5t166 153.5t204.5 55q65 0 102.5 -26t51.5 -59q2 -3 2 -9q0 -9 -6 -14.5t-14 -5.5q-12 0 -18 12q-27 62 -118 62q-94 0 -185.5 -50.5t-151 -139.5
t-59.5 -190q0 -59 14 -102.5t34.5 -67t48.5 -37.5t49.5 -17.5t44.5 -3.5q130 0 231.5 93t120.5 229q-145 -45 -239 -45q-20 0 -20 20t20 20q52 0 136.5 19.5t118.5 32.5q3 2 10 2q17 0 17 -20v-2z" />
    <glyph glyph-name="H" unicode="H" horiz-adv-x="626" 
d="M537 13q0 -9 -6 -14.5t-14 -5.5t-14 5.5t-6 14.5v360v1q0 10 -2 18t-8.5 16.5t-21.5 13.5t-38 5q-105 0 -296 -84v-330q0 -9 -6 -14.5t-14 -5.5t-14 5.5t-6 14.5v312q-6 -2 -8 -2q-8 0 -13.5 6.5t-5.5 14.5q0 13 12 18l15 7v275q0 9 6 14.5t14 5.5t14 -5.5t6 -14.5v-257
q185 80 296 80q44 0 70 -16v193q0 9 6 14.5t14 5.5t14 -5.5t6 -14.5v-631z" />
    <glyph glyph-name="I" unicode="I" horiz-adv-x="220" 
d="M130 13q0 -20 -20 -20t-20 20v631q0 9 6 14.5t14 5.5t14 -5.5t6 -14.5v-631z" />
    <glyph glyph-name="J" unicode="J" horiz-adv-x="520" 
d="M441 195q0 -74 -77 -141t-177 -67q-39 0 -68.5 11t-45.5 26.5t-25.5 37t-12.5 39t-3 35.5q0 35 20 57q5 8 15 8q8 0 14.5 -6t6.5 -14q0 -6 -5 -13q-11 -14 -11 -32q0 -109 115 -109q86 0 150 56.5t64 111.5v448q0 20 20 20t20 -20v-448z" />
    <glyph glyph-name="K" unicode="K" horiz-adv-x="560" 
d="M542 13q6 -6 6 -13q0 -8 -6.5 -14.5t-14.5 -6.5t-14 7l-374 392v-366q0 -9 -6 -14.5t-14 -5.5t-14 5.5t-6 14.5v632q0 9 6 14.5t14 5.5t14 -5.5t6 -14.5v-198l259 213q5 5 13 5t14 -6t6 -14q0 -9 -7 -16l-263 -215z" />
    <glyph glyph-name="L" unicode="L" horiz-adv-x="465" 
d="M413 35l-297 -42h-3q-8 0 -14 5.5t-6 14.5v631q0 9 6 14.5t14 5.5t14 -5.5t6 -14.5v-608l275 38h3q9 0 14 -6t5 -14q0 -18 -17 -19z" />
    <glyph glyph-name="M" unicode="M" horiz-adv-x="755" 
d="M664 13q0 -9 -6 -14.5t-14 -5.5t-14 5.5t-6 14.5v496l-5 -11q-15 -32 -79 -143t-110.5 -204.5t-48.5 -137.5q0 -21 -20 -21q-19 0 -20 20q-4 56 -40 143.5t-94 204t-73 149.5v-496q0 -9 -6 -14.5t-14 -5.5t-14 5.5t-6 14.5v631q0 21 20 21t20 -21q0 -18 8.5 -46t25.5 -67
l28.5 -63.5l32.5 -66l22 -43.5q89 -182 112 -258q21 54 89 173t120 221.5t52 149.5q0 21 20 21t20 -21v-631z" />
    <glyph glyph-name="N" unicode="N" horiz-adv-x="612" 
d="M520 14q0 -21 -20 -21t-20 21q0 10 -29.5 55t-62.5 90.5l-68 91.5l-34 46q-119 160 -162 239v-522q0 -20 -20 -20t-20 20v629q0 21 20 21t20 -21q0 -38 68.5 -143t168 -238t119.5 -164v545q0 20 20 20t20 -20v-629z" />
    <glyph glyph-name="O" unicode="O" horiz-adv-x="596" 
d="M512 376q0 276 -163 276q-69 0 -130.5 -59t-97.5 -150.5t-36 -184.5q0 -89 41 -162t115 -73q85 0 148.5 53.5t93 132.5t29.5 167zM552 376q0 -54 -11.5 -108.5t-37 -106t-61 -91t-87.5 -63.5t-114 -24q-52 0 -92 28t-61.5 72t-32 88.5t-10.5 86.5q0 98 38 197t109.5 168
t156.5 69q203 0 203 -316z" />
    <glyph glyph-name="P" unicode="P" horiz-adv-x="543" 
d="M476 573q0 27 -20 39t-78 12q-43 0 -116.5 -27t-134.5 -60v-171q137 20 243 91.5t106 115.5zM516 573q0 -67 -121 -147t-268 -100v-313q0 -9 -6 -14.5t-14 -5.5t-14 5.5t-6 14.5v500q-8 -4 -12 -4q-8 0 -14 6.5t-6 14.5q0 10 9 16q7 5 23 15v83q0 9 6 14.5t14 5.5
t14 -5.5t6 -14.5v-62q158 82 251 82q67 0 102.5 -20.5t35.5 -70.5z" />
    <glyph glyph-name="Q" unicode="Q" horiz-adv-x="617" 
d="M532 417q0 36 -8 73.5t-24 74t-46.5 59.5t-70.5 23q-74 0 -144.5 -60t-113.5 -156t-43 -195q0 -217 142 -217q106 0 196 95l-100 109q-6 6 -6 13q0 8 6.5 14.5t14.5 6.5t14 -7l97 -106q86 113 86 273zM600 -22q6 -7 6 -14q0 -8 -6.5 -14t-14.5 -6t-14 7l-124 133
q-102 -105 -223 -105q-96 0 -139 70.5t-43 186.5q0 105 46 209.5t126 173t169 68.5q44 0 79 -20.5t55 -51t33 -69t17.5 -70t4.5 -59.5q0 -179 -98 -302z" />
    <glyph glyph-name="R" unicode="R" horiz-adv-x="577" 
d="M456 570q0 54 -78 54q-89 0 -247 -80v-164q171 39 243 81q82 47 82 109zM539 29q7 -7 7 -15t-6 -14.5t-14 -6.5t-13 5l-382 316v-301q0 -9 -6 -14.5t-14 -5.5t-14 5.5t-6 14.5v509l-3 -2q-6 -3 -11 -3q-8 0 -14 6.5t-6 14.5q0 12 11 17l23 13v76q0 9 6 14.5t14 5.5
t14 -5.5t6 -14.5v-56q14 7 46 21q124 55 201 55q61 0 89.5 -27t28.5 -67q0 -41 -25 -76t-58.5 -57t-86 -42.5t-87 -29.5t-82.5 -20z" />
    <glyph glyph-name="S" unicode="S" horiz-adv-x="626" 
d="M573 289q0 -59 -24 -109.5t-62 -85t-85.5 -59.5t-95 -36.5t-89.5 -11.5q-136 0 -160 144v4q0 9 6 14t14 5q17 0 20 -16q8 -50 33.5 -80.5t86.5 -30.5q68 0 139 29t124 91t53 142q0 49 -26 65t-73 16t-135 -31t-133 -31q-58 0 -83.5 23.5t-25.5 72.5q0 101 92.5 184.5
t200.5 83.5q98 0 144 -68q3 -6 3 -11q0 -9 -6 -14.5t-15 -5.5q-11 0 -16 9q-31 50 -110 50q-93 0 -173 -72.5t-80 -155.5q0 -31 13 -43.5t56 -12.5q40 0 129.5 31t138.5 31q139 0 139 -121z" />
    <glyph glyph-name="T" unicode="T" horiz-adv-x="466" 
d="M443 639l-202 -38v-588q0 -9 -6 -14.5t-14 -5.5t-14 5.5t-6 14.5v580l-162 -31h-4q-20 0 -20 20q0 16 17 19l403 78h4q20 0 20 -20q0 -17 -16 -20z" />
    <glyph glyph-name="U" unicode="U" horiz-adv-x="579" 
d="M491 184q0 -58 -47.5 -105.5t-107 -69.5t-108.5 -22q-138 0 -138 132v525q0 9 6 14.5t14 5.5t14 -5.5t6 -14.5v-525q0 -46 22 -69t76 -23q72 0 147.5 47.5t75.5 109.5v460q0 9 6 14.5t14 5.5t14 -5.5t6 -14.5v-460z" />
    <glyph glyph-name="V" unicode="V" horiz-adv-x="495" 
d="M488 634q-153 -272 -210 -395q-66 -145 -82 -236q-3 -18 -20 -18q-20 0 -20 22q0 49 -14 123t-28.5 127l-41.5 144.5l-35 118.5q-25 88 -27 122v2q0 9 6 14.5t14 5.5q19 0 20 -19q3 -34 15.5 -84t34 -118t25.5 -84q44 -147 60 -243q14 39 29.5 78t36.5 82.5l36 73.5
l42 80l39.5 72l44.5 79l41 73q6 10 16 10q8 0 14.5 -6t6.5 -14q0 -6 -3 -10z" />
    <glyph glyph-name="W" unicode="W" horiz-adv-x="692" 
d="M686 644q0 -31 -28 -129.5t-70.5 -230.5t-49.5 -156q-28 -94 -29 -116q-1 -21 -20 -21q-18 0 -20 20q-2 22 -19.5 78.5t-41 124l-27.5 79.5q-46 136 -71 235q-32 -143 -83.5 -320.5t-71.5 -205.5q-9 -12 -19 -12q-7 0 -12.5 6.5t-5.5 16.5q0 17 -16 113q-3 20 -26 149
t-40 233.5t-17 132.5q0 5 1 6q3 17 19 17q8 0 14 -5.5t6 -14.5v-4v-4q0 -21 19 -134l42 -246t28 -165q39 117 91 315.5t52 237.5q0 21 20 21q19 0 20 -21q1 -42 19.5 -116.5t37.5 -133l50.5 -150t39.5 -117.5q1 -5 5 -15t5 -15q11 40 53 171.5l73.5 239t31.5 136.5
q0 9 6 14.5t14 5.5t14 -5.5t6 -14.5z" />
    <glyph glyph-name="X" unicode="X" horiz-adv-x="441" 
d="M426 624q-70 -93 -179 -274l50.5 -102l62.5 -124.5l54 -100.5q3 -4 3 -10q0 -8 -6.5 -14t-14.5 -6q-10 0 -17 10q-46 84 -156 307q-111 -187 -166 -305q-6 -12 -18 -12q-8 0 -14 5.5t-6 14.5q0 6 2 9q61 130 180 330q-89 176 -163 280q-4 5 -4 12q0 8 6 14t14 6
q10 0 16 -9q74 -104 156 -263q96 159 168 256q5 8 15 8q8 0 14.5 -6t6.5 -14q0 -7 -4 -12z" />
    <glyph glyph-name="Y" unicode="Y" horiz-adv-x="560" 
d="M544 630l-249 -268v-1v-347q0 -9 -6 -14.5t-14 -5.5t-14 5.5t-6 14.5v347v1l-237 268q-6 8 -6 14q0 8 6.5 14t14.5 6t15 -7l227 -257l240 257q7 7 15 7t14 -6t6 -14t-6 -14z" />
    <glyph glyph-name="Z" unicode="Z" horiz-adv-x="510" 
d="M494 640l-424 -605l407 17h1q20 0 20 -20t-19 -20l-448 -19h-2q-21 0 -21 17q0 6 6 15l424 604l-324 -21h-2q-19 0 -19 21q0 19 18 19l366 24h2q21 0 21 -17q0 -6 -6 -15z" />
    <glyph glyph-name="bracketleft" unicode="[" horiz-adv-x="341" 
d="M299 -210l-69.5 -12t-91.5 -11q-45 0 -45 23v842q0 6 5 12t10 8l172 43h5q9 0 14.5 -6t5.5 -14q0 -16 -16 -19l-156 -39v-805l162 18h3q19 0 19 -21q0 -18 -18 -19z" />
    <glyph glyph-name="backslash" unicode="\" horiz-adv-x="322" 
d="M297 16q1 -3 1 -7q0 -9 -6 -14.5t-14 -5.5q-13 0 -19 14l-214 632q-1 3 -1 8q0 8 6.5 13.5t14.5 5.5q14 0 18 -14z" />
    <glyph glyph-name="bracketright" unicode="]" horiz-adv-x="341" 
d="M260 -167q0 -6 -5 -12t-10 -8l-171 -43h-6q-9 0 -14 6t-5 14q0 16 15 19l156 39v805l-162 -18h-2q-20 0 -20 21q0 18 18 19q5 1 69.5 11.5t92.5 10.5q44 0 44 -22v-842z" />
    <glyph glyph-name="asciicircum" unicode="^" horiz-adv-x="554" 
d="M472 444q5 -7 5 -13q0 -8 -6.5 -14t-14.5 -6q-9 0 -15 8l-146 186l-159 -186q-5 -8 -15 -8q-8 0 -14.5 6t-6.5 14q0 7 6 13l175 205q4 7 13 7q18 0 49 -32.5t56.5 -69.5t48.5 -74z" />
    <glyph glyph-name="underscore" unicode="_" horiz-adv-x="500" 
d="M501 -110h-501q-20 0 -20 20t20 20h501q20 0 20 -20t-20 -20z" />
    <glyph glyph-name="grave" unicode="`" horiz-adv-x="263" 
d="M214 549q4 -5 4 -12q0 -8 -6.5 -14t-14.5 -6q-10 0 -15 8l-128 176q-4 5 -4 12q0 8 6 14t14 6q11 0 16 -8z" />
    <glyph glyph-name="a" unicode="a" horiz-adv-x="512" 
d="M399 182v71q-44 -2 -97 -17t-104 -40t-85 -66t-34 -88q0 -12 30 -12h3q68 0 146.5 48t138.5 102zM439 17q0 -9 -6 -14.5t-14 -5.5t-14 5.5t-6 14.5v112q-165 -139 -287 -139q-73 0 -73 52q0 56 37 105t93 79t116.5 47.5t113.5 19.5v88q0 25 -7 33t-30 8
q-67 0 -118.5 -26.5t-107.5 -79.5q-6 -6 -13 -6q-8 0 -14.5 6.5t-6.5 14.5t7 14q61 58 119.5 87.5t133.5 29.5q77 0 77 -81v-364z" />
    <glyph glyph-name="b" unicode="b" horiz-adv-x="463" 
d="M387 370q0 20 -11 28.5t-39 8.5q-58 0 -118 -37.5t-105 -84.5l-2 -2v-250q71 19 136 77.5t102 129.5t37 130zM427 370q0 -116 -107 -242.5t-239 -140.5h-2q-20 0 -20 20q0 15 13 19v618q0 9 6 14.5t14 5.5t14 -5.5t6 -14.5v-304q118 107 225 107q90 0 90 -77z" />
    <glyph glyph-name="c" unicode="c" horiz-adv-x="456" 
d="M411 160q-30 -71 -91.5 -120.5t-132.5 -49.5q-67 0 -105.5 39.5t-38.5 122.5q0 136 82.5 223t168.5 87q34 0 64.5 -19t38.5 -50q0 -1 0.5 -3t0.5 -3q0 -9 -6.5 -14.5t-14.5 -5.5q-15 0 -19 15q0 2 -2 6q-16 34 -62 34q-30 0 -65.5 -18t-68.5 -50t-55 -85.5t-22 -116.5
q0 -66 27 -94t77 -28q56 0 108.5 42t79.5 103q4 13 17 13q9 0 15 -5.5t6 -14.5q0 -5 -2 -8z" />
    <glyph glyph-name="d" unicode="d" horiz-adv-x="513" 
d="M393 313q0 25 -3.5 40t-12.5 21t-16.5 7t-22.5 1q-50 0 -112.5 -49t-107 -122t-44.5 -135q0 -29 9.5 -39t32.5 -10q41 0 107.5 50t118 119t51.5 117zM438 14q0 -20 -20 -20t-20 20v195q-49 -83 -136.5 -152.5t-145.5 -69.5q-82 0 -82 89q0 71 48.5 153t120.5 137.5
t135 55.5q40 0 60 -14v236q0 9 6 14.5t14 5.5t14 -5.5t6 -14.5v-630z" />
    <glyph glyph-name="e" unicode="e" horiz-adv-x="444" 
d="M367 351q-7 64 -86 64q-49 0 -89 -37t-68 -95q170 33 223 57zM408 341q0 -10 -13.5 -20.5t-38.5 -19.5t-51.5 -17.5t-60.5 -16l-57 -12.5t-50 -10t-31 -6q-22 -64 -22 -114q0 -52 21 -73.5t67 -21.5q62 0 115 43t77 93q6 11 18 11q8 0 14.5 -5.5t6.5 -13.5q0 -4 -3 -10
q-28 -58 -90 -108t-138 -50q-128 0 -128 135q0 65 27 139.5t83.5 132.5t126.5 58q36 0 62.5 -11.5t40 -30t19 -36.5t5.5 -36z" />
    <glyph glyph-name="f" unicode="f" horiz-adv-x="315" 
d="M317 625q3 -5 3 -10q0 -8 -6.5 -14t-14.5 -6q-10 0 -16 10q-23 39 -78 39q-71 0 -71 -179v-34v-4v-2l162 33h5q9 0 14 -6t5 -14q0 -16 -16 -19l-170 -35v-371q0 -9 -6 -14.5t-14 -5.5t-14 5.5t-6 14.5v363l-78 -17h-5q-19 0 -19 21q0 15 16 19l86 17v11v3v27q0 43 3 74.5
t13 70.5t34 60.5t61 21.5q78 0 112 -59z" />
    <glyph glyph-name="g" unicode="g" horiz-adv-x="476" 
d="M353 415h-5q-36 0 -82 -24.5t-89.5 -66t-73 -107t-29.5 -138.5q0 -45 24 -45q37 0 98 56.5t110 142.5t49 155q0 18 -2 27zM401 21q0 -108 -47 -171.5t-129 -63.5q-52 0 -80 14t-51 45q-4 5 -4 12q0 8 6.5 14t14.5 6q10 0 15 -8q17 -23 36.5 -33t62.5 -10q61 0 98.5 49.5
t37.5 145.5v232q-46 -100 -126.5 -179.5t-136.5 -79.5q-32 0 -48 23t-16 62q0 79 32 151.5t80 120t102 76t100 28.5q14 0 26 -3q6 -1 16.5 -13t10.5 -19v-399z" />
    <glyph glyph-name="h" unicode="h" horiz-adv-x="479" 
d="M407 13q0 -9 -6 -14.5t-14 -5.5t-14 5.5t-6 14.5v356v11q0 14 -4 20t-18 6q-40 0 -99 -44t-116 -110l-2 -2v-237q0 -9 -6 -14.5t-14 -5.5t-14 5.5t-6 14.5v631q0 9 6 14.5t14 5.5t14 -5.5t6 -14.5v-334q128 136 217 136q34 0 48 -18.5t14 -58.5v-356z" />
    <glyph glyph-name="i" unicode="i" horiz-adv-x="200" 
d="M125 14q0 -9 -6 -14.5t-14 -5.5t-14 5.5t-6 14.5v418q0 9 6 14.5t14 5.5t14 -5.5t6 -14.5v-418zM125 564q0 -20 -20 -20t-20 20v41q0 9 6 14.5t14 5.5t14 -5.5t6 -14.5v-41z" />
    <glyph glyph-name="j" unicode="j" horiz-adv-x="221" 
d="M138 -70q0 -32 -4.5 -60.5t-16.5 -57.5t-37 -46.5t-61 -17.5q-46 0 -69 17t-39 46q-3 6 -3 11q0 8 6.5 13.5t14.5 5.5q11 0 17 -10q8 -15 14 -22t21 -14t38 -7q79 0 79 142v491q0 20 20 20t20 -20v-491zM138 568q0 -9 -6 -14.5t-14 -5.5t-14 5.5t-6 14.5v41q0 20 20 20
t20 -20v-41z" />
    <glyph glyph-name="k" unicode="k" horiz-adv-x="431" 
d="M445 14q7 -6 7 -15q0 -8 -6 -14t-14 -6t-13 5l-288 241v-211q0 -20 -20 -20t-20 20v630q0 9 6 14.5t14 5.5t14 -5.5t6 -14.5v-387l226 197q7 6 14 6q8 0 14 -6.5t6 -14.5t-7 -15l-210 -183z" />
    <glyph glyph-name="l" unicode="l" horiz-adv-x="200" 
d="M122 13q0 -9 -6 -14.5t-14 -5.5t-14 5.5t-6 14.5v631q0 9 6 14.5t14 5.5t14 -5.5t6 -14.5v-631z" />
    <glyph glyph-name="m" unicode="m" horiz-adv-x="728" 
d="M653 16q0 -9 -6 -14.5t-14 -5.5t-14 5.5t-6 14.5v399v7q-60 -5 -229 -152q-2 -2 -3 -2v-252q0 -9 -6 -14.5t-14 -5.5t-14 5.5t-6 14.5v399q0 5 -1 7q-61 -4 -213 -139l-1 -1q-2 0 -2 -1v-265q0 -9 -6 -14.5t-14 -5.5t-14 5.5t-6 14.5v426q0 20 20 20t20 -20v-108
q154 128 220 128q37 0 37 -47v-95q166 142 235 142q37 0 37 -47v-399z" />
    <glyph glyph-name="n" unicode="n" horiz-adv-x="479" 
d="M405 16q0 -9 -6 -14.5t-14 -5.5t-14 5.5t-6 14.5v399l-1 5q0 2 -10 2q-41 0 -224 -164v-242q0 -9 -6 -14.5t-14 -5.5t-14 5.5t-6 14.5v224q-11 5 -11 18q0 8 7 15l4 3v166q0 20 20 20t20 -20v-130q165 150 224 150q21 0 36 -11t15 -36v-399z" />
    <glyph glyph-name="o" unicode="o" horiz-adv-x="476" 
d="M395 274q0 148 -98 148q-82 0 -149 -83.5t-67 -185.5q0 -53 27 -88t81 -35q74 0 140 74t66 170zM435 274q0 -110 -76.5 -197t-169.5 -87q-74 0 -111 48.5t-37 114.5q0 74 34.5 145.5t94.5 117.5t127 46q51 0 83.5 -30.5t43.5 -70t11 -87.5z" />
    <glyph glyph-name="p" unicode="p" horiz-adv-x="482" 
d="M408 326q0 47 -14.5 69t-60.5 22q-56 0 -111 -54.5t-95 -123.5q-2 -3 -6 -7v-149v-1q20 -46 62 -46q46 0 99 45t89.5 113.5t36.5 131.5zM448 326q0 -70 -40 -147.5t-103 -130t-122 -52.5q-36 0 -62 21v-306q0 -20 -20 -20t-20 20v726q0 9 6 14.5t14 5.5q20 0 20 -20v-133
q42 63 97 108t115 45q37 0 61.5 -11.5t35.5 -33t14.5 -41t3.5 -45.5z" />
    <glyph glyph-name="q" unicode="q" horiz-adv-x="498" 
d="M383 403q-20 14 -46 14q-103 0 -174.5 -78t-71.5 -198q0 -35 9.5 -60.5t20 -35t19.5 -9.5q43 0 96.5 63t93 147.5t53.5 156.5zM523 -196q-17 -30 -47.5 -59.5t-61.5 -45.5q-6 -3 -12 -3q-17 0 -17 21v560q-45 -113 -112 -197t-133 -84q-39 0 -64 42.5t-25 102.5
q0 136 82.5 226t203.5 90q14 0 41 -8t39 -21q8 -6 8 -14v-2v-658l4 4q37 27 60 66q6 10 17 10q8 0 14.5 -5.5t6.5 -14.5q0 -6 -4 -10z" />
    <glyph glyph-name="r" unicode="r" horiz-adv-x="362" 
d="M354 357v-4q0 -9 -6 -14t-14 -5q-17 0 -20 17q-7 44 -12 58q-76 -31 -187 -128v-264q0 -9 -6 -14.5t-14 -5.5t-14 5.5t-6 14.5v425q0 9 6 14.5t14 5.5t14 -5.5t6 -14.5v-109q149 119 194 119q7 0 11 -3q5 -3 9.5 -8.5t7.5 -13l5.5 -13.5t4.5 -16t3 -14.5t2.5 -15
t1.5 -11.5z" />
    <glyph glyph-name="s" unicode="s" horiz-adv-x="491" 
d="M450 226q0 -61 -42 -117t-100.5 -87.5t-111.5 -31.5q-40 0 -69 11.5t-40.5 24t-23.5 31.5q-3 6 -3 11q0 8 6.5 14t14.5 6q10 0 16 -10q9 -15 16 -23t29 -16.5t54 -8.5q70 0 142 61.5t72 134.5q0 29 -10.5 41t-38.5 12q-44 0 -124.5 -48t-119.5 -48q-34 0 -49 24.5
t-15 55.5q0 88 91 147.5t210 59.5q20 0 20 -20t-20 -20q-108 0 -184.5 -51t-76.5 -116q0 -40 24 -40q25 0 66 24t88.5 48t89.5 24q89 0 89 -93z" />
    <glyph glyph-name="t" unicode="t" horiz-adv-x="438" 
d="M421 160q-140 -165 -263 -165q-8 0 -14 6t-6 14v399l-107 -16h-4q-9 0 -14 6t-5 14q0 18 17 19l113 17v115q0 20 20 20t20 -20v-109l164 25h4q9 0 14 -6t5 -14q0 -17 -17 -20l-170 -25v-384q96 14 213 150q6 8 15 8q8 0 14.5 -6.5t6.5 -14.5q0 -7 -6 -13z" />
    <glyph glyph-name="u" unicode="u" horiz-adv-x="480" 
d="M403 17q0 -9 -6 -14.5t-14 -5.5t-14 5.5t-6 14.5v51q-99 -77 -189 -77q-40 0 -65 21t-25 61v360q0 9 6 14.5t14 5.5t14 -5.5t6 -14.5v-360q0 -42 50 -42q85 0 189 89v313q0 9 6 14.5t14 5.5t14 -5.5t6 -14.5v-416z" />
    <glyph glyph-name="v" unicode="v" horiz-adv-x="390" 
d="M380 425q-11 -25 -100.5 -186.5t-107.5 -232.5q-6 -18 -20 -18q-17 0 -20 20q-4 22 -11 49.5t-12.5 45l-16.5 51l-15 45.5q-48 156 -56 220q-1 1 -1 3q0 9 6.5 14.5t14.5 5.5q17 0 19 -18q6 -52 22 -109t40 -127t34 -107q29 68 96 188t92 173q6 11 17 11q8 0 14.5 -5.5
t6.5 -13.5q0 -6 -2 -9z" />
    <glyph glyph-name="w" unicode="w" horiz-adv-x="560" 
d="M546 421q-15 -56 -53 -129t-70 -144t-41 -140q-3 -21 -20 -21q-15 0 -19 19l-84 331l-134 -334q-7 -16 -20 -16q-17 0 -19 22q-3 48 -20 153.5t-32 186.5l-15 81v4q0 9 6.5 14.5t14.5 5.5q16 0 19 -16q39 -209 58 -346l125 311l-6 24q-1 2 -1 6q0 19 21 19q15 0 18 -15
l87 -341q18 58 75 170t72 165q4 15 18 15q21 0 21 -19q0 -4 -1 -6z" />
    <glyph glyph-name="x" unicode="x" horiz-adv-x="397" 
d="M384 20v-4q0 -9 -6 -14t-14 -5q-17 0 -20 17q-1 8 -6.5 19t-16.5 25l-21 26.5t-26 29.5l-26 27.5l-26.5 27.5l-22.5 23l-140 -187q-5 -8 -16 -8q-8 0 -14 6t-6 14q0 7 4 12l144 193q-111 124 -141 202q-2 4 -2 8q0 8 6.5 13.5t14.5 5.5q14 0 18 -13q30 -76 128 -183
l141 188q5 8 15 8q8 0 14.5 -6t6.5 -14q0 -7 -4 -12l-145 -194q61 -63 87 -92q68 -74 74 -113z" />
    <glyph glyph-name="y" unicode="y" horiz-adv-x="432" 
d="M421 427l-163 -485q-24 -71 -62 -106.5t-81 -35.5q-50 0 -82.5 30t-43.5 76q-1 2 -1 6q0 19 21 19q15 0 19 -15q9 -34 31.5 -55t55.5 -21q27 0 56 26.5t49 88.5l16 46l-2 4l-219 412q-2 8 -2 10q0 8 6.5 14t14.5 6q12 0 17 -11l202 -383l130 387q6 14 19 14
q8 0 14.5 -5.5t6.5 -13.5q0 -2 -2 -8z" />
    <glyph glyph-name="z" unicode="z" horiz-adv-x="431" 
d="M408 68v-9q-1 -9 -2.5 -18t-4.5 -19.5t-8.5 -17t-13.5 -6.5l-318 -1q-6 -7 -15 -7q-8 0 -14.5 6t-6.5 14q0 6 5 13l306 376h-250v-34q0 -20 -20 -20t-20 20v54q0 7 6 13.5t14 6.5h302l4 5q8 8 15 8q8 0 14.5 -6.5t6.5 -14.5q0 -7 -5 -12l-309 -381h268l6 37q3 17 19 17
q21 0 21 -20v-4z" />
    <glyph glyph-name="braceleft" unicode="{" horiz-adv-x="347" 
d="M326 -212q-34 -17 -71 -17q-60 0 -84.5 26t-24.5 86q0 16 8 68t8 85q0 108 -21.5 147t-96.5 48q-20 3 -20 20t20 20q79 8 103.5 50t24.5 140q0 129 27.5 178.5t100.5 66.5q2 1 6 1q9 0 14 -6.5t5 -14.5q0 -14 -15 -19q-38 -9 -56.5 -23t-30 -57t-11.5 -126
q0 -84 -17.5 -135t-70.5 -76q48 -24 63 -73t15 -141q0 -33 -8 -85t-8 -68q0 -45 13 -58.5t56 -13.5q25 0 54 13q8 2 9 2q9 0 14.5 -6t5.5 -15q0 -11 -12 -17z" />
    <glyph glyph-name="bar" unicode="|" horiz-adv-x="200" 
d="M126 3q0 -20 -20 -20t-20 20v662q0 20 20 20t20 -20v-662z" />
    <glyph glyph-name="braceright" unicode="}" horiz-adv-x="347" 
d="M302 247q20 -3 20 -20t-20 -20q-78 -8 -103 -50.5t-25 -140.5q0 -129 -27.5 -178t-100.5 -66q-2 -1 -5 -1q-9 0 -14.5 6t-5.5 15q0 15 16 19q38 9 56 22.5t29.5 56.5t11.5 126q0 85 17.5 136t70.5 76q-48 24 -63 73t-15 141q0 33 8 85t8 68q0 44 -13 58t-56 14
q-23 0 -54 -13q-3 -2 -9 -2q-9 0 -14.5 6t-5.5 15q0 11 12 17q40 17 71 17q61 0 85 -26t24 -86q0 -16 -8 -68t-8 -85q0 -109 21.5 -147.5t96.5 -47.5z" />
    <glyph glyph-name="asciitilde" unicode="~" horiz-adv-x="554" 
d="M498 276q-9 -30 -15.5 -46t-20 -39t-33.5 -33.5t-47 -10.5q-29 0 -52 11t-37 27t-26.5 32t-27 27t-30.5 11q-52 0 -96 -82q-7 -10 -17 -10q-9 0 -15 5.5t-6 14.5q0 4 3 10q55 102 131 102q29 0 52 -17t36 -37t35.5 -37t49.5 -17q15 0 27 8t19 15.5t14.5 26t9 25t7.5 26.5
q4 14 19 14q8 0 14.5 -5t6.5 -14q0 -1 -0.5 -3t-0.5 -4z" />
    <glyph glyph-name="sterling" unicode="&#xa3;" horiz-adv-x="617" 
d="M90 367l90 6q2 13 3.5 33.5t2.5 27.5q4 41 9.5 71.5t18 62t29.5 51.5t45.5 32.5t65.5 12.5q94 0 135 -68q3 -6 3 -11q0 -8 -6.5 -14t-14.5 -6q-10 0 -16 10q-31 49 -101 49q-63 0 -90.5 -46t-37.5 -148q0 -6 -5 -54l217 16h2q19 0 19 -21q0 -17 -18 -19l-223 -16
q-15 -171 -30 -211q-10 -30 -36 -59q13 2 41 2q50 0 115.5 -20.5t103.5 -20.5q56 0 84.5 28t44.5 74q4 14 19 14q8 0 14 -5.5t6 -13.5q0 -5 -1 -8q-44 -129 -167 -129q-40 0 -108 20.5t-111 20.5q-35 0 -124 -19q-1 0 -3 -0.5t-3 -0.5q-9 0 -14.5 6t-5.5 14q0 14 15 20
q15 5 27.5 12.5t22 14.5t17.5 20t13.5 20t10 24t7 24t5.5 27t3.5 25.5t3 28t2.5 25.5q3 19 7 64l-84 -6h-2q-20 0 -20 20q0 19 19 20z" />
    <glyph glyph-name="currency" unicode="&#xa4;" horiz-adv-x="498" 
d="M415 328q0 73 -46 131.5t-112 58.5q-86 0 -130 -64t-44 -148q0 -74 40.5 -129t110.5 -55q46 0 82.5 20t57 51.5t31 66t10.5 68.5zM467 539l-57 -68q45 -67 45 -143q0 -91 -52 -161l51 -50q7 -7 7 -14q0 -8 -6.5 -14.5t-14.5 -6.5q-6 0 -14 6l-50 48q-57 -54 -142 -54
q-71 0 -120 46l-43 -46q-7 -6 -15 -6t-14 6t-6 14t6 14l46 48q-45 62 -45 148q0 96 48 167l-55 70q-5 5 -5 13t6.5 14t14.5 6t15 -8l51 -64q56 54 139 54q73 0 127 -56l53 63q6 7 15 7q8 0 14.5 -6t6.5 -14q0 -7 -6 -13z" />
    <glyph glyph-name="section" unicode="&#xa7;" horiz-adv-x="577" 
d="M95 70q21 -99 146 -99q52 0 105.5 21.5t91.5 63.5t38 91q0 36 -30 60.5t-78 24.5q-34 0 -100.5 -15.5t-101.5 -15.5q-48 0 -75.5 27.5t-27.5 65.5q0 55 38 98q-18 26 -18 68q0 66 42.5 114.5t99.5 69.5t115 21q52 0 85 -15t61 -49q5 -5 5 -13t-6 -14t-14 -6q-9 0 -16 8
q-21 26 -46 37.5t-69 11.5q-83 0 -150 -45.5t-67 -119.5q0 -36 17.5 -51t65.5 -15q31 0 89.5 18t90.5 18q65 0 105 -36.5t40 -90.5q0 -50 -36 -90q21 -29 21 -66q0 -66 -47.5 -117.5t-109 -75t-118.5 -23.5q-156 0 -185 130v5q0 9 6 14.5t14 5.5q16 0 19 -16zM133 367
q-30 -33 -30 -73q0 -21 16 -37t47 -16q34 0 100.5 15.5t101.5 15.5q57 0 99 -31q24 28 24 62q0 36 -27.5 61.5t-77.5 25.5q-31 0 -89.5 -18t-90.5 -18q-46 0 -73 13z" />
    <glyph glyph-name="copyright" unicode="&#xa9;" horiz-adv-x="786" 
d="M521 215q-16 -33 -62.5 -69t-95.5 -36q-62 0 -93 55.5t-31 123.5q0 95 52 173.5t125 78.5q42 0 72 -17t44 -40q3 -6 3 -11q0 -9 -6 -14.5t-14 -5.5q-9 0 -17 9q-9 14 -30.5 26.5t-51.5 12.5q-50 0 -93.5 -64t-43.5 -148q0 -59 23 -99t61 -40q34 0 72 29t50 53q5 12 17 12
q8 0 14.5 -6t6.5 -14q0 -3 -2 -9zM684 373q0 44 -15.5 87.5t-45.5 81.5t-81 61.5t-114 23.5q-53 0 -109.5 -29.5t-103 -78.5t-76.5 -120t-30 -147q0 -97 61.5 -169t170.5 -72q68 0 127 26.5t97.5 67.5t66.5 90.5t40 95t12 82.5zM724 373q0 -40 -13 -90t-43.5 -105.5
t-73 -101t-109 -75.5t-144.5 -30q-65 0 -118.5 24.5t-86 65t-50 90t-17.5 101.5q0 83 32.5 161t84 133t116 88t126.5 33q73 0 132 -27.5t93.5 -71.5t52.5 -94.5t18 -100.5z" />
    <glyph glyph-name="guillemotleft" unicode="&#xab;" horiz-adv-x="452" 
d="M232 115q5 -5 5 -12q0 -8 -6 -14.5t-14 -6.5t-16 8l-156 189q-4 4 -4 13t4 13l157 188q5 8 15 8q8 0 14 -6.5t6 -14.5q0 -7 -5 -12l-146 -176zM402 115q5 -5 5 -12q0 -8 -6 -14.5t-14 -6.5t-16 8l-156 189q-4 4 -4 13t4 13l157 188q5 8 15 8q8 0 14 -6.5t6 -14.5
q0 -7 -5 -12l-146 -176z" />
    <glyph glyph-name="logicalnot" unicode="&#xac;" horiz-adv-x="554" 
d="M80 345h391q8 0 14 -6t6 -14v-142q0 -13 -10 -18t-20 0t-10 18v122h-371q-12 0 -17 10t0 20t17 10z" />
    <glyph glyph-name="registered" unicode="&#xae;" horiz-adv-x="786" 
d="M255 471q4 2 10 6v41q0 9 6 14.5t14 5.5t14 -5.5t6 -14.5v-21q1 0 7 3t10 4q76 34 123 34q40 0 59.5 -19t19.5 -46q0 -24 -13.5 -45t-32 -35t-47.5 -26.5t-51 -19t-50 -13.5l217 -179q7 -7 7 -15t-6 -14.5t-14 -6.5q-6 0 -13 5l-216 179v-164q0 -9 -6 -14.5t-14 -5.5
t-14 5.5t-6 14.5v295q-9 0 -14.5 6t-5.5 15q0 10 10 16zM305 370q179 38 179 103q0 25 -39 25q-46 0 -140 -45v-83zM684 373q0 44 -15.5 87.5t-45.5 81.5t-81 61.5t-114 23.5q-53 0 -109.5 -29.5t-103 -78.5t-76.5 -120t-30 -147q0 -97 61.5 -169t170.5 -72q68 0 127 26.5
t97.5 67.5t66.5 90.5t40 95t12 82.5zM724 373q0 -40 -13 -90t-43.5 -105.5t-73 -101t-109 -75.5t-144.5 -30q-65 0 -118.5 24.5t-86 65t-50 90t-17.5 101.5q0 83 32.5 161t84 133t116 88t126.5 33q73 0 132 -27.5t93.5 -71.5t52.5 -94.5t18 -100.5z" />
    <glyph glyph-name="degree" unicode="&#xb0;" horiz-adv-x="241" 
d="M178 567q0 31 -12 44.5t-28 13.5q-26 0 -44.5 -19.5t-18.5 -56.5q0 -22 12.5 -39.5t30.5 -17.5q60 0 60 75zM218 567q0 -17 -3.5 -34.5t-13.5 -37t-31 -31.5t-52 -12q-40 0 -61.5 31.5t-21.5 65.5q0 53 29.5 84.5t73.5 31.5q34 0 57 -26.5t23 -71.5z" />
    <glyph glyph-name="plusminus" unicode="&#xb1;" horiz-adv-x="554" 
d="M475 3h-386q-20 0 -20 20t20 20h386q20 0 20 -20t-20 -20zM475 238h-183v-125q0 -9 -6 -14.5t-14 -5.5t-14 5.5t-6 14.5v125h-163q-20 0 -20 20t20 20h163v149q0 20 20 20t20 -20v-149h183q20 0 20 -20t-20 -20z" />
    <glyph glyph-name="mu" unicode="&#xb5;" horiz-adv-x="480" 
d="M401 21q0 -9 -6 -14.5t-14 -5.5t-14 5.5t-6 14.5v51q-99 -77 -189 -77q-31 0 -50 11v-237q0 -20 -20 -20t-20 20v668q0 9 6 14.5t14 5.5t14 -5.5t6 -14.5v-374l3 -6q10 -22 47 -22q85 0 189 89v313q0 9 6 14.5t14 5.5t14 -5.5t6 -14.5v-416z" />
    <glyph glyph-name="mu" unicode="&#x3bc;" horiz-adv-x="480" 
d="M401 21q0 -9 -6 -14.5t-14 -5.5t-14 5.5t-6 14.5v51q-99 -77 -189 -77q-31 0 -50 11v-237q0 -20 -20 -20t-20 20v668q0 9 6 14.5t14 5.5t14 -5.5t6 -14.5v-374l3 -6q10 -22 47 -22q85 0 189 89v313q0 9 6 14.5t14 5.5t14 -5.5t6 -14.5v-416z" />
    <glyph glyph-name="paragraph" unicode="&#xb6;" horiz-adv-x="500" 
d="M436 632v-618q0 -20 -20 -20t-20 20v616q-44 -3 -84 -12l1 -2v-602q0 -20 -20 -20t-20 20v385q-66 -19 -114 -19q-127 0 -127 74q0 57 61 108t155 80.5t190 29.5q20 0 20 -20t-20 -20h-2zM273 441v167q-88 -25 -144.5 -69t-56.5 -85q0 -34 87 -34q41 0 114 21z" />
    <glyph glyph-name="guillemotright" unicode="&#xbb;" horiz-adv-x="452" 
d="M232 279l-156 -189q-8 -8 -15 -8q-8 0 -14.5 6.5t-6.5 14.5q0 7 5 12l146 177l-146 176q-5 5 -5 12q0 8 6.5 14.5t14.5 6.5t15 -8l156 -188q4 -4 4 -13t-4 -13zM402 279l-156 -189q-8 -8 -15 -8q-8 0 -14.5 6.5t-6.5 14.5q0 7 5 12l146 177l-146 176q-5 5 -5 12
q0 8 6.5 14.5t14.5 6.5t15 -8l156 -188q4 -4 4 -13t-4 -13z" />
    <glyph glyph-name="divide" unicode="&#xf7;" horiz-adv-x="554" 
d="M287 96q0 -9 -6 -14.5t-14 -5.5t-14 5.5t-6 14.5v9q0 9 6 14.5t14 5.5t14 -5.5t6 -14.5v-9zM469 211h-392q-20 0 -20 20t20 20h392q20 0 20 -20t-20 -20zM287 353q0 -9 -6 -14.5t-14 -5.5t-14 5.5t-6 14.5v8q0 20 20 20t20 -20v-8z" />
    <glyph glyph-name="florin" unicode="&#x192;" horiz-adv-x="499" 
d="M497 617q1 -3 1 -7q0 -19 -21 -19q-14 0 -18 14q-7 24 -19 34.5t-38 10.5q-74 0 -131 -269l158 9h2q9 0 14 -6.5t5 -14.5q0 -19 -19 -19l-168 -10l-12 -69.5t-9 -49.5q-1 -7 -8.5 -48t-12 -62.5l-13.5 -62.5t-17 -66.5t-20 -54.5t-24 -46q-27 -41 -65 -41
q-29 0 -49.5 9.5t-32.5 26t-17.5 30.5t-9.5 32q-1 2 -1 5q0 19 21 19q15 0 19 -15q7 -33 21.5 -50t48.5 -17q14 0 27.5 17t25 46t21 62t18 71t14 67t10 55.5t5.5 30.5q2 10 8 47l10 62l-105 -6h-1q-20 0 -20 20q0 19 19 20l115 6q63 312 173 312q39 0 61 -18t34 -55z" />
    <glyph glyph-name="afii10023" unicode="&#x401;" horiz-adv-x="560" 
d="M188 765q0 -20 -20 -20t-20 20v36q0 9 6 14.5t14 5.5t14 -5.5t6 -14.5v-36zM372 765q0 -20 -20 -20t-20 20v36q0 9 6 14.5t14 5.5t14 -5.5t6 -14.5v-36zM499 28l-384 -35h-2q-8 0 -14 5.5t-6 14.5v289h-2q-20 0 -20 20q0 17 18 20h4v235h-2q-20 0 -20 20q0 19 19 20h3v26
q0 9 6 14.5t14 5.5t14 -5.5t6 -14.5v-23l335 26h2q9 0 14 -6t5 -14q0 -18 -18 -20l-338 -26v-233l286 36h3q9 0 14 -6t5 -14q0 -17 -17 -20l-291 -36v-272l362 32q1 1 3 1q9 0 14 -6.5t5 -14.5q0 -17 -18 -19z" />
    <glyph glyph-name="afii10051" unicode="&#x402;" horiz-adv-x="599" 
d="M187 279q15 18 16 19v296l-162 -31h-5q-9 0 -14 6t-5 14q0 16 16 20l404 77h4q9 0 14.5 -6t5.5 -14q0 -16 -17 -20l-201 -38v-265q121 110 204 110q34 0 48 -18.5t14 -58.5v-252q0 -190 -201 -190q-20 0 -20 20t20 20q23 0 41.5 2t42 11t39.5 24.5t27 44t11 68.5v252v11
q0 15 -3.5 20.5t-18.5 5.5q-36 0 -94 -36t-110 -89v-268q0 -9 -6 -14.5t-14 -5.5t-14 5.5t-6 14.5v232h-1q-8 0 -14.5 6t-6.5 14q0 7 6 13z" />
    <glyph glyph-name="afii10052" unicode="&#x403;" horiz-adv-x="519" 
d="M457 628l-311 -48v-581q0 -9 -6 -14.5t-14 -5.5t-14 5.5t-6 14.5v575h-5q-1 -1 -3 -1q-9 0 -14.5 6.5t-5.5 14.5q0 16 17 19l11 2v29q0 9 6 14.5t14 5.5t14 -5.5t6 -14.5v-23l305 47h4q9 0 14 -6t5 -14q0 -17 -17 -20zM338 833l-109 -136q-6 -8 -15 -8q-8 0 -14.5 6.5
t-6.5 14.5q0 5 5 12l108 136q8 8 16 8t14 -6t6 -14t-4 -13z" />
    <glyph glyph-name="afii10053" unicode="&#x404;" horiz-adv-x="539" 
d="M490 582q3 -6 3 -11q0 -8 -6.5 -14t-14.5 -6q-10 0 -16 10q-18 27 -56 49t-92 22q-76 0 -143.5 -80.5t-90.5 -196.5l267 34h3q20 0 20 -20q0 -17 -18 -19l-278 -36q-3 -24 -3 -50q0 -101 41.5 -173t113.5 -72q62 0 127.5 51t86.5 94q6 11 17 11q8 0 14.5 -5.5t6.5 -13.5
q0 -6 -2 -9q-25 -51 -99.5 -109.5t-150.5 -58.5q-66 0 -112 46.5t-64.5 108.5t-18.5 130q0 100 37.5 194t103.5 154t142 60q65 0 112.5 -27.5t69.5 -62.5z" />
    <glyph glyph-name="afii10054" unicode="&#x405;" horiz-adv-x="626" 
d="M573 289q0 -59 -24 -109.5t-62 -85t-85.5 -59.5t-95 -36.5t-89.5 -11.5q-136 0 -160 144v4q0 9 6 14t14 5q17 0 20 -16q8 -50 33.5 -80.5t86.5 -30.5q68 0 139 29t124 91t53 142q0 49 -26 65t-73 16t-135 -31t-133 -31q-58 0 -83.5 23.5t-25.5 72.5q0 101 92.5 184.5
t200.5 83.5q98 0 144 -68q3 -6 3 -11q0 -9 -6 -14.5t-15 -5.5q-11 0 -16 9q-31 50 -110 50q-93 0 -173 -72.5t-80 -155.5q0 -31 13 -43.5t56 -12.5q40 0 129.5 31t138.5 31q139 0 139 -121z" />
    <glyph glyph-name="afii10055" unicode="&#x406;" horiz-adv-x="220" 
d="M130 13q0 -20 -20 -20t-20 20v631q0 9 6 14.5t14 5.5t14 -5.5t6 -14.5v-631z" />
    <glyph glyph-name="afii10056" unicode="&#x407;" horiz-adv-x="220" 
d="M130 13q0 -20 -20 -20t-20 20v631q0 9 6 14.5t14 5.5t14 -5.5t6 -14.5v-631zM40 765q0 -20 -20 -20t-20 20v36q0 9 6 14.5t14 5.5t14 -5.5t6 -14.5v-36zM224 765q0 -20 -20 -20t-20 20v36q0 9 6 14.5t14 5.5t14 -5.5t6 -14.5v-36z" />
    <glyph glyph-name="afii10057" unicode="&#x408;" horiz-adv-x="520" 
d="M441 195q0 -74 -77 -141t-177 -67q-39 0 -68.5 11t-45.5 26.5t-25.5 37t-12.5 39t-3 35.5q0 35 20 57q5 8 15 8q8 0 14.5 -6t6.5 -14q0 -6 -5 -13q-11 -14 -11 -32q0 -109 115 -109q86 0 150 56.5t64 111.5v448q0 20 20 20t20 -20v-448z" />
    <glyph glyph-name="afii10058" unicode="&#x409;" horiz-adv-x="937" 
d="M849 268q0 38 -20.5 53.5t-77.5 15.5q-49 0 -136.5 -24.5t-145.5 -55.5l72 -224q125 23 216.5 100t91.5 135zM889 268q0 -80 -109 -168.5t-248 -109.5h-4q-16 0 -21 18l-73 227l-4 -4q-7 -5 -13 -5q-8 0 -14 6.5t-6 14.5t7 15q12 10 17 13l-94 292q-22 -58 -69 -140
l-86 -145.5t-69.5 -137.5t-30.5 -129q0 -21 -20 -21q-8 0 -14 5.5t-6 14.5q0 55 23.5 119.5t59 126.5l73 123t71 128t47.5 121l-8 26q-1 2 -1 7q0 8 6.5 13.5t14.5 5.5q14 0 18 -14l121 -374q65 33 153.5 57t140.5 24q69 0 103.5 -25t34.5 -84z" />
    <glyph glyph-name="afii10059" unicode="&#x40a;" horiz-adv-x="964" 
d="M899 294q0 39 -28 61t-83 22q-111 0 -246 -26v-324q138 23 247.5 114.5t109.5 152.5zM939 294q0 -52 -54.5 -117.5t-148.5 -120.5t-194 -70h-2q-11 0 -24.5 9t-13.5 18v330q-190 -40 -366 -111v-219q0 -9 -6 -14.5t-14 -5.5t-14 5.5t-6 14.5v202q-6 -2 -18 -8
q-6 -2 -9 -2q-8 0 -13.5 6.5t-5.5 14.5q0 12 11 18q4 2 16 7l19 8v385q0 9 6 14.5t14 5.5t14 -5.5t6 -14.5v-369q172 69 366 109v260q0 9 6 14.5t14 5.5t14 -5.5t6 -14.5v-252q138 25 246 25q68 0 109.5 -32t41.5 -91z" />
    <glyph glyph-name="afii10060" unicode="&#x40b;" horiz-adv-x="591" 
d="M513 13q0 -9 -6 -14.5t-14 -5.5t-14 5.5t-6 14.5v356v11q0 14 -4 20t-18 6q-37 0 -94.5 -36t-109.5 -89v-268q0 -9 -6 -14.5t-14 -5.5t-14 5.5t-6 14.5v232h-1q-8 0 -14.5 6t-6.5 14q0 6 5 13q3 3 8.5 9.5t8.5 9.5v296l-162 -31h-5q-9 0 -14 6t-5 14q0 16 16 19l403 78h5
q9 0 14 -6t5 -14q0 -17 -16 -20l-201 -38v-265q121 110 204 110q34 0 48 -18.5t14 -58.5v-356z" />
    <glyph glyph-name="afii10061" unicode="&#x40c;" horiz-adv-x="560" 
d="M542 13q6 -6 6 -13q0 -8 -6.5 -14.5t-14.5 -6.5t-14 7l-374 392v-366q0 -9 -6 -14.5t-14 -5.5t-14 5.5t-6 14.5v632q0 9 6 14.5t14 5.5t14 -5.5t6 -14.5v-198l259 213q5 5 13 5t14 -6t6 -14q0 -9 -7 -16l-263 -215zM328 833l-109 -136q-6 -8 -15 -8q-8 0 -14.5 6.5
t-6.5 14.5q0 5 5 12l108 136q8 8 16 8t14 -6t6 -14t-4 -13z" />
    <glyph glyph-name="afii10062" unicode="&#x40e;" horiz-adv-x="495" 
d="M486 635l-239 -522q-48 -107 -187 -126h-4q-9 0 -14 6t-5 14q0 17 17 20q118 16 158 104l33 73l-231 430q-3 6 -3 10q0 9 6.5 14.5t14.5 5.5q12 0 17 -11l217 -404l184 403q6 12 17 12q9 0 15 -5.5t6 -14.5q0 -5 -2 -9zM413 770q-16 -45 -56.5 -73.5t-105.5 -28.5
q-69 0 -115 30t-53 75v4q0 9 6 14t14 5q18 0 19 -16q4 -28 37.5 -50t91.5 -22q98 0 125 75q4 13 18 13q8 0 14.5 -5t6.5 -14q0 -3 -2 -7z" />
    <glyph glyph-name="afii10145" unicode="&#x40f;" horiz-adv-x="579" 
d="M492 187q0 -52 -39 -96t-89 -67.5t-101 -31.5v-146q0 -9 -6 -14.5t-14 -5.5t-14 5.5t-6 14.5v144q-133 3 -133 132v525q0 9 6 14.5t14 5.5t14 -5.5t6 -14.5v-525q0 -45 20.5 -68t72.5 -24v22q0 20 20 20t20 -20v-19q70 12 129.5 55.5t59.5 98.5v460q0 9 6 14.5t14 5.5
t14 -5.5t6 -14.5v-460z" />
    <glyph glyph-name="afii10017" unicode="&#x410;" 
d="M441 313l-107 285l-123 -299zM592 20q2 -6 2 -8q0 -8 -6.5 -13.5t-14.5 -5.5q-14 0 -18 13l-100 267l-261 -15l-105 -252q-4 -13 -18 -13q-8 0 -14 5.5t-6 13.5q0 6 1 9l265 639q6 16 18 16q13 0 19 -16z" />
    <glyph glyph-name="afii10018" unicode="&#x411;" horiz-adv-x="613" 
d="M538 304q0 46 -41 69.5t-113 23.5q-126 0 -242 -40q-2 -1 -6 -1v-323q50 1 115 19t131 50t111 85.5t45 116.5zM578 304q0 -63 -36 -117.5t-89 -89t-116.5 -59t-117 -35t-90.5 -10.5h-2q-31 0 -31 20v569l-2 -1h-3q-20 0 -20 21q0 16 17 19l8 1v21q0 9 6 14.5t14 5.5
t14 -5.5t6 -14.5v-15l308 48h4q9 0 14 -6t5 -14q0 -17 -17 -20l-314 -48v-191q118 40 248 40q81 0 137.5 -31.5t56.5 -101.5z" />
    <glyph glyph-name="afii10019" unicode="&#x412;" horiz-adv-x="613" 
d="M545 304q0 46 -41 69.5t-113 23.5q-87 0 -245 -30q-1 -1 -3 -1v-333q50 1 115 19t131 50t111 85.5t45 116.5zM471 598q0 29 -80 29q-66 0 -135 -19.5t-110 -41.5h-1q-1 -1 -2 -1v-158l45.5 12.5l59.5 17t61.5 20t61.5 26.5t50 31t37.5 38.5t12.5 45.5zM585 304
q0 -63 -36 -117.5t-89 -89t-116.5 -59t-117 -35t-90.5 -10.5h-2q-31 0 -31 20v630q0 20 20 20t20 -20v-34q120 58 248 58q120 0 120 -69q0 -97 -145 -161h25q81 0 137.5 -31.5t56.5 -101.5z" />
    <glyph glyph-name="afii10020" unicode="&#x413;" horiz-adv-x="519" 
d="M457 628l-311 -48v-581q0 -9 -6 -14.5t-14 -5.5t-14 5.5t-6 14.5v575h-5q-1 -1 -3 -1q-9 0 -14.5 6.5t-5.5 14.5q0 16 17 19l11 2v29q0 9 6 14.5t14 5.5t14 -5.5t6 -14.5v-23l305 47h4q9 0 14 -6t5 -14q0 -17 -17 -20z" />
    <glyph glyph-name="afii10021" unicode="&#x414;" horiz-adv-x="608" 
d="M531 452q0 92 -43.5 135.5t-158.5 43.5q-80 0 -189 -45v-552q161 27 276 141t115 277zM571 452q0 -93 -37 -175t-98.5 -139.5t-139 -95t-161.5 -49.5h-8q-27 0 -27 20v555q-32 -15 -54 -30q-5 -4 -11 -4q-8 0 -14 6.5t-6 14.5q0 10 9 16q28 19 76 41v30q0 20 20 20
t20 -20v-13q108 42 189 42q132 0 187 -55.5t55 -163.5z" />
    <glyph glyph-name="afii10022" unicode="&#x415;" horiz-adv-x="560" 
d="M499 28l-384 -35h-2q-8 0 -14 5.5t-6 14.5v289h-2q-20 0 -20 20q0 17 18 20h4v235h-2q-20 0 -20 20q0 19 19 20h3v26q0 9 6 14.5t14 5.5t14 -5.5t6 -14.5v-23l335 26h2q9 0 14 -6t5 -14q0 -18 -18 -20l-338 -26v-233l286 36h3q9 0 14 -6t5 -14q0 -17 -17 -20l-291 -36
v-272l362 32q1 1 3 1q9 0 14 -6.5t5 -14.5q0 -17 -18 -19z" />
    <glyph glyph-name="afii10024" unicode="&#x416;" horiz-adv-x="850" 
d="M860 28q6 -6 6 -14t-6.5 -14t-14.5 -6t-14 6l-368 389l-17 -15q-1 0 -3 -1.5t-4 -2.5v-356q0 -9 -6 -14.5t-14 -5.5t-14 5.5t-6 14.5v358q-1 0 -1 1l-2 1l-20 17l-367 -391q-6 -6 -14 -6t-14.5 6t-6.5 14q0 6 6 14l366 389l-250 212q-8 7 -8 15t6.5 14.5t14.5 6.5
q5 0 12 -5l278 -236v220q0 9 6 14.5t14 5.5t14 -5.5t6 -14.5v-222l276 238q8 5 14 5q8 0 14 -6.5t6 -14.5t-7 -15l-249 -214z" />
    <glyph glyph-name="afii10025" unicode="&#x417;" horiz-adv-x="587" 
d="M543 273q0 -112 -92 -199t-235 -87q-110 0 -155 69q-4 5 -4 11q0 8 6.5 14t14.5 6q10 0 16 -9q33 -51 122 -51q127 0 207 76t80 170q0 52 -30 87t-89 35q-35 0 -56 -4.5t-63 -20.5q-3 -2 -8 -2q-9 0 -14.5 6t-5.5 14q0 13 13 19q74 32 114 65t40 86q0 36 -26.5 55
t-94.5 19q-52 0 -109.5 -34t-69.5 -69q-4 -14 -18 -14q-9 0 -15 5.5t-6 14.5q0 4 1 7q17 49 85.5 89.5t131.5 40.5q161 0 161 -114q0 -71 -61 -123q78 0 119 -48t41 -114z" />
    <glyph glyph-name="afii10026" unicode="&#x418;" horiz-adv-x="612" 
d="M524 14q0 -12 -10 -17t-20 0t-10 17v522q-37 -67 -86.5 -137.5t-114.5 -155t-97 -130.5q-58 -87 -58 -98q0 -13 -10 -18t-20 0t-10 18v629q0 12 10 17t20 0t10 -17v-545q33 50 131 180t161.5 227t63.5 138q0 13 10 18t20 0t10 -18v-630z" />
    <glyph glyph-name="afii10027" unicode="&#x419;" horiz-adv-x="612" 
d="M524 14q0 -12 -10 -17t-20 0t-10 17v522q-37 -67 -86.5 -137.5t-114.5 -155t-97 -130.5q-58 -87 -58 -98q0 -13 -10 -18t-20 0t-10 18v629q0 12 10 17t20 0t10 -17v-545q33 50 131 180t161.5 227t63.5 138q0 13 10 18t20 0t10 -18v-630zM473 770q-16 -45 -56.5 -73.5
t-105.5 -28.5q-69 0 -115 30t-53 75v4q0 9 6 14t14 5q18 0 19 -16q4 -28 37.5 -50t91.5 -22q98 0 125 75q4 13 18 13q8 0 14.5 -5t6.5 -14q0 -3 -2 -7z" />
    <glyph glyph-name="afii10028" unicode="&#x41a;" horiz-adv-x="560" 
d="M542 13q6 -6 6 -13q0 -8 -6.5 -14.5t-14.5 -6.5t-14 7l-374 392v-366q0 -9 -6 -14.5t-14 -5.5t-14 5.5t-6 14.5v632q0 9 6 14.5t14 5.5t14 -5.5t6 -14.5v-198l259 213q5 5 13 5t14 -6t6 -14q0 -9 -7 -16l-263 -215z" />
    <glyph glyph-name="afii10029" unicode="&#x41b;" horiz-adv-x="572" 
d="M545 21q1 -3 1 -7q0 -9 -6 -14.5t-15 -5.5q-13 0 -18 14l-180 559q-22 -58 -69 -140l-86 -145.5t-69.5 -137.5t-30.5 -129q0 -21 -20 -21q-8 0 -14 5.5t-6 14.5q0 55 23.5 119.5t59 126.5l73 123t71 128t47.5 121l-8 26q-1 2 -1 7q0 8 6.5 13.5t14.5 5.5q14 0 18 -14z
" />
    <glyph glyph-name="afii10030" unicode="&#x41c;" horiz-adv-x="755" 
d="M664 13q0 -9 -6 -14.5t-14 -5.5t-14 5.5t-6 14.5v496l-5 -11q-15 -32 -79 -143t-110.5 -204.5t-48.5 -137.5q0 -21 -20 -21q-19 0 -20 20q-4 56 -40 143.5t-94 204t-73 149.5v-496q0 -9 -6 -14.5t-14 -5.5t-14 5.5t-6 14.5v631q0 21 20 21t20 -21q0 -18 8.5 -46t25.5 -67
l28.5 -63.5l32.5 -66l22 -43.5q89 -182 112 -258q21 54 89 173t120 221.5t52 149.5q0 21 20 21t20 -21v-631z" />
    <glyph glyph-name="afii10031" unicode="&#x41d;" horiz-adv-x="626" 
d="M537 13q0 -9 -6 -14.5t-14 -5.5t-14 5.5t-6 14.5v360v1q0 10 -2 18t-8.5 16.5t-21.5 13.5t-38 5q-105 0 -296 -84v-330q0 -9 -6 -14.5t-14 -5.5t-14 5.5t-6 14.5v312q-6 -2 -8 -2q-8 0 -13.5 6.5t-5.5 14.5q0 13 12 18l15 7v275q0 9 6 14.5t14 5.5t14 -5.5t6 -14.5v-257
q185 80 296 80q44 0 70 -16v193q0 9 6 14.5t14 5.5t14 -5.5t6 -14.5v-631z" />
    <glyph glyph-name="afii10032" unicode="&#x41e;" horiz-adv-x="596" 
d="M512 376q0 276 -163 276q-69 0 -130.5 -59t-97.5 -150.5t-36 -184.5q0 -89 41 -162t115 -73q85 0 148.5 53.5t93 132.5t29.5 167zM552 376q0 -54 -11.5 -108.5t-37 -106t-61 -91t-87.5 -63.5t-114 -24q-52 0 -92 28t-61.5 72t-32 88.5t-10.5 86.5q0 98 38 197t109.5 168
t156.5 69q203 0 203 -316z" />
    <glyph glyph-name="afii10033" unicode="&#x41f;" horiz-adv-x="626" 
d="M537 13q0 -9 -6 -14.5t-14 -5.5t-14 5.5t-6 14.5v609l-366 -26v-583q0 -9 -6 -14.5t-14 -5.5t-14 5.5t-6 14.5v580h-6h-1q-20 0 -20 20q0 19 19 20h8v11q0 9 6 14.5t14 5.5t14 -5.5t6 -14.5v-8l378 27h2q1 0 3 0.5t3 0.5q8 0 14 -5.5t6 -14.5v-631z" />
    <glyph glyph-name="afii10034" unicode="&#x420;" horiz-adv-x="543" 
d="M476 573q0 27 -20 39t-78 12q-43 0 -116.5 -27t-134.5 -60v-171q137 20 243 91.5t106 115.5zM516 573q0 -67 -121 -147t-268 -100v-313q0 -9 -6 -14.5t-14 -5.5t-14 5.5t-6 14.5v500q-8 -4 -12 -4q-8 0 -14 6.5t-6 14.5q0 10 9 16q7 5 23 15v83q0 9 6 14.5t14 5.5
t14 -5.5t6 -14.5v-62q158 82 251 82q67 0 102.5 -20.5t35.5 -70.5z" />
    <glyph glyph-name="afii10035" unicode="&#x421;" horiz-adv-x="539" 
d="M511 582q4 -8 4 -11q0 -8 -6.5 -14t-14.5 -6q-10 0 -17 10q-16 26 -54.5 48.5t-92.5 22.5q-92 0 -167.5 -111.5t-75.5 -256.5q0 -101 41 -173t113 -72q62 0 127.5 51t86.5 94q5 11 18 11q8 0 14 -5.5t6 -13.5q0 -6 -2 -9q-25 -51 -99.5 -109.5t-150.5 -58.5
q-50 0 -89 26.5t-61 69.5t-33 91t-11 98q0 101 37.5 194.5t103.5 153.5t142 60q65 0 112 -27.5t69 -62.5z" />
    <glyph glyph-name="afii10036" unicode="&#x422;" horiz-adv-x="466" 
d="M443 639l-202 -38v-588q0 -9 -6 -14.5t-14 -5.5t-14 5.5t-6 14.5v580l-162 -31h-4q-20 0 -20 20q0 16 17 19l403 78h4q20 0 20 -20q0 -17 -16 -20z" />
    <glyph glyph-name="afii10037" unicode="&#x423;" horiz-adv-x="495" 
d="M486 635l-239 -522q-48 -107 -187 -126h-4q-9 0 -14 6t-5 14q0 17 17 20q118 16 158 104l33 73l-231 430q-3 6 -3 10q0 9 6.5 14.5t14.5 5.5q12 0 17 -11l217 -404l184 403q6 12 17 12q9 0 15 -5.5t6 -14.5q0 -5 -2 -9z" />
    <glyph glyph-name="afii10038" unicode="&#x424;" horiz-adv-x="611" 
d="M273 190v354q-101 -35 -155 -106t-54 -157q0 -44 21 -76t73 -32q54 0 115 17zM551 462q0 44 -26 76.5t-76 32.5q-72 0 -136 -16v-351q102 42 170 123.5t68 134.5zM591 462q0 -69 -79.5 -162.5t-198.5 -137.5v-149q0 -20 -20 -20t-20 20v136q-58 -16 -115 -16
q-40 0 -68.5 15.5t-41.5 40t-18.5 47t-5.5 45.5q0 103 65 185t184 120v58q0 9 6 14.5t14 5.5t14 -5.5t6 -14.5v-48q62 15 136 15q70 0 106 -46t36 -103z" />
    <glyph glyph-name="afii10039" unicode="&#x425;" horiz-adv-x="441" 
d="M426 624q-70 -93 -179 -274l50.5 -102l62.5 -124.5l54 -100.5q3 -4 3 -10q0 -8 -6.5 -14t-14.5 -6q-10 0 -17 10q-46 84 -156 307q-111 -187 -166 -305q-6 -12 -18 -12q-8 0 -14 5.5t-6 14.5q0 6 2 9q61 130 180 330q-89 176 -163 280q-4 5 -4 12q0 8 6 14t14 6
q10 0 16 -9q74 -104 156 -263q96 159 168 256q5 8 15 8q8 0 14.5 -6t6.5 -14q0 -7 -4 -12z" />
    <glyph glyph-name="afii10040" unicode="&#x426;" horiz-adv-x="642" 
d="M622 -162q0 -9 -6 -14.5t-14 -5.5t-14 5.5t-6 14.5v191l-457 -31q-4 -1 -15 -1q-24 0 -24 19v631q0 9 6 14.5t14 5.5t14 -5.5t6 -14.5v-609l366 25v584q0 9 6 14.5t14 5.5t14 -5.5t6 -14.5v-581l68 5h2q8 0 14 -6t6 -14v-213z" />
    <glyph glyph-name="afii10041" unicode="&#x427;" horiz-adv-x="584" 
d="M505 379q-2 -1 -9 -5.5t-11 -7.5v-353q0 -9 -6 -14.5t-14 -5.5t-14 5.5t-6 14.5v330q-171 -97 -281 -97q-56 0 -81 20.5t-25 73.5v304q0 9 6 14.5t14 5.5t14 -5.5t6 -14.5v-304q0 -34 12 -44t54 -10q103 0 281 103v255q0 9 6 14.5t14 5.5t14 -5.5t6 -14.5v-231q5 3 9 3
q9 0 14.5 -6.5t5.5 -14.5q0 -10 -9 -16z" />
    <glyph glyph-name="afii10042" unicode="&#x428;" horiz-adv-x="782" 
d="M689 13q0 -9 -6 -14.5t-14 -5.5q-17 0 -20 16l-525 -14q-2 0 -7 -0.5t-8 -0.5q-23 0 -23 19v631q0 9 6 14.5t14 5.5t14 -5.5t6 -14.5v-609l245 7v603q0 9 6 14.5t14 5.5t14 -5.5t6 -14.5v-602l238 6v595q0 9 6 14.5t14 5.5t14 -5.5t6 -14.5v-631z" />
    <glyph glyph-name="afii10043" unicode="&#x429;" horiz-adv-x="804" 
d="M784 -154q0 -9 -6 -14.5t-14 -5.5t-14 5.5t-6 14.5v185l-619 -33q-5 -1 -15 -1q-24 0 -24 19v631q0 9 6 14.5t14 5.5t14 -5.5t6 -14.5v-609l234 13v597q0 9 6 14.5t14 5.5t14 -5.5t6 -14.5v-595l238 13v581q0 9 6 14.5t14 5.5t14 -5.5t6 -14.5v-579l85 4h1q8 0 14 -5.5
t6 -14.5v-206z" />
    <glyph glyph-name="afii10044" unicode="&#x42a;" horiz-adv-x="635" 
d="M562 294q0 38 -20.5 53.5t-76.5 15.5q-44 0 -118.5 -33.5t-136.5 -75.5v-217q136 25 244 112t108 145zM602 294q0 -51 -56 -115t-151 -117t-195 -68h-8q-22 0 -22 20v210q-7 -5 -13 -5q-8 0 -14 6.5t-6 14.5t7 15q2 2 11 9t15 11v349h-151q-20 0 -20 20t20 20h171
q8 0 14 -6t6 -14v-342q66 41 137 71t118 30q68 0 102.5 -25t34.5 -84z" />
    <glyph glyph-name="afii10045" unicode="&#x42b;" horiz-adv-x="677" 
d="M474 294q0 38 -20.5 53.5t-76.5 15.5q-46 0 -122 -35.5t-137 -78.5v-215q138 25 247 113t109 147zM514 294q0 -51 -56 -115.5t-150.5 -117.5t-194.5 -68q-2 0 -4 -0.5t-3 -0.5q-28 0 -28 22v206h-2l-2 -1q-8 0 -14.5 6.5t-6.5 14.5q0 7 8 15l17 14v375q0 9 6 14.5t14 5.5
t14 -5.5t6 -14.5v-347q65 43 137.5 74.5t121.5 31.5q68 0 102.5 -25t34.5 -84zM601 14q0 -20 -20 -20t-20 20v630q0 9 6 14.5t14 5.5t14 -5.5t6 -14.5v-630z" />
    <glyph glyph-name="afii10046" unicode="&#x42c;" horiz-adv-x="543" 
d="M474 294q0 38 -20.5 53.5t-76.5 15.5q-45 0 -120 -34.5t-135 -77.5v-216q136 25 244 112.5t108 146.5zM514 294q0 -51 -56 -115.5t-150.5 -117.5t-194.5 -68h-6q-25 0 -25 21v207q-6 -2 -8 -2q-8 0 -14.5 6.5t-6.5 14.5q0 7 8 15q15 13 21 17v372q0 9 6 14.5t14 5.5
t14 -5.5t6 -14.5v-345q64 43 135.5 73.5t119.5 30.5q68 0 102.5 -25t34.5 -84z" />
    <glyph glyph-name="afii10047" unicode="&#x42d;" horiz-adv-x="539" 
d="M500 387q0 -101 -37.5 -194.5t-103.5 -153.5t-142 -60q-65 0 -112 27.5t-69 62.5q-4 8 -4 11q0 8 6.5 14t14.5 6q10 0 17 -10q16 -26 54.5 -48.5t92.5 -22.5q85 0 158 97.5t84 230.5l-266 -34h-3q-9 0 -14 6t-5 14q0 17 17 20l272 35q0 101 -41 172.5t-113 71.5
q-70 0 -115 -23.5t-84 -74.5q-7 -8 -16 -8q-8 0 -14.5 6t-6.5 14q0 5 5 12q44 58 98 86t133 28q50 0 89 -26.5t61 -69.5t33 -91t11 -98z" />
    <glyph glyph-name="afii10048" unicode="&#x42e;" horiz-adv-x="780" 
d="M694 382q0 275 -163 275q-68 0 -130 -60t-98 -152t-36 -186q0 -89 41 -162t115 -73q84 0 147.5 54.5t93.5 134.5t30 169zM734 382q0 -69 -19 -137t-56 -127.5t-98.5 -96.5t-137.5 -37q-52 0 -92 28t-61.5 72t-32 88.5t-10.5 86.5q0 20 4 64h-106v-310q0 -9 -6 -14.5
t-14 -5.5t-14 5.5t-6 14.5v310h-7q-20 0 -20 20t20 20h7v280q0 20 20 20t20 -20v-280h113q28 135 108.5 234.5t184.5 99.5q203 0 203 -315z" />
    <glyph glyph-name="afii10049" unicode="&#x42f;" horiz-adv-x="577" 
d="M455 390v232q-78 -19 -149 -54.5t-120.5 -85.5t-49.5 -100q0 -46 72 -46q120 0 247 54zM515 375l-20 -18v-343q0 -20 -20 -20t-20 20v309l-398 -345q-5 -5 -13 -5t-14.5 6t-6.5 14q0 9 8 15l367 318q-92 -30 -190 -30q-56 0 -84 24.5t-28 61.5q0 51 35.5 99.5t92 84
t117 60.5t119.5 38h3l2 1q1 0 3 -1h2h5q20 0 20 -20v-235q8 2 10 2q8 0 13.5 -5.5t5.5 -13.5q0 -11 -9 -17z" />
    <glyph glyph-name="afii10065" unicode="&#x430;" horiz-adv-x="512" 
d="M399 182v71q-44 -2 -97 -17t-104 -40t-85 -66t-34 -88q0 -12 30 -12h3q68 0 146.5 48t138.5 102zM439 17q0 -9 -6 -14.5t-14 -5.5t-14 5.5t-6 14.5v112q-165 -139 -287 -139q-73 0 -73 52q0 56 37 105t93 79t116.5 47.5t113.5 19.5v88q0 25 -7 33t-30 8
q-67 0 -118.5 -26.5t-107.5 -79.5q-6 -6 -13 -6q-8 0 -14.5 6.5t-6.5 14.5t7 14q61 58 119.5 87.5t133.5 29.5q77 0 77 -81v-364z" />
    <glyph glyph-name="afii10066" unicode="&#x431;" horiz-adv-x="462" 
d="M375 311q0 50 -23 79t-64 29t-101 -38t-85 -67v-154v-33q0 -29 3.5 -48t19 -35.5t44.5 -16.5q46 0 94 42.5t80 109.5t32 132zM415 311q0 -112 -77.5 -218t-168.5 -106q-30 0 -51 10.5t-32 24.5t-16.5 39.5t-6.5 43t-1 47.5v8v145q0 112 27.5 164t120.5 93q16 7 52.5 21
t48.5 20q18 9 27.5 18.5t12 16t4.5 17.5q3 17 20 17q8 0 14 -5t6 -14v-5q-7 -38 -41 -64.5t-73 -38.5t-83 -32.5t-65 -47.5q-19 -26 -27 -92q41 34 93 60t89 26q62 0 94.5 -43t32.5 -105z" />
    <glyph glyph-name="afii10067" unicode="&#x432;" horiz-adv-x="468" 
d="M404 224q0 24 -16.5 34.5t-66.5 10.5q-51 0 -148 -44q-6 -2 -10 -2q-8 0 -13.5 6.5t-5.5 14.5q0 13 12 18q25 12 54 29.5t59 45.5t30 49q0 19 -13 27.5t-55 8.5q-43 0 -130 -38v-350q119 18 211 83.5t92 106.5zM444 224q0 -64 -110 -139.5t-241 -92.5h-3q-10 0 -19.5 8
t-9.5 17v347l-4 -2q-6 -3 -10 -3q-9 0 -14.5 6.5t-5.5 14.5q0 12 11 17q7 4 23 12v33q0 20 20 20t20 -20v-15q80 35 130 35q108 0 108 -76q0 -37 -42 -79q16 2 24 2q59 0 91 -19t32 -66z" />
    <glyph glyph-name="afii10068" unicode="&#x433;" horiz-adv-x="436" 
d="M389 95q-30 -37 -94.5 -70.5t-130.5 -33.5q-48 0 -80.5 22t-32.5 62q0 41 24.5 80.5t51.5 62t74 56.5t64 49q34 29 34 67q0 32 -49 32q-40 0 -87 -20.5t-70 -42.5q-5 -5 -13 -5t-14.5 6t-6.5 14q0 9 7 15q29 26 82.5 49.5t101.5 23.5q89 0 89 -72q0 -31 -15 -57
t-31.5 -40t-47.5 -36t-44 -33l-29 -23t-32 -27.5l-23 -25.5t-20.5 -34.5t-5.5 -38.5q0 -18 18 -31t55 -13q56 0 112.5 29.5t81.5 60.5q7 7 15 7t14.5 -6t6.5 -14t-5 -13z" />
    <glyph glyph-name="afii10069" unicode="&#x434;" horiz-adv-x="476" 
d="M353 415h-5q-36 0 -82 -24.5t-89.5 -66t-73 -107t-29.5 -138.5q0 -45 24 -45q37 0 98 56.5t110 142.5t49 155q0 18 -2 27zM401 21q0 -108 -47 -171.5t-129 -63.5q-52 0 -80 14t-51 45q-4 5 -4 12q0 8 6.5 14t14.5 6q10 0 15 -8q17 -23 36.5 -33t62.5 -10q61 0 98.5 49.5
t37.5 145.5v232q-46 -100 -126.5 -179.5t-136.5 -79.5q-32 0 -48 23t-16 62q0 79 32 151.5t80 120t102 76t100 28.5q14 0 26 -3q6 -1 16.5 -13t10.5 -19v-399z" />
    <glyph glyph-name="afii10070" unicode="&#x435;" horiz-adv-x="444" 
d="M367 351q-7 64 -86 64q-49 0 -89 -37t-68 -95q170 33 223 57zM408 341q0 -10 -13.5 -20.5t-38.5 -19.5t-51.5 -17.5t-60.5 -16l-57 -12.5t-50 -10t-31 -6q-22 -64 -22 -114q0 -52 21 -73.5t67 -21.5q62 0 115 43t77 93q6 11 18 11q8 0 14.5 -5.5t6.5 -13.5q0 -4 -3 -10
q-28 -58 -90 -108t-138 -50q-128 0 -128 135q0 65 27 139.5t83.5 132.5t126.5 58q36 0 62.5 -11.5t40 -30t19 -36.5t5.5 -36z" />
    <glyph glyph-name="afii10072" unicode="&#x436;" horiz-adv-x="593" 
d="M580 3q0 -8 -6 -14.5t-14 -6.5t-14 7l-234 239v-211q0 -9 -6 -14.5t-14 -5.5t-14 5.5t-6 14.5v211l-233 -239q-7 -7 -14 -7q-8 0 -14.5 6.5t-6.5 14.5q0 7 6 14l222 227l-192 183q-6 6 -6 14t6 14.5t14 6.5q6 0 14 -6l204 -194v180q0 9 6 14.5t14 5.5t14 -5.5t6 -14.5
v-181l205 195q6 6 13 6q8 0 14.5 -6.5t6.5 -14.5t-7 -14l-192 -183l222 -227q6 -8 6 -14z" />
    <glyph glyph-name="afii10073" unicode="&#x437;" horiz-adv-x="434" 
d="M399 191q0 -77 -71 -139t-165 -62q-48 0 -77.5 25t-35.5 55q-1 2 -1 5q0 9 6.5 14t14.5 5q16 0 19 -16q3 -17 21.5 -32.5t52.5 -15.5q80 0 138 51.5t58 109.5q0 21 -1.5 31.5t-8 22t-21 16t-38.5 4.5q-33 0 -72 -17q-6 -2 -9 -2q-9 0 -14.5 6t-5.5 15q0 12 13 18
q45 20 69.5 42t24.5 55q0 13 -3 20t-20.5 13.5t-50.5 6.5q-34 0 -75.5 -22t-47.5 -41q-4 -13 -18 -13q-21 0 -21 19q0 4 1 7q12 35 65 62.5t96 27.5q60 0 87 -19.5t27 -60.5q0 -44 -31 -77q32 -2 52 -12.5t28.5 -29.5t11 -34t2.5 -38z" />
    <glyph glyph-name="afii10074" unicode="&#x438;" horiz-adv-x="480" 
d="M403 17q0 -9 -6 -14.5t-14 -5.5t-14 5.5t-6 14.5v51q-99 -77 -189 -77q-40 0 -65 21t-25 61v360q0 9 6 14.5t14 5.5t14 -5.5t6 -14.5v-360q0 -42 50 -42q85 0 189 89v313q0 9 6 14.5t14 5.5t14 -5.5t6 -14.5v-416z" />
    <glyph glyph-name="afii10075" unicode="&#x439;" horiz-adv-x="480" 
d="M403 17q0 -9 -6 -14.5t-14 -5.5t-14 5.5t-6 14.5v51q-99 -77 -189 -77q-40 0 -65 21t-25 61v360q0 9 6 14.5t14 5.5t14 -5.5t6 -14.5v-360q0 -42 50 -42q85 0 189 89v313q0 9 6 14.5t14 5.5t14 -5.5t6 -14.5v-416zM411 646q-16 -45 -56.5 -73.5t-105.5 -28.5
q-70 0 -115.5 30.5t-53.5 75.5v4q0 9 6 14t14 5q17 0 20 -17q4 -27 37.5 -49.5t91.5 -22.5q97 0 124 76q4 13 18 13q8 0 14.5 -5.5t6.5 -13.5q0 -2 -0.5 -4t-0.5 -4z" />
    <glyph glyph-name="afii10076" unicode="&#x43a;" horiz-adv-x="444" 
d="M426 18q8 -5 8 -15q0 -8 -6 -14.5t-14 -6.5q-5 0 -12 5l-288 227v-197q0 -9 -6 -14.5t-14 -5.5t-14 5.5t-6 14.5v425q0 9 6 14.5t14 5.5t14 -5.5t6 -14.5v-187l225 203q8 5 14 5q8 0 14 -6.5t6 -14.5t-7 -14l-214 -193z" />
    <glyph glyph-name="afii10077" unicode="&#x43b;" horiz-adv-x="438" 
d="M420 20q1 -3 1 -7q0 -9 -6 -14.5t-15 -5.5q-14 0 -18 14l-131 374q-21 -44 -71 -120.5t-83 -139t-33 -108.5q0 -9 -6 -14.5t-14 -5.5t-14 5.5t-6 14.5q0 60 42.5 135.5t95.5 156t68 135.5l-5 15q-2 6 -2 7q0 9 6.5 14.5t14.5 5.5q13 0 19 -14z" />
    <glyph glyph-name="afii10078" unicode="&#x43c;" horiz-adv-x="604" 
d="M529 17q0 -9 -6 -14.5t-14 -5.5t-14 5.5t-6 14.5v316q-11 -20 -59 -93t-83 -134.5t-37 -89.5q0 -21 -20 -21q-17 0 -20 20q-3 35 -28 90t-70 133.5t-53 93.5v-315q0 -9 -6 -14.5t-14 -5.5t-14 5.5t-6 14.5v426q0 9 6 14.5t14 5.5t14 -5.5t6 -14.5q0 -11 7 -30.5t19.5 -44
l22.5 -44t23.5 -43l16.5 -28.5q62 -108 84 -165q16 32 67.5 111.5t90.5 147t39 96.5q0 9 6 14.5t14 5.5t14 -5.5t6 -14.5v-426z" />
    <glyph glyph-name="afii10079" unicode="&#x43d;" horiz-adv-x="479" 
d="M397 17q0 -20 -20 -20t-20 20v225q0 30 -43 30q-63 0 -193 -55v-200q0 -20 -20 -20t-20 20v185q-8 0 -13.5 6.5t-5.5 14.5q0 12 12 17l7 4v198q0 9 6 14.5t14 5.5t14 -5.5t6 -14.5v-181q124 51 193 51q24 0 43 -7v137q0 9 6 14.5t14 5.5t14 -5.5t6 -14.5v-425z" />
    <glyph glyph-name="afii10080" unicode="&#x43e;" horiz-adv-x="476" 
d="M395 284q0 148 -98 148q-82 0 -149 -83.5t-67 -185.5q0 -53 27 -88t81 -35q74 0 140 74t66 170zM435 284q0 -110 -76.5 -197t-169.5 -87q-74 0 -111 48.5t-37 114.5q0 74 34.5 145.5t94.5 117.5t127 46q51 0 83.5 -30.5t43.5 -70t11 -87.5z" />
    <glyph glyph-name="afii10081" unicode="&#x43f;" horiz-adv-x="479" 
d="M405 16q0 -9 -6 -14.5t-14 -5.5t-14 5.5t-6 14.5v399l-1 5q0 2 -10 2q-41 0 -224 -164v-242q0 -9 -6 -14.5t-14 -5.5t-14 5.5t-6 14.5v224q-11 5 -11 18q0 8 7 15l4 3v166q0 20 20 20t20 -20v-130q165 150 224 150q21 0 36 -11t15 -36v-399z" />
    <glyph glyph-name="afii10082" unicode="&#x440;" horiz-adv-x="482" 
d="M408 326q0 47 -14.5 69t-60.5 22q-56 0 -111 -54.5t-95 -123.5q-2 -3 -6 -7v-149v-1q20 -46 62 -46q46 0 99 45t89.5 113.5t36.5 131.5zM448 326q0 -70 -40 -147.5t-103 -130t-122 -52.5q-36 0 -62 21v-306q0 -20 -20 -20t-20 20v726q0 9 6 14.5t14 5.5q20 0 20 -20v-133
q42 63 97 108t115 45q37 0 61.5 -11.5t35.5 -33t14.5 -41t3.5 -45.5z" />
    <glyph glyph-name="afii10083" unicode="&#x441;" horiz-adv-x="456" 
d="M411 160q-30 -71 -91.5 -120.5t-132.5 -49.5q-67 0 -105.5 39.5t-38.5 122.5q0 136 82.5 223t168.5 87q34 0 64.5 -19t38.5 -50q0 -1 0.5 -3t0.5 -3q0 -9 -6.5 -14.5t-14.5 -5.5q-15 0 -19 15q0 2 -2 6q-16 34 -62 34q-30 0 -65.5 -18t-68.5 -50t-55 -85.5t-22 -116.5
q0 -66 27 -94t77 -28q56 0 108.5 42t79.5 103q4 13 17 13q9 0 15 -5.5t6 -14.5q0 -5 -2 -8z" />
    <glyph glyph-name="afii10084" unicode="&#x442;" horiz-adv-x="728" 
d="M653 16q0 -9 -6 -14.5t-14 -5.5t-14 5.5t-6 14.5v399v7q-60 -5 -229 -152q-2 -2 -3 -2v-252q0 -9 -6 -14.5t-14 -5.5t-14 5.5t-6 14.5v399q0 5 -1 7q-61 -4 -213 -139l-1 -1q-2 0 -2 -1v-265q0 -9 -6 -14.5t-14 -5.5t-14 5.5t-6 14.5v426q0 20 20 20t20 -20v-108
q154 128 220 128q37 0 37 -47v-95q166 142 235 142q37 0 37 -47v-399z" />
    <glyph glyph-name="afii10085" unicode="&#x443;" horiz-adv-x="432" 
d="M421 427l-163 -485q-24 -71 -62 -106.5t-81 -35.5q-50 0 -82.5 30t-43.5 76q-1 2 -1 6q0 19 21 19q15 0 19 -15q9 -34 31.5 -55t55.5 -21q27 0 56 26.5t49 88.5l16 46l-2 4l-219 412q-2 8 -2 10q0 8 6.5 14t14.5 6q12 0 17 -11l202 -383l130 387q6 14 19 14
q8 0 14.5 -5.5t6.5 -13.5q0 -2 -2 -8z" />
    <glyph glyph-name="afii10086" unicode="&#x444;" horiz-adv-x="615" 
d="M290 39v364q-91 -28 -148 -90.5t-57 -154.5q0 -56 36.5 -90.5t88.5 -34.5q42 0 80 6zM544 318q0 53 -34 79t-87 26q-47 0 -93 -9v-367q74 19 124 63t70 96t20 112zM584 318q0 -109 -63 -195.5t-191 -116.5v-300q0 -20 -20 -20t-20 20v293q-38 -6 -80 -6q-68 0 -116.5 46
t-48.5 119q0 111 69.5 183.5t175.5 103.5v204q0 9 6 14.5t14 5.5t14 -5.5t6 -14.5v-195q48 9 93 9q66 0 113.5 -35.5t47.5 -109.5z" />
    <glyph glyph-name="afii10087" unicode="&#x445;" horiz-adv-x="397" 
d="M384 20v-4q0 -9 -6 -14t-14 -5q-17 0 -20 17q-1 8 -6.5 19t-16.5 25l-21 26.5t-26 29.5l-26 27.5l-26.5 27.5l-22.5 23l-140 -187q-5 -8 -16 -8q-8 0 -14 6t-6 14q0 7 4 12l144 193q-111 124 -141 202q-2 4 -2 8q0 8 6.5 13.5t14.5 5.5q14 0 18 -13q30 -76 128 -183
l141 188q5 8 15 8q8 0 14.5 -6t6.5 -14q0 -7 -4 -12l-145 -194q61 -63 87 -92q68 -74 74 -113z" />
    <glyph glyph-name="afii10088" unicode="&#x446;" horiz-adv-x="520" 
d="M496 -121q0 -9 -6 -14.5t-14 -5.5t-14 5.5t-6 14.5v132q-16 -18 -43 -18q-25 0 -42 17.5t-17 52.5v4q-99 -74 -189 -74q-40 0 -65.5 21t-25.5 61v360q0 9 6 14.5t14 5.5t14 -5.5t6 -14.5v-360q0 -42 51 -42q84 0 189 85v317q0 9 6 14.5t14 5.5t14 -5.5t6 -14.5v-372
q0 -30 19 -30q27 0 43 30v21q0 20 20 20t20 -20v-205z" />
    <glyph glyph-name="afii10089" unicode="&#x447;" horiz-adv-x="431" 
d="M376 262q-1 -1 -7 -4.5t-10 -5.5v-235q0 -20 -20 -20t-20 20v214q-126 -63 -193 -63q-41 0 -60 15t-19 54v206q0 9 6 14.5t14 5.5t14 -5.5t6 -14.5v-206q0 -19 6 -24t33 -5q64 0 193 68v167q0 9 6 14.5t14 5.5t14 -5.5t6 -14.5v-145q4 2 7 2q8 0 14 -6.5t6 -14.5
q0 -11 -10 -17z" />
    <glyph glyph-name="afii10090" unicode="&#x448;" horiz-adv-x="724" 
d="M641 16q0 -9 -6 -14.5t-14 -5.5t-14 5.5t-6 14.5v54q-114 -80 -195 -80q-33 0 -48.5 23t-16.5 48q-108 -71 -194 -71q-34 0 -49.5 24t-15.5 49v379q0 20 20 20t20 -20v-379q0 -14 6.5 -23.5t18.5 -9.5q46 0 103.5 27t90.5 53v332q0 20 20 20t20 -20v-379q0 -14 6.5 -23.5
t18.5 -9.5q44 0 101.5 30.5t93.5 59.5v322q0 20 20 20t20 -20v-426z" />
    <glyph glyph-name="afii10091" unicode="&#x449;" horiz-adv-x="759" 
d="M744 -120q0 -20 -20 -20t-20 20v132q-17 -17 -43 -17q-25 0 -42.5 18t-17.5 52v7q-114 -80 -195 -80q-33 0 -48.5 23t-16.5 48q-111 -71 -194 -71q-34 0 -49.5 24t-15.5 49v380q0 9 6 14.5t14 5.5t14 -5.5t6 -14.5v-380q0 -14 6.5 -23.5t18.5 -9.5q46 0 103.5 27t90.5 53
v333q0 9 6 14.5t14 5.5t14 -5.5t6 -14.5v-380q0 -14 7 -23.5t18 -9.5q44 0 102.5 30.5t92.5 59.5v323q0 9 6 14.5t14 5.5t14 -5.5t6 -14.5v-380q0 -30 20 -30q28 0 43 30v21q0 20 20 20t20 -20v-206z" />
    <glyph glyph-name="afii10092" unicode="&#x44a;" horiz-adv-x="503" 
d="M440 215q0 23 -14.5 33t-57.5 10q-34 0 -90.5 -23t-103.5 -53v-143q105 19 185.5 78.5t80.5 97.5zM480 215q0 -61 -100 -132t-218 -87h-4q-10 0 -17 6t-7 15v139h-4q-8 0 -14 6.5t-6 14.5q0 10 8 15q10 8 16 12v219h-120q-20 0 -20 20t20 20h140q8 0 14 -6.5t6 -13.5
v-215q120 70 194 70q112 0 112 -83z" />
    <glyph glyph-name="afii10093" unicode="&#x44b;" horiz-adv-x="567" 
d="M375 215q0 23 -14 33t-57 10q-34 0 -90.5 -23.5t-103.5 -53.5v-143q104 19 184.5 79t80.5 98zM415 215q0 -61 -99.5 -132t-217.5 -87q-1 -1 -4 -1q-9 0 -16.5 6.5t-7.5 15.5v139h-2q-8 0 -14.5 6.5t-6.5 14.5q0 9 8 15q2 2 7 5.5l8 5.5v239q0 20 20 20t20 -20v-214
q124 70 194 70q54 0 82.5 -18.5t28.5 -64.5zM499 17q0 -9 -6 -14.5t-14 -5.5t-14 5.5t-6 14.5v425q0 20 20 20t20 -20v-425z" />
    <glyph glyph-name="afii10094" unicode="&#x44c;" horiz-adv-x="454" 
d="M424 215q0 -61 -99.5 -132t-217.5 -87q-1 -1 -4 -1q-9 0 -16.5 6.5t-7.5 15.5v139h-2q-8 0 -14.5 6.5t-6.5 14.5q0 9 8 15q2 2 7 5.5l8 5.5v239q0 20 20 20t20 -20v-214q124 70 194 70q54 0 82.5 -18.5t28.5 -64.5zM384 215q0 23 -14 33t-57 10q-34 0 -90.5 -23.5
t-103.5 -53.5v-143q104 19 184.5 79t80.5 98z" />
    <glyph glyph-name="afii10095" unicode="&#x44d;" horiz-adv-x="423" 
d="M381 265q0 -108 -64 -195t-151 -87q-49 0 -85.5 19t-53.5 44q-4 5 -4 11q0 8 6.5 14t14.5 6q9 0 16 -8q11 -17 38.5 -31.5t67.5 -14.5q59 0 111 61t62 146l-191 -22q-1 -1 -3 -1q-9 0 -14 6.5t-5 14.5q0 18 17 19l198 24q-2 65 -29 109t-71 44q-94 0 -154 -73
q-6 -7 -15 -7q-8 0 -14.5 6t-6.5 14q0 6 5 13q73 87 185 87q48 0 81 -33t46 -76t13 -90z" />
    <glyph glyph-name="afii10096" unicode="&#x44e;" horiz-adv-x="644" 
d="M566 274q0 68 -23.5 108t-73.5 40q-82 0 -149.5 -83.5t-67.5 -185.5q0 -53 27 -88t81 -35q74 0 140 74t66 170zM606 274q0 -110 -76.5 -197t-169.5 -87q-74 0 -111 48.5t-37 114.5q0 40 11 82h-100v-218q0 -9 -6 -14.5t-14 -5.5t-14 5.5t-6 14.5v218h-9q-20 0 -20 20
t20 20h9v167q0 20 20 20t20 -20v-167h114q32 80 95.5 133.5t136.5 53.5q38 0 66 -17t43 -45.5t21.5 -59.5t6.5 -66z" />
    <glyph glyph-name="afii10097" unicode="&#x44f;" horiz-adv-x="464" 
d="M355 275v143q-97 -20 -173.5 -64.5t-76.5 -89.5q0 -24 54 -24q98 0 196 35zM409 254l-14 -10v-227q0 -20 -20 -20t-20 20v199l-304 -216q-8 -4 -11 -4q-8 0 -14.5 6.5t-6.5 14.5q0 10 9 16l254 180q-62 -13 -123 -13q-45 0 -69.5 17.5t-24.5 46.5q0 37 29.5 71.5
t76.5 58.5t96 41t96 26q1 0 4 0.5t5 0.5q23 0 23 -26v-146h3l2 1q9 0 14.5 -5.5t5.5 -13.5q0 -10 -11 -18z" />
    <glyph glyph-name="afii10071" unicode="&#x451;" horiz-adv-x="444" 
d="M367 351q-7 64 -86 64q-49 0 -89 -37t-68 -95q170 33 223 57zM408 341q0 -10 -13.5 -20.5t-38.5 -19.5t-51.5 -17.5t-60.5 -16l-57 -12.5t-50 -10t-31 -6q-22 -64 -22 -114q0 -52 21 -73.5t67 -21.5q62 0 115 43t77 93q6 11 18 11q8 0 14.5 -5.5t6.5 -13.5q0 -4 -3 -10
q-28 -58 -90 -108t-138 -50q-128 0 -128 135q0 65 27 139.5t83.5 132.5t126.5 58q36 0 62.5 -11.5t40 -30t19 -36.5t5.5 -36zM152 557q0 -9 -6 -14.5t-14 -5.5t-14 5.5t-6 14.5v36q0 9 6 14.5t14 5.5t14 -5.5t6 -14.5v-36zM336 557q0 -9 -6 -14.5t-14 -5.5t-14 5.5t-6 14.5
v36q0 9 6 14.5t14 5.5t14 -5.5t6 -14.5v-36z" />
    <glyph glyph-name="afii10099" unicode="&#x452;" horiz-adv-x="479" 
d="M10 521l69 15v111q0 9 6 14.5t14 5.5t14 -5.5t6 -14.5v-103l129 28q1 0 2.5 0.5t2.5 0.5q9 0 14 -6.5t5 -14.5q0 -16 -16 -19l-137 -30v-190q127 137 216 137q34 0 48.5 -19t14.5 -58v-253q0 -174 -197 -317q-7 -5 -12 -5q-8 0 -14 6.5t-6 14.5q0 9 9 16q180 134 180 285
v253v11q0 14 -4 20t-19 6q-69 0 -215 -154l-1 -2v-237q0 -20 -20 -20t-20 20v478l-60 -13h-3l-2 -1q-9 0 -14 6.5t-5 14.5q0 16 15 19z" />
    <glyph glyph-name="afii10100" unicode="&#x453;" horiz-adv-x="463" 
d="M389 95q-30 -37 -94.5 -70.5t-130.5 -33.5q-48 0 -80.5 22t-32.5 62q0 41 24.5 80.5t51.5 62t74 56.5t64 49q34 29 34 67q0 32 -49 32q-40 0 -87 -20.5t-70 -42.5q-5 -5 -13 -5t-14.5 6t-6.5 14q0 9 7 15q29 26 82.5 49.5t101.5 23.5q89 0 89 -72q0 -31 -15 -57
t-31.5 -40t-47.5 -36t-44 -33l-29 -23t-32 -27.5l-23 -25.5t-20.5 -34.5t-5.5 -38.5q0 -18 18 -31t55 -13q56 0 112.5 29.5t81.5 60.5q7 7 15 7t14.5 -6t6.5 -14t-5 -13zM308 671l-109 -135q-5 -8 -15 -8q-8 0 -14.5 6t-6.5 14q0 5 5 12l108 136q7 8 16 8q8 0 14 -6t6 -14
t-4 -13z" />
    <glyph glyph-name="afii10101" unicode="&#x454;" horiz-adv-x="456" 
d="M389 160q-30 -71 -91.5 -120.5t-132.5 -49.5q-67 0 -105.5 39.5t-38.5 122.5q0 136 82.5 223t168.5 87q34 0 64.5 -19t38.5 -50q0 -1 0.5 -3t0.5 -3q0 -9 -6.5 -14.5t-14.5 -5.5q-15 0 -19 15q0 2 -2 6q-16 34 -62 34q-51 0 -110.5 -46.5t-85.5 -125.5l191 23h3
q19 0 19 -21q0 -18 -17 -19l-207 -25q-4 -24 -4 -56q0 -66 27 -94t77 -28q56 0 108.5 42t79.5 103q4 13 17 13q9 0 15 -5.5t6 -14.5q0 -5 -2 -8z" />
    <glyph glyph-name="afii10102" unicode="&#x455;" horiz-adv-x="491" 
d="M450 226q0 -61 -42 -117t-100.5 -87.5t-111.5 -31.5q-40 0 -69 11.5t-40.5 24t-23.5 31.5q-3 6 -3 11q0 8 6.5 14t14.5 6q10 0 16 -10q9 -15 16 -23t29 -16.5t54 -8.5q70 0 142 61.5t72 134.5q0 29 -10.5 41t-38.5 12q-44 0 -124.5 -48t-119.5 -48q-34 0 -49 24.5
t-15 55.5q0 88 91 147.5t210 59.5q20 0 20 -20t-20 -20q-108 0 -184.5 -51t-76.5 -116q0 -40 24 -40q25 0 66 24t88.5 48t89.5 24q89 0 89 -93z" />
    <glyph glyph-name="afii10103" unicode="&#x456;" horiz-adv-x="200" 
d="M125 14q0 -9 -6 -14.5t-14 -5.5t-14 5.5t-6 14.5v418q0 9 6 14.5t14 5.5t14 -5.5t6 -14.5v-418zM125 564q0 -20 -20 -20t-20 20v41q0 9 6 14.5t14 5.5t14 -5.5t6 -14.5v-41z" />
    <glyph glyph-name="afii10104" unicode="&#x457;" horiz-adv-x="200" 
d="M120 14q0 -9 -6 -14.5t-14 -5.5t-14 5.5t-6 14.5v418q0 9 6 14.5t14 5.5t14 -5.5t6 -14.5v-418zM30 557h1q0 -9 -6 -14.5t-14 -5.5t-14.5 5.5t-6.5 14.5v36q0 9 6 14.5t14 5.5t14 -5.5t6 -14.5v-36zM215 557q0 -9 -6 -14.5t-14 -5.5t-14.5 5.5t-6.5 14.5v36q0 9 6 14.5
t14 5.5t14.5 -5.5t6.5 -14.5v-36z" />
    <glyph glyph-name="afii10105" unicode="&#x458;" horiz-adv-x="221" 
d="M138 -70q0 -32 -4.5 -60.5t-16.5 -57.5t-37 -46.5t-61 -17.5q-46 0 -69 17t-39 46q-3 6 -3 11q0 8 6.5 13.5t14.5 5.5q11 0 17 -10q8 -15 14 -22t21 -14t38 -7q79 0 79 142v491q0 20 20 20t20 -20v-491zM138 568q0 -9 -6 -14.5t-14 -5.5t-14 5.5t-6 14.5v41q0 20 20 20
t20 -20v-41z" />
    <glyph glyph-name="afii10106" unicode="&#x459;" horiz-adv-x="735" 
d="M665 215q0 23 -14.5 33t-57.5 10q-34 0 -105.5 -23t-125.5 -50l53 -151q102 18 176 79.5t74 101.5zM705 215q0 -62 -91 -134.5t-208 -88.5h-3q-16 0 -21 15l-56 159q-4 -4 -7 -5q-5 -5 -12 -5q-8 0 -14 6.5t-6 14.5q0 10 8 15q7 6 18 12l-62 177q-21 -44 -71 -120.5
t-83 -139t-33 -108.5q0 -9 -6 -14.5t-14 -5.5t-14 5.5t-6 14.5q0 60 42.5 135.5t95.5 156t68 135.5l-5 15q-2 6 -2 7q0 9 6.5 14.5t14.5 5.5q13 0 19 -14l86 -245q60 29 133 52t111 23q112 0 112 -83z" />
    <glyph glyph-name="afii10107" unicode="&#x45a;" horiz-adv-x="704" 
d="M638 215q0 23 -14.5 33t-57.5 10q-81 0 -194 -29v-195q104 18 185 80t81 101zM678 215q0 -61 -98.5 -134t-215.5 -89h-2q-10 0 -20 8t-10 17v201q-109 -32 -211 -81v-120q0 -9 -6 -14.5t-14 -5.5t-14 5.5t-6 14.5v100l-10 -6q-5 -3 -10 -3q-8 0 -14 6.5t-6 14.5
q0 11 10 17q23 13 30 16v280q0 20 20 20t20 -20v-260q108 48 211 78v182q0 20 20 20t20 -20v-172q109 28 194 28q112 0 112 -83z" />
    <glyph glyph-name="afii10108" unicode="&#x45b;" horiz-adv-x="479" 
d="M400 13q0 -9 -6 -14.5t-14 -5.5t-14 5.5t-6 14.5v356v11q0 14 -4 20t-18 6q-71 0 -215 -154l-2 -2v-237q0 -9 -6 -14.5t-14 -5.5t-14 5.5t-6 14.5v478l-60 -12q-1 -1 -5 -1q-19 0 -19 21q0 15 16 19l68 14v112q0 9 6 14.5t14 5.5t14 -5.5t6 -14.5v-103l129 28h5
q9 0 14.5 -6t5.5 -14q0 -16 -16 -19l-138 -30v-190q128 136 217 136q34 0 48 -18.5t14 -58.5v-356z" />
    <glyph glyph-name="afii10109" unicode="&#x45c;" horiz-adv-x="444" 
d="M426 18q8 -5 8 -15q0 -8 -6 -14.5t-14 -6.5q-5 0 -12 5l-288 227v-197q0 -9 -6 -14.5t-14 -5.5t-14 5.5t-6 14.5v425q0 9 6 14.5t14 5.5t14 -5.5t6 -14.5v-187l225 203q8 5 14 5q8 0 14 -6.5t6 -14.5t-7 -14l-214 -193zM308 671l-109 -135q-5 -8 -15 -8q-8 0 -14.5 6
t-6.5 14q0 5 5 12l108 136q7 8 16 8q8 0 14 -6t6 -14t-4 -13z" />
    <glyph glyph-name="afii10110" unicode="&#x45e;" horiz-adv-x="432" 
d="M421 427l-163 -485q-24 -71 -62 -106.5t-81 -35.5q-50 0 -82.5 30t-43.5 76q-1 2 -1 6q0 19 21 19q15 0 19 -15q9 -34 31.5 -55t55.5 -21q27 0 56 26.5t49 88.5l16 46l-2 4l-219 412q-2 8 -2 10q0 8 6.5 14t14.5 6q12 0 17 -11l202 -383l130 387q6 14 19 14
q8 0 14.5 -5.5t6.5 -13.5q0 -2 -2 -8zM381 646q-16 -45 -56.5 -73.5t-105.5 -28.5q-70 0 -115.5 30.5t-53.5 75.5v4q0 9 6 14t14 5q17 0 20 -17q4 -27 37.5 -49.5t91.5 -22.5q97 0 124 76q4 13 18 13q8 0 14.5 -5.5t6.5 -13.5q0 -2 -0.5 -4t-0.5 -4z" />
    <glyph glyph-name="afii10193" unicode="&#x45f;" horiz-adv-x="480" 
d="M399 19q0 -9 -6 -14.5t-14 -5.5t-14 5.5t-6 14.5v51q-56 -43 -103 -61v-129q0 -9 -6 -14.5t-14 -5.5t-14 5.5t-6 14.5v118q-25 -5 -46 -5q-40 0 -65.5 21t-25.5 61v360q0 9 6 14.5t14 5.5t14 -5.5t6 -14.5v-360q0 -42 51 -42q24 0 47 6q4 13 19 13q6 0 12 -3
q45 19 111 73v313q0 9 6 14.5t14 5.5t14 -5.5t6 -14.5v-416z" />
    <glyph glyph-name="afii10050" unicode="&#x490;" horiz-adv-x="474" 
d="M271 653v-93q34 8 64 8q34 0 59.5 -22t32.5 -49q1 -3 1 -7q0 -8 -6 -13.5t-14 -5.5q-14 0 -19 15q-4 15 -20 28.5t-34 13.5q-34 0 -64 -9v-349q78 29 129 96q8 9 16 9t14.5 -6t6.5 -14q0 -5 -5 -13q-22 -31 -64 -64t-97 -50v-174q0 -9 -6 -14.5t-14 -5.5t-14 5.5t-6 14.5
v165q-26 -4 -41 -4q-63 0 -101.5 51t-38.5 123q0 77 50 151t131 107v106q0 9 6 14.5t14 5.5t14 -5.5t6 -14.5zM231 159v344q-63 -31 -102 -91.5t-39 -122.5q0 -59 29 -96.5t71 -37.5q15 0 41 4z" />
    <glyph glyph-name="afii10098" unicode="&#x491;" horiz-adv-x="485" 
d="M398 294q-5 5 -5 12q0 40 -25 72t-80 32q-34 0 -69.5 -17t-68 -49t-53 -86.5t-20.5 -121.5q0 -60 24.5 -85.5t84.5 -25.5q47 0 87 26.5t65.5 68t41 87t18.5 87.5zM438 312q0 -134 -77.5 -230.5t-174.5 -96.5q-77 0 -113 37.5t-36 113.5q0 74 23.5 135.5t61 99.5t81 58.5
t85.5 20.5q65 0 104 -39q-7 40 -31 93q-18 40 -75.5 78t-114.5 47q-17 3 -17 20q0 20 20 20h3q66 -10 131.5 -54t88.5 -95q23 -50 32 -91t9 -117z" />
    <glyph glyph-name="endash" unicode="&#x2013;" horiz-adv-x="500" 
d="M484 272h-466q-20 0 -20 20t20 20h466q20 0 20 -20t-20 -20z" />
    <glyph glyph-name="emdash" unicode="&#x2014;" horiz-adv-x="1000" 
d="M980 270h-954q-20 0 -20 20t20 20h954q20 0 20 -20t-20 -20z" />
    <glyph glyph-name="quoteleft" unicode="&#x2018;" horiz-adv-x="208" 
d="M152 661l-41 -121q-5 -14 -18 -14q-9 0 -15 5.5t-6 14.5q0 4 1 7l41 120q4 14 18 14q21 0 21 -19q0 -5 -1 -7z" />
    <glyph glyph-name="quoteright" unicode="&#x2019;" horiz-adv-x="208" 
d="M152 661l-41 -121q-5 -14 -18 -14q-9 0 -15 5.5t-6 14.5q0 4 1 7l41 120q4 14 18 14q21 0 21 -19q0 -5 -1 -7z" />
    <glyph glyph-name="quotesinglbase" unicode="&#x201a;" horiz-adv-x="208" 
d="M122 33l-40 -120q-6 -14 -19 -14q-8 0 -14 5.5t-6 13.5q0 5 1 7l41 121q4 14 18 14q8 0 14.5 -5.5t6.5 -14.5q0 -1 -2 -7z" />
    <glyph glyph-name="quotedblleft" unicode="&#x201c;" horiz-adv-x="306" 
d="M125 661l-41 -121q-5 -14 -18 -14q-8 0 -14.5 5.5t-6.5 14.5q0 1 2 7l40 120q6 14 19 14q8 0 14 -5t6 -14q0 -5 -1 -7zM252 661l-41 -121q-5 -14 -18 -14q-9 0 -15 5.5t-6 14.5q0 4 1 7l41 120q4 14 18 14q21 0 21 -19q0 -5 -1 -7z" />
    <glyph glyph-name="quotedblright" unicode="&#x201d;" horiz-adv-x="306" 
d="M125 661l-41 -121q-5 -14 -18 -14q-8 0 -14.5 5.5t-6.5 14.5q0 1 2 7l40 120q6 14 19 14q8 0 14 -5t6 -14q0 -5 -1 -7zM252 661l-41 -121q-5 -14 -18 -14q-9 0 -15 5.5t-6 14.5q0 4 1 7l41 120q4 14 18 14q21 0 21 -19q0 -5 -1 -7z" />
    <glyph glyph-name="quotedblbase" unicode="&#x201e;" horiz-adv-x="305" 
d="M122 33l-40 -120q-6 -14 -19 -14q-8 0 -14 5.5t-6 13.5q0 5 1 7l41 121q4 14 18 14q8 0 14.5 -5.5t6.5 -14.5q0 -1 -2 -7zM249 33l-41 -120q-4 -14 -18 -14q-8 0 -14.5 5.5t-6.5 13.5q0 2 0.5 4t0.5 3l41 121q4 14 18 14q9 0 15 -5.5t6 -14.5q0 -4 -1 -7z" />
    <glyph glyph-name="dagger" unicode="&#x2020;" horiz-adv-x="449" 
d="M74 468h130v172q0 9 6 14.5t14 5.5t14 -5.5t6 -14.5v-172h137q20 0 20 -20t-20 -20h-137v-415q0 -9 -6 -14.5t-14 -5.5t-14 5.5t-6 14.5v415h-130q-20 0 -20 20t20 20z" />
    <glyph glyph-name="bullet" unicode="&#x2022;" horiz-adv-x="396" 
d="M228 520q30 0 51.5 -6t43 -23.5t32.5 -55.5t11 -96q0 -47 -16 -84t-39 -58t-51.5 -35t-50.5 -18.5t-39 -4.5q-65 0 -101 55.5t-36 106.5q0 57 14.5 99.5t35.5 64.5t50 35t50 16.5t45 3.5z" />
    <glyph glyph-name="ellipsis" unicode="&#x2026;" horiz-adv-x="871" 
d="M149 25q0 -20 -20 -20t-20 20v31q0 9 6 14.5t14 5.5t14 -5.5t6 -14.5v-31zM448 25q0 -20 -20 -20t-20 20v31q0 9 6 14.5t14 5.5t14 -5.5t6 -14.5v-31zM747 25q0 -20 -20 -20t-20 20v31q0 9 6 14.5t14 5.5t14 -5.5t6 -14.5v-31z" />
    <glyph glyph-name="perthousand" unicode="&#x2030;" horiz-adv-x="919" 
d="M535 128q0 64 -38 64q-37 0 -68 -38.5t-31 -85.5q0 -51 44 -51q32 0 62.5 33.5t30.5 77.5zM236 582q0 65 -39 65q-36 0 -67 -38.5t-31 -86.5q0 -51 44 -51q32 0 62.5 33.5t30.5 77.5zM575 128q0 -59 -41 -105t-92 -46q-42 0 -63 27.5t-21 63.5q0 61 41 112.5t98 51.5
q42 0 60 -31.5t18 -72.5zM447 645l-231 -639q-4 -14 -18 -14q-8 0 -14.5 5.5t-6.5 14.5q0 1 0.5 3t0.5 4l231 640q4 13 18 13q8 0 14.5 -5.5t6.5 -13.5q0 -5 -1 -8zM276 582q0 -58 -41 -104.5t-92 -46.5q-42 0 -63 27.5t-21 63.5q0 61 41 113t97 52q43 0 61 -31.5t18 -73.5z
M825 128q0 64 -38 64q-37 0 -68 -38.5t-31 -85.5q0 -51 44 -51q32 0 62.5 33.5t30.5 77.5zM865 128q0 -59 -41 -105t-92 -46q-42 0 -63 27.5t-21 63.5q0 61 41 112.5t98 51.5q42 0 60 -31.5t18 -72.5z" />
    <glyph glyph-name="guilsinglleft" unicode="&#x2039;" horiz-adv-x="283" 
d="M232 115q5 -5 5 -12q0 -8 -6 -14.5t-14 -6.5t-16 8l-156 189q-4 4 -4 13t4 13l157 188q5 8 15 8q8 0 14 -6.5t6 -14.5q0 -7 -5 -12l-146 -176z" />
    <glyph glyph-name="guilsinglright" unicode="&#x203a;" horiz-adv-x="283" 
d="M232 279l-156 -189q-8 -8 -15 -8q-8 0 -14.5 6.5t-6.5 14.5q0 7 5 12l146 177l-146 176q-5 5 -5 12q0 8 6.5 14.5t14.5 6.5t15 -8l156 -188q4 -4 4 -13t-4 -13z" />
    <glyph glyph-name="Euro" unicode="&#x20ac;" 
d="M577 536h-16q-8 55 -56.5 82t-120.5 27q-118 0 -173 -66t-71 -186h375l-13 -27h-365q0 -4 -0.5 -15t-0.5 -16q0 -25 1 -33h334l-13 -26h-319q12 -125 75 -193.5t170 -68.5q67 0 117 27t60 87h16l-6 -69q-56 -71 -191 -71q-125 0 -196.5 73.5t-83.5 214.5h-75l13 26h59
q-1 8 -1 33q0 3 0.5 15t0.5 16h-72l13 27h62q18 136 81 207.5t199 71.5t191 -64z" />
    <glyph glyph-name="afii61352" unicode="&#x2116;" horiz-adv-x="877" 
d="M777 307q0 78 -49 78q-44 0 -81 -46t-37 -103q0 -28 14 -45.5t41 -17.5q40 0 76 40.5t36 93.5zM534 14q0 -21 -20 -21t-20 21q0 29 -194 283q-121 166 -162 239v-522q0 -20 -20 -20t-20 20v630q0 20 20 20t20 -20q0 -38 68.5 -143t168 -239t119.5 -164v546q0 9 6 14.5
t14 5.5t14 -5.5t6 -14.5v-630zM797 8h-217q-20 0 -20 20t20 20h217q20 0 20 -20t-20 -20zM817 307q0 -68 -47 -121t-105 -53q-48 0 -71.5 31t-23.5 72q0 70 47 129.5t111 59.5q48 0 68.5 -35.5t20.5 -82.5z" />
    <glyph glyph-name="trademark" unicode="&#x2122;" horiz-adv-x="764" 
d="M386 575v-261q0 -9 -6 -14.5t-14 -5.5t-14 5.5t-6 14.5v378q0 21 20 21t20 -21q0 -20 27.5 -81.5l61 -131t41.5 -90.5q11 25 50.5 94t68 126.5t28.5 82.5q0 21 20 21t20 -21v-378q0 -9 -6 -14.5t-14 -5.5t-14 5.5t-6 14.5v263l-43.5 -76t-61 -114.5t-24.5 -73.5
q-2 -21 -20 -21t-20 21q-2 23 -15.5 61t-27 66.5l-36.5 75t-29 59.5zM44 680l242 46q1 1 4 1q9 0 14 -6.5t5 -14.5q0 -16 -16 -19l-114 -22v-346q0 -9 -6 -14.5t-14 -5.5t-14 5.5t-6 14.5v338l-88 -16q-1 -1 -4 -1q-9 0 -14.5 6.5t-5.5 14.5q0 16 17 19z" />
    <glyph glyph-name="approxequal" unicode="&#x2248;" horiz-adv-x="569" 
d="M535 141q0 -72 -49.5 -113.5t-120.5 -41.5q-50 0 -76 11t-59 45q-6 6 -6 13q0 8 6.5 14.5t14.5 6.5t14 -7q27 -28 45 -35.5t61 -7.5q57 0 93.5 31.5t36.5 83.5q0 39 -33.5 73t-73.5 55t-73.5 52t-33.5 66q0 29 19 51t42.5 34t42.5 35t19 54q0 36 -25.5 63.5t-77.5 27.5
q-55 0 -98 -35t-43 -77v-527q0 -9 -6 -14.5t-14 -5.5t-14 5.5t-6 14.5v364l-77 -18h-6q-9 0 -14 6t-5 14q0 16 16 19l86 20v122q0 62 56.5 107t124.5 45q69 0 106 -39.5t37 -91.5q0 -32 -12.5 -56.5t-31 -39t-36.5 -26t-30.5 -24.5t-12.5 -28q0 -19 22 -38t53.5 -38.5
t63 -42t53.5 -55.5t22 -72z" />
    <glyph glyph-name="lessequal" unicode="&#x2264;" horiz-adv-x="554" 
d="M450 34q9 -6 9 -16q0 -8 -6 -14t-14 -6q-6 0 -12 3l-316 219q-9 5 -9 16q0 8 6 14t14 6q5 0 11 -3zM450 207q9 -7 9 -16q0 -8 -6 -14.5t-14 -6.5q-7 0 -12 4l-313 217l-4 4q-8 6 -8 16q0 11 10 17l317 181q5 3 10 3q8 0 14 -6.5t6 -14.5q0 -10 -11 -17l-289 -165z" />
    <glyph glyph-name="greaterequal" unicode="&#x2265;" horiz-adv-x="554" 
d="M443 220l-317 -219q-6 -3 -11 -3q-8 0 -14 6t-6 14q0 11 9 16l316 219q6 3 12 3q8 0 14 -6t6 -14q0 -10 -9 -16zM444 395q-1 -2 -5 -4l-313 -217q-5 -4 -11 -4q-8 0 -14 6.5t-6 14.5q0 10 9 16l291 202l-290 165q-10 7 -10 17q0 9 5.5 15t14.5 6q4 0 10 -3l316 -181
q11 -6 11 -17q0 -10 -8 -16z" />
    <glyph glyph-name="hyphenminus" horiz-adv-x="348" 
d="M255 281l-161 -16h-2q-20 0 -20 20q0 19 18 20l162 15q0 1 2 1q19 0 19 -21q0 -18 -18 -19z" />
    <glyph glyph-name="nbspace" horiz-adv-x="250" 
 />
    </font>
</defs>
</svg>
