<?xml version="1.0" standalone="no"?>
<!DOCTYPE svg PUBLIC "-//W3C//DTD SVG 1.1//EN" "http://www.w3.org/Graphics/SVG/1.1/DTD/svg11.dtd" >
<svg>
<metadata>
Created by FontForge 20090622 at Sun Jul  3 09:25:30 2016
 By deploy user
Copyright \251 DoubleAlex Team.      All rights reserved.
</metadata>
<defs>
<font id="AngelicaC" horiz-adv-x="648" >
  <font-face 
    font-family="AngelicaC"
    font-weight="400"
    font-stretch="normal"
    units-per-em="1000"
    panose-1="0 0 5 0 0 0 0 0 0 0"
    ascent="796"
    descent="-204"
    x-height="520"
    cap-height="640"
    bbox="-89 -204 1170 917"
    underline-thickness="50"
    underline-position="-50"
    unicode-range="U+0020-U+2265"
  />
<missing-glyph horiz-adv-x="1000" 
 />
    <glyph glyph-name=".notdef" horiz-adv-x="1000" 
 />
    <glyph glyph-name=".null" horiz-adv-x="0" 
 />
    <glyph glyph-name="nonmarkingreturn" horiz-adv-x="333" 
 />
    <glyph glyph-name="space" unicode=" " horiz-adv-x="324" 
 />
    <glyph glyph-name="space" unicode="&#xa0;" horiz-adv-x="324" 
 />
    <glyph glyph-name="exclam" unicode="!" horiz-adv-x="278" 
d="M139 105q24 0 42 -18t18 -42t-18 -42t-42 -18t-42 18t-18 42t18 42t42 18zM150 149h-22q0 93 -28 219q-6 28 -12 132.5t-6 159.5h112q0 -58 -5 -161t-11 -131q-28 -126 -28 -219z" />
    <glyph glyph-name="quotedbl" unicode="&#x22;" horiz-adv-x="333" 
d="M127 659l-17 -284h-33l-17 284h67zM271 659l-17 -284h-33l-17 284h67z" />
    <glyph glyph-name="numbersign" unicode="#" 
d="M397 374h-112l-18 -133h111zM204 197h-109l6 44h109l19 133h-108l6 44h108l27 197h57l-28 -197h112l27 197h57l-28 -197h93l-6 -44h-93l-19 -133h92l-6 -44h-92l-27 -197h-57l28 197h-111l-28 -197h-57z" />
    <glyph glyph-name="dollar" unicode="$" 
d="M321 600v92h36v-92q95 0 186 -41l-7 -25q-82 45 -199 45q-49 0 -86 -32t-37 -81q0 -52 43 -76.5t116 -34.5q199 -26 199 -149q0 -79 -67.5 -132.5t-147.5 -53.5v-94h-36v94q-118 0 -245 55l7 22q133 -56 231 -56q60 0 107.5 33.5t47.5 91.5q0 27 -12 45t-37 29t-48 16
t-59 10q-93 13 -147.5 50t-54.5 111q0 77 65.5 125t144.5 48z" />
    <glyph glyph-name="percent" unicode="%" horiz-adv-x="667" 
d="M366 162q0 69 39 123t104 54q64 0 102.5 -54t38.5 -123t-38.5 -123t-102.5 -54q-65 0 -104 54t-39 123zM438 162q0 -80 14.5 -118.5t55.5 -38.5t55.5 38.5t14.5 118.5t-14.5 118.5t-55.5 38.5t-55.5 -38.5t-14.5 -118.5zM16 453q0 69 39 123t104 54q64 0 102.5 -54
t38.5 -123t-38.5 -123t-102.5 -54q-65 0 -104 54t-39 123zM88 453q0 -80 14.5 -118.5t55.5 -38.5t55.5 38.5t14.5 118.5t-14.5 118.5t-55.5 38.5t-55.5 -38.5t-14.5 -118.5zM171 -15h-52l378 645h52z" />
    <glyph glyph-name="ampersand" unicode="&#x26;" horiz-adv-x="722" 
d="M557 0l-66 47q-57 -36 -109 -51.5t-118 -15.5q-82 0 -145 38.5t-63 111.5q0 41 16.5 74.5t40 53t47 32t41.5 19.5t19 9q-6 6 -15.5 17t-25.5 48.5t-16 78.5q0 64 47.5 108.5t119.5 44.5q64 0 105.5 -31t41.5 -84q0 -58 -48.5 -102t-111.5 -60q32 -38 109 -112.5
t111 -95.5q72 83 72 189h25q0 -110 -76 -204q31 -28 51 -44q16 -13 41.5 -31t42.5 -29l17 -11h-153zM389 479q0 47 -21.5 79t-67.5 32q-36 0 -55.5 -20.5t-19.5 -56.5q0 -79 79 -158q85 49 85 124zM231 300q-33 -25 -48 -46.5t-15 -57.5q0 -90 48.5 -133t129.5 -43
q61 0 126 44q-35 21 -116.5 103t-124.5 133z" />
    <glyph glyph-name="quotesingle" unicode="'" horiz-adv-x="222" 
d="M143 659l-17 -284h-33l-17 284h67z" />
    <glyph glyph-name="parenleft" unicode="(" horiz-adv-x="278" 
d="M209 660h24q-59 -86 -79 -184t-24 -231v-32q0 -233 110 -401h-27q-83 108 -129 212.5t-46 220.5q0 184 171 415z" />
    <glyph glyph-name="parenright" unicode=")" horiz-adv-x="278" 
d="M45 660h24q171 -231 171 -415q0 -116 -46 -220.5t-129 -212.5h-27q110 168 110 401v32q-4 133 -24 231t-79 184z" />
    <glyph glyph-name="asterisk" unicode="*" horiz-adv-x="444" 
d="M166 640h115q-40 -59 -40 -149v-13q10 1 20.5 4t19 6.5t19.5 9.5t17.5 10t18.5 12.5t16 12t17 14t16 12.5l30 -102q-15 2 -45 2q-63 0 -121 -19q56 -75 130 -96l-90 -75q-17 83 -68 149q-51 -66 -68 -149l-90 75q74 21 130 96q-57 19 -120 19q-30 0 -45 -2l30 102
q3 -2 16 -12.5t17 -14t16 -12t18.5 -12.5t17.5 -10t19.5 -9.5t19 -6.5t20.5 -4v5q0 75 -36 157z" />
    <glyph glyph-name="plus" unicode="+" horiz-adv-x="600" 
d="M270 290v230h60v-230h230v-60h-230v-230h-60v230h-230v60h230z" />
    <glyph glyph-name="comma" unicode="," horiz-adv-x="324" 
d="M133 -144l-14 10q49 48 54 119h-5q-29 0 -47.5 15.5t-18.5 44.5q0 24 16.5 42t41.5 18q31 0 46.5 -21t15.5 -54q0 -89 -89 -174z" />
    <glyph glyph-name="hyphen" unicode="-" horiz-adv-x="333" 
d="M39 220l19 80h236l-18 -80h-237z" />
    <glyph glyph-name="hyphen" unicode="&#xad;" horiz-adv-x="333" 
d="M39 220l19 80h236l-18 -80h-237z" />
    <glyph glyph-name="period" unicode="." horiz-adv-x="324" 
d="M162 105q24 0 42 -18t18 -42t-18 -42t-42 -18t-42 18t-18 42t18 42t42 18z" />
    <glyph glyph-name="slash" unicode="/" horiz-adv-x="278" 
d="M239 660h61l-261 -680h-61z" />
    <glyph glyph-name="zero" unicode="0" 
d="M18 307q0 132 87.5 227.5t218.5 95.5t218.5 -95.5t87.5 -227.5t-87.5 -227t-218.5 -95t-218.5 95t-87.5 227zM143 308q0 -31 1.5 -57t6 -58.5t12 -58t21 -51t32 -42t46.5 -27t62 -10.5q40 0 70.5 13t49.5 37.5t32 52.5t19 65.5t8 67.5t2 67q0 31 -1.5 57t-6 58.5t-12 58
t-21 51t-32 42t-46.5 27t-62 10.5q-40 0 -70.5 -13t-49.5 -37.5t-32 -52.5t-19 -65.5t-8 -67.5t-2 -67z" />
    <glyph glyph-name="one" unicode="1" 
d="M271 0v579l-105 -25v21l211 55v-630h-106z" />
    <glyph glyph-name="two" unicode="2" 
d="M556 86l-31 -86h-476q0 122 234 248q149 80 149 200q0 74 -43 118t-117 44q-42 0 -101 -17.5t-103 -39.5l-7 18q120 59 228 59q44 0 87.5 -9.5t86 -30.5t68.5 -61.5t26 -95.5q0 -26 -7.5 -49t-17 -40t-29 -32.5t-34 -25t-42 -21t-42 -16.5l-45 -15t-41.5 -14
q-78 -27 -116 -64t-38 -70h411z" />
    <glyph glyph-name="three" unicode="3" 
d="M208 319v25h58q170 0 170 135q0 63 -43 97.5t-107 34.5q-60 0 -117 -18.5t-92 -39.5l-6 22q104 55 218 55q272 0 272 -155q0 -126 -232 -142v-2q43 0 85.5 -8.5t84 -27t67 -53t25.5 -80.5q0 -52 -29.5 -89t-77.5 -55t-93.5 -25.5t-93.5 -7.5q-164 0 -273 62l10 21
q53 -29 117.5 -46.5t116.5 -17.5q85 0 141.5 39.5t56.5 120.5q0 76 -57 115.5t-137 39.5h-64z" />
    <glyph glyph-name="four" unicode="4" 
d="M380 505l-285 -303h285v303zM380 154h-365l420 441q31 35 40 35h2q9 0 9 -28v-400h135l-19 -48h-116v-154h-106v154z" />
    <glyph glyph-name="five" unicode="5" 
d="M79 295l25 320h455l-29 -86h-410l-15 -200q110 36 197 36q33 0 67 -3.5t78 -15t76.5 -30.5t55.5 -53.5t23 -80.5t-20.5 -81.5t-52 -57t-74 -35t-82.5 -18.5t-81 -5q-66 0 -140 17.5t-127 47.5l8 22q48 -29 117.5 -48.5t138.5 -19.5q80 0 134 43t54 122q0 82 -55.5 126.5
t-139.5 44.5q-99 0 -203 -45z" />
    <glyph glyph-name="six" unicode="6" 
d="M552 598l-8 -20q-70 33 -183 33q-49 0 -86.5 -21t-59 -52.5t-35 -75.5t-18 -83t-4.5 -82v-12h2q65 120 188 120q114 0 191.5 -54.5t77.5 -155.5q0 -88 -74 -149t-195 -61q-69 0 -124 20t-89 51t-56.5 72.5t-31.5 82t-9 81.5q0 53 18.5 109t54.5 108.5t100.5 86.5
t146.5 34q124 0 194 -32zM332 4q81 0 120.5 50.5t39.5 137.5t-39.5 137.5t-120.5 50.5t-120.5 -50.5t-39.5 -137.5t39.5 -137.5t120.5 -50.5z" />
    <glyph glyph-name="seven" unicode="7" 
d="M541 529h-467l32 86h521v-1q0 -65 -129 -194q-149 -149 -149 -366l3 -54h-148q0 34 5.5 65.5t12 55t23 52l26 44t34.5 43.5l34 37.5t39.5 39.5l38.5 38l33.5 32.5t40 39.5t27.5 36t23 46z" />
    <glyph glyph-name="eight" unicode="8" 
d="M391 353v-2q5 -1 28 -8t31 -9t29 -9.5t30 -12l27 -13.5t26 -17l20 -20t17.5 -24t9.5 -28t4 -34q0 -53 -29 -92.5t-75.5 -59.5t-94.5 -29.5t-96 -9.5q-42 0 -87 8t-91 25.5t-75.5 52t-29.5 80.5t28 79.5t67 48t66 20t41 5.5h2q-37 14 -59.5 24.5t-49 29.5t-39 46t-12.5 62
q0 56 41.5 95t94 54t107.5 15q39 0 78 -6.5t79 -21t65 -45t25 -71.5q0 -42 -30 -72.5t-67.5 -43.5t-80.5 -18v1zM322 377l33 -5q1 0 4 -0.5t5 -0.5q39 0 69 39.5t30 83.5q0 58 -44.5 87.5t-103.5 29.5q-50 0 -90 -29t-40 -78q0 -51 41.5 -85t95.5 -42zM339 277l-49 16
q-20 0 -53.5 -15.5t-64.5 -49t-31 -72.5q0 -76 57 -114t137 -38q67 0 119.5 35.5t52.5 99.5q0 15 -3 28.5t-10.5 24.5l-13.5 19.5t-20 16.5t-21 13t-25 11.5t-24.5 8.5l-26.5 8.5t-24 7.5z" />
    <glyph glyph-name="nine" unicode="9" 
d="M50 45l7 25q39 -25 102.5 -45.5t126.5 -20.5q58 0 100 28t62.5 72.5t29.5 88t9 86.5q0 4 -0.5 11t-0.5 10h-2q-20 -47 -70 -82t-125 -35q-102 0 -180.5 64t-78.5 159q0 94 79.5 159t189.5 65q69 0 124 -20t89 -51t56.5 -72.5t31.5 -82t9 -81.5q0 -42 -9 -85.5t-32.5 -90
t-58.5 -81.5t-92 -58t-128 -23q-129 0 -239 60zM311 611q-76 0 -116 -55.5t-40 -141.5q0 -97 41.5 -151.5t108.5 -54.5q78 0 124 58.5t46 151.5q0 88 -44 140.5t-120 52.5z" />
    <glyph glyph-name="colon" unicode=":" horiz-adv-x="324" 
d="M162 105q24 0 42 -18t18 -42t-18 -42t-42 -18t-42 18t-18 42t18 42t42 18zM162 470q24 0 42 -18t18 -42t-18 -42t-42 -18t-42 18t-18 42t18 42t42 18z" />
    <glyph glyph-name="semicolon" unicode=";" horiz-adv-x="324" 
d="M162 470q24 0 42 -18t18 -42t-18 -42t-42 -18t-42 18t-18 42t18 42t42 18zM133 -144l-14 10q49 48 54 119h-5q-29 0 -47.5 15.5t-18.5 44.5q0 24 16.5 42t41.5 18q31 0 46.5 -21t15.5 -54q0 -89 -89 -174z" />
    <glyph glyph-name="less" unicode="&#x3c;" horiz-adv-x="600" 
d="M554 61v-62l-508 232v58l508 232v-62l-436 -199z" />
    <glyph glyph-name="equal" unicode="=" horiz-adv-x="600" 
d="M560 192v-60h-520v60h520zM560 388v-60h-520v60h520z" />
    <glyph glyph-name="greater" unicode="&#x3e;" horiz-adv-x="600" 
d="M46 61l436 199l-436 199v62l508 -232v-58l-508 -232v62z" />
    <glyph glyph-name="question" unicode="?" horiz-adv-x="500" 
d="M225 105q24 0 42 -18t18 -42t-18 -42t-42 -18t-42 18t-18 42t18 42t42 18zM236 149h-22q0 3 -0.5 8.5t-0.5 7.5q0 42 18 76.5t56 81.5q29 36 50.5 83.5t21.5 86.5q0 67 -40.5 107.5t-108.5 40.5q-84 0 -168 -38l-6 19q81 38 182 38q106 0 179.5 -53.5t73.5 -119.5
q0 -32 -9 -58t-28 -47.5t-35 -35t-44 -33.5q-31 -22 -44.5 -33t-34.5 -32.5t-30 -45.5t-10 -53z" />
    <glyph glyph-name="at" unicode="@" horiz-adv-x="800" 
d="M525 444l9 38h69l-64 -251q-2 -10 -2 -21q0 -42 37 -42q57 0 93 64.5t36 136.5q0 59 -32.5 117.5t-99.5 100.5t-153 42q-118 0 -197.5 -88.5t-79.5 -245.5q0 -110 81 -193t205 -83q59 0 101 11.5t95 34.5l12 -29q-122 -56 -207 -56q-92 0 -165.5 32t-116.5 81.5
t-65.5 104.5t-22.5 107q0 155 105.5 255t254.5 100q137 0 230.5 -83t93.5 -207q0 -53 -20.5 -105.5t-64 -91t-98.5 -38.5q-42 0 -65 25.5t-23 42.5v1h-2q-15 -20 -46 -42.5t-68 -25.5h-6q-32 0 -60.5 26.5t-28.5 95.5q0 29 12.5 67t35 77t61.5 66t86 27q8 0 15.5 -1.5t13 -3
t11 -6t8 -6t7 -8.5t5.5 -8t5.5 -9t4.5 -9zM509 389q0 63 -42 63q-43 0 -89 -54.5t-46 -135.5q0 -42 17 -62.5t45 -20.5q35 0 70.5 57t44.5 153z" />
    <glyph glyph-name="A" unicode="A" horiz-adv-x="778" 
d="M441 317l-97 185q-10 18 -16 18q-5 0 -12 -14l-95 -189h220zM747 0h-141l-152 292h-246l-147 -292h-32l327 637q12 23 24 23q14 0 34 -38z" />
    <glyph glyph-name="B" unicode="B" horiz-adv-x="759" 
d="M206 25h211q171 0 171 156q0 42 -21.5 73.5t-55.5 47.5t-68 23.5t-66 7.5h-131l12 25h72q103 0 154.5 36t51.5 99q0 55 -43.5 88.5t-122.5 33.5h-125q-19 0 -29 -17.5t-10 -40.5v-532zM400 640q41 0 82 -6.5t84 -21t69.5 -44.5t26.5 -71q0 -128 -215 -148v-2
q45 -1 89.5 -10t88 -28.5t70.5 -55t27 -83.5q0 -44 -22 -76.5t-54 -50t-75.5 -27.5t-77 -13t-69.5 -3h-334v565q0 29 12 52t35 23h263z" />
    <glyph glyph-name="C" unicode="C" horiz-adv-x="759" 
d="M714 97l8 -26q-112 -91 -302 -91q-75 0 -142 21.5t-120.5 62t-84.5 107t-31 149.5q0 149 112.5 244.5t265.5 95.5q73 0 150.5 -19.5t136.5 -56.5l-9 -29q-57 37 -131.5 58.5t-146.5 21.5q-53 0 -95 -18.5t-69.5 -49t-46 -72t-26 -85t-7.5 -90.5q0 -59 15 -112.5
t46.5 -100.5t88.5 -74.5t134 -27.5q54 0 129 25t125 67z" />
    <glyph glyph-name="D" unicode="D" horiz-adv-x="796" 
d="M404 0h-314v640h290q161 0 266.5 -88t105.5 -230q0 -55 -22 -110.5t-63.5 -103.5t-110 -78t-152.5 -30zM206 615v-590h118q157 0 225.5 79.5t68.5 231.5q0 279 -262 279h-150z" />
    <glyph glyph-name="E" unicode="E" horiz-adv-x="682" 
d="M85 565q0 29 12 52t35 23h508v-25h-400q-19 0 -29 -17.5t-10 -40.5v-207h349v-25h-349v-242q0 -23 10 -40.5t29 -17.5h412v-25h-520q-23 0 -35 23t-12 52v490z" />
    <glyph glyph-name="F" unicode="F" horiz-adv-x="647" 
d="M85 565q0 29 12 52t35 23h476v-25h-368q-19 0 -29 -17.5t-10 -40.5v-207h305v-25h-305v-325h-116v565z" />
    <glyph glyph-name="G" unicode="G" horiz-adv-x="795" 
d="M718 325v-256q-50 -44 -130 -66.5t-170 -22.5q-72 0 -138 21.5t-120.5 62t-87 107t-32.5 149.5q0 150 114 245t274 95q157 0 251 -54l-9 -24q-80 53 -226 53q-68 0 -121 -28t-85 -76t-48 -105.5t-16 -121.5q0 -122 69.5 -210.5t174.5 -88.5q100 0 142 36.5t42 116.5v167
h116z" />
    <glyph glyph-name="H" unicode="H" horiz-adv-x="796" 
d="M207 0h-116v640h116v-640zM259 350h329v290h116v-640h-116v325h-341z" />
    <glyph glyph-name="I" unicode="I" horiz-adv-x="296" 
d="M90 0v640h116v-640h-116z" />
    <glyph glyph-name="J" unicode="J" horiz-adv-x="463" 
d="M371 640v-432q0 -91 -66 -159.5t-184 -68.5q-65 0 -117 23l10 27q48 -25 117 -25q41 0 68 15t38 43t14.5 51t3.5 57v469h116z" />
    <glyph glyph-name="K" unicode="K" horiz-adv-x="760" 
d="M264 339l364 301h43l-349 -286l2 -2h22q64 0 114.5 -20t89.5 -76l180 -256h-162l-128 212q-35 58 -63.5 89.5t-57.5 31.5q-24 0 -42 -15l-13 -11v32zM108 0v640h116v-640h-116z" />
    <glyph glyph-name="L" unicode="L" horiz-adv-x="665" 
d="M631 25v-25h-490q-23 0 -35 23t-12 52v565h116v-557q0 -23 10 -40.5t29 -17.5h382z" />
    <glyph glyph-name="M" unicode="M" horiz-adv-x="917" 
d="M234 597l231 -457l225 452q33 67 80 67q24 0 40 -21t16 -57v-581h-112v533q0 15 -7 15q-9 0 -14 -12l-266 -536h-23l-263 533q-7 15 -14 15t-7 -16v-532h-25v592q0 30 17 49t42 19q48 0 80 -63z" />
    <glyph glyph-name="N" unicode="N" horiz-adv-x="759" 
d="M118 492v-492h-25v628q0 32 28 32q23 0 44 -21l466 -477q7 -7 11 -7q6 0 6 10v475h25v-622q0 -31 -21 -31q-28 0 -57 31l-465 478q-4 4 -7 4q-5 0 -5 -8z" />
    <glyph glyph-name="O" unicode="O" horiz-adv-x="833" 
d="M794 320q0 -149 -112.5 -244.5t-265.5 -95.5t-265.5 95.5t-112.5 244.5t112.5 244.5t265.5 95.5t265.5 -95.5t112.5 -244.5zM660 320q0 47 -7.5 90.5t-26 85t-46 72t-69.5 49t-95 18.5t-95 -18.5t-69.5 -49t-46 -72t-26 -85t-7.5 -90.5t7.5 -90.5t26 -85t46 -72t69.5 -49
t95 -18.5t95 18.5t69.5 49t46 72t26 85t7.5 90.5z" />
    <glyph glyph-name="P" unicode="P" horiz-adv-x="685" 
d="M253 327q11 -3 54 -3q111 0 172 41.5t61 112.5q0 49 -33.5 81.5t-77 44t-95.5 11.5h-89q-19 0 -29 -17.5t-10 -40.5v-557h-116v565q0 29 12 52t35 23h239q45 0 91.5 -7.5t95.5 -25t80 -52.5t31 -83t-35 -84t-91 -54t-112 -26.5t-111 -8.5q-59 0 -79 4z" />
    <glyph glyph-name="Q" unicode="Q" horiz-adv-x="833" 
d="M759 -146l-134 -58l-152 84q-108 60 -148 60q-37 0 -94 -41v23q35 20 50.5 28t46 19t55.5 12v2q-143 10 -244 103t-101 234q0 149 112.5 244.5t265.5 95.5t265.5 -95.5t112.5 -244.5q0 -98 -52 -176t-135.5 -119.5t-179.5 -43.5v-2q21 -1 38 -5t36 -11.5t31 -10.5z
M660 320q0 47 -7.5 90.5t-26 85t-46 72t-69.5 49t-95 18.5t-95 -18.5t-69.5 -49t-46 -72t-26 -85t-7.5 -90.5t7.5 -90.5t26 -85t46 -72t69.5 -49t95 -18.5t95 18.5t69.5 49t46 72t26 85t7.5 90.5z" />
    <glyph glyph-name="R" unicode="R" horiz-adv-x="759" 
d="M246 327l12 25h129q77 0 120.5 40t43.5 95q0 58 -40 93t-117 35h-149q-19 0 -29 -17.5t-10 -40.5v-557h-116v565q0 29 12 52t35 23h285q263 0 263 -147q0 -156 -269 -156v-2q57 -7 96.5 -19.5t77 -45.5t58.5 -87l71 -183h-133l-48 131q-39 105 -59 135q-42 61 -127 61
h-106z" />
    <glyph glyph-name="S" unicode="S" horiz-adv-x="685" 
d="M579 597q-93 38 -228 38q-187 0 -187 -119q0 -22 6 -39.5t14 -30t25.5 -22t30.5 -15t40.5 -10.5t44.5 -7.5t52 -6.5t55 -7q206 -28 206 -169q0 -63 -30 -109.5t-80 -71.5t-104 -36.5t-113 -11.5q-71 0 -145 14.5t-119 34.5l5 28q46 -20 122 -36t130 -16q41 0 76.5 6.5
t70 21.5t55 45.5t20.5 73.5q0 18 -3.5 33t-12 26t-16 19.5t-22.5 15l-24.5 10.5t-28.5 7.5t-28 5t-30 4t-28 3.5q-38 5 -59 9t-60 13t-62.5 21t-49 30.5t-38 45.5t-12.5 61q0 47 18 84t47 59t69.5 36t80 19.5t83.5 5.5q131 0 238 -36z" />
    <glyph glyph-name="T" unicode="T" horiz-adv-x="691" 
d="M288 0v615h-257v25h630v-25h-257v-615h-116z" />
    <glyph glyph-name="U" unicode="U" horiz-adv-x="778" 
d="M210 640v-444q0 -91 59 -141t154 -50q124 0 181 59.5t57 188.5v387h25v-386q0 -144 -68.5 -209t-214.5 -65q-50 0 -91 5t-83 19t-70.5 37t-46.5 62.5t-18 91.5v445h116z" />
    <glyph glyph-name="V" unicode="V" horiz-adv-x="778" 
d="M178 640l245 -489q7 -13 14 -13q11 0 21 21l241 481h33l-300 -598q-25 -49 -48 -49q-18 0 -33 30l-308 617h135z" />
    <glyph glyph-name="W" unicode="W" horiz-adv-x="966" 
d="M719 194q5 -13 12 -13q5 0 7 5l170 454h31l-242 -630q-6 -15 -17 -15q-13 0 -23 26l-171 426q-6 14 -12 14q-4 0 -6 -5l-163 -446q-6 -16 -17 -16q-12 0 -23 27l-234 619h134l156 -442q7 -19 15 -19q5 0 7 7l160 450q5 16 15 16q11 0 23 -28z" />
    <glyph glyph-name="X" unicode="X" horiz-adv-x="722" 
d="M211 640l179 -258l207 258h33l-223 -282l249 -358h-140l-198 283l-228 -283h-40l250 310l-229 330h140z" />
    <glyph glyph-name="Y" unicode="Y" horiz-adv-x="722" 
d="M157 640l247 -328l244 328h40l-266 -354v-286h-116v270l-281 370h132z" />
    <glyph glyph-name="Z" unicode="Z" 
d="M96 0q-44 0 -44 17q0 18 36 68l336 482q21 29 21 37q0 11 -21 11h-336v25h452q47 0 47 -14t-37 -69l-327 -484q-19 -29 -19 -38q0 -10 19 -10h360v-25h-487z" />
    <glyph glyph-name="bracketleft" unicode="[" horiz-adv-x="259" 
d="M207 660v-20q-36 0 -53.5 -24.5t-17.5 -63.5v-602q0 -118 74 -118v-20q-162 0 -162 165v514q0 81 33.5 124t125.5 45z" />
    <glyph glyph-name="backslash" unicode="\" horiz-adv-x="278" 
d="M-73 660h60l364 -680h-60zM291 -20h60h-60z" />
    <glyph glyph-name="bracketright" unicode="]" horiz-adv-x="259" 
d="M52 640v20q92 -2 125.5 -45t33.5 -124v-514q0 -165 -162 -165v20q74 0 74 118v602q0 39 -17.5 63.5t-53.5 24.5z" />
    <glyph glyph-name="asciicircum" unicode="^" horiz-adv-x="600" 
d="M153 250h-62l183 365h52l183 -365h-62l-147 295z" />
    <glyph glyph-name="underscore" unicode="_" horiz-adv-x="500" 
d="M500 -120h-500v46h500v-46z" />
    <glyph glyph-name="grave" unicode="`" horiz-adv-x="278" 
d="M238 586h-51l-236 181h118z" />
    <glyph glyph-name="a" unicode="a" horiz-adv-x="632" 
d="M422 0h-163q-89 0 -150 37.5t-61 119.5q0 42 25.5 74t62 48.5t86.5 27t87 13t76 2.5h77v30q0 75 -36.5 117t-109.5 42q-137 0 -234 -53l-7 27q95 50 256 50q62 0 112 -14.5t86 -53.5t36 -99v-368h-103v297h-79q-219 0 -219 -156q0 -116 124 -116h121z" />
    <glyph glyph-name="b" unicode="b" horiz-adv-x="667" 
d="M228 25h73q214 0 214 240q0 58 -12 103t-30 70.5t-42.5 41.5t-46 21.5t-43.5 5.5q-80 0 -167 -65v-442h-103v725h103v-251q24 18 43 29.5t60.5 21.5t94.5 10q43 0 88.5 -19t83.5 -52.5t62.5 -85.5t24.5 -113q0 -105 -82.5 -185t-196.5 -80h-138z" />
    <glyph glyph-name="c" unicode="c" horiz-adv-x="593" 
d="M550 474l-7 -27q-94 64 -215 64q-62 0 -104 -38.5t-58.5 -92.5t-16.5 -120q-1 -125 56.5 -186.5t136.5 -61.5q126 0 212 75l9 -25q-87 -77 -234 -77q-128 0 -212 77.5t-84 197.5t84 197.5t212 77.5q131 0 221 -61z" />
    <glyph glyph-name="d" unicode="d" horiz-adv-x="667" 
d="M494 455q-81 49 -159 49q-29 0 -56 -9t-55.5 -32.5t-46 -74t-17.5 -123.5q0 -76 15.5 -125.5t47 -73.5t66 -32.5t84.5 -8.5h67l14 -25h-152q-110 0 -184 71.5t-74 193.5q0 106 75.5 188t182.5 82q120 0 192 -49v239h103v-725h-103v455z" />
    <glyph glyph-name="e" unicode="e" horiz-adv-x="618" 
d="M177 294h325v-25h-325v-190q0 -20 11.5 -37t31.5 -17h354v-25h-455q-23 0 -34 21t-11 50v384q0 26 11.5 45.5t33.5 19.5h423v-25h-322q-18 0 -30.5 -14.5t-12.5 -33.5v-153z" />
    <glyph glyph-name="f" unicode="f" horiz-adv-x="333" 
d="M306 495l-7 -25h-89v-470h-103v470h-87l11 25h74v32q0 54 20 94t53.5 62t70 32t76.5 10l-6 -19q-52 0 -81.5 -18.5t-29.5 -74.5v-118h98z" />
    <glyph glyph-name="g" unicode="g" horiz-adv-x="667" 
d="M150 265q0 -76 15.5 -125.5t47 -73.5t66 -32.5t84.5 -8.5h69l14 -25h-154q-110 0 -184 71.5t-74 193.5q0 106 75 188t181 82q123 0 196 -52v41h103v-494q0 -56 -18 -98t-45 -66t-64 -39t-69.5 -20t-67.5 -5h-205l9 25h203h17q22 0 37 3t35.5 16.5t33 39t22 74.5t9.5 118
v375q-80 52 -165 52q-171 0 -171 -240z" />
    <glyph glyph-name="h" unicode="h" horiz-adv-x="652" 
d="M177 484q73 51 195 51q92 0 152.5 -52.5t60.5 -163.5v-319h-103v334q0 80 -34.5 128t-106.5 48q-87 0 -164 -52v-458h-103v725h103v-241z" />
    <glyph glyph-name="i" unicode="i" horiz-adv-x="278" 
d="M131 589q-24 0 -41.5 17.5t-17.5 41.5t17.5 42t41.5 18q25 0 42.5 -18t17.5 -42t-17.5 -41.5t-42.5 -17.5zM88 0v520h103v-520h-103z" />
    <glyph glyph-name="j" unicode="j" horiz-adv-x="278" 
d="M136 589q-24 0 -41.5 17.5t-17.5 41.5t17.5 42t41.5 18q25 0 42.5 -18t17.5 -42t-17.5 -41.5t-42.5 -17.5zM196 520v-490q0 -55 -19 -98t-46.5 -66.5t-64 -38.5t-66.5 -20t-58 -5h-31l8 20h18h9q19 0 33.5 2.5t37.5 16.5t38 39.5t26.5 76t11.5 121.5v442h103z" />
    <glyph glyph-name="k" unicode="k" horiz-adv-x="644" 
d="M223 293l278 227h40l-258 -209v-2q9 1 25 1q25 0 45.5 -3.5t39 -14.5l29.5 -17.5t27.5 -27.5l22 -28t24.5 -35.5t23 -35.5l98 -148h-137l-95 158q-2 4 -12 21l-16.5 28t-18.5 27.5t-22 26t-23.5 17t-26.5 7.5q-19 0 -43 -29v37zM183 0h-103v725h103v-725z" />
    <glyph glyph-name="l" unicode="l" horiz-adv-x="278" 
d="M191 79q0 -20 11.5 -37t31.5 -17h32l-8 -25h-125q-23 0 -34 21t-11 50v654h103v-646z" />
    <glyph glyph-name="m" unicode="m" horiz-adv-x="790" 
d="M589 471q35 64 77 64q22 0 35.5 -22t13.5 -65v-448h-103v418q0 14 -7 14q-6 0 -14 -13l-232 -419h-12l-227 415q-10 17 -15 17q-7 0 -7 -19v-413h-25v456q0 36 14 57.5t36 21.5q37 0 69 -58l196 -360h3z" />
    <glyph glyph-name="n" unicode="n" 
d="M98 370v-370h-25v496q0 35 29 35q14 0 29 -13l394 -366q13 -13 22 -13q10 0 10 15v366h25v-486q0 -45 -23 -45q-20 0 -49 29l-379 356q-13 12 -21 12q-12 0 -12 -16z" />
    <glyph glyph-name="o" unicode="o" horiz-adv-x="667" 
d="M37 260q0 120 84 197.5t212 77.5q129 0 213 -77.5t84 -197.5t-84 -197.5t-213 -77.5q-128 0 -212 77.5t-84 197.5zM153 260q0 -256 180 -256q181 0 181 256t-181 256q-180 0 -180 -256z" />
    <glyph glyph-name="p" unicode="p" horiz-adv-x="667" 
d="M222 25h65q51 0 86 9t65.5 34t46 75.5t15.5 126.5q0 68 -16.5 117.5t-43.5 74.5t-54 36.5t-54 11.5q-68 0 -166 -56v-650h-103v716h103v-39q96 54 182 54q104 0 186 -75t82 -190q0 -117 -86.5 -193.5t-202.5 -76.5h-121z" />
    <glyph glyph-name="q" unicode="q" horiz-adv-x="667" 
d="M446 0h-146q-109 0 -183.5 78.5t-74.5 186.5q0 105 76 187.5t182 82.5q113 0 186 -52v41h103v-720h-103v648q-80 52 -155 52q-49 0 -84.5 -20.5t-54 -56t-26.5 -75.5t-8 -87t8.5 -87.5t27 -76t53 -56t81.5 -20.5h105z" />
    <glyph glyph-name="r" unicode="r" horiz-adv-x="630" 
d="M220 495q-18 0 -30.5 -14.5t-12.5 -33.5v-447h-103v455q0 26 11.5 45.5t33.5 19.5h158q147 0 216.5 -30t69.5 -97q0 -59 -51.5 -90.5t-134.5 -35.5v-1q75 -16 113.5 -45.5t67.5 -100.5l49 -120h-124q-19 71 -67 178q-23 51 -59 69.5t-108 18.5h-32l16 24h80
q63 0 103.5 26t40.5 83q0 46 -43.5 71t-111.5 25h-82z" />
    <glyph glyph-name="s" unicode="s" horiz-adv-x="574" 
d="M500 497l-8 -27q-83 40 -195 40q-64 0 -105 -27t-41 -87q0 -25 14.5 -43t41.5 -27.5t55.5 -14t67.5 -7.5q107 -7 155.5 -39t48.5 -103q0 -51 -27 -87.5t-71 -55t-89 -26.5t-92 -8q-129 0 -236 40l7 28q44 -19 110.5 -31t124.5 -12q71 0 122 26t51 88q0 53 -39 70.5
t-138 25.5q-206 19 -206 147q0 49 25 84t66.5 52t83.5 24.5t88 7.5q93 0 186 -38z" />
    <glyph glyph-name="t" unicode="t" horiz-adv-x="333" 
d="M208 79q0 -20 11.5 -37t31.5 -17h48l-6 -25h-143q-23 0 -34 21t-11 50v399h-74l9 25h65v143h103v-143h101l-7 -25h-94v-391z" />
    <glyph glyph-name="u" unicode="u" horiz-adv-x="667" 
d="M452 0h-171q-108 0 -160.5 48.5t-52.5 167.5v304h103v-305q0 -79 36.5 -134.5t110.5 -55.5h120zM492 520h103v-520h-103v520z" />
    <glyph glyph-name="v" unicode="v" horiz-adv-x="655" 
d="M148 520l203 -396q9 -18 17 -18q10 0 25 28l209 386h31l-261 -482q-28 -51 -52 -51q-20 0 -37 33l-257 500h122z" />
    <glyph glyph-name="w" unicode="w" horiz-adv-x="954" 
d="M891 520h32l-236 -503q-11 -22 -23 -22q-11 0 -18 17l-162 361q-3 8 -9 8t-9 -8l-147 -361q-8 -19 -22 -19t-23 19l-246 508h121l176 -362q4 -8 10 -8q7 0 11 8l145 346q7 18 24 18q16 0 25 -18l159 -346q4 -8 10 -8q7 0 11 8z" />
    <glyph glyph-name="x" unicode="x" horiz-adv-x="593" 
d="M553 0h-124l-169 226l-193 -226h-34l211 247l-205 273h128l152 -205l168 205h33l-186 -225z" />
    <glyph glyph-name="y" unicode="y" horiz-adv-x="638" 
d="M605 520l-264 -511q-68 -130 -121 -168q-53 -39 -140 -39h-14l9 26q56 0 93 15q75 29 133 154l-264 523h117l208 -412l213 412h30z" />
    <glyph glyph-name="z" unicode="z" horiz-adv-x="593" 
d="M499 447l-299 -391q-11 -14 -11 -21q0 -10 23 -10h309v-25h-428q-11 0 -16.5 0.5t-12.5 1.5t-9.5 4.5t-2.5 8.5q0 16 35 61l297 382q17 23 17 29q0 8 -17 8h-285v25h392q44 0 44 -13q0 -12 -36 -60z" />
    <glyph glyph-name="braceleft" unicode="{" horiz-adv-x="259" 
d="M78 -51v175q0 48 -19 73.5t-66 38.5q47 13 66 38.5t19 73.5v175q0 137 159 137v-20q-36 0 -53.5 -27t-17.5 -91v-162q0 -54 -19.5 -82.5t-73.5 -40.5v-2q54 -12 73.5 -40.5t19.5 -82.5v-162q0 -118 71 -118v-20q-159 0 -159 137z" />
    <glyph glyph-name="bar" unicode="|" horiz-adv-x="222" 
d="M81 0v725h60v-725h-60z" />
    <glyph glyph-name="braceright" unicode="}" horiz-adv-x="259" 
d="M181 523v-175q0 -48 19 -73.5t66 -38.5q-47 -13 -66 -38.5t-19 -73.5v-175q0 -137 -159 -137v20q36 0 53.5 27t17.5 91v162q0 54 19.5 82.5t73.5 40.5v2q-54 12 -73.5 40.5t-19.5 82.5v162q0 118 -71 118v20q159 0 159 -137z" />
    <glyph glyph-name="asciitilde" unicode="~" horiz-adv-x="600" 
d="M495 326l36 -42q-20 -27 -33 -42t-38 -29.5t-54 -14.5q-42 0 -102 33q-62 35 -115 35q-51 0 -84 -72l-36 42q45 86 125 86q39 0 111 -32l21.5 -9.5t23 -10l20 -8t20.5 -6.5t17 -2q19 0 36.5 12t27 24.5t24.5 35.5z" />
    <glyph glyph-name="sterling" unicode="&#xa3;" 
d="M231 306h-90l11 32h74q-19 48 -19 106q0 75 53.5 130.5t120.5 55.5q72 0 155 -54l-7 -23q-26 22 -67 40t-82 18q-49 0 -77.5 -31.5t-28.5 -74.5q0 -12 1.5 -24.5t5 -26.5t6 -23t9 -25l9 -22l10.5 -24t10 -22h157l-11 -32h-138q14 -50 14 -79q0 -45 -17 -79q12 -4 88 -42
q62 -30 94 -30q57 0 97 70l8 -16q-19 -58 -57.5 -101.5t-87.5 -43.5q-42 0 -92 39q-12 9 -38 34t-41 36q-102 -109 -212 -109q-26 0 -47 13t-21 41q0 38 34.5 68.5t76 44.5t74.5 14q8 0 23 -1.5t22 -1.5v16q0 61 -20 127zM100 69q0 -21 19 -33.5t38 -12.5q33 0 61.5 29
t28.5 66v4q-28 19 -64 19q-35 0 -59 -17.5t-24 -54.5z" />
    <glyph glyph-name="currency" unicode="&#xa4;" 
d="M325 117q77 0 131 57t54 135q0 76 -54 133t-130 57q-79 0 -134.5 -56t-55.5 -136q0 -79 55.5 -134.5t133.5 -55.5zM74 99l54 57q-53 66 -53 151q0 95 55 153l-56 57l40 40l57 -55q63 54 155 54q86 0 149 -54l56 56l42 -42l-55 -54q53 -60 53 -153q0 -89 -52 -154l53 -56
l-40 -40l-54 58q-63 -57 -153 -57q-93 0 -157 57l-54 -58z" />
    <glyph glyph-name="brokenbar" unicode="&#xa6;" horiz-adv-x="222" 
d="M141 -80h-60v307h60v-307zM141 418h-60v307h60v-307z" />
    <glyph glyph-name="section" unicode="&#xa7;" horiz-adv-x="556" 
d="M67 -120l5 27q48 -40 192 -40q62 0 110 30t48 89q0 14 -4.5 26.5t-10.5 21.5t-19.5 18t-22 14t-28.5 11.5t-30 9.5t-34.5 9.5t-33.5 9.5q-40 11 -68 22.5t-57 31.5t-43.5 51t-14.5 73q0 72 70 129q-33 35 -33 88q0 65 49.5 112t143.5 47q130 0 186 -56l-11 -21
q-60 52 -181 52q-59 0 -93 -25.5t-34 -76.5q0 -46 37.5 -70.5t121.5 -46.5q87 -23 137 -60.5t50 -107.5q0 -55 -59 -130q42 -34 42 -101q0 -74 -70 -124.5t-167 -50.5q-114 0 -178 38zM324 322q-15 4 -52.5 15t-53 16t-37 15.5t-33.5 23.5q-42 -27 -42 -79q0 -79 116 -114
l55.5 -16l54 -15.5t44 -15t43.5 -20.5q30 43 30 77q0 45 -33 70t-92 43z" />
    <glyph glyph-name="copyright" unicode="&#xa9;" horiz-adv-x="800" 
d="M579 185l5 -16q-68 -54 -181 -54q-95 0 -161 53t-66 151q0 89 67.5 146.5t159.5 57.5q99 0 172 -46l-5 -17q-74 48 -167 48q-75 0 -111 -56t-36 -133q0 -78 41 -133.5t130 -55.5q32 0 77 15t75 40zM697 321q-1 125 -89 212.5t-212 86.5q-125 -1 -212.5 -89t-86.5 -212
q1 -125 89 -212.5t212 -86.5q125 1 212.5 89t86.5 212zM738 320q0 -141 -99.5 -240.5t-240.5 -99.5t-240.5 99.5t-99.5 240.5t99.5 240.5t240.5 99.5t240.5 -99.5t99.5 -240.5z" />
    <glyph glyph-name="guillemotleft" unicode="&#xab;" horiz-adv-x="556" 
d="M217 67q-30 62 -126 194q76 106 130 192q22 -30 59 -41q-81 -95 -111 -151q15 -26 58 -86t54 -65q-48 -25 -64 -43zM401 67q-30 62 -126 194q76 106 130 192q22 -30 59 -41q-81 -95 -111 -151q15 -26 58 -86t54 -65q-48 -25 -64 -43z" />
    <glyph glyph-name="logicalnot" unicode="&#xac;" horiz-adv-x="600" 
d="M500 114v214h-460v60h520v-274h-60z" />
    <glyph glyph-name="registered" unicode="&#xae;" horiz-adv-x="800" 
d="M495 422q0 34 -24.5 55.5t-70.5 21.5h-112v-158h108q47 0 73 24t26 57zM595 130h-79l-29 78q-27 71 -42 89q-24 29 -70 29h-87v-196h-70v384h199q158 0 158 -89q0 -93 -161 -93v-1q53 -7 87 -26t52 -66zM697 321q-1 125 -89 212.5t-212 86.5q-125 -1 -212.5 -89
t-86.5 -212q1 -125 89 -212.5t212 -86.5q125 1 212.5 89t86.5 212zM738 320q0 -141 -99.5 -240.5t-240.5 -99.5t-240.5 99.5t-99.5 240.5t99.5 240.5t240.5 99.5t240.5 -99.5t99.5 -240.5z" />
    <glyph glyph-name="degree" unicode="&#xb0;" horiz-adv-x="400" 
d="M200 344q-60 0 -101.5 41.5t-41.5 101.5t41.5 101.5t101.5 41.5t101.5 -41.5t41.5 -101.5t-41.5 -101.5t-101.5 -41.5zM200 590q-44 0 -71 -29t-27 -74t27 -74t71 -29t71 29t27 74t-27 74t-71 29z" />
    <glyph glyph-name="plusminus" unicode="&#xb1;" horiz-adv-x="600" 
d="M40 0v60h520v-60h-520zM270 345v175h60v-175h230v-60h-230v-175h-60v175h-230v60h230z" />
    <glyph glyph-name="mu" unicode="&#xb5;" 
d="M472 202v318h103v-520h-97v115h-2q-25 -67 -71.5 -98.5t-123.5 -31.5q-70 0 -110 18v-201h-103v718h103v-320q0 -78 36.5 -134t110.5 -56q73 0 113.5 57.5t40.5 134.5z" />
    <glyph glyph-name="mu" unicode="&#x3bc;" 
d="M472 202v318h103v-520h-97v115h-2q-25 -67 -71.5 -98.5t-123.5 -31.5q-70 0 -110 18v-201h-103v718h103v-320q0 -78 36.5 -134t110.5 -56q73 0 113.5 57.5t40.5 134.5z" />
    <glyph glyph-name="paragraph" unicode="&#xb6;" horiz-adv-x="600" 
d="M289 -124h52h-52zM519 640v-25q-38 0 -55 -10.5t-17 -38.5v-690h-52v739h-54v-739h-52v400q-88 0 -131.5 50.5t-43.5 138.5q0 93 43 134t142 41h220z" />
    <glyph glyph-name="periodcentered" unicode="&#xb7;" horiz-adv-x="600" 
d="M300 199q24 0 42 18t18 42t-18 42t-42 18t-42 -18t-18 -42t18 -42t42 -18z" />
    <glyph glyph-name="periodcentered" unicode="&#x2219;" horiz-adv-x="600" 
d="M300 199q24 0 42 18t18 42t-18 42t-42 18t-42 -18t-18 -42t18 -42t42 -18z" />
    <glyph glyph-name="guillemotright" unicode="&#xbb;" horiz-adv-x="556" 
d="M155 67q-16 18 -64 43q11 5 54 65t58 86q-30 56 -111 151q37 11 59 41q54 -86 130 -192q-96 -132 -126 -194zM339 67q-16 18 -64 43q11 5 54 65t58 86q-30 56 -111 151q37 11 59 41q54 -86 130 -192q-96 -132 -126 -194z" />
    <glyph glyph-name="divide" unicode="&#xf7;" horiz-adv-x="600" 
d="M300 -8q24 0 42 18t18 42t-18 42t-42 18t-42 -18t-18 -42t18 -42t42 -18zM300 408q24 0 42 18t18 42t-18 42t-42 18t-42 -18t-18 -42t18 -42t42 -18zM560 230h-520v60h520v-60z" />
    <glyph glyph-name="florin" unicode="&#x192;" 
d="M334 440h-94l11 32h88q36 253 343 253l-9 -20q-81 0 -132 -24t-63 -88l-22 -121h107l-11 -32h-99l-21 -146q-1 -9 -8.5 -66t-11 -78t-14 -70.5t-21.5 -77.5t-30 -63t-42 -59q-73 -78 -224 -78q-20 0 -60 4l14 20q34 0 59.5 3t55 13t49.5 27.5t37 49t24 75.5z" />
    <glyph glyph-name="Delta" unicode="&#x394;" horiz-adv-x="600" 
d="M57 49h412l-194 468zM593 0h-602l320 688z" />
    <glyph glyph-name="Delta" unicode="&#x2206;" horiz-adv-x="600" 
d="M57 49h412l-194 468zM593 0h-602l320 688z" />
    <glyph glyph-name="afii10023" unicode="&#x401;" horiz-adv-x="722" 
d="M85 565q0 29 12 52t35 23h508v-25h-400q-19 0 -29 -17.5t-10 -40.5v-207h349v-25h-349v-242q0 -23 10 -40.5t29 -17.5h412v-25h-520q-23 0 -35 23t-12 52v490zM272 817q24 0 42 -18t18 -42t-18 -42t-42 -18t-42 18t-18 42t18 42t42 18zM498 817q24 0 42 -18t18 -42
t-18 -42t-42 -18t-42 18t-18 42t18 42t42 18z" />
    <glyph glyph-name="afii10051" unicode="&#x402;" horiz-adv-x="896" 
d="M573 -121q-65 0 -117 23l10 27q48 -25 117 -25q34 0 58 12.5t36.5 31t19.5 49.5t8.5 56t1.5 64q0 34 -2.5 60.5t-11 56.5t-23.5 49.5t-42 32.5t-64 13q-76 0 -160 -14v-315h-116v615h-257v25h630v-25h-257v-275q86 14 165 14q139 0 196.5 -53.5t57.5 -180.5
q0 -94 -66.5 -167.5t-183.5 -73.5z" />
    <glyph glyph-name="afii10052" unicode="&#x403;" horiz-adv-x="617" 
d="M290 688h-41l142 152h109zM246 615q-19 0 -29 -17.5t-10 -40.5v-557h-116v565q0 29 12 52t35 23h424v-25h-316z" />
    <glyph glyph-name="afii10053" unicode="&#x404;" horiz-adv-x="759" 
d="M726 71q-112 -91 -302 -91q-75 0 -142 21.5t-120.5 62t-84.5 107t-31 149.5q0 149 112.5 244.5t265.5 95.5q73 0 150.5 -19.5t136.5 -56.5l-8 -27q-56 36 -131 57t-148 21q-81 0 -136.5 -43t-79 -104.5t-27.5 -137.5h387v-25h-388v-5q0 -59 15 -112.5t46.5 -100.5
t88.5 -74.5t134 -27.5q54 0 129 25t125 67z" />
    <glyph glyph-name="afii10054" unicode="&#x405;" horiz-adv-x="685" 
d="M579 597q-93 38 -228 38q-187 0 -187 -119q0 -22 6 -39.5t14 -30t25.5 -22t30.5 -15t40.5 -10.5t44.5 -7.5t52 -6.5t55 -7q206 -28 206 -169q0 -63 -30 -109.5t-80 -71.5t-104 -36.5t-113 -11.5q-71 0 -145 14.5t-119 34.5l5 28q46 -20 122 -36t130 -16q41 0 76.5 6.5
t70 21.5t55 45.5t20.5 73.5q0 18 -3.5 33t-12 26t-16 19.5t-22.5 15l-24.5 10.5t-28.5 7.5t-28 5t-30 4t-28 3.5q-38 5 -59 9t-60 13t-62.5 21t-49 30.5t-38 45.5t-12.5 61q0 47 18 84t47 59t69.5 36t80 19.5t83.5 5.5q131 0 238 -36z" />
    <glyph glyph-name="afii10055" unicode="&#x406;" horiz-adv-x="296" 
d="M90 0v640h116v-640h-116z" />
    <glyph glyph-name="afii10056" unicode="&#x407;" horiz-adv-x="296" 
d="M90 0v640h116v-640h-116zM39 817q24 0 42 -18t18 -42t-18 -42t-42 -18t-42 18t-18 42t18 42t42 18zM245 817q24 0 42 -18t18 -42t-18 -42t-42 -18t-42 18t-18 42t18 42t42 18z" />
    <glyph glyph-name="afii10057" unicode="&#x408;" horiz-adv-x="463" 
d="M371 640v-432q0 -91 -66 -159.5t-184 -68.5q-65 0 -117 23l10 27q48 -25 117 -25q41 0 68 15t38 43t14.5 51t3.5 57v469h116z" />
    <glyph glyph-name="afii10058" unicode="&#x409;" horiz-adv-x="1117" 
d="M1090 180q0 -40 -14.5 -71t-41.5 -50t-57 -31.5t-71 -18t-72.5 -7.5t-71.5 -2h-162l-246 490q-13 25 -21 25q-9 0 -17 -18l-248 -497h-33l313 629q16 31 29 31q17 0 43 -50l311 -585h54q171 0 171 156q0 43 -21 75t-54.5 49t-67.5 25t-68 8q-47 0 -80 -3l10 27q29 3 61 3
q67 0 128 -10.5t112.5 -31.5t82.5 -58t31 -85z" />
    <glyph glyph-name="afii10059" unicode="&#x40a;" horiz-adv-x="1197" 
d="M704 25h161q171 0 171 156q0 43 -21 75t-54.5 49t-67.5 25t-68 8q-47 0 -80 -3l10 27q29 3 61 3q67 0 128 -10.5t112.5 -31.5t82.5 -58t31 -85q0 -40 -14.5 -71t-41.5 -50t-57 -31.5t-71 -18t-72.5 -7.5t-71.5 -2h-254v325h-341l12 25h329v290h116v-615zM207 0h-116v640
h116v-640z" />
    <glyph glyph-name="afii10060" unicode="&#x40b;" horiz-adv-x="896" 
d="M404 340q86 14 165 14q146 0 200 -50t54 -184v-120h-116v117q0 36 -2.5 63t-11 57t-23.5 48.5t-42 31t-64 12.5q-76 0 -160 -14v-315h-116v615h-257v25h630v-25h-257v-275z" />
    <glyph glyph-name="afii10061" unicode="&#x40c;" horiz-adv-x="760" 
d="M330 688h-41l142 152h109zM264 339l364 301h43l-349 -286l2 -2h22q64 0 114.5 -20t89.5 -76l180 -256h-162l-128 212q-35 58 -63.5 89.5t-57.5 31.5q-24 0 -42 -15l-13 -11v32zM108 0v640h116v-640h-116z" />
    <glyph glyph-name="afii10062" unicode="&#x40e;" horiz-adv-x="722" 
d="M221 843h28q6 -38 41.5 -58.5t80.5 -20.5q124 0 136 81h28q-5 -71 -48 -111t-117 -40q-67 0 -108 40.5t-41 102.5v6zM403 264l225 375h35l-292 -480q-16 -26 -30 -45t-38 -42t-50 -37.5t-64.5 -24.5t-84.5 -10l7 26q67 0 126.5 32.5t101.5 98.5l-287 483l139 -1z" />
    <glyph glyph-name="afii10145" unicode="&#x40f;" horiz-adv-x="825" 
d="M341 0h-250v640h116v-615h381v615h116v-640h-242v-196h-121v196z" />
    <glyph glyph-name="afii10017" unicode="&#x410;" horiz-adv-x="778" 
d="M441 317l-97 185q-10 18 -16 18q-5 0 -12 -14l-95 -189h220zM747 0h-141l-152 292h-246l-147 -292h-32l327 637q12 23 24 23q14 0 34 -38z" />
    <glyph glyph-name="afii10018" unicode="&#x411;" horiz-adv-x="759" 
d="M206 25h211q171 0 171 156q0 43 -21.5 75.5t-55 49.5t-68 25.5t-68.5 8.5q-69 0 -152 -5l12 26q68 4 133 4q67 0 128 -10.5t112.5 -31.5t82.5 -58t31 -85q0 -37 -12.5 -66t-30.5 -47.5t-47.5 -31.5t-54.5 -20t-62 -10.5t-58.5 -4t-53.5 -0.5h-11h-302v565q0 29 12 52
t35 23h471v-25h-363q-19 0 -29 -17.5t-10 -40.5v-532z" />
    <glyph glyph-name="afii10019" unicode="&#x412;" horiz-adv-x="759" 
d="M206 25h211q171 0 171 156q0 42 -21.5 73.5t-55.5 47.5t-68 23.5t-66 7.5h-131l12 25h72q103 0 154.5 36t51.5 99q0 55 -43.5 88.5t-122.5 33.5h-125q-19 0 -29 -17.5t-10 -40.5v-532zM400 640q41 0 82 -6.5t84 -21t69.5 -44.5t26.5 -71q0 -128 -215 -148v-2
q45 -1 89.5 -10t88 -28.5t70.5 -55t27 -83.5q0 -44 -22 -76.5t-54 -50t-75.5 -27.5t-77 -13t-69.5 -3h-334v565q0 29 12 52t35 23h263z" />
    <glyph glyph-name="afii10020" unicode="&#x413;" horiz-adv-x="606" 
d="M246 615q-19 0 -29 -17.5t-10 -40.5v-557h-116v565q0 29 12 52t35 23h424v-25h-316z" />
    <glyph glyph-name="afii10021" unicode="&#x414;" horiz-adv-x="810" 
d="M569 25l-199 476q-5 12 -13 12q-14 0 -23 -23l-192 -465h427zM157 0q-19 0 -29 -17.5t-10 -40.5v-138h-116v146q0 26 21 50.5t46 24.5h40l244 584q21 47 47 47q28 0 53 -56l260 -575h54q23 0 35 -23t12 -52v-146h-116v138q0 23 -10 40.5t-29 17.5h-502z" />
    <glyph glyph-name="afii10022" unicode="&#x415;" horiz-adv-x="682" 
d="M85 565q0 29 12 52t35 23h508v-25h-400q-19 0 -29 -17.5t-10 -40.5v-207h349v-25h-349v-242q0 -23 10 -40.5t29 -17.5h412v-25h-520q-23 0 -35 23t-12 52v490z" />
    <glyph glyph-name="afii10024" unicode="&#x416;" horiz-adv-x="1169" 
d="M484 307l-13 11q-18 15 -42 15q-29 0 -57.5 -31.5t-63.5 -89.5l-128 -212h-162l180 256q39 56 89.5 76t114.5 20h22l2 2l-349 286h43l364 -301v-32zM640 0h-116v640h116v-640zM1146 0h-162l-128 212q-35 58 -63.5 89.5t-57.5 31.5q-24 0 -42 -15l-13 -11v32l364 301h43
l-349 -286l2 -2h22q64 0 114.5 -20t89.5 -76z" />
    <glyph glyph-name="afii10025" unicode="&#x417;" horiz-adv-x="667" 
d="M216 331v29h61q77 0 127.5 32.5t50.5 109.5q0 66 -44.5 99.5t-113.5 33.5q-106 0 -218 -58l-7 26q109 57 229 57q285 0 285 -162q0 -131 -243 -150v-2q45 0 90 -9t89 -28t71.5 -55t27.5 -85q0 -54 -31.5 -93.5t-82 -59t-99.5 -28t-98 -8.5q-172 0 -287 65l9 28
q115 -69 247 -69q89 0 148.5 41.5t59.5 126.5q0 80 -59.5 119.5t-144.5 39.5h-67z" />
    <glyph glyph-name="afii10026" unicode="&#x418;" horiz-adv-x="796" 
d="M91 40v600h116v-506q0 -12 9 -12q5 0 14 10l388 492q21 26 46 26q17 0 28.5 -12t11.5 -30v-608h-116v514q0 14 -8 14q-6 0 -14 -10l-393 -499q-24 -30 -46 -30q-16 0 -26 15t-10 36z" />
    <glyph glyph-name="afii10027" unicode="&#x419;" horiz-adv-x="796" 
d="M261 843h28q6 -38 41.5 -58.5t80.5 -20.5q124 0 136 81h28q-5 -71 -48 -111t-117 -40q-67 0 -108 40.5t-41 102.5v6zM91 40v600h116v-506q0 -12 9 -12q5 0 14 10l388 492q21 26 46 26q17 0 28.5 -12t11.5 -30v-608h-116v514q0 14 -8 14q-6 0 -14 -10l-393 -499
q-24 -30 -46 -30q-16 0 -26 15t-10 36z" />
    <glyph glyph-name="afii10028" unicode="&#x41a;" horiz-adv-x="760" 
d="M264 339l364 301h43l-349 -286l2 -2h22q64 0 114.5 -20t89.5 -76l180 -256h-162l-128 212q-35 58 -63.5 89.5t-57.5 31.5q-24 0 -42 -15l-13 -11v32zM108 0v640h116v-640h-116z" />
    <glyph glyph-name="afii10029" unicode="&#x41b;" horiz-adv-x="778" 
d="M744 0h-144l-246 490q-13 25 -21 25q-9 0 -17 -18l-248 -497h-33l313 629q16 31 29 31q17 0 43 -50z" />
    <glyph glyph-name="afii10030" unicode="&#x41c;" horiz-adv-x="917" 
d="M234 597l231 -457l225 452q33 67 80 67q24 0 40 -21t16 -57v-581h-112v533q0 15 -7 15q-9 0 -14 -12l-266 -536h-23l-263 533q-7 15 -14 15t-7 -16v-532h-25v592q0 30 17 49t42 19q48 0 80 -63z" />
    <glyph glyph-name="afii10031" unicode="&#x41d;" horiz-adv-x="796" 
d="M207 0h-116v640h116v-640zM259 350h329v290h116v-640h-116v325h-341z" />
    <glyph glyph-name="afii10032" unicode="&#x41e;" horiz-adv-x="833" 
d="M794 320q0 -149 -112.5 -244.5t-265.5 -95.5t-265.5 95.5t-112.5 244.5t112.5 244.5t265.5 95.5t265.5 -95.5t112.5 -244.5zM660 320q0 47 -7.5 90.5t-26 85t-46 72t-69.5 49t-95 18.5t-95 -18.5t-69.5 -49t-46 -72t-26 -85t-7.5 -90.5t7.5 -90.5t26 -85t46 -72t69.5 -49
t95 -18.5t95 18.5t69.5 49t46 72t26 85t7.5 90.5z" />
    <glyph glyph-name="afii10033" unicode="&#x41f;" horiz-adv-x="796" 
d="M207 615v-615h-116v640h566q23 0 35 -23t12 -52v-565h-116v557q0 23 -10 40.5t-29 17.5h-342z" />
    <glyph glyph-name="afii10034" unicode="&#x420;" horiz-adv-x="685" 
d="M253 327q11 -3 54 -3q111 0 172 41.5t61 112.5q0 49 -33.5 81.5t-77 44t-95.5 11.5h-89q-19 0 -29 -17.5t-10 -40.5v-557h-116v565q0 29 12 52t35 23h239q45 0 91.5 -7.5t95.5 -25t80 -52.5t31 -83t-35 -84t-91 -54t-112 -26.5t-111 -8.5q-59 0 -79 4z" />
    <glyph glyph-name="afii10035" unicode="&#x421;" horiz-adv-x="759" 
d="M714 97l8 -26q-112 -91 -302 -91q-75 0 -142 21.5t-120.5 62t-84.5 107t-31 149.5q0 149 112.5 244.5t265.5 95.5q73 0 150.5 -19.5t136.5 -56.5l-9 -29q-57 37 -131.5 58.5t-146.5 21.5q-53 0 -95 -18.5t-69.5 -49t-46 -72t-26 -85t-7.5 -90.5q0 -59 15 -112.5
t46.5 -100.5t88.5 -74.5t134 -27.5q54 0 129 25t125 67z" />
    <glyph glyph-name="afii10036" unicode="&#x422;" horiz-adv-x="691" 
d="M288 0v615h-257v25h630v-25h-257v-615h-116z" />
    <glyph glyph-name="afii10037" unicode="&#x423;" horiz-adv-x="712" 
d="M403 264l225 375h35l-292 -480q-16 -26 -30 -45t-38 -42t-50 -37.5t-64.5 -24.5t-84.5 -10l7 26q67 0 126.5 32.5t101.5 98.5l-287 483l139 -1z" />
    <glyph glyph-name="afii10038" unicode="&#x424;" horiz-adv-x="900" 
d="M389 540q-114 0 -168.5 -61.5t-54.5 -164.5q0 -97 55.5 -156t167.5 -59v441zM728 314q0 103 -54.5 164.5t-168.5 61.5v-441q112 0 167.5 59t55.5 156zM862 321q0 -76 -56 -134t-135.5 -85t-164.5 -27v-75h-118v75q-85 0 -164.5 27t-135.5 85t-56 134q0 58 32 106t84 77
t114 45t127 16v74h116v-74q65 0 127 -16t114 -45t84 -77t32 -106z" />
    <glyph glyph-name="afii10039" unicode="&#x425;" horiz-adv-x="692" 
d="M211 640l179 -258l207 258h33l-223 -282l249 -358h-140l-198 283l-228 -283h-40l250 310l-229 330h140z" />
    <glyph glyph-name="afii10040" unicode="&#x426;" horiz-adv-x="825" 
d="M704 -58q0 23 -10 40.5t-29 17.5h-527q-23 0 -35 23t-12 52v565h116v-557q0 -23 10 -40.5t29 -17.5h342v615h116v-615h69q23 0 35 -23t12 -52v-146h-116v138z" />
    <glyph glyph-name="afii10041" unicode="&#x427;" horiz-adv-x="722" 
d="M514 640h116v-640h-116v304q-110 -18 -191 -18q-146 0 -200 50t-54 184v120h116v-117q0 -36 2.5 -63t11 -57t23.5 -48.5t42 -31t64 -12.5q96 0 186 19v310z" />
    <glyph glyph-name="afii10042" unicode="&#x428;" horiz-adv-x="1130" 
d="M507 25v615h116v-615h300v615h116v-640h-901q-23 0 -35 23t-12 52v565h116v-557q0 -23 10 -40.5t29 -17.5h261z" />
    <glyph glyph-name="afii10043" unicode="&#x429;" horiz-adv-x="1160" 
d="M1155 -196h-116v138q0 23 -10 40.5t-29 17.5h-862q-23 0 -35 23t-12 52v565h116v-557q0 -23 10 -40.5t29 -17.5h261v615h116v-615h300v615h116v-615h69q23 0 35 -23t12 -52v-146z" />
    <glyph glyph-name="afii10044" unicode="&#x42a;" horiz-adv-x="848" 
d="M360 25h161q171 0 171 156q0 43 -21 75t-54.5 49t-67.5 25t-68 8q-48 0 -81 -3l10 27q28 3 62 3q67 0 128 -10.5t112.5 -31.5t82.5 -58t31 -85q0 -40 -14.5 -71t-41.5 -50t-57 -31.5t-71 -18t-72.5 -7.5t-71.5 -2h-254v615h-228v25h344v-615z" />
    <glyph glyph-name="afii10045" unicode="&#x42b;" horiz-adv-x="953" 
d="M206 25h161q171 0 171 156q0 43 -21 75t-54.5 49t-67.5 25t-68 8q-47 0 -80 -3l10 27q29 3 61 3q67 0 128 -10.5t112.5 -31.5t82.5 -58t31 -85q0 -40 -14.5 -71t-41.5 -50t-57 -31.5t-71 -18t-72.5 -7.5t-71.5 -2h-254v640h116v-615zM752 640h116v-640h-116v640z" />
    <glyph glyph-name="afii10046" unicode="&#x42c;" horiz-adv-x="693" 
d="M206 25h161q171 0 171 156q0 43 -21 75t-54.5 49t-67.5 25t-68 8q-47 0 -80 -3l10 27q29 3 61 3q67 0 128 -10.5t112.5 -31.5t82.5 -58t31 -85q0 -40 -14.5 -71t-41.5 -50t-57 -31.5t-71 -18t-72.5 -7.5t-71.5 -2h-254v640h116v-615z" />
    <glyph glyph-name="afii10047" unicode="&#x42d;" horiz-adv-x="759" 
d="M589 325h-388v25h387q-4 76 -27.5 137.5t-79 104.5t-136.5 43q-73 0 -148 -21t-131 -57l-8 27q59 37 136.5 56.5t150.5 19.5q153 0 265.5 -95.5t112.5 -244.5q0 -83 -31 -149.5t-84.5 -107t-120.5 -62t-142 -21.5q-190 0 -302 91l8 26q50 -42 125.5 -67t128.5 -25
q77 0 134 27.5t88.5 74.5t46.5 100.5t15 112.5v5z" />
    <glyph glyph-name="afii10048" unicode="&#x42e;" horiz-adv-x="1123" 
d="M950 320q0 47 -7.5 90.5t-26 85t-46 72t-69.5 49t-95 18.5t-95 -18.5t-69.5 -49t-46 -72t-26 -85t-7.5 -90.5t7.5 -90.5t26 -85t46 -72t69.5 -49t95 -18.5t95 18.5t69.5 49t46 72t26 85t7.5 90.5zM1084 320q0 -149 -112.5 -244.5t-265.5 -95.5t-265.5 95.5t-112.5 244.5
v5h-121v-325h-116v640h116v-290h122q8 92 63 163.5t137.5 109t176.5 37.5q153 0 265.5 -95.5t112.5 -244.5z" />
    <glyph glyph-name="afii10049" unicode="&#x42f;" horiz-adv-x="759" 
d="M559 615h-188q-77 0 -117 -35t-40 -93q0 -55 43.5 -95t120.5 -40h141l-11 -25h-95q-34 0 -59.5 -9t-42 -22t-31.5 -39.5t-24 -49l-24 -62.5q-3 -9 -5 -14l-48 -131h-139l64 164q61 158 245 171v2q-269 0 -269 156q0 147 263 147h332v-640h-116v615z" />
    <glyph glyph-name="afii10065" unicode="&#x430;" horiz-adv-x="631" 
d="M408 0h-163q-89 0 -150 37.5t-61 119.5q0 42 25.5 74t62 48.5t86.5 27t87 13t76 2.5h77v30q0 75 -36.5 117t-109.5 42q-137 0 -234 -53l-7 27q95 50 256 50q62 0 112 -14.5t86 -53.5t36 -99v-368h-103v297h-79q-219 0 -219 -156q0 -116 124 -116h121z" />
    <glyph glyph-name="afii10066" unicode="&#x431;" horiz-adv-x="630" 
d="M74 0v455q0 26 11.5 45.5t33.5 19.5h392v-25h-291q-18 0 -30.5 -14.5t-12.5 -33.5v-147h148q48 0 93.5 -8.5t86 -25.5t65 -48.5t24.5 -72.5q0 -43 -26 -73.5t-69.5 -45t-85 -20.5t-86.5 -6h-110l14 25h65q76 0 127 28t51 92q0 71 -43 100.5t-122 29.5h-132v-275h-103z
" />
    <glyph glyph-name="afii10067" unicode="&#x432;" horiz-adv-x="630" 
d="M229 290h74q63 0 103.5 27.5t40.5 81.5q0 45 -44 70.5t-111 25.5h-72q-18 0 -30.5 -14.5t-12.5 -33.5v-422h119q78 0 128.5 26t49.5 89q0 61 -48 93t-117 32h-92zM311 520q136 0 196 -28t60 -89q0 -29 -19 -52.5t-50.5 -36.5t-61.5 -21t-61 -11v-1q35 -2 70 -10t70 -23.5
t57 -43.5t22 -64q0 -43 -26 -72.5t-69.5 -43t-84.5 -19t-87 -5.5h-253v455q0 26 11.5 45.5t33.5 19.5h192z" />
    <glyph glyph-name="afii10068" unicode="&#x433;" horiz-adv-x="517" 
d="M220 495q-18 0 -30.5 -14.5t-12.5 -33.5v-447h-103v455q0 26 11.5 45.5t33.5 19.5h357v-25h-256z" />
    <glyph glyph-name="afii10069" unicode="&#x434;" horiz-adv-x="667" 
d="M150 265q0 -76 15.5 -125.5t47 -73.5t66 -32.5t84.5 -8.5h69l14 -25h-154q-110 0 -184 71.5t-74 193.5q0 106 75 188t181 82q123 0 196 -52v41h103v-494q0 -56 -18 -98t-45 -66t-64 -39t-69.5 -20t-67.5 -5h-205l9 25h203h17q22 0 37 3t35.5 16.5t33 39t22 74.5t9.5 118
v375q-80 52 -165 52q-171 0 -171 -240z" />
    <glyph glyph-name="afii10070" unicode="&#x435;" horiz-adv-x="618" 
d="M177 294h325v-25h-325v-190q0 -20 11.5 -37t31.5 -17h354v-25h-455q-23 0 -34 21t-11 50v384q0 26 11.5 45.5t33.5 19.5h423v-25h-322q-18 0 -30.5 -14.5t-12.5 -33.5v-153z" />
    <glyph glyph-name="afii10072" unicode="&#x436;" horiz-adv-x="1001" 
d="M411 236q-24 29 -43 29q-55 0 -119 -107l-95 -158h-137l98 148q19 29 24 36l21 29t24 28t24.5 19.5t31 17.5t35 8t44.5 4q21 0 32 -1v2l-258 229h40l278 -247v-37zM554 0h-103v520h103v-520zM988 0h-137l-95 158q-64 107 -119 107q-19 0 -43 -29v37l278 247h40l-258 -229
v-2q11 1 32 1q24 0 44.5 -4t35 -8t31 -17.5t24.5 -19.5t24 -28l21 -29t24 -36z" />
    <glyph glyph-name="afii10073" unicode="&#x437;" horiz-adv-x="574" 
d="M259 536h5q245 0 245 -132q0 -107 -214 -121v1v-2q39 0 78.5 -7.5t77.5 -23t61.5 -45t23.5 -68.5q0 -44 -29 -76t-75 -47.5t-89.5 -22.5t-87.5 -7q-122 0 -234 46l7 28q105 -49 233 -49q66 0 110.5 30.5t44.5 98.5q0 66 -49 98t-124 32h-60v23h54q152 0 152 115
q0 103 -125 103q-103 0 -196 -40l-7 27q41 17 98 28t100 11z" />
    <glyph glyph-name="afii10074" unicode="&#x438;" horiz-adv-x="667" 
d="M452 0h-171q-108 0 -160.5 48.5t-52.5 167.5v304h103v-305q0 -79 36.5 -134.5t110.5 -55.5h120zM492 520h103v-520h-103v520z" />
    <glyph glyph-name="afii10075" unicode="&#x439;" 
d="M177 732h28q6 -38 41.5 -58.5t80.5 -20.5q124 0 136 81h28q-5 -71 -48 -111t-117 -40q-67 0 -108 40.5t-41 102.5v6zM452 0h-171q-108 0 -160.5 48.5t-52.5 167.5v304h103v-305q0 -79 36.5 -134.5t110.5 -55.5h120zM492 520h103v-520h-103v520z" />
    <glyph glyph-name="afii10076" unicode="&#x43a;" horiz-adv-x="643" 
d="M223 273l278 247h40l-258 -229v-2q11 1 32 1q24 0 44.5 -4t35 -8t31 -17.5t24.5 -19.5t24 -28l21 -29t24 -36l98 -148h-137l-95 158q-64 107 -119 107q-19 0 -43 -29v37zM183 0h-103v520h103v-520z" />
    <glyph glyph-name="afii10077" unicode="&#x43b;" horiz-adv-x="659" 
d="M634 0h-122l-197 386q-13 24 -24 24q-12 0 -24 -24l-209 -386h-31l269 496q21 39 43 39q21 0 38 -35z" />
    <glyph glyph-name="afii10078" unicode="&#x43c;" horiz-adv-x="790" 
d="M589 471q35 64 77 64q22 0 35.5 -22t13.5 -65v-448h-103v418q0 14 -7 14q-6 0 -14 -13l-232 -419h-12l-227 415q-10 17 -15 17q-7 0 -7 -19v-413h-25v456q0 36 14 57.5t36 21.5q37 0 69 -58l196 -360h3z" />
    <glyph glyph-name="afii10079" unicode="&#x43d;" 
d="M177 0h-103v520h103v-520zM482 294v226h103v-520h-103v269h-289l12 25h277z" />
    <glyph glyph-name="afii10080" unicode="&#x43e;" horiz-adv-x="667" 
d="M37 260q0 120 84 197.5t212 77.5q129 0 213 -77.5t84 -197.5t-84 -197.5t-213 -77.5q-128 0 -212 77.5t-84 197.5zM153 260q0 -256 180 -256q181 0 181 256t-181 256q-180 0 -180 -256z" />
    <glyph glyph-name="afii10081" unicode="&#x43f;" 
d="M177 481q84 54 195 54q98 0 155.5 -51.5t57.5 -164.5v-319h-103v330q0 75 -35 124.5t-106 49.5q-87 0 -164 -52v-452h-103v520h103v-39z" />
    <glyph glyph-name="afii10082" unicode="&#x440;" horiz-adv-x="667" 
d="M222 25h65q51 0 86 9t65.5 34t46 75.5t15.5 126.5q0 68 -16.5 117.5t-43.5 74.5t-54 36.5t-54 11.5q-68 0 -166 -56v-650h-103v716h103v-39q96 54 182 54q104 0 186 -75t82 -190q0 -117 -86.5 -193.5t-202.5 -76.5h-121z" />
    <glyph glyph-name="afii10083" unicode="&#x441;" horiz-adv-x="593" 
d="M550 474l-7 -27q-94 64 -215 64q-62 0 -104 -38.5t-58.5 -92.5t-16.5 -120q-1 -125 56.5 -186.5t136.5 -61.5q126 0 212 75l9 -25q-87 -77 -234 -77q-128 0 -212 77.5t-84 197.5t84 197.5t212 77.5q131 0 221 -61z" />
    <glyph glyph-name="afii10084" unicode="&#x442;" horiz-adv-x="601" 
d="M562 495h-209v-495h-103v495h-209v25h521v-25z" />
    <glyph glyph-name="afii10085" unicode="&#x443;" horiz-adv-x="638" 
d="M605 520l-264 -511q-68 -130 -121 -168q-53 -39 -140 -39h-14l9 26q56 0 93 15q75 29 133 154l-264 523h117l208 -412l213 412h30z" />
    <glyph glyph-name="afii10086" unicode="&#x444;" horiz-adv-x="842" 
d="M371 12v496q-223 -22 -223 -248t223 -248zM697 260q0 226 -223 248v-496q223 22 223 248zM813 260q0 -110 -95 -186t-244 -87v-183h-103v183q-149 11 -244 87t-95 186t95 186t244 87v192h103v-192q149 -11 244 -87t95 -186z" />
    <glyph glyph-name="afii10087" unicode="&#x445;" horiz-adv-x="593" 
d="M553 0h-124l-169 226l-193 -226h-34l211 247l-205 273h128l152 -205l168 205h33l-186 -225z" />
    <glyph glyph-name="afii10088" unicode="&#x446;" horiz-adv-x="671" 
d="M482 25v495h103v-495h43q23 0 34 -21t11 -50v-149h-103v141q0 20 -11.5 37t-31.5 17h-408q-23 0 -34 21t-11 50v449h103v-441q0 -20 11.5 -37t31.5 -17h262z" />
    <glyph glyph-name="afii10089" unicode="&#x447;" horiz-adv-x="611" 
d="M447 245q-44 -26 -175 -26q-109 0 -162.5 46t-53.5 131v124h103v-106q0 -31 2.5 -53t11 -45.5t24 -38t43 -24t66.5 -9.5q110 0 141 26v250h103v-520h-103v245z" />
    <glyph glyph-name="afii10090" unicode="&#x448;" horiz-adv-x="997" 
d="M830 25v495h103v-520h-814q-23 0 -34 21t-11 50v449h103v-441q0 -20 11.5 -37t31.5 -17h232v495h103v-495h275z" />
    <glyph glyph-name="afii10091" unicode="&#x449;" horiz-adv-x="1021" 
d="M933 25h43q23 0 34 -21t11 -50v-149h-103v141q0 20 -11.5 37t-31.5 17h-756q-23 0 -34 21t-11 50v449h103v-441q0 -20 11.5 -37t31.5 -17h232v495h103v-495h275v495h103v-495z" />
    <glyph glyph-name="afii10092" unicode="&#x44a;" horiz-adv-x="787" 
d="M341 25h134q73 0 122.5 29.5t49.5 93.5q0 61 -60.5 97.5t-135.5 36.5q-48 0 -76 -7l9 26q28 6 54 6q65 0 120.5 -8.5t100 -25.5t69.5 -46.5t25 -68.5q0 -43 -26.5 -75.5t-68.5 -49.5t-85.5 -25t-86.5 -8h-248v495h-209v25h312v-495z" />
    <glyph glyph-name="afii10093" unicode="&#x44b;" horiz-adv-x="840" 
d="M220 302q18 5 54 5q65 0 120.5 -8.5t100 -25.5t69.5 -46.5t25 -68.5q0 -43 -26.5 -75.5t-68.5 -49.5t-85.5 -25t-86.5 -8h-248v520h103v-495h134q73 0 122.5 29.5t49.5 93.5q0 61 -60.5 97.5t-135.5 36.5q-52 0 -76 -6zM674 0v520h103v-520h-103z" />
    <glyph glyph-name="afii10094" unicode="&#x44c;" horiz-adv-x="622" 
d="M220 302q18 5 54 5q65 0 120.5 -8.5t100 -25.5t69.5 -46.5t25 -68.5q0 -43 -26.5 -75.5t-68.5 -49.5t-85.5 -25t-86.5 -8h-248v520h103v-495h134q73 0 122.5 29.5t49.5 93.5q0 61 -60.5 97.5t-135.5 36.5q-52 0 -76 -6z" />
    <glyph glyph-name="afii10095" unicode="&#x44d;" horiz-adv-x="593" 
d="M445 254h-298v25h297q-4 98 -48 165t-130 67q-116 0 -215 -67l-7 28q100 63 221 63q128 0 212 -77.5t84 -197.5t-84 -197.5t-212 -77.5q-147 0 -234 77l9 26q88 -77 212 -77q36 0 68.5 13.5t61 41t45.5 76t18 112.5z" />
    <glyph glyph-name="afii10096" unicode="&#x44e;" horiz-adv-x="922" 
d="M177 269v-269h-103v520l103 -1v-225h113q14 106 96 173.5t198 67.5q129 0 213 -77.5t84 -197.5t-84 -197.5t-213 -77.5q-128 0 -212 77.5t-84 197.5v9h-111zM404 260q0 -256 180 -256q181 0 181 256t-181 256q-180 0 -180 -256z" />
    <glyph glyph-name="afii10097" unicode="&#x44f;" horiz-adv-x="630" 
d="M570 0h-103v495h-125q-68 0 -111.5 -25t-43.5 -71q0 -57 40.5 -83t103.5 -26h80l16 -24h-32q-72 0 -108 -18.5t-59 -69.5q-48 -107 -67 -178h-124l49 120q29 71 67.5 100.5t113.5 45.5v1q-83 4 -134.5 35.5t-51.5 90.5q0 67 69.5 97t216.5 30h203v-520z" />
    <glyph glyph-name="afii10071" unicode="&#x451;" horiz-adv-x="618" 
d="M177 294h325v-25h-325v-190q0 -20 11.5 -37t31.5 -17h352v-25h-453q-23 0 -34 21t-11 50v384q0 26 11.5 45.5t33.5 19.5h423v-25h-322q-18 0 -30.5 -14.5t-12.5 -33.5v-153zM224 715q24 0 42 -18t18 -42t-18 -42t-42 -18t-42 18t-18 42t18 42t42 18zM430 715q24 0 42 -18
t18 -42t-18 -42t-42 -18t-42 18t-18 42t18 42t42 18z" />
    <glyph glyph-name="afii10099" unicode="&#x452;" horiz-adv-x="652" 
d="M585 111q0 -55 -19 -98t-46.5 -66.5t-64 -38.5t-66.5 -20t-58 -5h-31l8 20h18h9q19 0 33.5 2.5t37.5 16.5t38 39.5t26.5 76t11.5 121.5v55q0 80 -34.5 128t-106.5 48q-87 0 -164 -52v-338h-103v495h-63l11 25h52v205h103v-205h220l-7 -25h-213v-131q73 51 195 51
q92 0 152.5 -52.5t60.5 -163.5v-88z" />
    <glyph glyph-name="afii10100" unicode="&#x453;" horiz-adv-x="530" 
d="M241 586h-41l142 152h109zM476 520v-25h-299v-495h-103v520h402z" />
    <glyph glyph-name="afii10101" unicode="&#x454;" horiz-adv-x="593" 
d="M563 62q-87 -77 -234 -77q-128 0 -212 77.5t-84 197.5t84 197.5t212 77.5q137 0 221 -63l-7 -23q-99 67 -215 67q-59 0 -99.5 -36t-58 -87.5t-20.5 -113.5h297v-25h-298q1 -123 58.5 -185t134.5 -62q126 0 212 75z" />
    <glyph glyph-name="afii10102" unicode="&#x455;" horiz-adv-x="574" 
d="M500 497l-9 -24q-90 43 -194 43q-63 0 -104.5 -29.5t-41.5 -90.5q0 -25 14.5 -43t41.5 -27.5t55.5 -14t67.5 -7.5q107 -7 155.5 -39t48.5 -103q0 -51 -27 -87.5t-71 -55t-89 -26.5t-92 -8q-129 0 -236 40l7 24q45 -20 111.5 -32.5t123.5 -12.5q43 0 79.5 10t65 38.5
t28.5 71.5q0 53 -39 70.5t-138 25.5q-206 19 -206 147q0 49 25 84t66.5 52t83.5 24.5t88 7.5q93 0 186 -38z" />
    <glyph glyph-name="afii10103" unicode="&#x456;" horiz-adv-x="278" 
d="M131 589q-24 0 -41.5 17.5t-17.5 41.5t17.5 42t41.5 18q25 0 42.5 -18t17.5 -42t-17.5 -41.5t-42.5 -17.5zM88 0v520h103v-520h-103z" />
    <glyph glyph-name="afii10104" unicode="&#x457;" horiz-adv-x="278" 
d="M88 0v520h103v-520h-103zM30 715q24 0 42 -18t18 -42t-18 -42t-42 -18t-42 18t-18 42t18 42t42 18zM236 715q24 0 42 -18t18 -42t-18 -42t-42 -18t-42 18t-18 42t18 42t42 18z" />
    <glyph glyph-name="afii10105" unicode="&#x458;" horiz-adv-x="278" 
d="M136 589q-24 0 -41.5 17.5t-17.5 41.5t17.5 42t41.5 18q25 0 42.5 -18t17.5 -42t-17.5 -41.5t-42.5 -17.5zM196 520v-490q0 -55 -19.5 -98t-47 -66.5t-63 -38.5t-63 -20t-51.5 -5q-16 0 -39 6l6 21l38 -7h8q17 0 29.5 2.5t32.5 16.5t33 39.5t23 76t10 121.5v442h103z" />
    <glyph glyph-name="afii10106" unicode="&#x459;" horiz-adv-x="971" 
d="M621 25h38q73 0 122.5 29.5t49.5 93.5q0 61 -60.5 97.5t-135.5 36.5q-52 0 -76 -6l9 26q18 5 54 5q65 0 120.5 -8.5t100 -25.5t69.5 -46.5t25 -68.5q0 -43 -26.5 -75.5t-68.5 -49.5t-85.5 -25t-86.5 -8h-158l-197 386q-13 24 -24 24q-12 0 -24 -24l-209 -386h-31l269 496
q21 39 43 39q21 0 38 -35z" />
    <glyph glyph-name="afii10107" unicode="&#x45a;" horiz-adv-x="1022" 
d="M482 269h-289l12 25h277v226h103v-495h134q73 0 122.5 29.5t49.5 93.5q0 61 -60.5 97.5t-135.5 36.5q-52 0 -76 -6l9 26q18 5 54 5q65 0 120.5 -8.5t100 -25.5t69.5 -46.5t25 -68.5q0 -43 -26.5 -75.5t-68.5 -49.5t-85.5 -25t-86.5 -8h-248v269zM177 0h-103v520h103v-520
z" />
    <glyph glyph-name="afii10108" unicode="&#x45b;" horiz-adv-x="652" 
d="M177 495v-131q73 51 195 51q92 0 152.5 -52.5t60.5 -163.5v-199h-103v214q0 80 -34.5 128t-106.5 48q-87 0 -164 -52v-338h-103v495h-63l11 25h52v205h103v-205h220l-7 -25h-213z" />
    <glyph glyph-name="afii10109" unicode="&#x45c;" horiz-adv-x="584" 
d="M255 586h-41l142 152h109zM432 0l-95 158l-21 34t-24.5 33.5t-36 33.5t-37.5 11q-13 0 -20.5 -6t-10.5 -20t-3.5 -25t-0.5 -32v-187h-103v520h103v-238l293 238h33l-274 -220v-2q15 3 30 3q49 0 96.5 -31t82.5 -83l125 -187h-137z" />
    <glyph glyph-name="afii10110" unicode="&#x45e;" 
d="M187 732h28q6 -38 41.5 -58.5t80.5 -20.5q124 0 136 81h28q-5 -71 -48 -111t-117 -40q-67 0 -108 40.5t-41 102.5v6zM605 520l-264 -511q-68 -130 -121 -168q-53 -39 -140 -39h-14l9 26q56 0 93 15q75 29 133 154l-264 523h117l208 -412l213 412h30z" />
    <glyph glyph-name="afii10193" unicode="&#x45f;" horiz-adv-x="671" 
d="M280 0h-206v520h103v-495h305v495h103v-520h-202v-195h-103v195z" />
    <glyph glyph-name="afii10050" unicode="&#x490;" horiz-adv-x="606" 
d="M562 690q0 -29 -12 -52t-35 -23h-269q-19 0 -29 -17.5t-10 -40.5v-557h-116v565q0 29 12 52t35 23h269q19 0 29 17.5t10 40.5v138h116v-146z" />
    <glyph glyph-name="afii10098" unicode="&#x491;" horiz-adv-x="517" 
d="M476 566q0 -29 -11 -50t-34 -21h-211q-18 0 -30.5 -14.5t-12.5 -33.5v-447h-103v455q0 26 11.5 45.5t33.5 19.5h211q20 0 31.5 17t11.5 37v141h103v-149z" />
    <glyph glyph-name="endash" unicode="&#x2013;" horiz-adv-x="500" 
d="M500 290v-60h-500v60h500z" />
    <glyph glyph-name="emdash" unicode="&#x2014;" horiz-adv-x="1000" 
d="M1000 230h-1000v60h1000v-60z" />
    <glyph glyph-name="quoteleft" unicode="&#x2018;" horiz-adv-x="148" 
d="M103 660l11 -9q-52 -52 -52 -115v-3q4 1 12 1q20 0 37.5 -16.5t17.5 -41.5q0 -24 -14 -39.5t-38 -15.5q-27 0 -43 18.5t-16 49.5q0 53 20.5 90t64.5 81z" />
    <glyph glyph-name="quoteright" unicode="&#x2019;" horiz-adv-x="148" 
d="M45 421l-11 9q52 52 52 115v3q-4 -1 -12 -1q-20 0 -37.5 16.5t-17.5 41.5q0 24 14 39.5t38 15.5q27 0 43 -18.5t16 -49.5q0 -53 -20.5 -90t-64.5 -81z" />
    <glyph glyph-name="quotesinglbase" unicode="&#x201a;" horiz-adv-x="148" 
d="M45 -134l-11 9q52 52 52 115v3q-4 -1 -12 -1q-20 0 -37.5 16.5t-17.5 41.5q0 24 14 39.5t38 15.5q27 0 43 -18.5t16 -49.5q0 -53 -20.5 -90t-64.5 -81z" />
    <glyph glyph-name="quotedblleft" unicode="&#x201c;" horiz-adv-x="296" 
d="M103 660l11 -9q-52 -52 -52 -115v-3q4 1 12 1q20 0 37.5 -16.5t17.5 -41.5q0 -24 -14 -39.5t-38 -15.5q-27 0 -43 18.5t-16 49.5q0 53 20.5 90t64.5 81zM251 660l11 -9q-52 -52 -52 -115v-3q4 1 12 1q20 0 37.5 -16.5t17.5 -41.5q0 -24 -14 -39.5t-38 -15.5
q-27 0 -43 18.5t-16 49.5q0 53 20.5 90t64.5 81z" />
    <glyph glyph-name="quotedblright" unicode="&#x201d;" horiz-adv-x="296" 
d="M193 421l-11 9q52 52 52 115v3q-4 -1 -12 -1q-20 0 -37.5 16.5t-17.5 41.5q0 24 14 39.5t38 15.5q27 0 43 -18.5t16 -49.5q0 -53 -20.5 -90t-64.5 -81zM45 421l-11 9q52 52 52 115v3q-4 -1 -12 -1q-20 0 -37.5 16.5t-17.5 41.5q0 24 14 39.5t38 15.5q27 0 43 -18.5
t16 -49.5q0 -53 -20.5 -90t-64.5 -81z" />
    <glyph glyph-name="quotedblbase" unicode="&#x201e;" horiz-adv-x="296" 
d="M193 -134l-11 9q52 52 52 115v3q-4 -1 -12 -1q-20 0 -37.5 16.5t-17.5 41.5q0 24 14 39.5t38 15.5q27 0 43 -18.5t16 -49.5q0 -53 -20.5 -90t-64.5 -81zM45 -134l-11 9q52 52 52 115v3q-4 -1 -12 -1q-20 0 -37.5 16.5t-17.5 41.5q0 24 14 39.5t38 15.5q27 0 43 -18.5
t16 -49.5q0 -53 -20.5 -90t-64.5 -81z" />
    <glyph glyph-name="dagger" unicode="&#x2020;" horiz-adv-x="556" 
d="M313 421l190 6v-70l-190 6l6 -487h-82l6 487l-190 -6v70l190 -6l-6 219h82z" />
    <glyph glyph-name="daggerdbl" unicode="&#x2021;" horiz-adv-x="556" 
d="M503 127l-190 6l6 -257h-82l6 257l-190 -6v70l190 -6v172l-190 -6v70l190 -6l-6 219h82l-6 -219l190 6v-70l-190 6v-172l190 6v-70z" />
    <glyph glyph-name="bullet" unicode="&#x2022;" horiz-adv-x="500" 
d="M410 320q0 -67 -46.5 -113.5t-113.5 -46.5t-113.5 46.5t-46.5 113.5t46.5 113.5t113.5 46.5t113.5 -46.5t46.5 -113.5z" />
    <glyph glyph-name="ellipsis" unicode="&#x2026;" horiz-adv-x="1000" 
d="M833 105q24 0 42 -18t18 -42t-18 -42t-42 -18t-42 18t-18 42t18 42t42 18zM500 105q24 0 42 -18t18 -42t-18 -42t-42 -18t-42 18t-18 42t18 42t42 18zM167 105q24 0 42 -18t18 -42t-18 -42t-42 -18t-42 18t-18 42t18 42t42 18z" />
    <glyph glyph-name="perthousand" unicode="&#x2030;" horiz-adv-x="993" 
d="M366 162q0 69 39 123t104 54q64 0 102.5 -54t38.5 -123t-38.5 -123t-102.5 -54q-65 0 -104 54t-39 123zM438 162q0 -80 14.5 -118.5t55.5 -38.5t55.5 38.5t14.5 118.5t-14.5 118.5t-55.5 38.5t-55.5 -38.5t-14.5 -118.5zM16 453q0 69 39 123t104 54q64 0 102.5 -54
t38.5 -123t-38.5 -123t-102.5 -54q-65 0 -104 54t-39 123zM88 453q0 -80 14.5 -118.5t55.5 -38.5t55.5 38.5t14.5 118.5t-14.5 118.5t-55.5 38.5t-55.5 -38.5t-14.5 -118.5zM171 -15h-52l378 645h52zM696 162q0 69 39 123t104 54q64 0 102.5 -54t38.5 -123t-38.5 -123
t-102.5 -54q-65 0 -104 54t-39 123zM768 162q0 -80 14.5 -118.5t55.5 -38.5t55.5 38.5t14.5 118.5t-14.5 118.5t-55.5 38.5t-55.5 -38.5t-14.5 -118.5z" />
    <glyph glyph-name="guilsinglleft" unicode="&#x2039;" horiz-adv-x="372" 
d="M217 67q-30 62 -126 194q76 106 130 192q22 -30 59 -41q-81 -95 -111 -151q15 -26 58 -86t54 -65q-48 -25 -64 -43z" />
    <glyph glyph-name="guilsinglright" unicode="&#x203a;" horiz-adv-x="372" 
d="M155 67q-16 18 -64 43q11 5 54 65t58 86q-30 56 -111 151q37 11 59 41q54 -86 130 -192q-96 -132 -126 -194z" />
    <glyph glyph-name="Euro" unicode="&#x20ac;" 
d="M599 590v-105q-64 52 -177 52q-82 0 -131 -32.5t-63 -88.5h331l-35 -79h-311q-1 -6 -1 -25q0 -23 1 -30h286l-35 -79h-236q15 -58 64.5 -91t130.5 -33q112 0 176 52v-106q-59 -39 -189 -39q-121 0 -198.5 54.5t-99.5 162.5h-90l35 79h45q-1 7 -1 30q0 19 1 25h-80l35 79
h54q24 97 97 156t202 59q117 0 189 -41z" />
    <glyph glyph-name="afii61352" unicode="&#x2116;" horiz-adv-x="1200" 
d="M118 492v-492h-25v628q0 32 28 32q23 0 44 -21l466 -477q7 -7 11 -7q6 0 6 10v475h25v-622q0 -31 -21 -31q-28 0 -57 31l-465 478q-4 4 -7 4q-5 0 -5 -8zM1132 0h-384v36h384v-36zM748 228q0 72 54.5 118.5t137.5 46.5q84 0 139 -46.5t55 -118.5t-55 -118.5t-139 -46.5
q-83 0 -137.5 46.5t-54.5 118.5zM1048 228q0 65 -21.5 102.5t-86.5 37.5q-34 0 -56 -11t-32.5 -33t-14 -43.5t-3.5 -52.5t3.5 -52.5t14 -43.5t32.5 -33t56 -11q65 0 86.5 37.5t21.5 102.5z" />
    <glyph glyph-name="trademark" unicode="&#x2122;" horiz-adv-x="990" 
d="M552 640l141 -294l133 294h69v-384h-67v345h-2l-159 -345h-13l-158 345h-1v-345h-15v384h72zM168 256v369h-154v15h378v-15h-154v-369h-70z" />
    <glyph glyph-name="radical" unicode="&#x221a;" horiz-adv-x="600" 
d="M37 450l146 72l197 -403l127 798l35 -5l-150 -950l-243 502l-96 -47z" />
    <glyph glyph-name="infinity" unicode="&#x221e;" horiz-adv-x="713" 
d="M522 175q10 -3 22 -3q37 0 65 25t29 62v2q0 32 -24.5 61.5t-65.5 29.5q-19 0 -39 -7q-39 -14 -119 -81l39 -37.5t26.5 -22t32 -19.5t34.5 -10zM205 345q-20 7 -39 7q-41 0 -65.5 -29.5t-24.5 -61.5v-2q1 -37 29 -62t65 -25q12 0 22 3q21 5 34.5 10t32 19.5t26.5 22
l39 37.5q-80 67 -119 81zM486 391q30 13 61 13q54 0 95 -36.5t46 -88.5q0 -2 0.5 -6t0.5 -7q0 -53 -39 -97.5t-96 -44.5q-2 0 -6.5 0.5t-6.5 0.5q-29 3 -55.5 12.5t-47.5 23.5t-35 26t-28.5 26.5l-17.5 17.5l-17.5 -17.5t-28.5 -26.5t-35 -26t-47.5 -23.5t-55.5 -12.5
q-2 0 -6.5 -0.5t-6.5 -0.5q-57 0 -96 44.5t-39 97.5q0 3 0.5 7t0.5 6q5 52 46 88.5t95 36.5q31 0 61 -13q33 -15 56.5 -32t72.5 -62q49 45 72.5 62t56.5 32z" />
    <glyph glyph-name="approxequal" unicode="&#x2248;" horiz-adv-x="600" 
d="M562 219q-22 -38 -61 -58.5t-80 -20.5q-17 0 -37 5l-150 43q-22 7 -44 7q-18 0 -32.5 -4.5t-26 -13.5t-17.5 -15t-14 -16l-8 -11l-43 27q60 79 144 79q27 0 51 -7l151 -42q12 -3 25 -3q26 0 54 12q32 14 51 42zM562 370q-22 -38 -61 -58.5t-80 -20.5q-17 0 -37 5l-150 43
q-22 7 -44 7q-18 0 -32.5 -4.5t-26 -13.5t-17.5 -15t-14 -17l-8 -10l-43 27q60 79 144 79q27 0 51 -7l151 -42q12 -3 25 -3q26 0 54 12q32 14 51 42z" />
    <glyph glyph-name="notequal" unicode="&#x2260;" horiz-adv-x="600" 
d="M560 132h-329l-105 -147h-58l105 147h-133v60h175l97 136h-272v60h315l89 125h58l-89 -125h147v-60h-190l-97 -136h287v-60z" />
    <glyph glyph-name="lessequal" unicode="&#x2264;" horiz-adv-x="600" 
d="M554 61v-62l-508 232v61zM554 181v-62l-508 232v58l508 232v-62l-436 -199z" />
    <glyph glyph-name="greaterequal" unicode="&#x2265;" horiz-adv-x="600" 
d="M552 231l-508 -232v62l508 231v-61zM552 351l-508 -232v62l436 199l-436 199v62l508 -232v-58z" />
    <glyph glyph-name="nbspace" horiz-adv-x="500" 
 />
    <glyph glyph-name="hyphenminus" horiz-adv-x="333" 
d="M39 220l19 80h236l-18 -80h-237z" />
    </font>
</defs>
</svg>
