<?xml version="1.0" standalone="no"?>
<!DOCTYPE svg PUBLIC "-//W3C//DTD SVG 1.1//EN" "http://www.w3.org/Graphics/SVG/1.1/DTD/svg11.dtd" >
<svg>
<metadata>
Created by FontForge 20090622 at Wed Jan 27 09:34:23 2016
 By deploy user
Copyright (C) 1993; Type Market Ltd. Moscow, 119136, Box 20; phone:(095)1427712; Created by A.Kustov
</metadata>
<defs>
<font id="MistralC" horiz-adv-x="508" >
  <font-face 
    font-family="MistralC"
    font-weight="400"
    font-stretch="normal"
    units-per-em="1000"
    panose-1="0 0 5 0 0 0 0 0 0 0"
    ascent="651"
    descent="-349"
    x-height="304"
    cap-height="697"
    bbox="-32 -349.56 1213.24 883"
    underline-thickness="50"
    underline-position="-50"
    unicode-range="U+0020-U+2122"
  />
<missing-glyph horiz-adv-x="500" 
 />
    <glyph glyph-name=".notdef" horiz-adv-x="500" 
 />
    <glyph glyph-name=".null" horiz-adv-x="0" 
 />
    <glyph glyph-name="nonmarkingreturn" horiz-adv-x="333" 
 />
    <glyph glyph-name="space" unicode=" " horiz-adv-x="393" 
 />
    <glyph glyph-name="space" unicode="&#xa0;" horiz-adv-x="393" 
 />
    <glyph glyph-name="exclam" unicode="!" horiz-adv-x="323" 
d="M179 174q-7 -19 -31 -42t-36 -17q-2 11 -2.5 13.5t1.5 20t3 33.5q-5 7 -3.5 35.5t12.5 49.5q-2 27 4.5 77.5t4.5 58.5q6 5 12.5 40.5t-0.5 57.5q-10 -1 -14 2.5t-3.5 12t3 18.5t5 27t3.5 32q1 49 10 66t34 23q38 43 73 43q13 0 13.5 -18t-8 -56t-9.5 -45q-6 -85 -18 -111
q-2 -8 -4.5 -40.5t-7 -63.5t-11.5 -47q-4 -7 -8.5 -33t-4.5 -42q-8 -13 -13 -43.5t-5 -51.5zM90 -27q-5 1 -12.5 23.5t-1.5 28.5q17 30 47 48q6 0 21 2t27.5 -8.5t7.5 -33.5q-2 -4 -2.5 -19t-4 -24.5t-14.5 -9.5q-4 0 -33 -4t-35 -3z" />
    <glyph glyph-name="quotedbl" unicode="&#x22;" horiz-adv-x="289" 
d="M48 627q-8 20 0 33q10 16 20 23.5t32 14.5q1 2 8.5 -1t13.5 -7l7 -4q3 -1 5 -2t3 -2t1.5 -3t0.5 -3t-0.5 -4t-1 -4.5t-1.5 -5.5t-2 -6l-8.5 -23.5t-10.5 -28l-10 -25.5t-9.5 -20.5t-7.5 -8.5q0 -23 -20.5 -63t-41.5 -40q-15 0 -16 4q-2 5 1 18q1 6 8.5 32.5l14 50.5
t6.5 31q0 44 8 44zM193 627q-7 20 0 33q9 16 19.5 23.5t32.5 14.5q3 2 10 -1t13 -7l5 -4q3 -1 5.5 -2t3.5 -3l1.5 -3t0 -4t-1.5 -5t-2 -6t-2 -7q-2 -6 -14 -38.5t-19.5 -49.5t-12.5 -18q0 -22 -22.5 -62.5t-42.5 -40.5h-9t-5 5t1 17q1 4 10 32t15.5 51.5t6.5 30.5q0 44 7 44
z" />
    <glyph glyph-name="dollar" unicode="$" horiz-adv-x="439" 
d="M182 -16q-20 -12 -48 -19t-55.5 0t-34.5 32q-2 11 7.5 22t29 22t37.5 19l42.5 18t34.5 15q0 21 4.5 70.5t4.5 82.5q-6 9 -41.5 41t-49.5 49q-15 24 -22 38.5t-14 42.5t4 58.5t38 62.5q6 9 10.5 14.5l8.5 10t10.5 10l10 8.5t14.5 10.5l17 11.5l24.5 16l30.5 20l4.5 46.5
t6.5 49.5q1 10 29 6l7 -3q5 -8 3.5 -17l-4.5 -28t-2 -30q17 4 44 15.5t38 14.5t30 -3q33 -33 5 -84q-17 -21 -61 -43.5t-71 -26.5q0 -6 -10.5 -96.5t-7.5 -103.5q7 -8 30 -29t37 -36.5t28 -45.5t15 -63q4 -1 7 -2t5 -2t3 -3t2 -3.5t1 -4.5v-4.5v-5v-5.5q-4 -7 -7.5 -10
t-10.5 -5t-12 -6q-4 -2 -65 -59q-31 -28 -74 -52q-5 -8 -6.5 -33t-4.5 -32q-12 0 -18 1.5t-7.5 6t-0.5 9t2.5 14t1.5 18.5zM278 144q1 5 -1.5 13t-6 14l-8.5 14.5t-6 9.5q-13 13 -15 16q0 -7 -6.5 -50t-6.5 -55q4 2 13.5 4t14 4t10.5 5.5t8.5 9.5t3.5 15zM235 528
q-41 0 -51 -29t3 -62.5t32 -52.5q3 12 8.5 74t7.5 70z" />
    <glyph glyph-name="percent" unicode="%" horiz-adv-x="645" 
d="M44 327q0 48 -5 59q4 10 2 34.5t0 30.5q7 37 29.5 105t40.5 104q-1 15 27 28q31 14 37 -1q2 -3 1 -8q35 28 63.5 15t45 -50.5t7.5 -70.5q0 -26 -7.5 -67.5t-16.5 -78.5l-10 -41q-10 -6 -41.5 -58t-53.5 -52q-18 -20 -59 -3q-15 7 -14 11q-21 3 -30.5 20.5t-15.5 22.5z
M186 -26q-8 -27 -20.5 -40.5t-21 -12t-12.5 5.5q-27 33 -1.5 96.5t70.5 122.5q1 17 14.5 50.5t28 61.5l39.5 75l34 64l97 187q1 5 20 52q0 18 23.5 55.5t40.5 30.5q23 17 47 20q5 -22 -9 -36q-6 -57 -37 -129t-54 -111l-71 -115q-12 -27 -87 -163t-101 -214zM547 27
q-27 -51 -77 -60q-27 3 -38.5 6t-25 14t-26.5 34q-4 6 -5 29.5t-9 31.5q9 26 25.5 126t49.5 149q5 27 33 35q26 7 31 -11q1 -2 1 -5q9 17 27.5 23.5t47.5 -7.5q28 -18 35.5 -70.5t0.5 -101.5t-19 -74q-4 -39 -26 -75.5t-25 -43.5zM219 449q10 16 13 73q0 58 -13 65
q-2 6 -4 10t-4 6.5t-3.5 4t-4.5 2t-4 0.5h-6h-7q-9 -8 -23 -11.5t-22 -12.5t-14 -35q-1 -7 -5 -31t-5 -35t-2.5 -34t2.5 -29q-17 -16 -1 -50q14 -30 32 -25q7 2 12 9q1 0 8 4t10 5q0 2 10 16t20 33.5t11 34.5zM560 186q2 55 -3 87.5t-26 35.5q-12 1 -27.5 -4t-25.5 -11.5
t-8 -9.5q-17 -25 -24 -76.5t1 -83.5q-9 -23 -1.5 -48.5t22.5 -32.5q24 2 55 47.5t37 95.5z" />
    <glyph glyph-name="ampersand" unicode="&#x26;" horiz-adv-x="576" 
d="M209 -31q-17 0 -23 10t-4.5 21.5t5.5 27.5t4 22q18 76 18 88l-27 27l-31 31.5l-27.5 30t-28 35.5l-20.5 34.5t-17.5 40t-6.5 39.5q-1 3 -3.5 15t-4.5 20t-4.5 20.5t-3.5 21.5t-1.5 18.5t1 16t4.5 9.5q-10 91 34.5 132.5t86.5 19.5q22 -6 37 -13.5t21.5 -12.5t21 -20.5
t24.5 -24.5q17 -7 33 -52.5t30 -59.5q7 -7 21 10t33 44t32 36l10 15l8.5 12.5t8 10t9 7t10.5 3t14 -1.5q35 15 33 -8q-1 -23 -60 -122q-27 -45 -33 -62q-15 -36 -25 -64q-6 -14 -15 -29l-6 -9q0 -9 -3.5 -57.5t1.5 -48.5q-9 -33 9.5 -41t58 -3t52.5 3q9 3 21.5 9t21.5 11
t19 10t14 5t6 -4q3 -14 -0.5 -22t-18 -18t-16.5 -12q-48 -77 -197 -66q-8 1 -16.5 -10t-14.5 -24.5t-14 -25t-16 -10.5q-3 -13 -24.5 -24t-40.5 -11zM289 334q-9 3 -21 -10t-14 -13q-3 20 3 34t17.5 31t17.5 31q-11 23 -11 59q-12 12 -32 43.5t-27 38.5q-15 24 -31 38.5
t-30 17.5t-26 0t-19.5 -11.5t-10.5 -20.5q-14 -39 -12 -58.5t8 -37.5t4 -25q-6 -34 21.5 -88.5t63 -93t51.5 -35.5q7 14 29 52q-2 8 9 26t10 22z" />
    <glyph glyph-name="quotesingle" unicode="'" horiz-adv-x="229" 
d="M169 477q-1 -15 -28 -28q-28 -13 -28 3q0 4 2 10q11 28 19 57t11 46t5.5 37t3.5 25q-1 9 0.5 27.5t1.5 19.5q8 8 50 22q56 -14 34 -47q-9 -27 -35.5 -83.5t-35.5 -88.5z" />
    <glyph glyph-name="parenleft" unicode="(" horiz-adv-x="322" 
d="M222 -59q-30 11 -55 70t-33 97q-26 109 1 236t94 251q32 73 78 103q28 19 31 0q1 -8 -5 -23q-5 -11 -21 -54.5t-21 -53.5l-34 -86.5t-29 -89t-24 -103.5t-2 -94.5t20 -96.5q4 -11 20 -44q44 -86 36 -108q-8 -21 -56 -4z" />
    <glyph glyph-name="parenright" unicode=")" horiz-adv-x="321" 
d="M163 697q46 -20 85 -171q27 -106 0 -234t-93 -253q-31 -71 -77 -102q-29 -19 -31 0q-1 9 6 25q4 10 18 53t19 56q29 69 43.5 109.5t34 111.5t18.5 132.5t-23 114.5q-4 10 -18 36q-47 93 -39 117q9 22 57 5z" />
    <glyph glyph-name="asterisk" unicode="*" horiz-adv-x="415" 
d="M291 369q-25 -9 -37.5 -6t-16.5 21.5t-3 35.5t2.5 37t0.5 25q-16 -8 -41.5 -27.5t-43.5 -23.5q-34 -6 -40 16q-4 15 8 19q25 4 100 53q-7 8 -40 30t-57 34q-20 13 -12 45q6 24 19 22q5 -1 9 -5q20 -15 23 -31q8 -4 37 -28t38 -28q5 69 -3 121q0 5 4.5 7t11.5 3.5t10 3.5
q22 0 28 -17t1.5 -38t-9 -46.5t-0.5 -36.5l21.5 19.5l32 30.5l30.5 29q5 23 23.5 13.5t19.5 -29.5q0 -15 -14 -22q-10 -11 -51.5 -40t-45.5 -37q13 -4 37.5 -15t30.5 -13q7 -3 16.5 -6.5t15 -5t10 -5t4.5 -8.5q-10 -21 -28.5 -23.5t-35 6t-39.5 22t-33 17.5q3 -10 3 -33.5
t3 -39.5q1 -12 5 -24.5t6 -16t0 -5.5z" />
    <glyph glyph-name="comma" unicode="," horiz-adv-x="206" 
d="M68 67q-3 27 0 33q16 25 30.5 34t41.5 3q5 -3 12 -8l6 -5q4 -12 -28 -81q-2 -3 -6 -16t-8.5 -23t-9.5 -10q0 -5 -11 -31t-11 -39q-2 -10 -19 -21.5t-25 -11.5q-10 0 -11 5q-1 9 9 37l22 88q5 46 8 46z" />
    <glyph glyph-name="period" unicode="." horiz-adv-x="206" 
d="M108 0q-34 19 -38 30q-8 19 25 50q3 0 11 10t15 15t20 -3q29 -1 43 -15.5t14 -30.5q0 -6 -17.5 -21.5t-26.5 -15.5q-22 -16 -46 -19z" />
    <glyph glyph-name="slash" unicode="/" horiz-adv-x="414" 
d="M147 -8q-75 -65 -73 4q1 47 24 101q2 5 3 6q37 67 113 193.5l106 179.5q11 24 37.5 96t49.5 112q9 0 23 3l24 5q17 5 25 6t15.5 -0.5t4.5 -11t-14 -26.5q0 -46 -39 -123.5t-123 -207.5l-96 -149q-89 -117 -80 -188z" />
    <glyph glyph-name="zero" unicode="0" horiz-adv-x="438" 
d="M105 -28q-24 0 -54 41t-30 85q0 33 -4 103.5t-4 101.5q43 263 108 368q27 0 35 -9.5t-2 -44.5q58 62 95 72.5t83 -18.5q27 -17 44 -40t24.5 -45t9.5 -51t0.5 -50.5l-3.5 -50.5t-2 -45q4 -52 -25.5 -150t-81 -185t-98.5 -97q-35 -14 -95 15zM286 170q15 11 38.5 123
t23.5 142q7 71 -36 107t-99.5 25t-84.5 -61q3 -7 -6.5 -37.5t-18.5 -87.5t2 -172q2 -18 3.5 -29t5.5 -34t8.5 -36.5t12.5 -30.5t17 -23t23 -6.5t29.5 12t36.5 39.5t45 69z" />
    <glyph glyph-name="one" unicode="1" horiz-adv-x="365" 
d="M127 -44q-25 -11 -23 9q1 13 31 81q6 13 9 21l29.5 109t32.5 122.5t21.5 110.5t10.5 119q0 19 -87 -51q-54 -44 -70 -64q-5 -7 -9.5 -12.5t-9 -9.5t-7.5 -7t-8 -6.5t-7 -4.5t-7 -4t-6 -4q-71 -8 76 145l32 33q13 14 36 43.5t43 48t49 36.5q27 30 47.5 24t32.5 -24t12 -32
q-14 -111 -55 -273t-46 -188q-3 -10 -14.5 -46t-20.5 -59t-23 -52.5t-31.5 -46t-37.5 -18.5z" />
    <glyph glyph-name="two" unicode="2" horiz-adv-x="420" 
d="M69 -30q-39 5 -53 23.5t-6.5 42t17 40t19.5 27.5q31 45 96.5 122.5t83.5 101.5q78 111 78 168q-2 25 -26.5 41.5t-56.5 21.5t-63.5 3t-50.5 -11q-18 -12 -26.5 -23t-10 -18t-1.5 -22q-13 -43 -34 -18q-22 28 -24 82q-1 20 4 36q10 47 63 71t116 18q41 -8 64 -14
t52.5 -19.5t46.5 -36t26 -56.5q16 -107 -149 -315q-7 -10 -36.5 -48t-47.5 -66.5t-24 -50.5q28 -14 77.5 -14t111.5 7t84 7q29 0 16 -26q-13 -29 -47 -45q-18 -10 -34 -7q-118 -35 -265 -22z" />
    <glyph glyph-name="three" unicode="3" horiz-adv-x="407" 
d="M41 -52q-88 0 3 68q5 4 6 5q114 54 198 114q75 53 44 65q-14 7 -37 15.5l-42 15t-39.5 15t-33.5 18t-20.5 22t-3 29t21.5 36.5q36 41 85 113t61 101q4 7 -15 11q-43 10 -96 -1q-21 -4 -48 -12.5t-44 -15t-18 -6.5q-40 4 -9 72q16 36 32 52q33 33 201 33q56 0 86.5 -22.5
t23.5 -62.5q-12 -22 -56.5 -88t-48.5 -79q-7 -4 -21 -24t-33.5 -51.5t-20.5 -33.5q12 -14 40.5 -27.5t54.5 -23t50.5 -32t32.5 -54.5q6 -40 -15.5 -75t-64.5 -58l-61.5 -39t-70 -42t-63 -24.5t-79.5 -13.5z" />
    <glyph glyph-name="four" unicode="4" horiz-adv-x="394" 
d="M220 33l11 44q15 94 -19 89l-68 -7q-37 0 -62.5 11t-37 32.5t-17 44.5t-2 57t8 60t13.5 61q4 19 24 97.5t24 97.5q-13 -8 -4 27l20 59q6 14 7 18q18 27 72 50q55 24 56 -1q1 -9 -9 -26q0 -20 -54 -142q-83 -181 -93 -279q-6 -70 35 -66q9 0 35 -1t43 -1t34 2t23 8
q7 44 28 155t27 121q6 14 46 14q41 -14 43 -33q2 -9 -10 -13l-57 -252q17 0 32.5 3.5t32.5 10t23 8.5q8 0 11.5 -12t-3 -27t-24.5 -22q-19 -12 -43 -21.5t-36 -16t-15 -17.5q-10 -16 -15.5 -63.5l-10 -88t-14.5 -43.5q-10 -27 -46 -46q-14 10 -16 30t2.5 47t4.5 31z" />
    <glyph glyph-name="five" unicode="5" horiz-adv-x="404" 
d="M18 5q-20 20 8.5 28.5t90.5 17t95 23.5q78 35 80.5 54.5t-56.5 65.5q-4 4 -7 6l-36.5 25.5l-37.5 27l-33 25.5t-32 29l-25 30t-21 34.5t-10.5 36t-3 43t10.5 46.5q13 41 29 78.5t37 68t37 27.5q62 0 76 7q25 -3 107 -0.5t101 -6.5q-6 -31 -23.5 -58.5t-41.5 -37.5
q-16 -8 -91.5 -12t-97.5 -11q-23 -24 -35.5 -40.5t-22 -43t-6.5 -55.5q8 -31 56.5 -68t108.5 -75t81 -61q36 -40 40.5 -77.5t-14.5 -63.5t-53 -47t-70 -32.5t-69 -16.5q-8 0 -42.5 -1.5t-50.5 -0.5t-40 9.5t-39 25.5z" />
    <glyph glyph-name="six" unicode="6" horiz-adv-x="385" 
d="M127 0q-52 33 -79.5 71.5t-46.5 100.5q-22 159 63.5 301t232.5 248q36 29 85 21q24 -4 23 -14q-1 -8 -28 -14l-79.5 -95.5l-92.5 -112t-78 -106.5q33 -18 71 -47.5t78 -71t64.5 -85.5t30.5 -91.5t-25 -89.5q-26 -32 -68 -40.5t-79 -0.5t-72 26zM274 134
q-10 50 -57.5 116.5t-67.5 79.5q-7 3 -14.5 24.5t-14.5 21.5q-38 -55 -51 -120t16 -122.5t103 -72.5q25 -2 39.5 -2.5t29.5 2.5t20.5 11t5.5 23.5t-9 38.5z" />
    <glyph glyph-name="seven" unicode="7" horiz-adv-x="414" 
d="M187 -57q-12 0 -16 11.5t-1.5 34t8 46.5t15.5 58q37 166 116 412q10 19 6 29q-7 16 -45 35q-113 47 -226 47q-1 4 -12.5 27.5t-19 46.5t-7.5 44q61 11 178 -31t165 -87q41 -43 48.5 -87t-7.5 -93q-13 -52 -64 -187.5t-63 -181.5q-1 -5 -5 -19.5t-7 -26.5t-7.5 -24.5
t-9 -19t-9.5 -3.5q-5 -3 -14.5 -17t-22.5 -14z" />
    <glyph glyph-name="eight" unicode="8" horiz-adv-x="370" 
d="M6 6q-21 0 0 63q4 14 8 21q17 39 41.5 71.5t41.5 51.5t20 27q-9 16 -25 28t-31 20t-29.5 20.5t-23.5 38.5t-9 66q0 37 41 86q29 34 38 25q7 -8 -10 -49q-10 -29 8 -71.5t44.5 -73.5t42.5 -36q32 22 79 98.5t69 129.5q12 54 -11 72t-97 7q-23 -3 -83 -26t-90 -23
q-16 39 41.5 87.5t107.5 61.5q3 0 13 -0.5t15.5 -0.5t13 2t12.5 7q81 -20 120.5 -84.5t29.5 -149.5q-11 -43 -36.5 -87t-48 -71t-56.5 -62q-12 -23 -6.5 -37t29.5 -25q15 -15 22.5 -46.5t7.5 -56.5q-5 -58 -49.5 -93t-105.5 -48q-111 -25 -134 57zM211 52q33 12 5 78
q-19 38 -29 41l-27 -27.5t-29.5 -32.5t-28 -36t-17.5 -32.5t-3.5 -29t18.5 -18.5q22 -7 61 9.5t50 47.5z" />
    <glyph glyph-name="nine" unicode="9" horiz-adv-x="415" 
d="M209 -76q-28 -18 -27 7t18 45l3 3q25 83 61.5 241.5t45.5 192.5q-4 -3 -7.5 -5t-5.5 -2.5t-3.5 -1l-3 -1t-3 -2t-3.5 -4l-5 -6l-8 -9.5q-102 -102 -189 -105q-56 -1 -69 40q-5 15 -2 34l11 55q2 13 4 14q14 7 49 70q3 4 14.5 20.5l18 26t16 20t16.5 13.5l100 100
q3 2 14 10.5t16 12l15 10.5t16.5 9.5l14.5 5.5t14 2.5t11 -4.5q1 0 20 -6.5t29.5 -13.5t14.5 -17q2 -11 2.5 -19t-7.5 -13t-13.5 -8t-15.5 -4.5t-14 -1.5h-8q-69 -44 -209 -197q0 -2 -16 -23t-27.5 -44t-4.5 -33q15 -6 67 27t97 73q95 74 116 111q21 10 43 4.5t7 -37.5
q0 -27 -16 -89.5t-16 -66.5q-6 -19 -26.5 -89.5t-34 -112t-34.5 -98t-42.5 -90t-43.5 -44.5z" />
    <glyph glyph-name="colon" unicode=":" horiz-adv-x="206" 
d="M152 281q-17 8 -24 13t-14 14t-0.5 21.5t25.5 28.5q2 0 10 10.5t16 16t21 -0.5q30 -2 44 -18t13 -31q0 -7 -17 -22.5t-28 -15.5q-28 -16 -46 -16zM102 0q-32 20 -36 30q-10 20 23 51q1 0 17 16.5t29 5.5q31 -2 45.5 -17t12.5 -30q0 -6 -16.5 -22t-27.5 -16
q-20 -13 -47 -18z" />
    <glyph glyph-name="semicolon" unicode=";" horiz-adv-x="206" 
d="M119 282q-16 7 -23.5 12t-14 14t-0.5 21.5t25 28.5q2 0 10 10.5t16 16.5t21 -1q28 -1 42 -17t14 -31q0 -7 -17.5 -23t-26.5 -16q-30 -15 -46 -15zM67 67q-2 28 0 33q16 26 30.5 35t42.5 3q12 -8 17 -13q6 -12 -27 -81l-5.5 -16t-9 -23t-9.5 -10q0 -5 -11 -31t-11 -39
q-2 -10 -18.5 -21t-25.5 -11q-10 0 -11 4q-1 8 9 36l22 88q5 46 7 46z" />
    <glyph glyph-name="less" unicode="&#x3c;" horiz-adv-x="243" 
d="M186 354q2 1 11.5 4.5t12.5 4.5t11 2.5t12.5 1t11 -3t12.5 -7.5q5 -8 -3 -20t-24 -19q-35 -35 -57 -43q-9 -15 -30.5 -38t-26.5 -35q-15 -18 -10.5 -42t14 -39.5l24 -38t18.5 -37.5q11 -11 -19 -23q-38 -12 -52 0q-9 8 -21 27.5t-18 27.5q-1 2 -8 18l-9.5 22t-7 20.5
t-4.5 23.5t1.5 20.5t7.5 20.5q5 18 32 40.5t32 34.5q31 19 90 78z" />
    <glyph glyph-name="greater" unicode="&#x3e;" horiz-adv-x="229" 
d="M86 27q-2 -1 -8.5 -3.5t-9.5 -3.5l-9 -3t-9 -2t-8 -0.5t-8.5 0.5t-8 3.5t-7.5 5.5q-5 5 -6.5 9t2 8.5t7 8t10.5 9l11 8.5q6 5 17.5 15.5t19 16t15.5 6.5q7 15 19 29.5t25.5 27.5t17.5 19q8 19 7.5 33.5t-9 33.5t-17.5 33t-19.5 32t-14.5 30q-1 9 30.5 19t39.5 1
q37 -32 60.5 -89t1.5 -96q-5 -19 -28 -39.5t-28 -29.5q-7 -3 -28.5 -22.5t-34.5 -27.5l-8 -8l-10 -10.5z" />
    <glyph glyph-name="question" unicode="?" horiz-adv-x="415" 
d="M59 -6q3 10 6.5 16.5t8.5 11.5l6 5q1 4 6 9t6 10q3 1 18 9.5t28.5 14t28.5 9.5t24 -1.5t9 -21.5q5 -36 -41 -68t-79 -21q-17 7 -21 27zM141 503q-35 10 -53 36t-17 56t12 62q3 15 19 18t38 -4.5t36.5 -14t26.5 -13.5q41 -19 72 -41.5t57 -55t29.5 -70t-10.5 -85.5
q-3 -12 -8 -24l-8.5 -21t-11 -23l-10.5 -20t-12.5 -22l-11.5 -19.5t-13.5 -21t-12.5 -19.5q-7 -11 -13.5 -36.5t-12.5 -32.5q-18 -16 -49 -17t-21 27q9 32 34 85t40 88.5t12.5 82t-36.5 85.5q-40 42 -61 44q-14 2 -10 -22q8 -13 2 -21q-2 -4 -7 -1z" />
    <glyph glyph-name="A" unicode="A" horiz-adv-x="473" 
d="M67 -59q-46 -27 -46 17q0 31 17 63q-5 24 8 44q0 20 12.5 53.5t12.5 44.5q-21 -5 -25.5 3.5t-0.5 21.5t-1 24q6 32 19.5 47.5t42.5 19.5q1 2 12 32t22 44q15 62 44 147t48 99q10 5 0 15t-5 26q7 15 35 24.5t33 34.5q3 1 35 24t52 16q10 -4 11 -16t-4 -24l-10.5 -26
t-6.5 -20q10 -17 41.5 -29.5t35.5 -37.5q7 -18 10 -54.5t-2 -73.5q5 -4 7 -13.5t2.5 -24.5t0 -29.5t-1.5 -33.5t-1 -31q18 -9 18 -26t-22 -29q0 -16 -5.5 -81.5t-7.5 -70.5q0 -50 -18 -107q1 -21 -24 -38q-24 -17 -29 3v3q-1 12 2.5 49.5t0.5 63.5q4 9 4.5 26t-4.5 31
q0 84 -3 100q-2 2 -13.5 -1l-29 -7.5t-28.5 -3.5q-15 -3 -68.5 -28t-83.5 -22q-2 -5 -6.5 -21t-11 -32.5t-18.5 -32.5q-3 -9 -6 -22l-5 -21t-5 -16t-5 -12.5t-5 -5.5q-3 -44 -24 -86zM376 306q2 -1 3.5 2.5t2.5 9.5t1.5 14t0.5 17q-6 15 -6 31t6 21q-4 0 -7 13t-2.5 31.5
t4.5 31.5q-3 0 -11 15t-22.5 31t-32.5 19q-5 0 -9.5 -4t-12.5 -14.5t-9 -12.5q0 -10 -4.5 -22t-9 -20t-14.5 -23.5t-14 -22.5q0 -20 -18 -54q-1 -11 -15.5 -38t-14.5 -39q11 -4 29.5 -1.5t51.5 5.5t50 1q15 9 53 9z" />
    <glyph glyph-name="B" unicode="B" 
d="M80 -59q-49 0 -61 38q21 25 33.5 35t23 11.5t12.5 2.5q-4 25 -4.5 64.5t1 83t1.5 46.5q2 15 -1 25t-11.5 16.5t-14 9t-17.5 6.5q-10 14 -5 38q7 7 26.5 15t27.5 17q5 21 9.5 78.5t13 96t26.5 44.5q1 5 8.5 13t13 15t3.5 10q0 4 -5.5 4t-16.5 -2t-17 -2q-12 -1 -34 -4
t-38.5 -5t-19.5 -2q-7 21 0.5 37.5t27.5 27t43 18.5t54.5 13t54 7.5t50.5 4.5t35 3q46 5 77 -5q51 0 86 -22q10 0 25.5 -16t22.5 -29q0 -107 -72 -152q-20 -32 -62.5 -58t-93 -51t-75.5 -45q-6 -14 8.5 -26.5t43.5 -24t60.5 -22.5t64 -25.5t49.5 -29.5q31 -31 38.5 -58
t0.5 -43.5t-31 -33t-37 -22t-37 -13.5q-6 -2 -8 -3q-23 -19 -104 -39.5t-110 -14.5q0 -9 -5.5 -24.5t-5.5 -23.5q-6 6 -19 6t-18 -6q-4 0 -8.5 4t-6.5 8zM256 204q-28 7 -45.5 15t-20 11.5t-7.5 6t-7 -0.5q-8 -18 -18.5 -95.5t-10.5 -96.5q5 2 36.5 8.5t48.5 12.5
q12 4 73 33q60 18 65 43q1 8 -16.5 20t-44 24t-53.5 19zM362 493q1 2 6 7q53 61 21 88q-33 28 -149 26q-6 -6 -14 -22.5t-12.5 -42t8.5 -46.5q-13 -11 -20.5 -42.5t0.5 -59.5q15 0 70.5 33t89.5 59z" />
    <glyph glyph-name="C" unicode="C" horiz-adv-x="486" 
d="M118 -23q-50 20 -81.5 88t-29.5 146q0 2 1.5 19.5t2 21.5l2.5 21t4 24t5 23.5t7 27t9.5 27.5t12 31l15.5 32t19 36q11 24 31.5 52.5t42.5 39.5q8 28 77.5 71t122.5 44q50 5 82 -12.5t32 -54.5q9 -23 12.5 -55t-1.5 -56q0 -15 -15.5 -75t-23.5 -81q-13 -54 -32.5 -73
t-69.5 -5q0 67 14.5 133.5t33.5 90.5q35 59 11.5 83t-71 23t-72.5 -20q-82 -57 -141 -212q0 -26 -9 -68.5t-9 -55.5q0 -29 7 -54t20 -56.5t19 -51.5q2 0 36 -30.5t55 -29.5q14 -4 29.5 -5t33.5 4t29 7.5t32.5 12.5t26.5 12.5l28 14.5q0 13 6 13q8 -1 10 -16q1 -12 -8 -23
q-7 -9 -25 -24t-21 -19q-8 -2 -43.5 -19.5t-51.5 -21.5q-47 -10 -74.5 -5.5t-56 15t-34.5 10.5z" />
    <glyph glyph-name="D" unicode="D" horiz-adv-x="462" 
d="M122 578q-19 5 -36 10.5t-23 6.5q-47 25 -51 30t-6 33q-7 15 -3 26q0 5 10.5 7.5t23.5 3.5t17 3q32 0 65 -20q16 5 87 -16q61 -29 101 -59l64 -43q51 -41 72 -95.5t12.5 -111t-32.5 -109.5t-62 -100q-3 -5 -26 -27.5t-28 -38.5q25 10 29 6q2 -1 2 -4q1 -8 -4 -16.5
t-16 -17.5t-22 -16.5l-27 -18l-26 -17.5q-7 -4 -27.5 -18t-31 -20.5t-28 -14.5t-34.5 -12q-78 -19 -83 19q-4 24 21.5 40.5t61 28.5t43.5 18q67 50 106.5 90.5t69.5 100.5q3 5 10.5 12.5t8.5 9.5q0 1 10.5 37.5t9.5 65.5q-22 66 -104 146q0 2 -3 4.5t-4 4.5
q-14 6 -36.5 18.5l-37.5 21.5t-17 8q-6 -4 -11 -21t-9.5 -39t-5.5 -26q-12 -71 -40.5 -202t-38.5 -182q-6 -34 -32 -67q-23 -31 -33 -6q-4 1 -0.5 19t3.5 22q2 15 9 122t19 161q1 3 -1.5 14.5t1.5 13.5q4 13 7 53t9 71.5t18 38.5q5 5 14.5 16.5t18 19t19.5 8.5z" />
    <glyph glyph-name="E" unicode="E" horiz-adv-x="422" 
d="M248 0q-55 -18 -115 -24.5t-97 3.5q0 6 1.5 13t1.5 10t-3 3q-18 0 -26.5 10.5t-9 28t2 35t6 37.5t3.5 30q3 34 9.5 73.5l10.5 63.5t4 26q0 16 16.5 117.5t22.5 101.5q1 17 9 33t23.5 32.5t26.5 26.5t31.5 26.5l26.5 21.5q19 22 97 38q3 0 37.5 3.5t57.5 0t36 -16.5
q11 -10 12 -28t-10 -35q7 -26 -7 -33.5t-33 -1t-25 15.5q-48 1 -80.5 0t-53.5 -8.5t-32 -23t-16 -43.5q-46 -145 -46 -201q11 0 34 18.5t38 22.5q21 14 50 17.5t62 1t44 -1.5q17 0 23.5 -21.5t1.5 -44t-16 -25.5q-43 7 -114.5 -4t-97.5 -11q-16 0 -32.5 -11.5t-22.5 -38.5
q0 -16 -10.5 -84t-5.5 -94q181 0 274 54q29 17 27 -6q-1 -22 -18 -40q-18 -16 -58 -41.5t-60 -25.5z" />
    <glyph glyph-name="F" unicode="F" horiz-adv-x="404" 
d="M100 558q21 58 70.5 99t109.5 47q21 7 72 5t58 -25q10 -50 -6.5 -75t-58.5 -11q-43 24 -86.5 1.5t-65.5 -66.5q-1 -2 -11 -53q-1 -12 -15 -58.5t-11 -70.5q154 61 233 33q18 -13 23.5 -44t-10.5 -49q-2 -2 -4.5 -3t-6.5 -1t-7.5 0.5t-10.5 2t-13 3l-17.5 4.5t-21.5 5
q-4 1 -20 -2t-21 -3q-46 0 -119 -19q-12 -4 -18.5 -19t-12 -50t-7.5 -46q-3 -16 -3.5 -63.5t-9.5 -72.5q-1 -5 0 -24.5t1 -36t-4.5 -35t-15 -21t-30.5 6.5q-7 4 -9.5 27t-3 57.5t-0.5 39.5q-3 27 2.5 82t5.5 75q0 7 1 25t0.5 26.5t-4.5 11.5q-1 1 -18.5 -6t-19.5 2
q-7 11 6.5 27t26.5 25q15 11 21.5 48t10 87t8.5 70q2 5 5 21.5t7 22.5z" />
    <glyph glyph-name="G" unicode="G" horiz-adv-x="495" 
d="M272 29q-13 -12 -28 -20.5t-26.5 -12.5l-29.5 -10l-27 -9q-58 5 -93.5 37t-46.5 77.5t-8 101.5t16 106.5t32 93.5q50 115 77 135q29 67 113 118.5t148 30.5q4 -3 25.5 -10t28.5 -11q6 -11 21 -27t23 -30.5t7 -32.5q6 -1 9.5 -9t6.5 -20t5 -17v-27q-15 -24 -46 -48
q-29 -16 -38.5 -1t-11.5 47.5t-9 42.5q-6 17 -27 39q-4 17 -21.5 26.5t-37.5 7.5q-15 1 -28 -5t-32.5 -21.5t-26.5 -20.5q-45 -48 -76 -105q-9 -19 -22.5 -65.5t-23.5 -61.5q-16 -86 -8 -173q3 -42 17.5 -65.5t34 -28.5t43.5 0.5t44.5 17.5t39.5 27q19 21 58 69t53 63
q16 18 42 11t32 -26q7 -31 -13 -117q-4 -7 -14.5 -46.5l-22 -84.5t-13.5 -52q-2 -4 -4 -22t-12 -33t-34 -22q0 -31 -32 -31q-10 15 6 91q-3 29 8.5 91.5t7.5 95.5q-8 -3 -20 -10.5t-19.5 -13.5t-24.5 -21t-22 -19z" />
    <glyph glyph-name="H" unicode="H" horiz-adv-x="528" 
d="M114 198q0 -6 -0.5 -23.5t-1 -33t0 -32.5t3.5 -28.5t8 -15.5q39 39 39 15q-4 -12 -19.5 -35t-19.5 -34q-27 -44 -58 -36q-23 6 -22 32v4q0 8 -8.5 79t0.5 88q-26 56 -30 74q3 12 18.5 39.5t19.5 44.5q15 137 26 222q2 13 4 34.5l3.5 36.5t4.5 21q18 19 47 26.5t45 -8
t0 -54.5q-7 -47 -16 -91t-10 -54q-1 -14 -9 -50q-15 -66 -4 -75q6 -5 17 -1q21 5 62 7t60 8q69 -9 111 8q9 17 20 102t3 133q7 13 19.5 27t19.5 27q68 75 72 9q3 -38 -15 -128q0 -88 -35 -185q0 -8 -3 -27t-4 -32q-24 -39 -35.5 -127.5t-26.5 -123.5q-15 -61 -22 -86.5
t-8.5 -26t-6 -5t-11.5 -23.5q-11 -4 -18.5 -4t-13.5 2t-8 2q0 35 10.5 102t10.5 104q11 22 23.5 93t12.5 98q-9 -1 -37.5 -3t-46 -4t-40 -7.5t-36.5 -13.5q-26 -14 -54 -14q-12 -6 -26.5 -23.5t-14.5 -33.5z" />
    <glyph glyph-name="I" unicode="I" horiz-adv-x="184" 
d="M35 3q-8 40 -9 88t1.5 82.5t8 92t7.5 86.5q14 33 2 62q-5 11 -10 8q-4 9 -2.5 33.5t7.5 31.5q2 1 0.5 3.5l-5.5 9.5l8.5 38.5t12.5 49.5t16.5 44.5t26.5 37t36 12.5q61 40 59 -19q-1 -16 -18 -87q-2 -8 -2 -11q0 -8 -16.5 -70.5t-12.5 -72.5q-2 -13 -11.5 -65.5
t-12.5 -72t-9 -64.5t-6.5 -72.5t1 -65t7.5 -69.5q-2 -12 -13.5 -19.5t-18.5 -20.5q-43 -13 -47 30z" />
    <glyph glyph-name="J" unicode="J" horiz-adv-x="357" 
d="M158 73q3 -1 7.5 4.5t9.5 15t9.5 21t8 24.5t4.5 24q48 153 48 238q2 15 10 59.5t12 75t2 45.5q-1 11 -23.5 12t-24.5 14q44 53 76 62q12 14 18.5 19t14 7.5t15.5 8.5q9 3 18 -12.5t11.5 -40.5t-2.5 -55q4 -51 -26 -147t-30 -142q-13 -30 -40 -133q-5 -6 -25.5 -84.5
t-38.5 -93.5q-5 -2 -21.5 -7t-23.5 -9q-5 -1 -16.5 -3t-17.5 -2.5t-14.5 0.5t-14.5 5q-29 26 -62 157.5t-14 147.5q3 6 21.5 7t28.5 -5q11 -2 16 -8t11.5 -22.5t9.5 -23.5q0 -7 25 -51q3 -16 0.5 -24t-6.5 -9.5t-8.5 -5t-6.5 -10.5q14 -50 39 -59z" />
    <glyph glyph-name="K" unicode="K" horiz-adv-x="484" 
d="M246 54q-61 85 -65 93q-8 4 -33 49.5t-34 52.5q-45 -153 -30 -235q-7 -14 -28.5 -15t-34.5 4q-6 6 -3.5 47t5 66t9 71t8.5 62q0 18 4.5 29.5t2.5 18.5q-3 3 4 60.5l15.5 122t8.5 77.5q0 40 22 71t61 40q49 -20 9 -119q-3 -33 -22.5 -110.5t-19.5 -121.5q26 18 51 44.5
t52 60l37 45.5q31 34 66 89.5t40 79.5q0 2 -10 12t-5.5 21.5t34.5 26.5q38 24 65 24q3 1 9 3.5t8 2t5.5 -3.5t6.5 -11q0 -37 -10 -68t-23 -38q-20 -37 -44 -67.5t-36.5 -43.5t-11.5 -17q-3 -6 -51 -57t-51 -60q-27 -21 -35 -30t-8 -22q17 -27 47.5 -95.5t55.5 -102.5
q11 -20 24.5 -28t28 -3.5t26 11t25 18t17.5 13.5q28 26 36 7q7 -19 -11 -40q-11 -12 -27 -15q-8 -14 -21.5 -29t-19.5 -23q-92 -67 -149 33z" />
    <glyph glyph-name="L" unicode="L" horiz-adv-x="311" 
d="M5 50q8 63 25.5 178t20.5 133q-7 8 -11.5 16.5t-5.5 20.5t-1.5 19.5t3.5 22.5t5 20.5t6.5 23t6.5 19.5q5 16 12 47t13.5 53t17.5 46t29 40t44 21q27 -8 27 -36q-1 -5 -16 -108q-8 -25 -12.5 -54.5t-6.5 -46.5t-5 -21q-4 -4 -6 -24.5t-8 -29.5q0 -12 -11.5 -63l-22.5 -102
t-17 -100t6 -57q7 -4 17 -4t24.5 2t22.5 2q8 3 21.5 6t24.5 6.5t22 10.5q26 1 45.5 15t28.5 11q3 -7 5 -39.5t1 -36.5q-3 -2 -24 -14.5t-36 -22.5q-10 -4 -43.5 -14t-49.5 -17q-13 0 -42.5 -5t-48 -3.5t-30.5 15.5q-40 0 -31 70z" />
    <glyph glyph-name="M" unicode="M" horiz-adv-x="599" 
d="M71 3q-6 0 -21 -6t-23.5 -8.5t-15.5 3.5q-8 124 16 170q-7 17 -3.5 41l10.5 69t7 65q0 23 5.5 76t11.5 74q0 45 5 110.5t15 75.5q7 5 19 10.5t19 10.5t11 12q8 1 17 4.5t14.5 7t11 5t8.5 -2.5t4.5 -15t1.5 -32v-26.5v-31t0.5 -30.5t1.5 -34l3 -31.5t4.5 -33l6.5 -30
t9.5 -30t12.5 -24.5t16 -23q20 -20 40 -22.5t38.5 10t33.5 28.5l34 36.5t32 30.5q15 22 42.5 58.5t34.5 46.5q6 23 23 43.5t33 21.5q45 47 50 -25q3 -42 -6 -81q0 -26 -54 -210q-10 -35 -21 -81t-18 -79.5l-14.5 -70l-8.5 -41.5q-19 -4 -34.5 -27t-31.5 -19q8 48 20 139.5
t20 132.5q4 4 5.5 14.5t4.5 36t7 49.5q1 9 4 27q9 53 1 54q-3 0 -8 -5q-5 -6 -28.5 -37.5t-37.5 -48t-37.5 -36t-44.5 -24.5q-72 -83 -146 9q-7 13 -13 27.5t-10 21t-10 10.5q-8 1 -15 -44t-13 -94t-12 -54q-3 -13 -6.5 -53t-7.5 -47q0 -53 -13 -73z" />
    <glyph glyph-name="N" unicode="N" horiz-adv-x="551" 
d="M23 -20q33 221 41 237q10 52 19 129l15 129.5t12 66.5q-3 26 5.5 59.5t20.5 31.5q19 5 37.5 2.5t20.5 -11.5q2 -2 29 21q44 31 47 -1q-32 -79 -32 -119q9 -39 38 -114t36 -107q16 -34 36.5 -91t35 -87t28.5 -36q11 17 41 222q4 34 5.5 119t11.5 145.5t38 111.5q6 4 15 12
t12.5 10.5t8.5 5t6.5 -1.5t2.5 -12t1 -23q-6 -47 -25 -270.5t-49 -340.5q0 -32 -27 -65q-8 -3 -29.5 -14t-34.5 -13q-11 -2 -26.5 18.5t-34 58t-33 70l-32.5 75.5t-23 54q-38 95 -54 117q-3 -1 -8 -12t-11 -30.5l-11 -37l-12 -41.5t-10 -36q-7 -39 -18.5 -82.5t-29 -99.5
t-24.5 -81q-3 -8 -14.5 -8t-16.5 -8q-7 3 -10 10t-2 13.5t2.5 14.5t1.5 9z" />
    <glyph glyph-name="O" unicode="O" horiz-adv-x="541" 
d="M321 44q-9 -5 -40 -33q-12 -4 -39 -14t-46.5 -15t-39.5 -5q-75 3 -102 77t-11 178q0 6 5 24.5t1 32.5q0 1 -5 -5q-34 -35 -34 -10q2 7 2.5 22.5t4 28.5t13.5 24q15 33 40.5 96.5t48.5 114t48 92.5l28 21q18 -1 18 -19.5t-18 -47.5q-5 -25 4 -22q8 2 12 11t12.5 15
t21.5 13.5t17 9.5q20 30 89 48q72 -11 124 -81t61 -148q4 -57 -12 -115.5t-36.5 -97t-60 -85t-56 -63t-50.5 -47.5zM327 124q47 42 69 76t28.5 57t11.5 30q16 42 12.5 91.5t-18 92t-48 70t-76.5 25.5q-44 -12 -71.5 -28.5t-36.5 -27.5t-33 -45q-4 -23 -12.5 -60.5t-14 -65
t-10 -61.5t-3 -66t8.5 -62q15 -59 46 -78t67.5 -4t79.5 56z" />
    <glyph glyph-name="P" unicode="P" horiz-adv-x="473" 
d="M81 -83q-23 5 -28 41.5t-1 80t2 51.5q-15 8 -22.5 14.5t-11 10.5t1.5 10.5t7 8t14.5 9.5t14.5 9q14 71 32 211.5t31 208.5q-12 23 -26.5 42.5t-19.5 29.5q-2 44 50 70q19 20 28 22t20 -8q14 2 42.5 -10.5t64 -37.5t69 -57.5t61.5 -77.5t39 -91q33 -126 -55.5 -212
t-261.5 -121q-15 -80 -6 -108q6 -21 22 -29q-36 -67 -67 -67zM362 325q11 161 -143 273q-27 22 -50 25q-6 0 -6 -3q0 -4 13 -15q20 -30 38 -53q7 -10 7 -15q-1 -10 2 -26q-4 -7 -11.5 -31t-17 -58t-15.5 -51v-8v-8v-7t-1 -7t-2 -5t-3 -5t-5 -4q-8 -17 -15 -73t-10 -62
q2 0 6 -2l7 -3.5t4 -0.5q62 14 125 52t77 87z" />
    <glyph glyph-name="Q" unicode="Q" horiz-adv-x="564" 
d="M343 60q7 -12 17 -23.5t23 -25t20 -22.5q28 -10 98 -67q8 -8 21.5 -18l21.5 -16t14 -13.5t2.5 -14.5t-16.5 -14q-13 -6 -25 -7t-23.5 3t-19 8t-19.5 12q-7 4 -29 13.5t-45.5 22.5t-44.5 30q-13 6 -33 28t-35.5 37.5t-21.5 12.5q-85 -55 -158 -17t-80 149q-4 81 25 144
q9 23 24 16q14 -5 6 -20q-1 -2 -3 -5q0 -39 6 -72t16 -55.5t22.5 -41t26 -27t26 -15t22 -5.5t14.5 3q-4 7 -32.5 52t-33.5 59q-16 14 -30 63t-18.5 113t20 136t79.5 120q61 64 127 87t120.5 3t86.5 -77q20 -34 25.5 -77t1 -78.5t-21 -85t-28 -77t-32.5 -73.5
q-8 -32 -59.5 -83t-56.5 -82zM432 292q37 83 22 190q-11 69 -58.5 100t-102.5 17t-89 -63q-31 -59 -34.5 -120.5t11 -110.5t46.5 -115q12 -15 27 -39t25 -36.5t20 -16.5q31 17 54 48t46.5 81t32.5 65z" />
    <glyph glyph-name="R" unicode="R" horiz-adv-x="495" 
d="M82 -35q-20 1 -30 16.5t-8 35.5q0 9 7.5 84t4.5 93q-1 1 -6.5 7t-6.5 7t-6 6.5t-5.5 8t-3.5 7.5t-2.5 8.5t0.5 8.5t2.5 10t5.5 10q28 14 35 26q4 13 4.5 49.5t-0.5 91t-1 61.5q0 12 -1 39.5t-1.5 43t3 38.5t11.5 37t24.5 27t40.5 19q21 7 79 -1t112 -32q55 -26 132 -87
q31 -43 5 -124q-5 -15 -58 -50.5t-99 -60.5q-17 -12 -56 -26t-62.5 -26t-19.5 -25q9 -38 111 -119q72 -47 130 -101q7 0 19 -7.5t20 -17.5q29 0 42 -38q13 -36 -3 -51q-12 -11 -35 8q-138 67 -240 138q-8 5 -24 18.5t-34 25.5t-42 25q-6 -17 -12.5 -65t-14 -83t-17.5 -35z
M360 439q29 23 32.5 45t-15 39.5t-39 29t-45.5 20.5q-6 2 -118 24q-6 -1 -16.5 -2t-15 -1.5t-11 -2.5t-10.5 -6.5t-7 -11.5q0 -3 -1 -13.5t-1.5 -17.5t3 -15t10.5 -10q25 30 47.5 17t12.5 -56q-27 -74 -27 -150q26 4 56 17.5t48.5 25.5t52 36.5t44.5 31.5z" />
    <glyph glyph-name="S" unicode="S" horiz-adv-x="345" 
d="M72 -59q-2 1 -10.5 3.5t-12.5 4t-11.5 5.5t-11.5 8t-8 10.5t-5 14.5q3 14 22.5 29.5t39.5 25.5t55 26t46 22q12 6 21 -2t0 -18q-3 -3 -13.5 -9t-16.5 -11.5t-2 -8.5q19 3 36 23.5t18 20.5q-3 17 7 26q20 7 20.5 26.5t-24.5 54.5q-21 25 -58 63.5l-58.5 62.5t-21.5 31
q-41 39 -44.5 85t24 88.5t62.5 75.5t76 60q32 25 122 56q25 9 38 4.5t18 -18t4 -28.5t-4 -27t-6 -13q-10 -5 -39.5 -32t-37.5 -30t-20.5 -11l-22.5 -14t-20 -10t-17 -1t-10 15q1 10 5 15.5t17 14.5l16 11q9 12 3 16q-2 1 -8 -3q-47 -25 -73.5 -66t-12.5 -88q13 -36 53 -73
l14 -25l12 -21t10 -13t15 -13l32.5 -38.5t22 -31.5t16.5 -38.5t3 -41.5q12 0 18 -11.5t1 -23.5q-2 -2 -15.5 -9.5t-25.5 -19.5q-7 -3 -12 -8.5t-9.5 -13t-6.5 -9.5q-30 -32 -73 -53q-9 -10 -26.5 -21t-19.5 -13q-1 0 -36 -15t-55 -16z" />
    <glyph glyph-name="T" unicode="T" horiz-adv-x="368" 
d="M191 -30q-9 -2 -14 1t-7 13t-2.5 16t-1.5 22q-2 22 -2 66q-14 23 0 62q0 4 -2 47.5t2 45.5q1 15 3.5 47l4.5 57t4.5 52t5.5 45.5t6 24.5q1 24 6.5 65.5t4.5 63.5q0 11 -13 12t-31.5 -4t-20.5 -5q-7 -2 -27 -9q-67 -25 -76 -10q-6 10 3 32q0 17 6.5 37t12.5 26
q6 14 23.5 20t42 8t31.5 4q25 -3 79 2t81 1q13 4 41 -2t35 -6q7 -7 8.5 -17t0 -19.5t0.5 -22.5q5 -27 -4 -33q-2 -2 -5 0q-32 0 -68 11q-53 4 -58 -11q1 -1 5 -4.5t5.5 -5l5 -5t5 -5.5t4.5 -5.5t4.5 -6.5t3.5 -6.5t3 -7t2 -8t1 -8.5q-18 -161 -46 -247q-5 -30 -10 -66
t-8 -54t-9 -39q-3 -45 -3.5 -91.5t-1.5 -56.5q-4 -9 -15 -14t-15 -12z" />
    <glyph glyph-name="U" unicode="U" horiz-adv-x="484" 
d="M29 192q-6 6 -8 13.5t-1 22.5l1 15q-3 8 -3.5 16t0 13l1.5 15t2 17q-6 15 -7.5 98.5t9.5 111.5q-2 65 7.5 109.5t28.5 50.5q7 3 11.5 -5t9.5 -20t11 -15q27 -12 32.5 -43.5t-3.5 -83t-9 -56.5q-11 -38 -12 -56v-67q-3 -12 -1.5 -43.5t7 -65t8.5 -33.5q17 -88 65 -102
q30 0 42 12t36 62q36 34 59.5 128t35.5 117q0 12 12.5 65.5t12.5 59.5q13 84 34 102q-1 13 3.5 32t10.5 25q0 9 25 22q12 9 20 11.5t12 -3.5t5.5 -11t3 -19t2.5 -19q0 -106 -54 -314t-54 -315q14 -5 16.5 -12t-2.5 -13t-10.5 -14t-5.5 -13q-5 -2 -17.5 -10.5t-22 -13.5
t-20.5 -7.5t-17 4.5t-6 25l1 4q1 4 1.5 8.5t-0.5 10t-4 8.5q0 13 6 53q9 67 1 68q-3 0 -7 -5l-26 -42t-26 -36t-33.5 -35.5t-37 -20.5t-47.5 -11q-24 -5 -42.5 18.5t-38.5 69.5q-8 23 -13.5 62t-3.5 55z" />
    <glyph glyph-name="V" unicode="V" horiz-adv-x="414" 
d="M206 6q-31 -45 -73 -41q-30 2 -34 26q-4 20 19 44q-22 55 -30 104q-10 5 -17 32.5t-7 47.5q-5 8 -11 42.5t-6 57.5q-15 20 -15 130q-8 1 -10 18t-1 39t-1 43q-11 60 -1.5 101t26.5 62q3 0 12 5t19.5 10t21 8.5t18.5 1t10 -11.5q12 -26 8.5 -72.5t-13.5 -84.5
q6 -34 5.5 -111.5t7.5 -105.5q0 -11 2.5 -36t2.5 -42q5 -4 7 -10t2 -11t-0.5 -15t-0.5 -15q6 -7 11.5 -26.5t9 -34.5t9.5 -23.5t16 4t25 50.5q8 19 54.5 120.5t62.5 158.5q0 29 1 44.5t6.5 38.5t19 37t35.5 21q39 27 38 -29q-1 -50 -21 -94q-4 -8 -6 -9q0 -26 -27 -85
q-15 -33 -38.5 -99t-46.5 -118.5t-51 -93.5q7 -25 0.5 -35t-22 -23t-17.5 -20z" />
    <glyph glyph-name="W" unicode="W" horiz-adv-x="598" 
d="M181 24q-1 -24 -17.5 -37t-34.5 -12t-26 14q-2 14 -9.5 33.5l-12 31t-6.5 28.5t6 26q-14 7 -28.5 100t-14.5 115q0 49 -27 61q-7 32 -4 116.5t17 123.5q0 13 1.5 30.5t6.5 40.5t16 36.5t27 9.5q16 -3 25.5 -10.5t15 -19t6.5 -12.5q19 -7 11.5 -75t-1.5 -82q2 -7 -4 -46.5
t-6 -40.5q5 -9 5 -80t5 -85q3 -9 13 -102q6 -62 18 -64q8 -1 20 23q11 16 31.5 72.5t31.5 70.5q9 28 23.5 84.5t22.5 76.5l10 58.5t18 70.5q8 25 44 41q39 17 50 -6q5 -11 1 -30q-4 -30 -14 -80l-16.5 -83t-10.5 -83t5 -81q-3 -19 -3 -87q0 -43 10 -40q9 2 16 27
q8 17 23.5 59.5t15.5 48.5q24 62 40 92q9 37 23.5 91.5l23 87.5l11.5 45q-5 70 51 97q9 -5 6 -35q0 -64 -20 -167q-38 -151 -52 -173q-7 -48 -45 -146.5t-74 -129.5l-16 -4t-17.5 -4t-15 -2.5t-14.5 0.5t-11 5.5t-9.5 10.5t-5.5 18q-6 10 -9 32.5t-5 54.5t-5 50q0 92 -37 9
q-6 -13 -17 -40q-7 -19 -10 -25q0 -20 -18.5 -59t-33.5 -50z" />
    <glyph glyph-name="X" unicode="X" horiz-adv-x="495" 
d="M42 14q-3 14 9 36.5t36.5 61.5t40.5 74q0 6 28.5 44.5t23.5 55.5l-13.5 26.5t-16 32t-13 29.5t-13.5 34.5t-7.5 29.5t-3.5 31q-4 14 -8.5 28t-6.5 19.5t-3.5 12.5t-1.5 15q-14 22 -15 46t5.5 40t15.5 35.5t11 25.5q12 13 25 20.5t24.5 5.5t15.5 -18q20 -15 25.5 -47.5
t-7.5 -50.5q0 -27 13 -91t23 -72q2 -4 4 -13t3.5 -17l3 -15.5t4.5 -12t7 -3.5q10 24 37 59t31 46q13 24 29.5 50.5t23 38.5t6.5 17q-3 0 -7.5 -4t-6.5 -4q-14 -5 -22.5 2t-6 19.5t15.5 23.5q13 18 100 82q20 19 32.5 14t24.5 -34q1 -51 -24 -107t-56 -96l-76 -94.5
t-66 -85.5q-9 -15 3 -49t29 -54q24 -56 73 -136q17 -16 22 -28t-0.5 -18t-14.5 -8.5t-20 -2.5q-25 4 -47 27.5t-30 39.5q-20 19 -50 75q-8 8 -14.5 21.5t-11 21.5t-10.5 8q-6 -3 -20 -24.5t-17 -24.5q-10 -25 -34.5 -65t-28.5 -51q-11 -7 -23.5 -27t-22 -38.5t-19 -32
t-16.5 -10.5q-8 0 -10 18t3 39t15 29z" />
    <glyph glyph-name="Y" unicode="Y" horiz-adv-x="438" 
d="M69 -19q0 19 9 49t20 46q2 20 21 61t19 64q-14 7 -26.5 26.5t-27 51t-19.5 41.5q-49 160 -42 229q-5 2 -9.5 31.5t-3.5 53.5q14 26 44 36t53 -6t20 -56q-8 -46 -6 -78t17 -100q2 -4 5.5 -33.5t11 -61t20.5 -46.5q12 3 43.5 72.5t35.5 74.5q3 13 12 32.5l22.5 48
l22.5 48.5q14 20 38 64q37 64 53 72q15 7 28 -17q-16 -142 -54 -204q0 -8 -7.5 -27t-12.5 -23q0 -4 -12 -24l-28.5 -46t-21.5 -36q-4 -8 -16 -23.5t-18 -26.5q-4 -10 -12 -33t-13.5 -36t-14.5 -32t-20 -34q0 -9 -10.5 -54t-9.5 -59q0 -7 5 -12t3 -8q0 -11 -10.5 -20.5
t-25.5 -13.5q-13 -12 -41 -15q-1 1 -20.5 6t-21.5 18z" />
    <glyph glyph-name="Z" unicode="Z" horiz-adv-x="442" 
d="M98 -33q-40 -6 -62 5.5t-24 31.5t1 36t9 25q28 54 79 105q74 93 86 103q4 9 40.5 55t43.5 56l20.5 30.5l28 42t25 40.5t19.5 40t4 25q-6 17 -34 25t-62.5 12.5t-43.5 8.5q-13 -6 -64.5 -3t-65.5 1q-10 0 -11 14t5.5 29t13.5 18q3 25 18 39t34.5 15t35 -1t23.5 -6
q35 6 67 1t80 -22.5t62 -21.5q43 -34 47 -85.5t-21.5 -96.5t-66.5 -74q-10 -21 -24 -39t-34 -40.5t-32 -38.5q-1 -8 -41 -45q-4 -10 -10 -20t-13.5 -19.5l-13 -16t-13.5 -14.5l-9 -9q0 -10 -27.5 -41.5t-29.5 -53.5q7 1 22 -1l16 -2q12 8 38 0q4 3 68 15t92 29q12 3 35.5 13
t29.5 12q13 7 16 -14q4 -25 -11 -40q-20 -18 -64 -31q-8 -8 -19 -12.5t-23 -7t-16 -4.5q-24 -24 -62 -36t-89 -19t-73 -13z" />
    <glyph glyph-name="bracketleft" unicode="[" horiz-adv-x="336" 
d="M225 -67q-24 -12 -70 -18.5t-90 -0.5t-55 27q-1 26 13.5 155t15.5 136q10 46 27 190t46 220q10 26 36.5 41.5t46.5 15.5q96 32 135 15q10 -7 4 -29.5t-28 -31.5q-30 0 -44 -1t-37 -7t-35 -21.5t-15 -41.5q-5 -22 -17.5 -113t-28.5 -154l-8.5 -56l-9 -58l-8 -52
t-4.5 -38.5t1 -17.5q-1 -5 -5.5 -20t-7 -26.5t-5 -25.5t-2 -24t5.5 -15q6 -4 12 -4.5l18 -1.5t25 -3q14 2 36 7.5t32 7.5t26 -1q5 -8 3.5 -14t-7 -19t-6.5 -21z" />
    <glyph glyph-name="bracketright" unicode="]" horiz-adv-x="334" 
d="M159 -67q-23 -11 -62.5 -17.5t-73.5 1.5q-10 19 -4 37t29 25q30 -8 64 -0.5t53 27.5q11 43 17 54q0 61 27.5 182t27.5 181q33 138 33 222q-1 4 -3.5 6t-7.5 3t-11 1.5t-16.5 1.5t-20.5 3q-95 -27 -100 -10q0 2 -1 3q12 50 32 54q69 14 114 14t61 -8t28 -22
q-3 -13 -7.5 -88t-13.5 -108q-16 -81 -36 -239t-35 -235q-12 -42 -33 -62t-61 -26z" />
    <glyph glyph-name="underscore" unicode="_" horiz-adv-x="505" 
d="M4 -75h499v-49h-499v49z" />
    <glyph glyph-name="grave" unicode="`" horiz-adv-x="243" 
d="M134 508q17 -17 56 -33t45 -22q0 -6 -10.5 -13.5t-13.5 -7.5q-5 2 -26 8.5t-41 14.5t-36 18q-9 2 -42 22t-42 23q-4 6 -8 14.5t-8 12.5q-6 3 0 27q23 22 46 15q18 -30 34 -45.5t46 -33.5z" />
    <glyph glyph-name="a" unicode="a" horiz-adv-x="420" 
d="M2 100l9 54q1 6 6 12t11 11l19.5 15.5t24.5 20.5q16 33 76 78.5t71 57.5q29 20 41 27t33 16.5t34.5 4.5t23.5 -21q-12 -31 -48 -49q-10 -20 -40 -50.5t-46 -33.5q-16 -29 -39 -43q-25 -23 -54 -62q-11 -22 -11 -25q11 0 32.5 16t24.5 17q11 22 54 49q7 14 35 35t43 20
q13 4 19.5 -3t9 -24t4.5 -20q-15 -42 5 -65t49 0q6 2 9.5 4.5l5.5 4t5.5 6t5.5 6.5q2 1 2.5 -2.5t1 -12t1.5 -15.5q-5 -16 0 -29q-2 -4 -12 -13t-11 -12q-2 -1 -26 -16t-39 -11q-42 -12 -64.5 24t-22.5 72q-21 -12 -52.5 -44.5t-48.5 -40.5q-1 -2 -8.5 -10.5l-11 -12.5
t-10.5 -10t-13.5 -8.5t-13.5 -2.5q-13 -14 -33.5 -14.5t-27.5 14.5q-5 2 -8 4.5t-4.5 5t-2 7t-0.5 7.5v11v12q7 15 5.5 22.5t-14.5 15.5z" />
    <glyph glyph-name="b" unicode="b" horiz-adv-x="378" 
d="M238 44q-17 -23 -58 -58t-67 -40q-24 -4 -41.5 7t-25.5 34.5t-12 42.5t-6.5 46t-2.5 30q-3 0 -13 -10.5t-12 -10.5q-2 5 -1.5 14t2 27t1.5 24q0 2 15.5 15t15.5 21q3 27 5 38.5l3 17t5 21l8 32.5q-1 17 18 88t20 79q9 20 23 56.5t27 65.5t29 53q0 7 13.5 21t15.5 23
q4 1 35.5 19t45.5 12q8 1 13.5 0.5t9 -8t5.5 -14t2.5 -17t0.5 -17.5t-0.5 -15.5t-0.5 -10.5q-80 -239 -176 -389q-15 -18 -25 -49.5t-7.5 -75.5t24.5 -80q9 -5 51 16q12 19 10.5 24.5t-13 10.5t-13.5 9q0 46 23 72q6 13 29.5 38.5t35.5 31.5q4 -6 16 -3t23.5 1.5t19.5 -6.5
t3.5 -26.5t-23.5 -57.5q-2 -7 -8.5 -19t-7.5 -18q-3 -6 -16.5 -29t-18.5 -36zM265 65q4 3 15.5 13l17.5 15t16.5 15t17 17t13.5 16.5t12 18.5q5 1 8 -3.5t6 -14.5t5 -15q0 -19 -11.5 -31t-30.5 -23t-28 -21q-11 -6 -19.5 -13t-13.5 -9t-16 -2q-4 3 -5 6.5t0 8t2.5 7t5.5 8
t5 7.5zM157 371q16 24 31.5 84.5t32.5 83.5q14 22 6 26q-2 1 -6 -3l-41 -82t-30 -75.5t-23 -89.5q2 4 13.5 21.5t16.5 34.5z" />
    <glyph glyph-name="c" unicode="c" horiz-adv-x="359" 
d="M20 165q26 28 49 36q0 12 57 56t90 60q12 14 40 29t53 11q18 -37 -1 -63.5t-65 -49.5q-6 -9 -29 -24l-44.5 -29t-35.5 -39.5t-6 -56.5q3 -24 37 -30.5t53 3.5q33 16 76 44t43 42q2 5 4 6.5t4 0t3.5 -3.5t4 -5t4.5 -5q-3 -4 -3.5 -8.5t1.5 -12.5t2 -14q-5 -14 -27 -33
t-37 -27q-139 -102 -215 -46q-2 1 -13 9.5t-17 12.5q-11 19 -13.5 42.5t-5.5 29.5q-2 8 -7.5 4t-10 -11t-7.5 -4.5t1 23.5q-1 11 -1.5 18.5t0 13t0.5 8.5t2.5 5.5l3 3t4.5 2t6 2.5z" />
    <glyph glyph-name="d" unicode="d" horiz-adv-x="486" 
d="M98 3q-13 -11 -35 -13t-33 5q-9 5 -12 16t-0.5 25.5t5.5 26.5t8.5 26.5t6.5 18.5q-8 4 -20 -8.5t-18 -2.5q0 10 5.5 17t5.5 10q-9 23 0 36q10 7 25.5 20t28.5 21q4 4 22 26.5t35.5 40t29.5 21.5q15 22 83 84l13.5 9l10.5 7t8 4.5t8.5 3.5t8.5 1q7 7 14.5 28.5t16.5 52.5
t15 46q42 89 57 111q16 45 48 63q29 16 35 -17q2 -12 0 -30q-9 -48 -14 -56q0 -14 -6.5 -32t-14.5 -34t-9 -19q0 -38 -26 -75q-10 -32 -18 -42q-4 -26 -21 -50q-37 -115 15 -187q31 -36 100 5q10 6 11 -10q1 -19 -7 -46q-27 -34 -70.5 -43.5t-80.5 10.5t-45 66q-6 9 -8 20.5
t-2.5 18.5t-3.5 8q-5 2 -12 -3.5t-14.5 -17t-11.5 -18.5t-8 -15l-26 -32.5t-33 -40t-30.5 -30t-36.5 -26.5zM219 208q0 -6 31 44q2 3 18 29q0 15 1 18t1 18q-41 -29 -53 -57q-20 -13 -65 -80.5t-36 -82.5q5 0 14.5 7.5t24 24l23 26.5t24.5 31z" />
    <glyph glyph-name="e" unicode="e" horiz-adv-x="305" 
d="M32 38q0 7 -5 14.5l-11 16.5t-11 32t-6 56q0 27 35 92q5 6 13 21t15.5 25t14.5 13q28 36 63 55q7 15 36 17.5t53 -20.5q11 -5 12.5 -35t-12.5 -36q2 -12 -33.5 -53.5t-67.5 -56.5q-5 -8 -10 -13t-14 -10.5t-10 -6.5q-10 -30 4 -45t40 -14.5t51.5 6.5t41.5 14
q5 4 14.5 9.5t13.5 9.5q2 0 15 10q32 24 32 11q0 -4 -3 -11q0 -39 -7 -49q-23 -9 -64 -33t-67 -37t-62.5 -11.5t-70.5 29.5zM153 286q-18 0 -52 -44q-12 -25 -5 -26h3q8 0 17.5 6.5t11.5 12.5q9 4 23 24t2 27z" />
    <glyph glyph-name="f" unicode="f" horiz-adv-x="289" 
d="M161 -286q-34 -6 -49.5 10t-23.5 60q-20 54 -20 275q0 8 1 26.5t1 30.5t-2 16q-5 0 -20.5 -15t-29.5 -25.5t-18 -1.5q7 17 3 54l18 22t19 22.5t15.5 19.5t16 22.5t13 22t13.5 26.5q1 10 -0.5 29t0 53.5t8.5 87.5q7 19 33 100t39 111q28 72 68 72q34 0 28 -36
q10 -21 11.5 -53t-1 -52.5t-11.5 -64t-10 -49.5q-36 -135 -72 -182q-26 -27 -36 -158t-5 -175l-2 -14l-2 -30t1.5 -36t9.5 -38q0 -9 11 10q17 32 33 76q7 42 27 94q2 7 4 18t3.5 18t3.5 14.5t4.5 12t5.5 5.5q0 22 22 22q4 -3 5 -12t0.5 -18t-1.5 -18.5t-1 -10.5q7 -5 7 -15
t-3.5 -21.5t-3.5 -13.5q0 -15 -12.5 -56t-12.5 -46q-15 -54 -39 -110t-49 -79zM224 511q0 5 4 27q9 59 2 59q-1 0 -2 -1q-22 -16 -34 -71.5t-23 -70.5q5 -35 -6 -46q-3 -52 4 -49q3 1 9 23q12 5 29 51.5t17 77.5z" />
    <glyph glyph-name="g" unicode="g" horiz-adv-x="367" 
d="M261 -206q-58 -72 -103 -85q-15 -10 -45 -20.5t-62.5 -10.5t-39.5 23q-19 5 -20.5 34t9 62.5t26.5 56.5q11 17 29 36t46 44t36 33q0 12 -17 33t-33.5 55t-15.5 77q-11 -4 -33.5 -21t-31.5 -21q-2 3 3 23q-5 28 -5 33q5 8 36.5 33t39.5 38q7 4 18.5 17.5t19.5 25.5l7 11
q3 16 44 54t65 51q0 6 13.5 18t23.5 14q42 27 60.5 20.5t21.5 -36.5q0 -3 -1 -12t-2 -11t-3 -7.5t-6 -9t-11 -7.5q-11 -17 -38.5 -42t-49.5 -40q-40 -44 -68 -59q-16 -45 -11 -80q2 -3 13 -30.5t33 -52.5q20 17 38.5 31l43.5 31.5t39 28.5q10 6 22 19t17 14q3 1 4.5 -4.5
t2 -15t0 -21t-1.5 -24.5q-7 -10 -19.5 -20.5t-31.5 -23t-29 -21.5q-21 -14 -36.5 -28t-12.5 -20q26 -38 37 -98q6 -30 -7.5 -58.5t-13.5 -36.5zM183 -191q16 21 16.5 47t-7.5 44t-18 25q-8 0 -27.5 -23.5t-29.5 -25.5l-23 -28.5l-19 -24.5l-13 -17.5t-9.5 -15.5t-2.5 -12
q-13 -11 -7 -26.5t26 -14.5q51 9 114 72z" />
    <glyph glyph-name="h" unicode="h" horiz-adv-x="392" 
d="M195 108q-2 -3 -13 -16.5t-20 -26t-8 -17.5q-37 -52 -67 -76q-12 -5 -22 -2t-17 3t-12.5 8t-9 11.5t-5.5 14.5t-3.5 17t-2 18t0 19t0.5 20v19q0 1 -6 -5q-7 -8 -13 -8q0 5 1.5 31t1.5 34q2 3 12 12t15 16q5 22 14 65l15 69.5t20 61.5t34 62q38 107 109 178q38 48 82 81.5
t53 8.5q10 0 17 -2t10.5 -6.5t6 -9t2 -11.5t-1 -12.5t-2.5 -13t-3.5 -11.5t-3.5 -10l-2 -5q0 -27 -20 -52q-7 -26 -37 -83t-31 -60q-22 -25 -80 -111t-101 -121q-1 -10 -7 -48t-8.5 -58.5t2.5 -32.5q4 -6 17 11.5t27 45.5q6 10 23.5 52t30.5 56q11 25 59 25q9 -2 14.5 -17.5
t12 -39.5t13.5 -38q28 -28 74 -5q24 27 23 0q-1 -10 -5 -25q0 -42 -59 -64.5t-87 7.5q-4 4 -11.5 15t-15.5 18.5t-16 7.5zM206 391q19 21 23 39q3 0 7 4t8 11.5l7.5 14.5l8.5 17l8 16l13.5 23t15 26.5t11.5 23.5t10 26.5t2 21.5q-6 11 -26 -13t-47 -64t-39 -53
q0 -12 -8.5 -25.5t-16.5 -17.5q0 -10 -24 -63.5t-20 -66.5q13 10 36.5 41.5t30.5 38.5z" />
    <glyph glyph-name="i" unicode="i" horiz-adv-x="308" 
d="M129 435q-18 26 -2 57.5t46 40.5q0 12 22.5 24t36.5 7q14 0 15 -17.5t-4.5 -35.5t-10.5 -24q-4 -20 -17 -34.5t-27 -21.5t-15 -9h-7.5h-9h-8.5t-8 1t-6 2.5t-4.5 4t-0.5 5.5zM4 87q-5 17 4 67q4 4 13.5 16t16.5 18.5t16 9.5q2 8 20 29.5t28 26.5q5 8 13 16l8 8
q35 2 60 -28q5 -19 8 -48.5t5 -39.5q5 -20 11.5 -31t15.5 -13t15 -1t17.5 6t15.5 6q5 10 17 20t19 13q0 -17 -1 -33t-1 -31q-69 -80 -127 -63q-29 17 -44 36.5t-15 33.5q-10 8 -14 23t-13 24q-8 7 -26.5 -9t-32.5 -35q-8 -3 -16.5 -12t-12.5 -9z" />
    <glyph glyph-name="j" unicode="j" horiz-adv-x="311" 
d="M297 544q-6 -23 -20.5 -37.5t-41.5 -29.5q-30 0 -43 7q-14 22 -9 43t19 36t35 27q13 23 40 29t32 -10q2 -17 -12 -65zM0 85q0 8 -1 22.5t-0.5 21.5t2.5 16.5t8 17t17 15.5q11 13 51 57t60 69q7 6 17 18.5l18 22.5t17.5 18t21.5 7t26 -13q6 -22 2.5 -70t-7 -71.5
t-12 -70.5t-11.5 -67q0 -5 7 -5q11 6 32 26.5t28 25.5q2 3 5.5 10l6.5 12.5t7 11.5t8 9t8 3q7 -8 0 -24q1 -6 3 -13.5t3.5 -12t1.5 -5.5q-58 -81 -123 -137q-31 -35 -55.5 -127.5t-48.5 -127.5q-14 -37 -25.5 -48t-31.5 -13q-21 -3 -31 15.5t-6.5 42t15.5 36.5
q-4 30 37.5 107.5t67.5 109.5q9 15 17 89.5t11 80.5q-1 6 -2 23t-2.5 24.5t-7 13t-18.5 -4t-33 -33.5q-6 -6 -22 -24.5t-23 -26t-18.5 -17t-19.5 -14.5z" />
    <glyph glyph-name="k" unicode="k" horiz-adv-x="415" 
d="M98 -40q-26 -5 -36 19t-6.5 54t13.5 51q-3 12 -2.5 19t4.5 27t5 33q-10 0 -19.5 -11.5t-16.5 -24.5t-18 -24.5t-24 -11.5q1 3 2.5 7t2.5 6t1.5 6t-0.5 7q0 21 5.5 34.5t21 34t21.5 31.5q11 35 49 115.5t49 127.5q8 30 22.5 59t21.5 54q4 22 12 45t18.5 39.5t19.5 13.5
q37 -9 39.5 -60.5t-20.5 -86.5q-15 -51 -84 -229q0 -15 -18.5 -85t-18.5 -80q-21 -60 -9 -69q4 -2 9 4q9 14 25.5 46t19.5 37q1 2 2.5 25t12.5 40t39 21q8 18 31.5 57t30.5 53q1 3 5 14l7 19t9.5 17.5t13.5 8.5t17 -8q10 -16 10 -31t-9.5 -36.5t-20 -38l-22.5 -35.5t-16 -29
q-30 -41 10 -67q36 -63 88 0q4 3 6 2.5t5 -8.5q11 -45 -24 -80t-67 -35q-12 2 -26 11.5t-25 20t-22 19t-19.5 8.5t-13.5 -12q-34 -50 -51 -70q-4 -3 -24 -28.5t-36 -25.5z" />
    <glyph glyph-name="l" unicode="l" horiz-adv-x="333" 
d="M340 90q-8 -7 -34 -18q-28 -20 -73.5 -37.5t-64.5 -6.5q-34 -2 -63 26t-39 84q-6 -2 -40 -33q-23 -21 -23 -10q-1 4 2 14q-1 7 -1 15.5t0.5 18t0.5 12.5q7 5 59 62q21 188 128 408q17 32 49 68.5t53 31.5q9 1 16.5 -1.5t11.5 -8.5t6.5 -11.5t3.5 -16l1.5 -15.5t0 -15.5
t-0.5 -12.5q-29 -207 -195 -433q0 -68 43 -94.5t102 11.5q4 2 26 14.5l31 17.5v-70zM185 368q17 26 37 63q3 3 11 34.5t16 40.5q0 2 1.5 13.5t3.5 21t6 17.5q-6 0 -13 -5.5t-16 -16.5l-9 -10q-8 -14 -23.5 -65.5t-30.5 -65.5q-2 -11 -14 -42.5t-10 -40.5q8 0 21 17.5
t20 38.5z" />
    <glyph glyph-name="m" unicode="m" horiz-adv-x="677" 
d="M95 3q-8 -9 -24 -4.5t-16 19.5q0 8 13.5 47t22.5 73t1 37q-10 5 -27.5 -14.5t-37 -44t-30.5 -27.5q0 15 -1 34t-1 26q12 22 46.5 56t40.5 41q6 6 19 21t23 24.5t18 12.5q39 21 53.5 10t10.5 -41q-2 -15 -10 -47q-9 -39 -3 -40q5 -1 21 15q25 17 45.5 41.5t41.5 41.5
q59 66 90 53q17 -8 18 -40q0 -25 -11 -74t-11 -74l4 4q17 17 28 27t32 27.5t36 23.5t32.5 8t30 -11.5t19.5 -41.5q7 -9 14.5 -22t16.5 -25q18 -14 28.5 -9t24.5 18.5t20 13.5v-65q-11 -13 -18.5 -20.5t-23.5 -17.5t-36 -9t-43 14q-11 6 -41 41.5t-53 35.5q-9 -2 -24.5 -17.5
t-26.5 -22.5q-7 -6 -44.5 -48t-46.5 -50q-37 -35 -54 2q0 10 5.5 27l15 46.5t16.5 58.5q17 60 2 62.5t-66 -45.5q-5 -7 -45 -47.5t-54 -63.5q-10 -4 -24 -22t-17 -18z" />
    <glyph glyph-name="n" unicode="n" horiz-adv-x="491" 
d="M129 -22q-5 -11 -29.5 -12.5t-33.5 4.5q-7 3 0 25q-2 18 -1.5 23.5t7 21t9.5 24.5q-2 5 0 15.5t8.5 31t9.5 33.5q10 24 5.5 31t-15.5 3.5t-16 -10.5q-20 -25 -54 -62q-15 -24 -20 -16q-3 4 2 18q0 5 -1 16.5t-1 18t3 14.5t9 13q12 24 32.5 48t48.5 51.5t41 42.5
q3 1 13.5 7t18 9t17.5 4t18.5 -6t13.5 -22q8 -27 2.5 -52.5t-15.5 -43.5q-1 -5 -11 -32t-14 -44.5t0 -23.5q2 -1 5 3.5t9.5 13.5t13.5 16t19 21.5l21.5 25t22.5 23.5t25.5 21t26.5 14t28.5 5t29.5 -9q4 -8 15 -36t21.5 -47t22.5 -27q15 -7 22.5 -1.5t17 17t14.5 12.5
q0 -48 6 -59l-18.5 -19t-24 -22t-22.5 -15t-27.5 -8t-26.5 10q-7 7 -24.5 37.5t-29.5 39.5q-9 15 -15 20.5t-14.5 1.5t-15.5 -11t-22 -20.5t-31 -24.5q-11 -17 -49.5 -59t-46.5 -53z" />
    <glyph glyph-name="o" unicode="o" horiz-adv-x="424" 
d="M95 14q-21 5 -29 20t-6 31t6.5 39.5t4.5 33.5q-14 0 -36.5 -23.5t-28.5 -23.5q-3 4 -0.5 22t-3.5 19v18q108 103 117 108q11 18 44 47.5t41 38.5q6 2 14 2t16.5 -1t11.5 -1q11 -3 1.5 -20t-4.5 -20q30 19 62.5 17t53.5 -31q20 -67 -2 -119q-5 -12 -19 -32t-16 -27l-9 -9
t-12.5 -13.5t-8.5 -13.5l-19.5 -19.5t-24 -22.5t-24 -17t-34.5 -16t-40 -6q-2 0 -13 1.5t-14 2t-10.5 2.5t-11 5t-6.5 8zM278 136q16 15 16 44.5t-16 43t-48 -4.5q-5 -5 -13.5 -17t-17 -19t-18.5 -7q-13 -17 -22 -39.5t-9 -35.5q-6 -38 21 -40.5t56 24.5q22 14 51 51z
M319 28q-20 6 12 41q5 6 10 10q6 8 21.5 20.5t24.5 30.5q6 5 12.5 12t9.5 9t6.5 4t5.5 -1.5l5.5 -9.5t7.5 -19q1 -15 -9.5 -26.5t-27 -21t-21.5 -14.5q-6 -3 -19 -12.5t-23 -16t-15 -6.5z" />
    <glyph glyph-name="p" unicode="p" horiz-adv-x="406" 
d="M68 -265q-4 -15 -12.5 -24t-17.5 -9.5t-17 4.5t-12 17t-1 28q-2 66 20 191t22 186q-13 -3 -24 -21t-20 -17q-4 3 -3 13.5t-2 18.5q5 6 5 30q93 92 171 274q5 5 10.5 12.5t10 11.5t8.5 4q6 -1 12 -13t6.5 -30.5t-9.5 -41.5q-16 -34 -20 -65q-18 -17 -33.5 -71t-16.5 -57
q-8 -42 -37 -142.5t-37 -156.5q6 2 10.5 17.5t10 39t12.5 36.5q50 165 92 233q19 40 44 33t46 -31.5t29 -49.5q16 -20 31.5 -23t25 4.5l18.5 14t13 4.5t3.5 -26t-3.5 -33q-33 -23 -51.5 -31.5t-42.5 -4.5t-48 30q-4 4 -11.5 12.5t-11.5 12t-10 6.5t-10.5 0.5t-10 -10.5
t-11.5 -23q-35 -89 -40 -96q-4 -19 -10.5 -37.5t-16 -41.5t-12.5 -32q-12 -57 -31 -92q0 -28 -18 -54z" />
    <glyph glyph-name="q" unicode="q" horiz-adv-x="345" 
d="M-3 80q8 29 0 61q0 5 2.5 9.5t9 10t11.5 9l16.5 11.5l17.5 12q45 45 90 67q2 6 8.5 11.5t22 15.5l25.5 17q5 2 23.5 11.5t34 16t22.5 6.5q10 0 15.5 -4t11.5 -12t12 -13q0 -12 -21 -23t-22 -13q-12 -13 -37 -29t-31 -22q-2 -5 -43 -45t-41 -53q-21 -21 -13 -34
q1 -3 8.5 1.5l19.5 11.5t20 10q9 15 114 96q19 17 40.5 3t21.5 -45q0 -97 -59 -324q-8 -23 -14 -56t-12 -44q-12 -52 -20 -67q-8 -8 -21 -13t-23.5 1.5t-5.5 29.5q0 3 4.5 23.5l10.5 47.5t8 35q0 41 24 179q0 5 4.5 32.5t6.5 49.5t-1 43q-3 14 -23 -7q-17 -19 -23 -22
q-27 -25 -52 -40q-23 -35 -64 -42t-62 31q-6 11 13 74q-7 0 -12 -2.5t-10.5 -8.5t-6.5 -7z" />
    <glyph glyph-name="r" unicode="r" horiz-adv-x="342" 
d="M0 98q0 2 -2 11t-2.5 17t1.5 20q51 74 54 81q2 2 11 16.5t17 19.5q-5 13 -4 24.5t15 15.5q39 44 65 34q41 -3 71 -53.5t27 -92.5q-1 -18 -24 -87q-11 -32 -3 -32q4 -1 11 4q5 0 42.5 29t47.5 41q8 16 13 6q2 -6 1 -15q7 -15 -4.5 -35t-9.5 -26q-3 0 -15.5 -10.5l-32 -27
t-32.5 -25.5q-9 -2 -38 -20t-39 -16q-23 -2 -33.5 6.5t-8.5 23t7 27.5t12 25q3 15 8.5 38.5t7 33l4 24.5t1.5 23t-3.5 17.5t-7.5 18.5q-6 12 -12.5 15.5t-16.5 -2t-21.5 -16.5t-31.5 -33q0 -12 -42 -48q-21 -37 -33 -41q-3 -1 -2 3q0 3 2 6z" />
    <glyph glyph-name="s" unicode="s" horiz-adv-x="312" 
d="M1 91q3 8 -1 24.5t-3 29.5t13 18q5 0 38 32.5t50 57.5q16 8 31.5 24t34 38.5t27.5 31.5q22 19 46 7t30 -37.5t-7 -47.5q3 -16 0.5 -35t-9 -44.5t-7.5 -33.5q-3 -7 -7.5 -19.5t-7.5 -20t-6.5 -19t-4 -16t0.5 -10.5q11 -1 36.5 23t28.5 25q25 38 30 41q8 -4 9 -21
q6 -26 -6.5 -49.5t-31 -38l-45.5 -34.5t-39 -32q-22 -12 -30 -25q-3 -1 -12.5 -6.5t-16 -7.5t-13.5 -3.5t-11 4t-4 16.5q-19 26 -19 87q-10 24 7.5 39t30.5 15q5 1 9.5 -6.5t7 -10t8.5 8.5q10 91 7 116q-5 9 -9 11.5t-9 -0.5t-9.5 -8t-11.5 -11.5t-14 -9.5q-18 -12 -43 -37
l-43.5 -44.5t-24.5 -21.5z" />
    <glyph glyph-name="t" unicode="t" horiz-adv-x="322" 
d="M103 26q0 57 8 74q1 10 9.5 55.5t8.5 59.5q-58 -74 -124 -133q0 1 -2 14.5t-2.5 25t1.5 26.5q74 70 96 117q8 8 19 24t18.5 29l19 34.5t15.5 27.5q0 5 0.5 7.5t-10 3.5t-16.5 1t-20 -0.5t-21 -0.5q-9 0 -20 2t-17 2t-9 -4q-38 6 -42 19q-7 46 12 61.5t65 6.5
q12 4 48.5 1.5t42.5 2.5q24 -9 37 11t26 49t32 35q47 0 16 -88q-3 -9 6 -12t9 -11q-5 -28 -5 -64q0 -7 -9 -10t-21 -4t-15 -4q-5 -19 -20 -58.5t-24.5 -73t-9.5 -60.5q-25 -126 -7 -117q29 10 74 59q8 5 16 11.5t11.5 10.5t7 6.5t5.5 2t4 -5.5q0 -90 -79 -132
q-73 -71 -88 -71q-4 3 -9.5 7.5t-10.5 7.5t-11 5q-10 0 -14.5 14t-0.5 36z" />
    <glyph glyph-name="u" unicode="u" horiz-adv-x="458" 
d="M98 4q-25 18 -29 95q-1 37 -7 37q-2 0 -5 -2q-2 -2 -14.5 -16t-24 -24.5t-16.5 -10.5q-4 0 -6 15t2 34t15 27q57 49 123 158q44 32 60 17q10 -12 -6.5 -60.5t-16.5 -58.5q-11 -30 -14.5 -75.5t6.5 -64.5q5 -3 8.5 -0.5t11.5 9t13 8.5q6 9 27 32t27 32q11 12 27 38t29 40
t30 14q22 0 31 -17t7 -34l-2 -17q4 -28 11.5 -40.5t18 -10.5t20 7.5t20.5 14t16 10.5q3 0 5.5 -18t-1.5 -37.5t-15 -22.5q-10 -5 -25 -14.5t-28 -14t-31 -4.5q-22 -1 -37 8.5t-21 22t-10 24.5t-7 17.5t-8 0.5l-18 -25.5t-20.5 -27t-24.5 -28.5t-26.5 -22.5t-30 -17t-30.5 -5
t-34 6.5z" />
    <glyph glyph-name="v" unicode="v" horiz-adv-x="371" 
d="M83 63q-13 3 -13 92q-9 0 -34 -31t-29 -34q-9 5 -9 54q74 109 90 153q2 9 19.5 23.5t28.5 12.5q20 -4 9 -101q2 -16 2 -97q0 -21 4.5 -44.5t11.5 -23.5q11 0 60 84l12 20q15 31 34.5 89.5l25.5 75.5q10 26 32 27q17 1 17 -14q-1 -5 -2.5 -16t-2 -14t-2 -10.5t-3 -10.5
t-3.5 -8t-4.5 -9.5t-6.5 -9.5q-5 -50 -23 -73q-1 -15 -10.5 -32t-17 -28.5t-5.5 -15.5q-7 -8 -34 -57.5t-44 -58.5q-3 -4 -8.5 -17.5t-15 -18.5t-30.5 -5q-25 2 -42.5 34.5t-6.5 63.5zM307 57q-6 -5 -33 -26q-14 -5 -19.5 -0.5t0.5 15.5q3 10 36 43.5t37 42.5q8 4 18 17.5
t15 13.5q4 0 6.5 -8t4.5 -18t5 -13q0 -5 -1.5 -10.5t-6.5 -11t-9 -9.5t-12.5 -10l-13 -9l-14 -9t-13.5 -8z" />
    <glyph glyph-name="w" unicode="w" horiz-adv-x="525" 
d="M77 124q5 27 -2.5 27.5t-29.5 -24.5q-11 -8 -19 -17.5l-12 -14.5t-7 -5q-4 0 -4.5 4.5t0.5 9.5t-2 9q1 5 1 14t1 15t5 14.5t12 16.5q1 1 30 41t36 68q1 0 8.5 11.5t20 22.5t25.5 12q19 0 22.5 -13.5t-2.5 -38.5q-1 -8 -2 -13q-3 -31 4 -85q0 -7 0.5 -19.5t1 -20t1.5 -16
t2.5 -12.5t4.5 -4q5 -1 9.5 5t10.5 21t10 22q10 7 24 49q24 35 28 52q20 43 32 60.5t30 22.5q17 3 25 -10.5t6 -29t-10 -16.5q0 -39 -8 -52q0 -9 -3.5 -47t-3.5 -67t7 -36q8 -3 22.5 18.5t34 57.5t29.5 50q28 90 33 98q3 30 5 42.5t9.5 27t20.5 18.5q15 -10 18.5 -30.5
t-1 -40t-12.5 -37.5q-16 -73 -58 -152.5t-93 -136.5q-45 -45 -78 -8q-20 70 -8 124q0 7 -1 11t-6 2q-5 -5 -17 -35t-25 -43q-1 -9 -4 -17t-5 -11.5t-8.5 -12t-7.5 -10.5q-5 -40 -35 -53q-25 -10 -36 13q-5 10 -4 26q-4 9 -6 23t-5 22q0 9 -7 49.5t-7 48.5zM470 67
q-13 -14 -36 -30t-30 -6q-8 11 7.5 29t36 36.5t22.5 27.5q12 7 20.5 15t11.5 13t5.5 8t5.5 3t5.5 -8t4.5 -19t2 -12q1 -7 -1.5 -13.5t-9.5 -13t-12 -10.5t-16.5 -10.5t-15.5 -9.5z" />
    <glyph glyph-name="x" unicode="x" horiz-adv-x="402" 
d="M255 251q24 27 22 48q-1 14 -17 12q-20 -23 -40 -30q-14 -16 -32 -29t-22 -23q-4 -14 5 -33.5t15 -19.5q18 6 69 75zM77 5q-15 -13 -22 -13h-7t-9 1.5t-6 4.5t1 9q4 7 45 44.5t49 51.5q-1 8 -14 36.5t-19 30.5q-10 -6 -36 -33.5t-36 -31.5q-26 -35 -26 -6q0 7 2 27
q2 15 2 20q4 11 31 25.5t41 28.5q8 12 -5 43t-6 51q4 19 17 33t25 15.5t18 -5.5q5 -6 7.5 -14t7 -24t8.5 -27q5 -14 31 10q28 27 38 32q21 16 46.5 39t36.5 30q27 21 51 -9q26 -33 12 -76q-4 -14 -14 -26q-13 -19 -22.5 -31.5t-20.5 -24l-13 -13.5q-5 -10 -26.5 -28.5
t-37 -34.5t-12.5 -24q19 -30 41.5 -35t54.5 9q8 7 23 7q32 16 49 47q6 1 10.5 7.5t6 9t5.5 -1.5v-62q-47 -49 -68 -53q-37 -24 -54.5 -33.5t-41 -9t-44.5 19.5q-12 10 -23 21t-16.5 16t-11.5 7q-33 -41 -68 -60z" />
    <glyph glyph-name="y" unicode="y" horiz-adv-x="468" 
d="M234 114l-10 -10q-9 -11 -12 -13.5l-11 -9.5t-15 -9.5t-14 -3.5q-42 -66 -95 -41q-10 4 -11 19.5t3 30.5q-3 4 -3.5 18t-1.5 25.5t-6 11.5q-3 0 -15 -10.5l-25.5 -23t-18.5 -15.5q-2 1 -2 7q2 9 2 53q4 9 33.5 35.5t36.5 35.5q10 9 27 28.5t29.5 30.5t23.5 13q13 3 26 -5
t10 -29q-3 -17 -18 -60.5t-18 -59.5q0 -15 4.5 -17t10.5 1q7 11 48 38q25 29 39 38q18 13 39.5 35l36 37.5t37.5 27.5t50 12q2 -1 4 -3t2.5 -5t0.5 -6t-1 -8t-2 -9t-3 -10t-4 -11t-4.5 -13l-4.5 -14q-2 -14 -17 -53t-24.5 -68t-3.5 -29q2 0 7.5 5.5t14 16t15.5 17.5
q5 1 20 16t29 26t19 4q-1 -11 1.5 -32t-1.5 -22q-16 -20 -55.5 -50.5t-73.5 -64t-52 -72.5q-59 -73 -84 -125q-7 -5 -16.5 -19.5t-16.5 -17.5q-6 -3 -13 -15.5t-11 -15.5q-24 -27 -58.5 -35.5t-44.5 7.5q-3 12 3.5 25t17.5 27t14 20q7 3 15.5 20t14.5 17q7 15 25.5 40
t31.5 35q50 67 78 88q29 82 44 100q-2 11 2 34t6.5 35t-4.5 18q-5 -4 -19 -12.5t-22.5 -15.5t-9.5 -15z" />
    <glyph glyph-name="z" unicode="z" horiz-adv-x="359" 
d="M6 148q101 126 122 145q11 29 34 34.5t44 -8t32 -35.5q15 -19 22.5 -42.5t2 -55t-27.5 -62.5q-2 -9 -14.5 -26t-17 -29t0.5 -40q9 -8 28.5 8.5t24.5 30.5q7 4 50 47q37 47 42 49q4 -1 5 -9v-54q-2 -4 -4.5 -8t-5 -7t-8.5 -8.5t-11 -9.5t-16 -14l-20 -18
q-9 -12 -23.5 -23.5t-22.5 -20.5t-8 -19q14 -28 22 -40q44 -153 -156 -263q-36 -9 -60 -0.5t-30 19.5q0 6 -1 23t-0.5 25t4.5 22t12 28q3 7 14 23.5l25.5 37l20.5 29.5q5 2 16 16.5l25 33t23 27.5q-16 31 -15 73.5t22 60.5q0 8 16 35t16 40q-5 25 -23 48t-36 4
q-10 -7 -27 -27t-27 -27q-19 -23 -38 -37q-5 -15 -16 -25.5t-19 -8.5l-3 3q-1 2 0 3q0 43 6 52zM187 -180q0 76 -13 83q-12 0 -30 -22.5t-33 -49.5q-7 -7 -15.5 -20.5t-14.5 -21.5q-2 -7 -8.5 -23t-8 -22.5t3.5 -16.5q27 -12 61.5 22t57.5 71z" />
    <glyph glyph-name="braceleft" unicode="{" horiz-adv-x="321" 
d="M304 660h-52q-12 -1 -22 -5.5t-16.5 -14t-11.5 -19t-8 -24.5l-5 -25t-2.5 -27.5t-0.5 -25v-24v-18.5q-9 -119 -104 -160v-2q22 -7 36 -24.5t19 -37t5 -48t-3 -48l-7.5 -48t-5.5 -38.5q-1 -8 -4 -29.5t-2 -25t3 -23.5q6 -11 17.5 -16t20.5 -5.5t26 0.5t21 1l-8 -62h-77
q-32 0 -59 26t-23 74q1 42 11 102t12 80q3 53 -19 74.5t-48 21.5l7 54q109 12 109 223q16 150 125 157h73z" />
    <glyph glyph-name="braceright" unicode="}" horiz-adv-x="321" 
d="M4 -27h50q20 0 33.5 12t16.5 24l4 12l4 46t5 51t7.5 47.5t13 49t19.5 40.5t30.5 36.5t41.5 23.5v2q-29 9 -44.5 29.5t-17 52t0.5 57t9.5 61.5t8.5 49q4 58 0 73q-8 14 -21.5 19t-37 5h-27.5l10 60h76q30 0 58 -26t27 -72q-3 -35 -12.5 -94.5t-10.5 -91.5
q-4 -51 18.5 -73.5t44.5 -22.5l-7 -54q-49 -4 -73.5 -44.5t-28 -88.5t-10.5 -106t-23 -85q-33 -50 -102 -54h-70z" />
    <glyph glyph-name="copyright" unicode="&#xa9;" horiz-adv-x="714" 
d="M382 -21q-156 -5 -264.5 99t-106.5 265q2 145 108 243t261 98q136 0 236 -107.5t98 -248.5q-1 -95 -50 -176t-124.5 -125.5t-157.5 -47.5zM485 402q-9 38 -46.5 65t-84.5 20q-52 -7 -82 -48t-32.5 -90.5t21.5 -96.5t69 -66q20 -8 44 -8.5t47.5 6.5t41 28t22.5 53h62
q-5 -44 -28.5 -77t-57 -48.5t-73 -21t-78 7t-70.5 35.5t-52.5 64.5t-22.5 93.5q-1 112 62 171t144 59q32 0 59 -8t44.5 -21t31.5 -28.5t21.5 -31.5t12 -29t6.5 -21l1 -8h-62zM361 46q105 -2 191.5 81.5t86.5 196.5q0 118 -79.5 207t-198.5 88q-116 0 -195.5 -84.5
t-79.5 -191.5q-4 -125 75.5 -210t199.5 -87z" />
    <glyph glyph-name="guillemotleft" unicode="&#xab;" horiz-adv-x="406" 
d="M189 353q2 1 8 3.5t9 4t8 3t8 2t8 1t8.5 -1l8.5 -3.5t9 -6q8 -8 0.5 -19.5t-24.5 -19.5q-42 -38 -54 -44q-8 -12 -22.5 -29.5t-24 -30t-17 -28.5t-5 -34t16.5 -38q6 -11 16 -25.5t16.5 -25.5t9.5 -19q5 -8 -12 -17t-35.5 -11t-27.5 6q-5 5 -16 23.5t-23 30.5
q-1 3 -7 15.5t-8 18l-6.5 18t-5.5 20t-1.5 18t1.5 19t7 16.5q6 18 33.5 40.5t31.5 34.5q31 19 90 78zM351 351q4 1 16 5.5t18 5.5t16 -1t18 -10q11 -18 -27 -40q-32 -33 -57 -44q-7 -14 -28.5 -38t-25.5 -36q-10 -15 -10.5 -32t7 -33.5t17 -31.5l19.5 -32t14 -29
q8 -9 -20 -20q-38 -14 -50 0q-1 2 -2 3q-34 28 -58 85.5t-4 91.5q5 18 32.5 41t31.5 35q29 16 93 80z" />
    <glyph glyph-name="registered" unicode="&#xae;" horiz-adv-x="715" 
d="M225 534h195q35 0 68.5 -32t33.5 -87q0 -49 -27 -72t-80 -39l116 -177h-66l-113 177h-59v-174h-68v404zM293 476v-118h100q35 0 50 29.5t0.5 59t-50.5 29.5h-100zM361 -23q-154 6 -253 109t-99 236q0 149 102.5 255t262.5 104q132 -2 233 -104t105 -247q1 -85 -44.5 -167
t-128.5 -135t-178 -51zM376 44q113 4 188 89t75 195q0 115 -83 200.5t-197 85.5q-81 0 -147 -44t-100 -110.5t-34 -137.5q0 -70 34 -134t104 -106t160 -38z" />
    <glyph glyph-name="degree" unicode="&#xb0;" horiz-adv-x="193" 
d="M47 516q2 2 9.5 12.5l11.5 16.5q7 7 17 13.5t17 9.5t9 3q31 10 81 -24q0 -2 1 -5t1 -6l6 -14q0 -17 -8 -21q-4 -7 -7.5 -19t-9 -21t-15.5 -17q-14 0 -35.5 -7.5t-38.5 -7t-35 17.5q-15 15 -17.5 25.5t6.5 30.5q0 1 3.5 6t3.5 7zM75 480q1 -8 12.5 -10.5t25 0t24.5 7.5
q10 1 15 14t1.5 25t-13.5 12q-23 12 -44 -6t-21 -42z" />
    <glyph glyph-name="paragraph" unicode="&#xb6;" horiz-adv-x="521" 
d="M229 -21v470q-87 -1 -146 54t-59 131q0 188 241 191h213v-846h-67v780h-115v-780h-67z" />
    <glyph glyph-name="periodcentered" unicode="&#xb7;" horiz-adv-x="125" 
d="M140 200q-35 0 -50 28.5t0 57t50 28.5q26 0 40.5 -18t14 -39t-15 -39t-39.5 -18z" />
    <glyph glyph-name="periodcentered" unicode="&#x2219;" horiz-adv-x="125" 
d="M140 200q-35 0 -50 28.5t0 57t50 28.5q26 0 40.5 -18t14 -39t-15 -39t-39.5 -18z" />
    <glyph glyph-name="guillemotright" unicode="&#xbb;" horiz-adv-x="406" 
d="M257 353q57 -57 90 -78q4 -12 31.5 -34.5t33.5 -40.5q5 -8 7 -16.5t1.5 -19t-1.5 -18t-5.5 -20l-6.5 -18t-8 -18t-7 -15.5q-12 -12 -23 -30.5t-16 -23.5q-9 -8 -27.5 -6t-35.5 11t-12 17q3 8 9.5 19t16.5 25.5t16 25.5q14 20 16.5 38t-5 34t-17 28.5t-24 30t-22.5 29.5
q-12 6 -54 44q-17 8 -24.5 19.5t0.5 19.5q5 4 10 6.5t10 3t8.5 1t10 -2t9 -3t10 -4t9.5 -4.5zM96 351q11 -13 41.5 -41t50.5 -39q4 -12 31.5 -35t32.5 -41q20 -34 -4 -91.5t-58 -85.5q-8 -17 -47 -5q-26 9 -26 18q0 2 2 4q4 12 14 29l19 32t16.5 31.5t7 33.5t-10.5 32
q-4 12 -25.5 36t-28.5 38q-22 9 -57 44q-38 23 -27 40q9 8 19 10t16 1t18 -5.5t16 -5.5z" />
    <glyph glyph-name="afii10023" unicode="&#x401;" horiz-adv-x="439" 
d="M275 -8q-32 -14 -76.5 -22t-75.5 -6q-24 -3 -36.5 -2t-21.5 10q-2 5 -1.5 11t2 8.5t-0.5 3.5q-15 0 -23 11.5t-9 32t0.5 38t5.5 40t4 27.5q3 32 7.5 74.5l7 65t2.5 25.5q0 17 20.5 118t27.5 101q0 8 1.5 15t6 15l7.5 13t12 16.5t14 18.5q17 8 76 59q12 15 43 25.5
t61 10.5q7 0 37 3t49 0t34 -14q13 -5 15.5 -25.5t-9.5 -37.5q7 -25 -7.5 -33.5t-33.5 -3t-24 15.5q-2 0 -28.5 0.5t-35 0t-31.5 -2.5t-33.5 -7l-25 -12.5t-22 -21t-9.5 -30.5q-26 -76 -48 -203q11 0 33.5 17t37.5 21q18 7 43.5 11.5t41 6t45 2.5t32.5 1q16 1 22 -20.5
t0.5 -45t-17.5 -26.5q-69 7 -108 3q-6 -1 -38.5 -5.5t-52.5 -8.5t-41 -17t-25 -32q0 -17 -13.5 -86.5t-8.5 -95.5q87 0 152.5 11t128.5 45q25 13 27 -11q1 -21 -13 -36q-13 -14 -60 -42t-68 -30zM366 750q-36 4 -31 36q4 30 33 46q28 16 54 -4q10 5 14 -14q5 -25 -3 -40
q-5 -4 -11.5 -6.5t-11 -6t-9.5 -11.5q-15 5 -35 0zM216 750q-38 20 -21 53q14 29 46 34q19 2 34 -7q13 2 14.5 -18.5t-2.5 -33.5q-1 -3 -15 -12t-17 -16q-13 4 -39 0z" />
    <glyph glyph-name="afii10055" unicode="&#x406;" horiz-adv-x="184" 
d="M35 3q-8 40 -9 88t1.5 82.5t8 92t7.5 86.5q14 33 2 62q-5 11 -10 8q-4 9 -2.5 33.5t7.5 31.5q2 1 0.5 3.5l-5.5 9.5l8.5 38.5t12.5 49.5t16.5 44.5t26.5 37t36 12.5q61 40 59 -19q-1 -16 -18 -87q-2 -8 -2 -11q0 -8 -16.5 -70.5t-12.5 -72.5q-2 -13 -11.5 -65.5
t-12.5 -72t-9 -64.5t-6.5 -72.5t1 -65t7.5 -69.5q-2 -12 -13.5 -19.5t-18.5 -20.5q-43 -13 -47 30z" />
    <glyph glyph-name="afii10056" unicode="&#x407;" horiz-adv-x="184" 
d="M34 3q-7 41 -8 89.5t1.5 81t8 92.5t7.5 85q7 18 7 34.5t-5 28.5t-11 9q-3 9 -1.5 33t7.5 32q3 0 -6 13q3 10 9.5 39t12.5 49t16.5 43.5t26.5 36t37 12.5q58 39 57 -15q0 -16 -18 -89q-2 -9 -2 -12q0 -7 -16 -70t-11 -72q-2 -12 -10.5 -56t-11 -61.5t-8.5 -56t-7.5 -62
t-3 -56t1 -61t7.5 -56.5q-1 -11 -5.5 -15t-13 -9.5t-14.5 -15.5q-41 -14 -47 29zM205 748q-35 4 -31 36q5 30 33.5 46.5t54.5 -3.5q11 4 15 -14q5 -26 -5 -40q-3 -2 -14 -8t-17 -17q-9 8 -36 0zM56 748q-38 21 -20 55q15 29 48 33q17 1 32 -7q13 2 14 -18.5t-3 -32.5
q-1 -4 -15.5 -13t-17.5 -17q-16 6 -38 0z" />
    <glyph glyph-name="afii10017" unicode="&#x410;" horiz-adv-x="484" 
d="M54 -57q-47 -28 -46 20q1 27 15 60q0 12 5 27t7 17q0 20 12.5 52.5t12.5 42.5q-20 -2 -25 6.5t-2 21t-3 24.5q9 33 22.5 48t42.5 19l6 18t11.5 31t14.5 27q18 69 46.5 150t47.5 96q6 8 -3 16.5t-2 24.5q5 11 10.5 15.5t15.5 6t12 2.5q10 0 19 11.5t11 23.5q4 1 36 23.5
t51 14.5q10 -4 10.5 -15.5t-5 -23.5t-11 -25.5t-5.5 -19.5q10 -15 28.5 -22.5t32.5 -16.5t17 -30q7 -19 9.5 -54t-1.5 -72q7 -6 9 -25.5t0 -58t-2 -48.5q18 -9 18 -25.5t-22 -28.5q0 -22 -6.5 -85t-10.5 -66q0 -66 -15 -109q1 -20 -23 -37q-23 -17 -28 0q-1 2 -1 5
q-1 12 2.5 50t0.5 64q3 8 4 25t-4 31q0 84 -3 100q-2 2 -14 -1.5t-29.5 -7t-29.5 -2.5q-13 -3 -66.5 -28.5t-84.5 -22.5q-1 -2 -5.5 -20.5t-11 -33.5t-18.5 -32q-3 -9 -6 -22l-5 -21t-5 -16.5t-5 -13t-5 -5.5q-2 -35 -26 -85zM365 309q2 -1 3.5 1.5t2 10t0.5 13v17.5
q-5 13 -4.5 30t6.5 19q-6 2 -8.5 29.5t3.5 47.5q-3 1 -11 16.5t-22.5 31t-32.5 16.5q-10 0 -31 -30q-1 -10 -5.5 -21.5t-9 -19.5t-14 -23.5t-13.5 -23.5q-4 -19 -26 -62.5t-22 -66.5q9 -4 28 -2l52.5 5.5t50.5 1.5q15 10 53 10z" />
    <glyph glyph-name="afii10018" unicode="&#x411;" horiz-adv-x="442" 
d="M58 698q57 26 193 39.5t198 -8.5q-1 -9 1 -27t2.5 -30t-4.5 -22.5t-16 -11.5q-29 10 -70 12.5t-70.5 1t-62 -5t-33.5 -3.5q-7 -13 -12.5 -30t-8 -27t-7.5 -36l-7 -36q-7 -45 -17 -81q92 -34 161 -80q103 -72 103 -163q0 -55 -60 -118q-45 -45 -123 -66q-51 -12 -71.5 -14
t-61.5 3q-51 6 -62.5 44t1.5 136q22 214 57 396q1 10 19 32.5t19 33.5q-5 8 -19 2l-32 -13.5t-20 -3.5q-5 12 -8 26t-1 29t12 21zM120 269q-11 -69 -11 -129t9 -75q11 -16 52.5 -10.5t74.5 24.5q39 24 55 41t29 53q0 44 -51.5 91t-96.5 62q-18 10 -21 16q-6 20 -26 31
q-7 -68 -14 -104z" />
    <glyph glyph-name="afii10019" unicode="&#x412;" 
d="M80 -59q-49 0 -61 38q21 25 33.5 35t23 11.5t12.5 2.5q-4 25 -4.5 64.5t1 83t1.5 46.5q2 15 -1 25t-11.5 16.5t-14 9t-17.5 6.5q-10 14 -5 38q7 7 26.5 15t27.5 17q5 21 9.5 78.5t13 96t26.5 44.5q1 5 8.5 13t13 15t3.5 10q0 4 -5.5 4t-16.5 -2t-17 -2q-12 -1 -34 -4
t-38.5 -5t-19.5 -2q-7 21 0.5 37.5t27.5 27t43 18.5t54.5 13t54 7.5t50.5 4.5t35 3q46 5 77 -5q51 0 86 -22q10 0 25.5 -16t22.5 -29q0 -107 -72 -152q-20 -32 -62.5 -58t-93 -51t-75.5 -45q-6 -14 8.5 -26.5t43.5 -24t60.5 -22.5t64 -25.5t49.5 -29.5q31 -31 38.5 -58
t0.5 -43.5t-31 -33t-37 -22t-37 -13.5q-6 -2 -8 -3q-23 -19 -104 -39.5t-110 -14.5q0 -9 -5.5 -24.5t-5.5 -23.5q-6 6 -19 6t-18 -6q-4 0 -8.5 4t-6.5 8zM256 204q-28 7 -45.5 15t-20 11.5t-7.5 6t-7 -0.5q-8 -18 -18.5 -95.5t-10.5 -96.5q5 2 36.5 8.5t48.5 12.5
q12 4 73 33q60 18 65 43q1 8 -16.5 20t-44 24t-53.5 19zM362 493q1 2 6 7q53 61 21 88q-33 28 -149 26q-6 -6 -14 -22.5t-12.5 -42t8.5 -46.5q-13 -11 -20.5 -42.5t0.5 -59.5q15 0 70.5 33t89.5 59z" />
    <glyph glyph-name="afii10020" unicode="&#x413;" horiz-adv-x="448" 
d="M131 693q15 18 132.5 21t125.5 6q24 6 63 -14q10 -4 11 -21.5t-2.5 -41.5t-3.5 -27q0 -4 -68 -0.5t-133.5 6t-91.5 -9.5q0 -5 20 -27t19 -27q-3 -36 -16 -111.5t-13 -122.5q-9 -22 -17.5 -83.5t-10.5 -69.5q-4 -5 -25 -84t-39 -94q-5 -2 -20.5 -7t-23.5 -9q-10 -1 -15 1
t-10.5 9t-11.5 11q7 14 13 35.5t15 37.5q4 -1 13 13t16.5 36.5t8.5 40.5q10 31 12 69t-0.5 94t-2.5 71q29 175 24 209v20q-8 60 31 69z" />
    <glyph glyph-name="afii10021" unicode="&#x414;" horiz-adv-x="483" 
d="M143 578q-19 5 -36 10.5t-23 6.5q-47 25 -51 30t-6 33q-5 19 -2 26q0 5 10 7.5t23 3.5t17 3q32 0 65 -20q16 5 87 -16q61 -29 101 -59l64 -43q51 -41 72 -95.5t12.5 -111t-32.5 -109.5t-62 -100q-3 -5 -26 -27.5t-28 -38.5q25 10 29 6q2 -1 2 -4q1 -8 -4 -16.5t-16 -17.5
t-22 -16.5l-27 -18l-26 -17.5l-27.5 -18.5t-31.5 -20.5t-28 -14t-34 -12q-78 -19 -83 19q-4 24 21.5 40.5t61 28.5t43.5 18q67 50 106.5 90.5t69.5 100.5q3 5 10.5 12.5t8.5 9.5q0 1 10.5 37.5t9.5 65.5q-22 66 -104 146q0 2 -3 4.5t-4 4.5q-14 6 -36.5 18.5l-37.5 21.5
t-17 8q-6 -4 -11 -21.5t-9 -38.5t-6 -26q-12 -71 -40.5 -202t-38.5 -182q-6 -34 -32 -67q-23 -31 -33 -6q-2 6 0.5 21t2.5 20q2 15 9 122t19 161q1 3 -1.5 14.5t1.5 13.5q4 13 7 53t9 71.5t18 38.5q6 5 14.5 16.5t17 19t19.5 8.5z" />
    <glyph glyph-name="afii10022" unicode="&#x415;" horiz-adv-x="432" 
d="M258 0q-55 -18 -115 -24.5t-97 3.5q0 6 1.5 13t1.5 10t-3 3q-18 0 -26.5 10.5t-9 28t2.5 35l6.5 37.5t3.5 30q3 34 9 73.5t10 63.5t4 26q0 16 16.5 117.5t22.5 101.5q1 17 9 33t23.5 32.5t26.5 26.5t31.5 26.5l26.5 21.5q19 22 97 38q3 0 37.5 3.5t57.5 0t35 -16.5
q11 -10 12.5 -28t-9.5 -35q7 -26 -7 -33.5t-33 -1t-25 15.5q-48 1 -80.5 0t-53.5 -8.5t-32 -23t-16 -43.5q-46 -145 -46 -201q11 0 34 18.5t38 22.5q21 14 50 17.5t62 1t44 -1.5q17 0 23.5 -21.5t1.5 -44t-16 -25.5q-43 7 -114.5 -4t-97.5 -11q-16 0 -32.5 -11.5
t-22.5 -38.5q0 -16 -10.5 -84t-5.5 -94q181 0 274 54q29 17 27 -6q-1 -22 -18 -40q-18 -16 -58 -41.5t-60 -25.5z" />
    <glyph glyph-name="afii10024" unicode="&#x416;" horiz-adv-x="1212" 
d="M568 2q-14 79 -2 201q-43 1 -84 6.5t-48 9.5q-4 -5 -38 -74.5t-42 -77.5q-19 -29 -32.5 -44t-47 -33.5t-82.5 -30.5q-74 -18 -121 21t-52 132q-4 30 -2.5 52t16.5 55q10 23 24 8q12 -13 7 -29q0 -68 7 -100.5t17.5 -40t35.5 -11.5q82 -15 140 41q19 21 48.5 68t43.5 81
q-9 0 -21 3.5t-22 7l-26 9l-25 8.5l4.5 14t4.5 16q9 24 16 33t17 7q16 -2 42.5 -13.5t38.5 -11.5q13 44 19.5 91.5t4.5 66.5q-11 69 -58.5 100t-102 17t-89.5 -63l-6 85q82 80 175 80t141 -85q25 -41 30 -88.5t-2 -78.5t-20.5 -74.5t-16.5 -56.5q5 -2 16.5 -4t19.5 -7
q12 0 29.5 -3t41.5 -4q1 9 4.5 31.5t4.5 34.5q14 32 2 62q-4 12 -10 9q-4 10 -2 33.5t7 31.5q2 1 0.5 3.5l-5.5 9.5q2 7 8.5 38t12 50t16 43.5t26.5 37t37 12.5q60 40 58 -16q0 -17 -18 -88q-2 -9 -2 -12q0 -8 -16 -71.5t-11 -71.5q-16 -95 -24 -152q30 0 84 -4
q14 107 72 208q38 74 74 91q9 28 78 71t122 45q50 5 82 -13.5t32 -54.5q22 -63 10 -111q0 -16 -33 -119q-1 -39 -16 -44.5t-66 9.5q-4 68 0.5 94.5t22.5 49.5q35 59 11.5 83t-71 23t-72.5 -20q-83 -56 -141 -213q0 -20 -17 -99q14 0 31 -0.5t26 -1t13 -0.5q18 0 1 -31
q-2 -6 -5 -9q-3 -13 -7 -16.5t-15 -3.5q-2 0 -7.5 0.5t-15 1t-18.5 0.5q4 -24 20 -65t21 -61q2 0 37 -30.5t55 -28.5q14 -5 29 -6t33.5 4l28.5 7.5t33 13t27 12.5t28 15q0 13 6 13q7 -1 9 -15q2 -13 -7 -25q-7 -8 -25 -23.5t-21 -19.5q-8 -2 -43.5 -19.5t-51.5 -21.5
q-48 -10 -75.5 -5.5t-55.5 14.5t-34 10q-48 19 -80.5 89.5t-30.5 135.5q-12 1 -44.5 0.5t-45.5 1.5q-12 -101 4 -189q-1 -13 -13.5 -20t-19.5 -20q-43 -13 -46 29z" />
    <glyph glyph-name="afii10025" unicode="&#x417;" horiz-adv-x="420" 
d="M51 -52q-88 0 3 68q5 4 6 5q114 54 198 114q75 53 44 65q-14 7 -37 15.5l-42 15t-39.5 15t-33.5 18t-20.5 22t-3 29t21.5 36.5q36 42 85.5 113.5t60.5 100.5q4 7 -15 11q-43 10 -96 -1q-21 -4 -48 -12.5t-44 -15t-18 -6.5q-40 4 -9 72q16 36 32 52q33 33 201 33
q56 0 86.5 -22.5t23.5 -62.5q-12 -22 -56.5 -88t-48.5 -79q-7 -4 -21 -24t-33.5 -51.5t-20.5 -33.5q12 -14 40.5 -27.5t54.5 -23t50.5 -32t32.5 -54.5q6 -40 -15.5 -75t-64.5 -58l-61.5 -39t-70 -42t-63 -24.5t-79.5 -13.5z" />
    <glyph glyph-name="afii10026" unicode="&#x418;" horiz-adv-x="547" 
d="M289 264q0 -12 -17.5 -39l-31 -49t-6.5 -28q-47 -54 -47 -67q-4 -12 -21 -37.5t-21 -36.5q-17 -28 -42.5 -32.5t-43 9t-14.5 32.5q0 3 -3.5 83.5t5.5 90.5q-7 15 -5.5 40.5t-0.5 36.5q3 13 6.5 39t7.5 42q3 28 26 222q3 16 5.5 50.5t5.5 41.5q19 19 47.5 26.5t45 -8
t0.5 -54.5q-7 -49 -16.5 -93t-10.5 -52q-1 -17 -13 -105t-10 -105q-1 -34 -5.5 -69t-5 -45t3.5 -41q9 5 92.5 174t98.5 175q7 15 43 69t57 79q7 13 19.5 27t19.5 27q72 81 72 -1q1 -39 -15 -118q0 -92 -34 -185q0 -7 -3 -25t-4 -34q-25 -40 -37 -129t-26 -122
q-15 -62 -21.5 -86.5t-8 -25.5t-6 -5.5t-12.5 -23.5q-11 -4 -18.5 -4t-13.5 2t-8 2q0 35 10.5 102t10.5 104q11 22 23.5 93t12.5 98q65 150 39 188q-12 -6 -24.5 -44t-19.5 -38q-11 -6 -48 -70t-37 -81h-1z" />
    <glyph glyph-name="afii10027" unicode="&#x419;" horiz-adv-x="551" 
d="M309 264q0 -12 -17.5 -38.5l-31 -48.5t-6.5 -28q-47 -47 -47 -69q-4 -11 -21 -36.5t-21 -36.5q-17 -28 -42.5 -32.5t-43 9t-14.5 33.5q0 2 -3.5 82.5t5.5 90.5q-7 15 -5.5 40t-0.5 37q3 13 6.5 39t7.5 42l26 221q3 16 5.5 50.5t5.5 41.5q19 20 47.5 27.5t45 -8t0.5 -54.5
q-7 -49 -16.5 -93t-10.5 -52q-1 -17 -13 -104.5t-10 -105.5q-1 -34 -5.5 -69t-5 -45t3.5 -41q9 5 92.5 174t98.5 175q7 14 43 68t57 80q7 13 19.5 27t19.5 27q72 81 72 -1q1 -39 -15 -118q0 -91 -34 -185q0 -7 -3 -25t-4 -34q-25 -40 -37 -129t-26 -122q-15 -62 -21.5 -86.5
t-8 -25.5t-6 -5.5t-12.5 -23.5q-11 -4 -18.5 -4t-13.5 2t-8 2q0 34 10.5 101.5t10.5 104.5q11 22 23.5 93t12.5 98q65 150 39 187q-12 -5 -24.5 -43t-19.5 -38q-11 -6 -48 -70t-37 -81h-1zM254 149zM317 798q32 23 47 38t32 45q22 8 46 -16q5 -6 3 -15t-4 -13.5t-7.5 -13
t-7.5 -14.5q-11 -3 -43.5 -22t-40.5 -20q-17 -13 -57 -25.5t-46 -15.5q-5 0 -14.5 7t-9.5 13q8 9 45.5 23.5t56.5 28.5z" />
    <glyph glyph-name="afii10028" unicode="&#x41a;" horiz-adv-x="484" 
d="M246 54q-61 85 -65 93q-8 4 -33 49.5t-34 52.5q-45 -153 -30 -235q-7 -14 -28.5 -15t-34.5 4q-6 6 -3.5 47t5 66t9 71t8.5 62q0 18 4.5 29.5t2.5 18.5q-3 3 4 60.5l15.5 122t8.5 77.5q0 40 22 71t61 40q49 -20 9 -119q-3 -33 -22.5 -110.5t-19.5 -121.5q26 18 51 44.5
t52 60l37 45.5q31 34 66 89.5t40 79.5q0 2 -10 12t-5.5 21.5t34.5 26.5q38 24 65 24q3 1 9 3.5t8 2t5.5 -3.5t6.5 -11q0 -37 -10 -68t-23 -38q-20 -37 -44 -67.5t-36.5 -43.5t-11.5 -17q-3 -6 -51 -57t-51 -60q-27 -21 -35 -30t-8 -22q17 -27 47.5 -95.5t55.5 -102.5
q11 -20 24.5 -28t28 -3.5t26 11t25 18t17.5 13.5q28 26 36 7q7 -19 -11 -40q-11 -12 -27 -15q-8 -14 -21.5 -29t-19.5 -23q-92 -67 -149 33z" />
    <glyph glyph-name="afii10029" unicode="&#x41b;" horiz-adv-x="455" 
d="M247 681q32 46 75 41q30 -3 33 -27q3 -20 -19 -43q22 -53 29 -104q10 -5 17.5 -32.5t7.5 -47.5q5 -8 11 -42.5t6 -57.5q16 -21 16 -130q7 -1 9 -18t1 -39t1 -43q11 -35 6 -70t-13 -57.5t-18 -35.5q-3 0 -12 -5t-19.5 -10t-21 -8.5t-18.5 -1t-10 11.5q-12 27 -9 72.5
t13 84.5q-6 33 -5 111t-8 106q0 11 -2 36.5t-2 41.5q-4 3 -6 7t-2.5 9.5t-1 10t0 13t0.5 12.5q-6 7 -11 26.5l-8.5 34t-9 23t-16 -4t-25.5 -50.5l-32.5 -79.5l-43.5 -106.5t-35 -92.5t-30 -89.5q0 -29 -1 -44.5t-6.5 -38t-19 -36.5t-35.5 -21q-39 -27 -38 29q1 50 21 94
q4 8 6 9q0 26 27 85q9 20 66 183t94 217q-8 25 -1.5 35t22 22.5t17.5 19.5z" />
    <glyph glyph-name="afii10030" unicode="&#x41c;" horiz-adv-x="613" 
d="M71 3q-6 0 -21 -6t-23.5 -8.5t-15.5 3.5q-8 124 16 170q-7 17 -3.5 41l10.5 69t7 65q0 23 5.5 76t11.5 74q0 45 5 110.5t15 75.5q7 5 19 10.5t19 10.5t11 12q8 1 17 4.5t14.5 7t11 5t8.5 -2.5t4.5 -15t1.5 -32v-26.5v-31t0.5 -30.5t1.5 -34l3 -31.5t4.5 -33l6.5 -30
t9.5 -30t12.5 -24.5t16 -23q20 -20 40 -22.5t38.5 10t33.5 28.5l34 36.5t32 30.5q15 22 42.5 58.5t34.5 46.5q6 23 23 43.5t33 21.5q45 47 50 -25q3 -42 -6 -81q0 -26 -54 -210q-10 -35 -21 -81t-18 -79.5l-14.5 -70l-8.5 -41.5q-19 -4 -34.5 -27t-31.5 -19q8 48 20 139.5
t20 132.5q4 4 5.5 14.5t4.5 36t7 49.5q1 9 4 27q9 53 1 54q-3 0 -8 -5q-5 -6 -28.5 -37.5t-37.5 -48t-37.5 -36t-44.5 -24.5q-72 -83 -146 9q-7 13 -13 27.5t-10 21t-10 10.5q-8 1 -15 -44t-13 -94t-12 -54q-3 -13 -6.5 -53t-7.5 -47q0 -53 -13 -73z" />
    <glyph glyph-name="afii10031" unicode="&#x41d;" horiz-adv-x="540" 
d="M114 198q0 -6 -0.5 -23.5t-1 -33t0 -32.5t3.5 -28.5t8 -15.5q39 39 39 15q-4 -12 -19.5 -35t-19.5 -34q-27 -44 -58 -36q-23 6 -22 32v4q0 8 -8.5 79t0.5 88q-26 56 -30 74q3 12 18.5 39.5t19.5 44.5q15 137 26 222q2 13 4 34.5l3.5 36.5t4.5 21q18 19 47 26.5t45 -8
t0 -54.5q-7 -47 -16 -91t-10 -54q-1 -14 -9 -50q-15 -66 -4 -75q6 -5 17 -1q21 5 62 7t60 8q69 -9 111 8q9 17 20 102t3 133q7 13 19.5 27t19.5 27q68 75 72 9q3 -38 -15 -128q0 -88 -35 -185q0 -8 -3 -27t-4 -32q-24 -39 -35.5 -127.5t-26.5 -123.5q-15 -61 -22 -86.5
t-8.5 -26t-6 -5t-11.5 -23.5q-11 -4 -18.5 -4t-13.5 2t-8 2q0 35 10.5 102t10.5 104q11 22 23.5 93t12.5 98q-9 -1 -37.5 -3t-46 -4t-40 -7.5t-36.5 -13.5q-26 -14 -54 -14q-12 -6 -26.5 -23.5t-14.5 -33.5z" />
    <glyph glyph-name="afii10032" unicode="&#x41e;" horiz-adv-x="533" 
d="M313 44q-9 -5 -40 -33q-12 -4 -39 -14t-46.5 -15t-39.5 -5q-75 3 -102 77t-11 178q0 6 5 24.5t1 32.5q0 1 -5 -5q-34 -35 -34 -10q2 7 2.5 22.5t4 28.5t13.5 24q15 33 40.5 96.5t48.5 114t48 92.5l28 21q18 -1 18 -19.5t-18 -47.5q-5 -25 4 -22q8 2 12 11t12.5 15.5
t21.5 13t17 9.5q19 29 89 48q72 -11 124 -81t61 -148q4 -57 -12 -115.5t-36.5 -97t-60 -85t-56 -63t-50.5 -47.5zM319 124q36 33 58 62t28.5 45.5t11.5 32.5t11 23q16 42 12.5 91.5t-18 92t-48 70t-76.5 25.5q-44 -12 -71.5 -28.5t-36.5 -27.5t-33 -45q-4 -22 -13 -60.5
t-14 -65.5t-9.5 -61t-3 -66t8.5 -62q15 -59 46 -78t68 -4t79 56z" />
    <glyph glyph-name="afii10033" unicode="&#x41f;" horiz-adv-x="529" 
d="M114 198q0 -6 -0.5 -23.5t-1 -33t0.5 -32.5t4 -28.5t8 -15.5q11 11 17 7t6 -21q-4 -12 -11.5 -20.5t-11.5 -19.5q-18 -28 -38.5 -34.5t-33 4.5t-10.5 30q1 11 -8 79.5t1 87.5q-7 15 -6.5 38.5t-1.5 35.5q4 14 8 42.5t7 41.5l27 210q-2 0 -11.5 -2.5t-13 3t-2.5 25.5
q7 62 30 85q66 24 89 22l32.5 -1.5t17.5 -0.5q31 3 60.5 5t42 2.5t24 2.5t21.5 6q16 4 46 4q33 -2 53.5 -1.5t38.5 0t29 -3.5q25 3 28 -26t-3 -61q0 -6 -5.5 -7.5t-18.5 0.5l-14 2q-3 -32 -11 -64q0 -91 -34 -185q0 -7 -2.5 -25.5t-3.5 -33.5q-25 -40 -37 -129t-26 -122
q-15 -62 -22 -86.5t-8.5 -25.5t-6 -5.5t-12.5 -23.5q-11 -4 -18.5 -4t-13 2t-7.5 2q0 35 10.5 102t10.5 104q4 8 13.5 65.5t9.5 76.5q1 23 14 97t21 97q18 54 21 111q0 9 18 21.5t16 25.5q-12 -2 -68 -6t-102 -10.5t-64 -18.5h-78q-1 0 3 -3.5t11.5 -12.5t10.5 -21
q1 -68 -10 -145.5t-23 -129t-12 -55.5z" />
    <glyph glyph-name="afii10034" unicode="&#x420;" horiz-adv-x="452" 
d="M65 -83q-23 5 -28 41.5t-1 80t2 51.5q-15 8 -22.5 14.5t-11 10.5t1.5 10.5t7 8t14.5 9.5t14.5 9q14 71 32 211.5t31 208.5q-12 23 -26.5 42.5t-19.5 29.5q-2 44 50 70q19 20 28 22t20 -8q14 2 42.5 -10.5t64 -37.5t69 -57.5t61.5 -77.5t39 -91q33 -126 -55.5 -212
t-261.5 -121q-15 -80 -6 -108q6 -21 22 -29q-36 -67 -67 -67zM346 325q11 161 -143 273q-27 22 -50 25q-6 0 -6 -3q0 -4 13 -15q20 -30 38 -53q7 -10 7 -15q-1 -10 2 -26q-4 -7 -11.5 -31t-17 -58t-15.5 -51v-8v-8v-7t-1 -7t-2 -5t-3 -5t-5 -4q-8 -17 -15 -73t-10 -62
q2 0 6 -2l7 -3.5t4 -0.5q62 14 125 52t77 87z" />
    <glyph glyph-name="afii10035" unicode="&#x421;" horiz-adv-x="486" 
d="M118 -23q-50 20 -81.5 88t-29.5 146q0 2 1.5 19.5t2 21.5l2.5 21t4 24t5 23.5t7 27t9.5 27.5t12 31l15.5 32t19 36q11 24 31.5 52.5t42.5 39.5q8 28 77.5 71t122.5 44q50 5 82 -12.5t32 -54.5q9 -23 12.5 -55t-1.5 -56q0 -15 -15.5 -75t-23.5 -81q-13 -54 -32.5 -73
t-69.5 -5q0 67 14.5 133.5t33.5 90.5q35 59 11.5 83t-71 23t-72.5 -20q-82 -57 -141 -212q0 -26 -9 -68.5t-9 -55.5q0 -29 7 -54t20 -56.5t19 -51.5q2 0 36 -30.5t55 -29.5q14 -4 29.5 -5t33.5 4t29 7.5t32.5 12.5t26.5 12.5l28 14.5q0 13 6 13q8 -1 10 -16q1 -12 -8 -23
q-7 -9 -25 -24t-21 -19q-8 -2 -43.5 -19.5t-51.5 -21.5q-47 -10 -74.5 -5.5t-56 15t-34.5 10.5z" />
    <glyph glyph-name="afii10036" unicode="&#x422;" horiz-adv-x="394" 
d="M183 -30q-9 -2 -14 1t-7 13t-2.5 16t-1.5 22q-2 22 -2 66q-14 23 0 62q0 4 -2 47.5t2 45.5q1 15 3.5 47l4.5 57t4.5 52t5.5 45.5t6 24.5q1 24 6.5 65.5t4.5 63.5q0 11 -13 12t-31.5 -4t-20.5 -5q-7 -2 -27 -9q-67 -25 -76 -10q-6 10 3 32q0 17 6.5 37t12.5 26
q6 14 23.5 20t42 8t31.5 4q25 -3 79 2t81 1q13 4 41 -2t35 -6q7 -7 8.5 -17t0 -19.5t0.5 -22.5q5 -27 -4 -33q-2 -2 -5 0q-32 0 -68 11q-53 4 -58 -11q1 -1 5 -4.5t5.5 -5l5 -5t5 -5.5t4.5 -5.5t4.5 -6.5t3.5 -6.5t3 -7t2 -8t1 -8.5q-18 -161 -46 -247q-5 -30 -10 -66
t-8 -54t-9 -39q-3 -45 -3.5 -91.5t-1.5 -56.5q-4 -9 -15 -14t-15 -12z" />
    <glyph glyph-name="afii10037" unicode="&#x423;" horiz-adv-x="452" 
d="M112 76q2 20 21 61t19 64q-14 7 -26.5 26.5t-27 51t-19.5 41.5q-50 163 -42 229q-6 2 -10.5 31t-2.5 54q14 26 44 36t53 -6t20 -56q-8 -46 -6 -78t17 -100q2 -4 5.5 -33.5t11 -61t20.5 -46.5q12 3 43.5 72.5t35.5 74.5q3 13 12 32.5l22.5 48l22.5 48.5q14 20 38 64
q37 64 53 72q15 7 28 -17q-14 -138 -54 -204q0 -8 -7 -26.5t-12 -23.5q0 -3 -12 -23.5l-28.5 -46.5l-22.5 -36q-4 -8 -16 -23.5t-18 -26.5q-4 -10 -12 -33t-13.5 -36t-14.5 -32t-20 -34q0 -36 -22 -111q-3 -9 -10 -22q0 -11 -10.5 -20.5t-25.5 -13.5q-13 -12 -41 -15
q-3 2 -16.5 6.5t-23 11t-10.5 16.5q0 13 19 24t20 16q9 33 18 45z" />
    <glyph glyph-name="afii10038" unicode="&#x424;" 
d="M288 158q-18 -8 -24 -11q-7 -60 -23 -98q-15 -62 -22 -86.5t-8.5 -25.5t-5.5 -5.5t-12 -23.5q-11 -4 -19 -4t-13.5 2t-7.5 2q0 35 10.5 102t10.5 104l4 10q-26 -6 -55 -6q-76 1 -103 46t-10 107q0 4 4 14.5t1 19.5q-7 22 26.5 90.5t92.5 127.5l18.5 8.5t9.5 4.5
q18 -2 18 -13t-18 -28q-3 -10 0.5 -12.5t8.5 0.5t7 6q4 5 12.5 9t21 7.5t17.5 5.5q11 9 22 12q3 55 -2 86q7 12 19 26.5t19 27.5q68 75 72 9q3 -38 -15 -128v-8q63 -14 107 -53t52 -80q4 -34 -11.5 -69t-37.5 -59t-59 -51t-57 -38.5zM294 206q36 20 58.5 37.5t28.5 27.5
t11 19.5t11 13.5q23 40 5 89t-70 68q-11 -61 -28 -102q0 -7 -2.5 -25.5t-3.5 -33.5q-26 -40 -33 -107q22 13 23 13zM225 374q9 19 19 93q-16 -3 -29.5 -7.5l-21 -7t-19 -9.5l-14 -8.5t-15 -12t-13.5 -11.5q-4 -13 -13 -36.5t-14 -39.5t-9.5 -37t-3 -40.5t8.5 -37.5
q25 -56 88 -50q20 89 20 135z" />
    <glyph glyph-name="afii10039" unicode="&#x425;" horiz-adv-x="495" 
d="M42 14q-3 14 9 36.5t36.5 61.5t40.5 74q0 6 28.5 44.5t23.5 55.5l-13.5 26.5t-16 32t-13 29.5t-13.5 34.5t-7.5 29.5t-3.5 31q-4 14 -8.5 28t-6.5 19.5t-3.5 12.5t-1.5 15q-14 22 -15 46t5.5 40t15.5 35.5t11 25.5q12 13 25 20.5t24.5 5.5t15.5 -18q20 -15 25.5 -47.5
t-7.5 -50.5q0 -27 13 -91t23 -72q2 -4 4 -13t3.5 -17l3 -15.5t4.5 -12t7 -3.5q10 24 37 59t31 46q13 24 29.5 50.5t23 38.5t6.5 17q-3 0 -7.5 -4t-6.5 -4q-14 -5 -22.5 2t-6 19.5t15.5 23.5q13 18 100 82q20 19 32.5 14t24.5 -34q1 -51 -24 -107t-56 -96l-76 -94.5
t-66 -85.5q-9 -15 3 -49t29 -54q24 -56 73 -136q17 -16 22 -28t-0.5 -18t-14.5 -8.5t-20 -2.5q-25 4 -47 27.5t-30 39.5q-20 19 -50 75q-8 8 -14.5 21.5t-11 21.5t-10.5 8q-6 -3 -20 -24.5t-17 -24.5q-10 -25 -34.5 -65t-28.5 -51q-11 -7 -23.5 -27t-22 -38.5t-19 -32
t-16.5 -10.5q-8 0 -10 18t3 39t15 29z" />
    <glyph glyph-name="afii10040" unicode="&#x426;" horiz-adv-x="539" 
d="M406 609q7 14 19.5 28.5t18.5 25.5q72 81 73 1q0 -39 -16 -119q0 -93 -35 -185q0 -7 -1 -14.5t-2.5 -20.5t-2.5 -25q-16 -25 -24 -56.5t-13.5 -76.5t-9.5 -65q67 18 110 12q8 -10 2 -69.5t-14 -74.5q-9 -21 -9.5 -30t-2.5 -14q-7 -18 -20 -35q-24 -3 -44 11
q-4 11 -0.5 29.5t10.5 50.5t8 44q-5 4 -7.5 5t-3.5 0l-2 -1q-9 -6 -42 -8t-47 -12q-7 -2 -43 -10.5t-53 -16.5q-16 -1 -68.5 -6t-98 -7.5t-75.5 0.5q-7 3 -7.5 16t2 35t2.5 32q0 61 18 131q-2 12 0.5 38t2.5 34q8 57 17 88q12 42 18 122t9 101q2 12 3.5 33.5t3 37t4.5 21.5
q18 19 47 26t45 -8t0 -54q-7 -46 -16 -90.5t-10 -55.5q0 -4 -4.5 -27t-10.5 -59.5t-9 -68.5q-1 -20 -25 -229v-34q30 2 76.5 4.5t49.5 2.5q35 2 103 25l19.5 109l26 143t13.5 70q28 130 15 196z" />
    <glyph glyph-name="afii10041" unicode="&#x427;" horiz-adv-x="528" 
d="M100 238h-14h-13t-10.5 0.5t-9.5 1.5t-7 3t-6 5t-3 8q-5 30 7 80q18 167 26 222q3 17 5.5 51.5t4.5 40.5q19 19 48.5 26t44.5 -6.5t0 -55.5q-8 -48 -17 -92t-10 -53q0 -7 -13 -75q-10 -52 9 -53q5 0 10 2q20 5 61 7t61 8q69 -10 110 8q9 16 20.5 101.5t3.5 133.5
q7 13 19.5 27.5t19.5 26.5q72 81 72 -1q0 -39 -16 -118q0 -91 -34 -185q0 -8 -3 -27t-4 -32q-25 -40 -36.5 -128.5t-25.5 -122.5q-15 -62 -22.5 -86.5t-9 -25.5t-5.5 -5.5t-12 -23.5q-10 -4 -17.5 -4t-13.5 2t-9 2q0 35 11 102t11 104q11 22 23 92.5t12 98.5q-9 -1 -37 -3
t-45.5 -4t-40 -7.5t-36.5 -13.5q-27 -14 -54 -14q-20 -9 -53 -17h-2z" />
    <glyph glyph-name="afii10042" unicode="&#x428;" horiz-adv-x="842" 
d="M35 -21q-41 0 -31 70q6 47 13.5 99.5t17.5 114.5t15 97q-8 9 -12.5 21t-5.5 21.5t2 26l4.5 24.5t7.5 27t7 23q5 16 12.5 47t13.5 52.5t17 46t29.5 40t43.5 20.5q26 -10 26 -36q-3 -14 -5.5 -32t-5 -41t-4.5 -35q-8 -25 -12 -55t-6 -46.5t-6 -19.5q-3 -3 -5.5 -24.5
t-9.5 -29.5q0 -12 -11 -63l-22.5 -102t-17 -100t5.5 -58q29 -19 65 -19q10 3 49 -3t49 3q1 0 25.5 1.5t42.5 3.5q0 66 19 131q-2 12 0.5 38t2.5 35q8 55 17 88q12 42 18 124t8 98q3 16 5.5 50.5t5.5 41.5q19 19 47.5 26.5t45 -8t0.5 -54.5q-7 -48 -16.5 -91.5t-10.5 -53.5
q0 -4 -4.5 -27.5t-10 -59.5t-8.5 -68q-2 -37 -6 -75t-9.5 -82.5t-8.5 -71.5q-2 -6 -1 -19.5t1 -14.5q27 1 110 6q35 3 103 26q6 30 20.5 108.5l26 142t13.5 70.5q27 129 14 197q7 13 19.5 27.5t19.5 26.5q68 75 72 9q3 -38 -15 -128q0 -89 -35 -185q0 -8 -3 -27t-4 -32
q-23 -37 -34.5 -120t-16.5 -100q2 -40 1 -41q-8 -5 -26.5 -12t-32.5 -18l-41 -10t-55 -16q-10 -1 -84 -6.5t-135.5 -8.5t-91.5 0q-32 3 -85.5 3t-87.5 0.5t-39 6.5z" />
    <glyph glyph-name="afii10043" unicode="&#x429;" horiz-adv-x="844" 
d="M35 -22q-41 0 -29 70q16 133 46 311q-9 9 -13 21t-5.5 22t1 26t5 24.5l8 27t6.5 23.5q5 16 12 46.5t13.5 52t17.5 46t29.5 40t44.5 20.5q26 -9 26 -35q-5 -19 -10.5 -60.5t-6.5 -48.5q-8 -25 -12 -54.5t-6 -46.5t-5 -20q-4 -4 -6.5 -24.5t-8.5 -29.5q0 -13 -11 -64
l-22.5 -101.5t-17 -99.5t6.5 -57q27 -20 64 -20q10 3 49 -2.5t49 2.5q63 5 69 6q0 71 18 129q-2 13 0.5 39.5t2.5 33.5q7 50 16 89q12 43 18.5 125.5t8.5 95.5t3.5 34.5t3 37t4.5 21.5q18 19 47 26.5t45 -8t0 -54.5q-7 -46 -16 -90.5t-10 -54.5q0 -4 -4.5 -27t-10 -59.5
t-7.5 -69.5q-3 -47 -13 -124t-13 -104v-34q77 3 112 7q29 2 102 24l59 322q27 132 15 197q7 13 19 27t19 27q68 76 72 10q3 -39 -15 -129q0 -94 -34 -185q0 -7 -2.5 -25t-3.5 -34q-17 -25 -25 -57t-13 -76.5t-9 -64.5q17 5 53.5 9t55.5 3q8 -10 2 -69.5t-14 -74.5
q-7 -16 -8.5 -23.5t-0.5 -9.5t-2 -12q-5 -11 -20 -34q-25 -3 -45 11q-4 11 -0.5 29t11 50.5t8.5 44.5q-10 7 -12 4l-1 -1q-9 -6 -43 -7.5t-47 -11.5q-7 -2 -42.5 -11t-52.5 -16q-10 -1 -91.5 -7t-122 -7.5t-98.5 0.5q-44 4 -89 3t-82 -0.5t-42 6.5z" />
    <glyph glyph-name="afii10044" unicode="&#x42a;" horiz-adv-x="516" 
d="M181 629q1 3 -29.5 -1t-71 -12.5t-63.5 -16.5q-16 9 -20 38.5t18 32.5q41 22 59 28.5t62 14.5q1 0 30.5 6.5t47.5 6.5q44 3 75 -12t17 -39q-33 -44 -48.5 -83t-24.5 -91t-14 -68q95 -35 161 -81q38 -25 70.5 -66.5t32.5 -95.5q0 -31 -19.5 -63.5t-40.5 -53.5
q-48 -48 -123 -66q-83 -21 -134 -12q-49 6 -60.5 43.5t0.5 135.5q30 280 75 455zM195 269q-12 -69 -11.5 -129t9.5 -76q11 -16 52.5 -10t73.5 26q39 22 55 39t30 54q0 44 -50.5 90t-96.5 63q-19 10 -22 15q-9 23 -27 31q-3 -44 -13 -103z" />
    <glyph glyph-name="afii10045" unicode="&#x42b;" horiz-adv-x="641" 
d="M469 14q-7 41 -8.5 89t1 82.5t7.5 91t7 86.5q15 32 2 62q-4 11 -9 8q-5 10 -3.5 34t8.5 31q4 0 -5 14q2 8 8.5 38.5t12 49.5t16 43.5t26.5 37t37 12.5q59 39 58 -16q0 -17 -18 -89q-2 -9 -2 -12q0 -6 -16 -69.5t-11 -73.5q-2 -13 -10.5 -56t-11 -61t-8.5 -56.5t-7.5 -62
t-3 -56t1 -61t7.5 -56.5q-2 -12 -14 -19.5t-19 -19.5q-43 -13 -46 29zM146 510q-12 -68 -17 -81q88 -32 162 -81q37 -25 69.5 -67t32.5 -95q0 -31 -20 -64t-41 -54q-23 -23 -58.5 -41t-63.5 -25q-50 -12 -72 -14.5t-62 2.5q-49 6 -61 44t0 135q22 208 52 359q3 18 12.5 50.5
t11.5 41.5q3 10 6 26.5t5 24t7.5 17.5t14.5 19q32 29 82 10q32 -11 34 -28q2 -15 -27 -20q-47 -63 -67 -159zM106 265q-12 -71 -12 -129.5t8 -75.5q12 -16 53 -10.5t75 25.5q39 24 55 41t29 52q0 44 -51.5 91.5t-96.5 61.5q-4 3 -8.5 5.5t-6 3.5t-3.5 3t-3 5q-11 22 -26 29
q-8 -70 -13 -102z" />
    <glyph glyph-name="afii10046" unicode="&#x42c;" horiz-adv-x="442" 
d="M162 515q-10 -53 -18 -82q95 -35 162 -81q37 -25 69.5 -66.5t32.5 -95.5q0 -32 -20 -65t-40 -52q-23 -23 -58.5 -41t-64.5 -25q-83 -21 -133 -12q-50 6 -61.5 43.5t0.5 135.5q21 205 52 358l23 92q3 11 6 26.5t5 24t7.5 18.5t14.5 18q32 29 82 12q32 -12 34 -29
q3 -14 -26 -20q-50 -66 -67 -159zM121 269q-12 -69 -11.5 -129t8.5 -76q11 -16 53 -10t74 26q39 22 55 39.5t29 53.5q0 44 -50.5 90t-96.5 63q-19 10 -21 15q-9 23 -26 31l-6 -47t-8 -56z" />
    <glyph glyph-name="afii10047" unicode="&#x42d;" horiz-adv-x="564" 
d="M471 251q15 -3 19 -5t8 -3q5 0 11 0.5t9 0.5t6.5 -0.5t7 -1.5t8.5 -4q6 -6 2.5 -18t-11.5 -22q-2 -9 -7.5 -11t-8.5 -8q-58 12 -68 16q-3 -5 -20.5 -29l-34 -46.5l-22.5 -30.5q-58 -80 -178 -108q-73 -19 -125.5 22.5t-56.5 134.5q-5 76 25 143q8 22 23 17q14 -4 7 -18
q-1 -4 -4 -7q0 -96 28.5 -150t65.5 -61q39 -7 83 4.5t73 38.5q23 27 77 100q-50 3 -115 21.5t-90 49.5q7 21 9 30q8 24 17 33t21 6q12 -19 47.5 -30.5t44.5 -17.5q18 -12 35.5 -18t34.5 -9t25 -6q19 31 26 62q18 76 11 156q-11 69 -58.5 100t-102.5 17t-90 -63l-5 85
q81 80 174.5 80t140.5 -85q25 -41 30.5 -85.5t-0.5 -72t-19 -67.5t-16 -54q-6 -23 -10.5 -35t-7 -16l-8 -13t-11.5 -22z" />
    <glyph glyph-name="afii10048" unicode="&#x42e;" horiz-adv-x="779" 
d="M117 211q0 -6 -0.5 -23.5t-1 -33t0.5 -32.5t4 -28.5t8 -15.5q34 34 38 16q-4 -13 -19 -36.5t-19 -33.5q-27 -44 -59 -37q-23 6 -21 33v4q0 8 -9 79.5t1 87.5q-25 52 -31 75q4 11 19.5 38t19.5 44q11 120 26 222q3 18 5.5 52.5t4.5 40.5q19 19 48 25.5t44.5 -7t-0.5 -54.5
q-7 -49 -16 -93t-10 -53q0 -6 -13 -75q-10 -52 11 -52q3 1 8 2q69 19 122 19q3 0 10.5 1.5t9.5 1.5q9 22 40 114.5t62 145.5q10 7 19.5 8.5t12.5 3.5q18 -3 18.5 -9t-17.5 -35q-5 -25 4 -23q8 2 12 13q5 8 12 13.5t22 13.5t17 9q18 29 89 50q72 -12 124 -82.5t61 -147.5
q4 -58 -12 -116t-37 -97.5t-59 -85t-56.5 -63l-50.5 -46.5q-12 -6 -41 -33q-10 -3 -38 -14t-47 -16t-39 -5q-76 4 -102.5 78t-10.5 179q7 51 8 66q-4 0 -14.5 -1.5t-16 -2t-14.5 -2.5t-16.5 -5t-14.5 -7q-27 -13 -54 -13q-13 -7 -27.5 -24t-14.5 -33zM565 124q47 43 69 76.5
t28.5 56.5t11.5 30q16 42 12.5 91.5t-18 91.5t-48 69.5t-76.5 25.5q-15 -4 -28 -8t-23.5 -9l-18 -8.5t-16 -10.5t-12.5 -10t-12 -12.5l-10 -12t-10.5 -14.5l-10.5 -15q-4 -22 -13 -60.5t-14 -65.5t-9.5 -61t-3 -66.5t8.5 -62.5q15 -58 46 -77t67.5 -4t79.5 56z" />
    <glyph glyph-name="afii10049" unicode="&#x42f;" horiz-adv-x="564" 
d="M415 304q-8 -26 -33.5 -73t-29.5 -56q-2 -4 -12.5 -15t-12.5 -14q-14 -17 -35.5 -40l-36.5 -39.5t-19 -23.5q-4 -17 -17 -23q-72 -55 -154 -47q-13 -5 -18.5 -1.5t-12.5 12t-12 9.5q-23 30 -15 53q5 5 15.5 17.5t17.5 20t16 12.5t16 3v1q7 0 27 -16.5t29 -11.5
q17 4 45 13l88 72l82 102q26 44 45 63q-7 -4 -34 -21t-40 -23q-42 -23 -110 -38q-58 3 -94 24t-47.5 51.5t-8.5 67t16 69t32 57.5q53 69 78 82q30 40 113.5 71.5t147.5 17.5q4 -1 24.5 -5.5t29.5 -7.5q7 -7 21.5 -16.5t23 -18t7.5 -18.5q8 -2 13.5 -14t7.5 -14v-16
q-13 -13 -47 -30q-29 -10 -38.5 -1t-11.5 29t-9 26q-6 9 -26 23q-4 10 -22 15.5t-38 4.5q-12 1 -24 -2t-20 -6t-22 -10t-21 -10q-47 -29 -76 -62q-9 -11 -22.5 -38.5t-23.5 -37.5q-16 -54 -7 -105q4 -31 23.5 -45.5t48 -12t55 10t51.5 19.5q21 13 60 42t51 37q4 4 22 4
q6 0 8.5 -6t7.5 -7q6 -2 20.5 -14.5t16.5 -16.5q4 -13 -2.5 -122.5t-12.5 -126.5q-3 -4 -14 -27.5l-23 -51.5t-14 -32q-2 -2 -3.5 -12.5t-11.5 -19t-34 -12.5q0 -20 -32 -20q-9 7 6 55q-2 14 4.5 69.5t16 125.5t11.5 101z" />
    <glyph glyph-name="afii10065" unicode="&#x430;" horiz-adv-x="420" 
d="M2 100l9 54q1 6 6 12t11 11l19.5 15.5t24.5 20.5q16 33 76 78.5t71 57.5q29 20 41 27t33 16.5t34.5 4.5t23.5 -21q-12 -31 -48 -49q-10 -20 -40 -50.5t-46 -33.5q-16 -29 -39 -43q-25 -23 -54 -62q-11 -22 -11 -25q11 0 32.5 16t24.5 17q11 22 54 49q7 14 35 35t43 20
q13 4 19.5 -3t9 -24t4.5 -20q-15 -42 5 -65t49 0q6 2 9.5 4.5l5.5 4t5.5 6t5.5 6.5q2 1 2.5 -2.5t1 -12t1.5 -15.5q-5 -16 0 -29q-2 -4 -12 -13t-11 -12q-2 -1 -26 -16t-39 -11q-42 -12 -64.5 24t-22.5 72q-21 -12 -52.5 -44.5t-48.5 -40.5q-1 -2 -8.5 -10.5l-11 -12.5
t-10.5 -10t-13.5 -8.5t-13.5 -2.5q-13 -14 -33.5 -14.5t-27.5 14.5q-5 2 -8 4.5t-4.5 5t-2 7t-0.5 7.5v11v12q7 15 5.5 22.5t-14.5 15.5z" />
    <glyph glyph-name="afii10066" unicode="&#x431;" horiz-adv-x="336" 
d="M0 83q-1 7 2.5 33t-0.5 30q19 20 29 68t30 67q0 6 4.5 13t14.5 20t18 27q56 52 63 56q13 3 17.5 1.5t13.5 -7t17 -7.5q3 -9 -3.5 -19.5t-15.5 -19t-10 -10.5q-8 -16 -24 -39.5t-19 -30.5q-5 -22 -12 -66t-4 -58q-3 -6 -2.5 -18t5.5 -18q1 -6 23.5 -3t33.5 14
q82 89 82 255q0 70 -8 122.5t-17 74.5l-15.5 38.5t-4.5 25.5l12 16q17 0 106 32l47.5 5.5t90.5 8.5t88 3q7 -14 6 -26t-6.5 -35t-6.5 -29q-10 -3 -69.5 -3.5t-80.5 -4.5q-9 0 -30 -6.5t-48.5 -17t-35.5 -12.5q0 -3 15 -82t15 -124q-12 -187 -35 -211q-34 -56 -43 -66
q-8 -16 -34.5 -31t-27.5 -16q-10 -8 -32 -17t-25 -11q-23 -18 -37 -15.5t-35 23.5q-11 11 -11 111q-14 -23 -41 -41z" />
    <glyph glyph-name="afii10067" unicode="&#x432;" horiz-adv-x="364" 
d="M238 44q-17 -23 -58 -58t-67 -40q-24 -4 -41.5 7t-25.5 34.5t-12 42.5t-6.5 46t-2.5 30q-3 0 -13 -10.5t-12 -10.5q-2 5 -1.5 14t2 27t1.5 24q0 2 15.5 15t15.5 21q3 27 5 38.5l3 17t5 21l8 32.5q-1 17 18 88t20 79q9 20 23 56.5t27 65.5t29 53q0 7 13.5 21t15.5 23
q4 1 35.5 19t45.5 12q8 1 13.5 0.5t9 -8t5.5 -14t2.5 -17t0.5 -17.5t-0.5 -15.5t-0.5 -10.5q-80 -239 -176 -389q-15 -18 -25 -49.5t-7.5 -75.5t24.5 -80q9 -5 51 16q12 19 10.5 24.5t-13 10.5t-13.5 9q0 46 23 72q6 13 29.5 38.5t35.5 31.5q4 -6 16 -3t23.5 1.5t19.5 -6.5
t3.5 -26.5t-23.5 -57.5q-2 -7 -8.5 -19t-7.5 -18q-3 -6 -16.5 -29t-18.5 -36zM265 65q4 3 15.5 13l17.5 15t16.5 15t17 17t13.5 16.5t12 18.5q5 1 8 -3.5t6 -14.5t5 -15q0 -19 -11.5 -31t-30.5 -23t-28 -21q-11 -6 -19.5 -13t-13.5 -9t-16 -2q-4 3 -5 6.5t0 8t2.5 7t5.5 8
t5 7.5zM157 371q16 24 31.5 84.5t32.5 83.5q14 22 6 26q-2 1 -6 -3l-41 -82t-30 -75.5t-23 -89.5q2 4 13.5 21.5t16.5 34.5z" />
    <glyph glyph-name="afii10068" unicode="&#x433;" horiz-adv-x="321" 
d="M102 48q-10 19 16 86t24 79q-1 6 -1.5 27.5t-5.5 29.5t-19 1q-13 -4 -55 -53t-47 -52q-9 -1 -13.5 11.5t-4 27.5t0.5 26q1 1 42 46t55 59q16 14 29 19t21.5 3.5t22.5 0.5q9 10 26 5t27 -33q12 -47 4 -99.5t-20.5 -100t-10.5 -49.5q4 -51 107 58l21 21q2 -2 3 -10t1 -24.5
t1 -26.5q-18 -40 -98 -82.5t-105 -15.5q-8 31 -21 46z" />
    <glyph glyph-name="afii10069" unicode="&#x434;" horiz-adv-x="439" 
d="M-2 80q10 28 0 60q0 5 3 9.5t9 10t11.5 9.5t16 11l17.5 12q43 45 89 67q3 6 10 11.5t22 15t26 17.5q64 34 80 34q9 0 14.5 -4t11.5 -11.5t12 -12.5q0 -12 -21.5 -24t-22.5 -13q-12 -13 -37.5 -30t-29.5 -21q-2 -5 -43 -44.5t-41 -52.5q-20 -22 -13 -35q1 -3 8.5 1
t19.5 12t21 11q12 20 32.5 38.5t54.5 42.5l42 30q5 0 21 18.5t28 22.5q9 5 18 5.5t17 -1.5l8 -2q4 -2 5.5 -5t2 -7.5t0 -8.5t-3 -11.5l-4.5 -13l-6 -16t-7 -17.5q-2 -14 -17 -53.5t-24 -68t-2 -28.5q2 0 7 6l13 15t15 15q6 2 21.5 18t29.5 27t20 5q-3 -16 -0.5 -34t0.5 -23
q-17 -19 -56.5 -49t-74 -63t-52.5 -72q-12 -15 -23.5 -33t-16.5 -23q-4 -10 -22.5 -38t-21.5 -33q-15 -8 -32 -33.5t-24 -32.5q-23 -29 -59 -37t-44 9q-4 12 2.5 25t17.5 27.5t13 19.5q8 2 17.5 17.5t14.5 15.5q5 15 23.5 40.5t33.5 36.5q38 59 76 88q23 73 45 101
q-2 10 2.5 33.5t6.5 36t-5 18.5q-23 -25 -61 -47q-23 -22 -53 -39q-22 -35 -63 -42.5t-62 30.5q-8 14 13 74q-7 0 -12 -2.5t-10 -8t-7 -6.5z" />
    <glyph glyph-name="afii10070" unicode="&#x435;" horiz-adv-x="304" 
d="M34 38q0 7 -5 14.5l-11 16.5t-11 32t-6 56q0 27 35 92q5 6 13 21t15.5 25t14.5 13q28 36 63 55q7 15 36 17.5t53 -20.5q11 -5 12.5 -35t-12.5 -36q2 -12 -33.5 -53.5t-67.5 -56.5q-5 -8 -10 -13t-14 -10.5t-10 -6.5q-10 -30 4 -45t40 -14.5t51.5 6.5t41.5 14
q5 4 14.5 9.5t13.5 9.5q2 0 15 10q32 24 32 11q0 -4 -3 -11q0 -39 -7 -49q-23 -9 -64 -33t-67 -37t-62.5 -11.5t-70.5 29.5zM155 286q-18 0 -52 -44q-12 -25 -5 -26h3q8 0 17.5 6.5t11.5 12.5q9 4 23 24t2 27z" />
    <glyph glyph-name="afii10072" unicode="&#x436;" horiz-adv-x="634" 
d="M276 14q-9 13 -3 36.5t17 59.5t10 48q-10 -14 -38 -34.5t-33 -25.5q-19 -59 -68.5 -88t-107.5 -10q-3 1 -8 2.5t-13.5 10t-8.5 20.5q-2 6 -6 16t-6 16t-3.5 13t0 12t6.5 8q23 21 52 21q7 -4 12 -31.5t24 -27.5q12 -12 26.5 -0.5t27 31.5t19.5 42q3 11 8 25.5l7.5 22l6 18
t4.5 15.5l2.5 12.5t1 11t-0.5 8.5t-2 9l-4 8t-6 8q-6 7 -11.5 7.5t-9 -2t-9.5 -8.5t-9 -8q-3 -6 -5.5 -18t-7.5 -18t-18 -12l-8 -1q-15 4 -23 54q11 18 30 38t42 35.5t47.5 14t40.5 -26.5q25 -21 25 -55q3 -11 0 -23l-8.5 -32.5t-6.5 -28.5q12 10 36 40t25 31q15 9 26.5 38
t13.5 30q7 4 35 -4t31 -16q3 -9 -5 -30t-22 -52t-20 -52q-2 -11 -10.5 -29t-8.5 -26q68 56 77 75q76 121 150 91q29 -9 3 -51q-12 -22 -43.5 -28.5t-45.5 -25.5q-14 -36 -9.5 -67t20.5 -36q10 -7 21 -6.5t18.5 4t25.5 14.5q13 4 22.5 13t14.5 19t8.5 19t6.5 13t7 1
q1 -1 2 -3t3 -7l4 -10t3.5 -11.5t2 -11.5t-2 -9t-6.5 -5l-4 -5q-3 -5 -7 -11t-11.5 -14.5t-16 -16t-20.5 -15.5t-24.5 -14t-29 -9.5t-33.5 -3.5q-94 0 -71 111l-19 -17q-35 -54 -61 -72q0 -2 -1 -5.5t-8 -10.5t-20 -10h-9h-7h-5.5t-6 1.5t-6 4t-8.5 6.5z" />
    <glyph glyph-name="afii10073" unicode="&#x437;" horiz-adv-x="359" 
d="M6 148q101 126 122 145q11 29 34 34.5t44 -8t32 -35.5q15 -19 22.5 -42.5t2 -55t-27.5 -62.5q-2 -9 -14.5 -26t-17 -29t0.5 -40q9 -8 28.5 8.5t24.5 30.5q7 4 50 47q37 47 42 49q4 -1 5 -9v-54q-2 -4 -4.5 -8t-5 -7t-8.5 -8.5t-11 -9.5t-16 -14l-20 -18
q-9 -12 -23.5 -23.5t-22.5 -20.5t-8 -19q14 -28 22 -40q44 -153 -156 -263q-36 -9 -60 -0.5t-30 19.5q0 6 -1 23t-0.5 25t4.5 22t12 28q3 7 14 23.5l25.5 37l20.5 29.5q5 2 16 16.5l25 33t23 27.5q-16 31 -15 73.5t22 60.5q0 8 16 35t16 40q-5 25 -23 48t-36 4
q-10 -7 -27 -27t-27 -27q-19 -23 -38 -37q-5 -15 -16 -25.5t-19 -8.5l-3 3q-1 2 0 3q0 43 6 52zM187 -180q0 76 -13 83q-12 0 -30 -22.5t-33 -49.5q-7 -7 -15.5 -20.5t-14.5 -21.5q-2 -7 -8.5 -23t-8 -22.5t3.5 -16.5q27 -12 61.5 22t57.5 71z" />
    <glyph glyph-name="afii10074" unicode="&#x438;" horiz-adv-x="450" 
d="M90 4q-25 18 -29 95q-1 37 -7 37q-2 0 -5 -2q-2 -2 -14.5 -16t-24 -24.5t-16.5 -10.5q-4 0 -6 15t2 34t15 27q57 49 123 158q44 32 60 17q10 -12 -6.5 -60.5t-16.5 -58.5q-11 -31 -14.5 -75.5t6.5 -64.5q4 -3 7.5 -0.5l12 9t13.5 8.5q6 9 27 32t27 32q11 12 27 38t29 40
t30 14q22 0 31 -17t7 -34l-2 -17q4 -28 11.5 -40.5t18 -10.5t20 7.5t20.5 14t16 10.5q3 0 5.5 -18t-1.5 -37.5t-15 -22.5q-10 -5 -25 -14.5t-28 -14t-31 -4.5q-22 -1 -37 8.5t-21 22t-10 24.5t-7 17.5t-8 0.5l-18 -25.5t-20.5 -27t-24.5 -28.5t-26.5 -22.5t-30 -17t-30.5 -5
t-34 6.5z" />
    <glyph glyph-name="afii10075" unicode="&#x439;" horiz-adv-x="454" 
d="M94 5q-25 18 -29 95q-1 37 -7 37q-2 0 -5 -2q-2 -2 -14.5 -16t-24 -24.5t-16.5 -10.5q-4 0 -6 15t2 33.5t15 27.5q54 45 123 157q43 33 60 18q10 -12 -6.5 -60.5t-16.5 -58.5q-11 -30 -14.5 -76t6.5 -65q5 -3 8 -0.5l11.5 9.5t13.5 9q6 9 27 32t27 32q11 12 27 38t29 40
t30 14q22 0 31 -17t7 -34l-2 -17q5 -34 16.5 -45t22.5 -5t26.5 17.5t20.5 13.5q3 0 5.5 -18.5t-1.5 -38t-15 -21.5q-10 -5 -25 -14.5t-28 -14t-31 -4.5q-22 -1 -37 8.5t-21 22t-10 24.5t-7 17.5t-8 0.5l-18 -25.5t-20.5 -27t-24.5 -28.5t-26.5 -22.5t-30 -17t-30.5 -5
t-34 6.5zM324 505l34 26t23 23t23 34q22 8 46 -16q5 -7 3 -15.5t-4 -12.5t-7.5 -12t-7.5 -13q-7 -3 -40.5 -22.5t-42.5 -19.5q-20 -15 -61 -28.5t-44 -15.5q-4 0 -12.5 7t-10.5 14q7 8 45 22t56 29z" />
    <glyph glyph-name="afii10076" unicode="&#x43a;" horiz-adv-x="415" 
d="M98 -42q-26 -5 -36 19.5t-6 54.5t13 50q-4 12 -3 19t5 27.5t5 33.5q-10 0 -19.5 -11.5t-16.5 -25t-18 -25t-24 -11.5q1 4 3 9t3 9t0 8q0 21 5 35t21 35t22 30q11 38 45 108.5t45 103.5q12 25 54 13q16 -6 19 -15.5t-6 -35.5q-21 -73 -30 -95q0 -15 -18.5 -85t-18.5 -81
q-21 -58 -9 -68q3 -3 9 4q9 14 26 46t19 36q1 2 2.5 25.5t12.5 40t39 20.5q8 17 31.5 56.5t30.5 54.5q1 3 5 14l7 19t9.5 17t13.5 8.5t17 -7.5q10 -17 10 -32t-9.5 -36.5t-20 -37.5l-22.5 -35t-16 -29q-30 -42 10 -68q36 -61 88 0q6 3 8 2l3 -6q11 -47 -24 -82t-67 -35
q-12 2 -26 12t-25 20t-22 18.5t-19.5 8.5t-13.5 -12q-44 -61 -51 -69q-5 -3 -24.5 -29t-35.5 -26z" />
    <glyph glyph-name="afii10077" unicode="&#x43b;" horiz-adv-x="390" 
d="M73 68q14 5 25.5 23t22.5 47.5t12 30.5q23 15 40.5 42t26.5 50.5t28 47.5t46 36q30 5 52 -19q11 -13 2 -14q-5 -7 -16.5 -47.5t-13.5 -45.5q-1 -9 -5.5 -37t-4.5 -39.5t6 -27.5q15 -6 39.5 6t47.5 40q3 2 6 -6q8 -24 2 -47q-4 -15 -35 -39t-34 -28q-58 -47 -92 -12
q-2 12 -15.5 45.5t-13.5 50.5q8 10 5 23q-1 6 -7 4q-71 -109 -106 -148q-23 -19 -47 -14t-24 23q-15 7 -21 24q0 10 -11 28.5t-11 24.5q1 1 5 15t10 27t13 16q5 4 16.5 -1t12.5 -12q4 -38 39 -67z" />
    <glyph glyph-name="afii10078" unicode="&#x43c;" horiz-adv-x="536" 
d="M52 77q20 13 55 73q24 15 41 44t25.5 56.5t27 59.5t44.5 52q16 4 40 -11.5t24 -26.5q0 -7 -17.5 -39.5t-19.5 -38.5q-1 -11 -7.5 -49.5t-9 -60t2.5 -36.5q6 -2 11.5 0.5t11.5 10.5t11 16.5l13 22t16 23.5q7 17 28 29t27 34q16 36 21.5 43.5t24.5 15.5q22 0 43 -26
q14 -16 5 -20q-10 -15 -16 -57q-9 -59 7 -78q27 -11 71 50q3 1 5 -1.5t3 -8l2 -10.5t1.5 -13t1.5 -13q2 -15 -12.5 -29.5t-37 -28.5t-28.5 -21q-8 -7 -22 -11.5t-32.5 -1.5t-32.5 18q0 12 -8 31.5t-4 37.5q7 18 2 24q-1 1 -3 1q-28 -57 -79 -103.5t-96 -20.5q-3 10 -9 27
t-9 26.5t-5 27t4 29.5q0 1 0.5 4t0.5 6v6.5t-2 5.5t-5 2q-55 -85 -94 -127q-20 -35 -49 -38q-17 -2 -17 11q-3 6 -11.5 14.5t-11.5 18.5q0 10 -8 32.5t-8 28.5l6 14q7 15 14 26t14 13q7 3 23 -4q1 -3 3.5 -12t3 -12.5t3 -10.5t4 -10l3.5 -7t4.5 -6.5t5.5 -3.5v2z" />
    <glyph glyph-name="afii10079" unicode="&#x43d;" horiz-adv-x="471" 
d="M208 338q0 -17 -22.5 -66.5t-26.5 -76.5q4 1 12.5 3.5t13.5 5.5q5 8 25 0q9 -4 20.5 -22.5t12.5 -19.5q4 -4 8 -6.5t7.5 -2.5t6 1t5.5 5t5.5 6.5t6.5 8.5t7 10q0 24 15 61t35 46q16 7 35 3q20 -3 22 -24q0 -5 -3 -15.5l-7 -25l-6 -21.5q-8 -31 -8 -62t9 -40q26 -10 86 67
q1 0 2.5 -2t2.5 -6t1.5 -9l1 -10.5t0.5 -10.5v-10q4 -14 -10.5 -31t-40.5 -37t-28 -21q-38 -32 -53 -35q-19 -4 -36 15q-1 2 -4.5 9.5t-4.5 10.5l-3.5 10.5t-3.5 12t-2 12t-1 14.5t1 15q-3 -4 -5.5 -6t-10.5 -9.5t-22 -22.5q-21 -2 -28 -0.5t-14 10t-9 9.5q-8 4 -14.5 10.5
t-13.5 15.5t-11 13q-1 1 -7 4l-8 4t-5 -1q-11 -21 -18 -84q-4 -60 -28 -60q-8 0 -18.5 -2.5t-24.5 1.5q-8 1 -14.5 7t-6.5 11q0 10 7.5 43.5t10.5 54.5q4 12 10 38l10 42l-13 -19l-5 -7q-5 -8 -13.5 -16t-22.5 -19.5t-21 -18.5q0 -2 -1 1l-2 2q-1 4 -2 5q-6 16 -7 26.5
t7.5 23.5t16.5 21.5l19.5 20t17.5 19.5q4 11 29 39t29 40q5 9 11 15.5t7 8.5q7 10 23 25q35 22 41 21q10 -2 17.5 -11t7.5 -17z" />
    <glyph glyph-name="afii10080" unicode="&#x43e;" horiz-adv-x="411" 
d="M89 14q-21 5 -29 20t-6 31t6.5 39.5t4.5 33.5q-14 0 -36.5 -23.5t-28.5 -23.5q-3 4 -0.5 22t-3.5 19v18q108 103 117 108q11 18 44 47.5t41 38.5q6 2 14 2t16.5 -1t10.5 -1q11 -3 2 -20t-4 -20q30 19 62.5 17t53.5 -31q20 -67 -2 -119q-5 -11 -19 -31.5t-15 -27.5
q-27 -27 -31 -36l-19.5 -19.5t-24 -22.5t-24 -17t-34.5 -16t-40 -6q-2 0 -13 1.5t-14 2t-10.5 2.5t-11 5t-6.5 8zM273 136q15 15 15 44.5t-15.5 43t-48.5 -4.5q-5 -5 -13.5 -17t-17 -19t-18.5 -7q-13 -17 -22 -39.5t-9 -35.5q-6 -38 21 -40.5t56 24.5q20 13 52 51zM313 28
q-20 6 12 41q5 6 10 10q6 8 21.5 20.5t24.5 30.5q6 5 12.5 12t9.5 9t6.5 4t5.5 -1.5l5.5 -9.5t7.5 -19q1 -15 -9.5 -26.5t-27 -21t-21.5 -14.5q-6 -3 -19 -12.5t-23 -16t-15 -6.5z" />
    <glyph glyph-name="afii10081" unicode="&#x43f;" 
d="M139 -22q-5 -11 -29.5 -12.5t-33.5 4.5q-7 3 0 25q-2 18 -1.5 23.5t7 21t9.5 24.5q-3 5 -0.5 15.5t9 31t9.5 33.5q10 24 5.5 31t-15.5 3.5t-16 -10.5q-20 -25 -54 -62q-15 -24 -20 -16q-3 4 2 18q0 5 -1 16.5t-1 18t3 14.5t9 13q12 24 32.5 48t48.5 51.5t41 42.5
q3 1 13.5 7t18.5 9t18 4t18 -6t13 -22q8 -27 2.5 -52.5t-15.5 -43.5q-1 -5 -11 -32t-14 -44.5t0 -23.5q2 -1 5 3.5t9.5 13.5t13.5 16l18.5 21.5l22 25t23 23.5t25.5 21t26 14t29 5t29 -9q4 -8 15 -36t21.5 -47t22.5 -27q15 -7 22.5 -1.5t17 17t14.5 12.5q0 -48 6 -59
l-18.5 -19t-24 -22t-22.5 -15t-27.5 -8t-26.5 10q-7 7 -24.5 37.5t-29.5 39.5q-9 15 -15 20.5t-14.5 1.5t-15.5 -11t-22 -20.5t-31 -24.5q-11 -17 -49.5 -59t-46.5 -53z" />
    <glyph glyph-name="afii10082" unicode="&#x440;" horiz-adv-x="406" 
d="M68 -265q-4 -15 -12.5 -24t-17.5 -9.5t-17 4.5t-12 17t-1 28q-2 66 20 191t22 186q-13 -3 -24 -21t-20 -17q-4 3 -3 13.5t-2 18.5q5 6 5 30q93 92 171 274q5 5 10.5 12.5t10 11.5t8.5 4q6 -1 12 -13t6.5 -30.5t-9.5 -41.5q-16 -34 -20 -65q-18 -17 -33.5 -71t-16.5 -57
q-8 -42 -37 -142.5t-37 -156.5q6 2 10.5 17.5t10 39t12.5 36.5q50 165 92 233q19 40 44 33t46 -31.5t29 -49.5q16 -20 31.5 -23t25 4.5l18.5 14t13 4.5t3.5 -26t-3.5 -33q-33 -23 -51.5 -31.5t-42.5 -4.5t-48 30q-4 4 -11.5 12.5t-11.5 12t-10 6.5t-10.5 0.5t-10 -10.5
t-11.5 -23q-35 -89 -40 -96q-4 -19 -10.5 -37.5t-16 -41.5t-12.5 -32q-12 -57 -31 -92q0 -28 -18 -54z" />
    <glyph glyph-name="afii10083" unicode="&#x441;" horiz-adv-x="353" 
d="M18 165q26 28 49 36q0 12 57 56t90 60q12 14 40 29t53 11q18 -37 -1 -63.5t-65 -49.5q-6 -9 -29 -24l-44.5 -29t-35.5 -39.5t-6 -56.5q3 -24 37 -30.5t53 3.5q33 16 76 44t43 42q2 5 4 6.5t4 0t3.5 -3.5t4 -5t4.5 -5q-3 -4 -3.5 -8.5t1.5 -12.5t2 -14q-5 -14 -27 -33
t-37 -27q-139 -102 -215 -46q-2 1 -13 9.5t-17 12.5q-11 19 -13.5 42.5t-5.5 29.5q-2 8 -7.5 4t-10 -11t-7.5 -4.5t1 23.5q-1 11 -1.5 18.5t0 13t0.5 8.5t2.5 5.5l3 3t4.5 2t6 2.5z" />
    <glyph glyph-name="afii10084" unicode="&#x442;" horiz-adv-x="667" 
d="M91 3q-8 -9 -24 -4.5t-16 19.5q0 8 13.5 47t22.5 73t1 37q-10 5 -27.5 -14.5t-37 -44t-30.5 -27.5q0 15 -1 34t-1 26q12 22 46.5 56t40.5 41q6 6 19 21t23 24.5t18 12.5q39 21 53.5 10t10.5 -41q-2 -15 -10 -47q-9 -39 -3 -40q5 -1 21 15q25 17 45.5 41.5t41.5 41.5
q59 66 90 53q17 -8 18 -40q0 -25 -11 -74t-11 -74l4 4q17 17 28 27t32 27.5t36 23.5t32.5 8t30 -11.5t19.5 -41.5q7 -9 14.5 -22t16.5 -25q18 -14 28.5 -9t24.5 18.5t20 13.5v-65q-11 -13 -18.5 -20.5t-23.5 -17.5t-36 -9t-43 14q-11 6 -41 41.5t-53 35.5q-9 -2 -24.5 -17.5
t-26.5 -22.5q-7 -6 -44.5 -48t-46.5 -50q-37 -35 -54 2q0 10 5.5 27l15 46.5t16.5 58.5q17 60 2 62.5t-66 -45.5q-5 -7 -45 -47.5t-54 -63.5q-10 -4 -24 -22t-17 -18z" />
    <glyph glyph-name="afii10085" unicode="&#x443;" horiz-adv-x="469" 
d="M235 114l-9 -10q-10 -11 -13 -13.5l-11 -9.5t-15 -9.5t-14 -3.5q-42 -66 -95 -41q-10 4 -11 19.5t3 30.5q-3 4 -3.5 18t-1.5 25.5t-6 11.5q-3 0 -15 -10.5l-25.5 -23t-18.5 -15.5q-2 1 -2 7q2 9 2 53q4 9 33.5 35.5t36.5 35.5q10 9 27.5 28.5t30 30.5t22.5 13q13 3 26 -5
t10 -29q-3 -17 -18 -60.5t-18 -59.5q0 -15 4.5 -17t10.5 1q10 13 48 38q25 29 39 38q18 13 39.5 35l36 37.5t37.5 27.5t50 12q2 -1 4 -3t2.5 -5t0.5 -6t-1 -8t-2 -9t-3 -10t-4 -11t-4.5 -13l-4.5 -14q-2 -15 -17 -53.5t-25 -67.5t-4 -29q3 0 8.5 5.5t14.5 16.5t15 17
q5 1 20 16t29 26t19 4q-1 -11 1.5 -32t-1.5 -22q-16 -20 -55.5 -50.5t-73.5 -64t-52 -72.5q-59 -73 -84 -125q-7 -5 -16.5 -19.5t-16.5 -17.5q-6 -3 -13 -15.5t-11 -15.5q-24 -27 -58.5 -35.5t-43.5 7.5q-4 12 2.5 25t18 27t13.5 20q7 3 15.5 20t14.5 17q7 15 25.5 40
t30.5 35q53 69 79 88q29 82 44 100q-2 11 2 34t6.5 35t-4.5 18q-5 -4 -19 -12.5t-22.5 -15.5t-9.5 -15z" />
    <glyph glyph-name="afii10086" unicode="&#x444;" 
d="M20 79q7 27 0 60q0 5 2.5 9.5t8.5 9.5t12 9t16 11.5l17 12.5q52 50 90 67q7 16 41 40l20 10.5t31.5 15t20.5 5.5q10 0 15.5 -3t13.5 -11l12 -12q0 -9 -4 -15t-10 -10.5t-8 -6.5q-12 -13 -37 -30t-30 -22q-2 -3 -43.5 -43t-41.5 -54q-9 -8 -14 -25.5t0 -24.5
q10 -17 35.5 -16.5t48.5 23.5q25 23 40 55t22 59t12 34q7 17 34 44q18 24 59 27q17 4 48.5 -6t48.5 -29q19 -21 22.5 -60.5t-4.5 -45.5q7 -2 -6 -33q-1 -4 3 0q27 22 29 23q8 5 15 6q9 2 11.5 -11t0.5 -28t-5 -20q-8 -12 -73.5 -55.5t-87.5 -49.5q-17 -5 -29 11t-12 34
q0 4 32 26q47 32 62 119q1 15 -10 28t-25 16q-18 1 -35.5 -17t-22.5 -39q-26 -246 -47 -326q-8 -22 -13.5 -55.5t-12.5 -44.5q-11 -48 -20 -68q-8 -8 -21 -12.5t-23.5 2t-5.5 28.5q0 14 24 106q0 47 23 179q0 6 3 23t4 26.5t-1 14.5q-1 1 -2 1.5t-2.5 0l-3 -1t-3 -1.5
t-3 -2.5t-3.5 -4t-4 -4.5l-5 -5l-5 -5l-13 -11.5t-6.5 -4.5t-10 -3.5t-15.5 -5.5q-15 -7 -37 -8.5t-48.5 7.5t-42.5 31q-18 24 -3 72q-7 0 -11.5 -2.5t-9.5 -7.5t-7 -6z" />
    <glyph glyph-name="afii10087" unicode="&#x445;" horiz-adv-x="390" 
d="M249 251q24 27 22 48q-1 14 -17 12q-20 -23 -40 -30q-14 -16 -32 -29t-22 -23q-4 -14 5 -33.5t15 -19.5q18 6 69 75zM71 5q-15 -13 -22 -13h-7t-9 1.5t-6 4.5t1 9q4 7 45 44.5t49 51.5q-1 8 -14 36.5t-19 30.5q-10 -6 -36 -33.5t-36 -31.5q-26 -35 -26 -6q0 7 2 27
q2 15 2 20q4 11 31 25.5t41 28.5q8 12 -5 43t-6 51q4 19 17 33t25 15.5t18 -5.5q5 -6 7.5 -14t7 -24t8.5 -27q5 -14 31 10q28 27 38 32q21 16 46.5 39t36.5 30q27 21 51 -9q26 -33 12 -76q-4 -14 -14 -26q-13 -19 -22.5 -31.5t-20.5 -24l-13 -13.5q-5 -10 -26.5 -28.5
t-37 -34.5t-12.5 -24q19 -30 41.5 -35t54.5 9q8 7 23 7q32 16 49 47q6 1 10.5 7.5t6 9t5.5 -1.5v-62q-47 -49 -68 -53q-37 -24 -54.5 -33.5t-41 -9t-44.5 19.5q-12 10 -23 21t-16.5 16t-11.5 7q-33 -41 -68 -60z" />
    <glyph glyph-name="afii10088" unicode="&#x446;" horiz-adv-x="537" 
d="M396 11q-4 5 -10 20t-7 18l-17 -11q-16 -11 -23 -11q-22 0 -37 9.5t-20 21.5l-10 23.5t-6.5 16.5t-9.5 0q-32 -51 -76.5 -82.5t-91.5 -10.5q-24 17 -28 94q-2 37 -8 38q-2 1 -5 -2q-7 -12 -23.5 -27.5t-27.5 -15.5q-4 1 -1.5 24.5t8.5 42.5q53 45 123 157q43 35 60 19
q10 -12 -6 -61t-16 -58q-11 -32 -15 -76t6 -64q4 -3 7.5 -1t12 8.5t13.5 8.5q6 10 27.5 33t27.5 32q8 9 23 28t24.5 30t23 21t25.5 11q23 -1 30.5 -14.5t2 -30t-13.5 -30t-13 -15.5q5 -31 16.5 -40.5t22 -5t25 13.5t19.5 10q14 3 22.5 -19t8.5 -44q2 1 4 3q13 9 20 23
q9 6 25 33.5t29 30.5v-64q-9 -15 -20.5 -28t-28.5 -29.5t-24 -24.5q16 -111 -85 -165q-9 -1 -20 -3t-15 -2.5t-8.5 0t-9.5 2.5q-7 5 -10.5 12.5t-1.5 17.5t4.5 19t9 21.5l10 19t10.5 17.5t8 12q8 6 40 44zM402 -73q17 25 8 40q-15 -11 -33 -39t-2 -31q23 23 27 30z" />
    <glyph glyph-name="afii10089" unicode="&#x447;" horiz-adv-x="352" 
d="M0 97q0 2 -2 12t-2.5 17.5t2.5 19.5q3 4 16 22.5l23.5 34.5t14.5 23q17 13 12 28.5t-11.5 31t-0.5 17.5q-3 12 18 27.5t43 22.5q8 3 12.5 -1t11 -18t12.5 -23q3 0 18 -4t26.5 -6t30 -1.5t33.5 5.5q21 10 34 11t16.5 -3.5t6.5 -11.5t5 -8q5 -6 -3 -18.5l-23.5 -35.5
t-24.5 -45q-1 -14 -22 -81q-10 -35 -1 -35q4 0 11 4q6 0 43 26t46 39q9 15 13 6q2 -5 0 -15q7 -15 -4 -35.5t-9 -26.5q-3 0 -15.5 -10.5l-32 -26.5t-32.5 -25q-10 -2 -34 -17.5t-33 -14.5q-30 -2 -42.5 12.5t-10 32t11.5 32.5q25 116 46 154q-20 -9 -41.5 -2.5t-37.5 21.5
q-7 -4 -25 -26t-24 -28q0 -10 -42 -50q-20 -34 -33 -40q-3 -1 -3 1q0 3 3 8z" />
    <glyph glyph-name="afii10090" unicode="&#x448;" horiz-adv-x="606" 
d="M513 154q0 -22 7.5 -31t19.5 -5t23.5 11t25 17t17.5 12q5 -1 4.5 -27.5t-4.5 -37.5q-2 -1 -40 -26.5t-61 -25.5q-27 -1 -44 10.5t-21 24.5t-8.5 20.5t-11.5 1.5q-31 -45 -75.5 -70t-76.5 -3q-12 8 -18 20t-6 21t-1 17.5t-3 9t-11 -5.5q-1 -2 -10 -15.5t-11 -16t-10.5 -14
t-11.5 -13.5t-11.5 -9.5t-14 -8.5t-14.5 -4t-17.5 -1.5t-19.5 4t-23 7.5q-24 17 -27 92q-1 40 -8 40q-2 0 -5 -2q-30 -40 -44 -40q-3 0 -4.5 13.5t-1 29.5t5.5 22q16 13 33 33t26.5 35l27 41.5t23.5 36.5q16 13 33 19t28 0q8 -16 5.5 -31t-9.5 -41t-7 -37q-11 -31 -15 -76.5
t6 -64.5q5 -3 8.5 -0.5t12 9.5t15.5 9q77 135 107 192q15 12 33 14.5t28 -7.5t-2 -42t-12 -41q-27 -77 -29 -97q-5 -48 40 -25q9 13 29.5 32.5l24.5 23.5q11 14 22 43.5t22 49.5t27 23q16 0 35 -12t18 -22q-11 -76 -19 -82z" />
    <glyph glyph-name="afii10091" unicode="&#x449;" horiz-adv-x="661" 
d="M501 159l1 -1q0 -28 8 -36.5t16 -5t23.5 15t18.5 13.5q5 1 11 -5.5t12 -20t9.5 -22.5t7.5 -22q13 15 25 39q5 3 17 13.5t15 13.5q10 24 14 23q1 0 0 -6q2 -19 2 -55q-11 -29 -61 -76q5 -47 -20 -93t-65 -72q-13 -1 -27 -4t-18 -3.5t-14 1.5q-12 8 -15 20.5t3 27.5
t13 27.5t17 27.5t13 20q6 5 17 19t24 25q-1 2 -2.5 5.5t-3.5 9.5t-3 10q-19 -11 -38 -11q-14 0 -24 3t-17 11t-10 12.5t-7.5 16t-5.5 12.5q-3 8 -11 0l-5 -5q-30 -44 -77.5 -67t-80.5 0q-12 8 -18 20t-6 21.5t-0.5 18t-2 9t-11.5 -5.5q-35 -54 -51 -66q-36 -30 -91 -4
q-24 16 -28 89q-2 41 -8 41q-3 0 -6 -2q-4 -7 -20 -23t-23 -16q-3 0 -5 13t-1 29.5t6 22.5q17 13 34 34t25 32.5t28 44t22 35.5q44 35 63 18q7 -15 4 -30.5t-9.5 -41t-6.5 -35.5q-11 -32 -14.5 -77t6.5 -65q5 -3 8.5 -0.5t11.5 9t14 8.5q57 97 108 193q16 12 33.5 14
t28.5 -7q9 -10 -3.5 -41.5t-12.5 -40.5l-7 -21q-33 -96 -14 -108q10 -6 32 6q9 13 28.5 31t25.5 26q12 14 23 43t21.5 49t27.5 22q17 0 35 -12t17 -22q-3 -23 -12 -46t-14 -26zM556 -67q9 35 7 41q-22 -15 -39 -42q-18 -27 3 -32q8 3 18 17.5t11 15.5z" />
    <glyph glyph-name="afii10092" unicode="&#x44a;" horiz-adv-x="402" 
d="M162 2q-15 11 -24.5 47t-5.5 77q1 15 18 71t29 83q-15 -2 -34.5 2.5t-27.5 10.5q-5 -21 -21 -39.5t-30 -27.5q-22 29 -38 42q-2 13 20.5 45.5t42.5 50.5q9 8 45.5 -8t56.5 -12q8 1 25 7t25 8t18 -2q10 -12 -7.5 -73t-16.5 -71q-11 -33 -15 -76.5t7 -64.5q5 -3 8 -1
t11.5 9t14.5 9q1 2 7.5 13t10 20t7 22t0.5 25t-12 22q-4 2 -10.5 11t-4.5 13q-6 6 -9 17.5t5 25.5q6 4 18.5 4t19.5 3q5 -2 11 -3t10 -5.5t14 -17.5q4 -13 11 -23t7 -15q11 -46 3 -85.5t-29 -63.5t-49 -41t-57 -17t-54 8z" />
    <glyph glyph-name="afii10093" unicode="&#x44b;" horiz-adv-x="485" 
d="M97 4q-25 17 -28 92q-2 40 -8 39q-2 0 -5 -2l-10 -10.5l-16.5 -17.5t-16 -15t-11.5 -7q-5 0 -7 15t2 33.5t15 26.5q21 17 42.5 48t48 77.5t32.5 55.5q45 34 61 19q7 -16 1.5 -39.5t-15.5 -58t-10 -45.5q-12 -32 -15.5 -76.5t7.5 -64.5q4 -3 7.5 -0.5l12 9t13.5 8.5l5 7
q4 8 6 11.5t6 11.5t5.5 13.5t3 14t0.5 15.5t-4 14.5t-9 13.5q-1 1 -2 14t-3 14q29 3 140 58q9 4 27 5.5t24 4.5q11 -5 11 -32t-5 -52l-6 -25q5 -34 16.5 -44.5t23 -5t26.5 17t20 13.5q3 0 5.5 -18t-1 -37.5t-14.5 -21.5q-9 -4 -25 -14t-28.5 -14.5t-30.5 -4.5
q-35 -1 -53.5 19t-17.5 42q8 95 6 104q-4 -6 -40 -12q11 -46 2.5 -85.5t-29 -63.5t-48.5 -41t-57.5 -17.5t-53.5 8.5z" />
    <glyph glyph-name="afii10094" unicode="&#x44c;" horiz-adv-x="302" 
d="M96 3q-24 17 -27 92q-2 40 -9 39q-2 0 -5 -2l-10 -10.5l-16.5 -17.5t-16 -15t-11.5 -7q-4 0 -6 14.5t2 33t14 27.5q16 14 35 39.5t32 46.5l31.5 53l24.5 42q45 34 61 19q11 -12 -6.5 -72.5t-16.5 -70.5q-11 -32 -15 -76t6 -66q3 -3 8 0.5t12 9.5t13 8l4 8q5 7 7 10.5
t6 11.5t5.5 13.5t3 14t0.5 15.5t-4 14.5t-9 13.5q0 1 -4.5 6.5t-7.5 11t-2 8.5q-6 4 -9 16.5t6 24.5q6 4 19 5t18 2q5 -3 10.5 -3.5t10 -4t14.5 -16.5q4 -13 11 -24t7 -15q11 -46 2.5 -85.5t-29 -63.5t-48.5 -41t-57.5 -17.5t-53.5 8.5z" />
    <glyph glyph-name="afii10095" unicode="&#x44d;" horiz-adv-x="336" 
d="M298 85q-15 0 -26 2q-24 -51 -28 -56q-4 -14 -25 -31.5t-29 -27.5q-20 -13 -58.5 -20t-75 1t-42.5 35q-2 7 -7.5 19t-8 19t0.5 14.5t15 12.5q20 24 39 24q7 -4 9 -38.5t23 -37.5q36 -1 61 18t33 47q16 16 16 28q-21 0 -54.5 10.5t-33.5 21.5q-1 11 12 30t21 24
q4 0 32.5 -15.5t45.5 -15.5q50 88 0 149q-8 6 -15.5 6t-18.5 -7t-18.5 -13.5l-16 -14.5l-10.5 -10q-2 -4 -6 -14t-6.5 -15t-7 -12.5t-9.5 -11t-11 -4.5q-1 0 -3.5 -0.5t-9.5 1t-12.5 5t-11.5 12.5t-9 22q19 38 60.5 75t58.5 28q1 0 22 4.5t33.5 5.5t30 -3t25.5 -15
q20 -25 25 -69q7 -7 4 -56t-14 -79q5 -2 13.5 -4t11.5 -3.5t7 -8t-1 -18.5q-1 -5 -3 -8.5t-5.5 -4.5t-6.5 -1.5t-8.5 0t-7.5 0.5z" />
    <glyph glyph-name="afii10096" unicode="&#x44e;" horiz-adv-x="519" 
d="M165 370q6 12 46 2t40 -21q-4 -12 -15.5 -41t-18 -49.5t-10.5 -41.5q7 -12 14.5 -16.5t12.5 -4t12.5 2.5t11.5 2q4 4 15.5 26t23 39.5t18.5 17.5q26 23 57 57q5 2 12.5 2t15.5 -1t10 -1q14 -3 5 -20t-5 -20q28 20 61 17.5t56 -31.5q7 -22 8 -41t-4 -36.5t-11 -31t-16 -34
t-16 -35.5q-2 -3 -14.5 -15t-17.5 -21l-12 -13q-12 -13 -15 -16t-15 -13.5t-20 -14.5l-21 -10.5t-27 -9.5t-31 -4q-4 1 -13.5 2t-13 2l-10 3t-9.5 5t-5 7q-59 14 -27 125q-44 0 -57 3q-4 -4 -14.5 -41l-20.5 -71.5t-13 -34.5q-29 -23 -57 -7q-6 0 -8 5.5t0 16.5t5 23.5
l7.5 31t6.5 34.5l6 15.5l6.5 17.5t5 20t3.5 27q-4 -5 -9 -12.5l-7.5 -11t-2.5 -2.5q-4 -8 -13 -16.5t-22 -19.5l-21 -18q0 -2 -3 2q-2 4 -3 5q-6 17 -6.5 27.5t8 23.5t16.5 21l19.5 19.5t16.5 19.5q4 12 33.5 48t33.5 47q5 10 5 20l1 10q0 5 3 17t9 12zM446 134q17 36 9 72
q-10 45 -58 13q-3 -3 -12.5 -17t-17.5 -20t-18 -6q-13 -17 -22 -40t-9 -36q-4 -26 7 -35t30 -3.5t40 22.5q22 15 51 50z" />
    <glyph glyph-name="afii10097" unicode="&#x44f;" horiz-adv-x="424" 
d="M352 218q-1 -9 -7 -36.5t-9 -49t0 -38.5q6 -4 10.5 -4t13.5 7.5t17 15.5t21 19.5t26 19.5q6 -3 7 -12.5t-1 -26.5t-2 -24q-24 -27 -59.5 -49.5t-62.5 -20.5q-42 2 -47 61q0 14 5.5 45.5t5.5 33.5q-7 -22 -24 -35q-2 -7 -8.5 -17.5t-7.5 -14.5q-32 -48 -78 -75.5
t-98 -22.5q-7 2 -12.5 4.5t-10.5 6.5t-8.5 6.5t-7 9t-5.5 9t-5.5 11t-4 10.5t-4 12t-4.5 12q3 5 4.5 17.5t2.5 24t4.5 20t10.5 8.5q10 0 40 -43.5t34 -43.5q2 0 9 -0.5t10 0t8 2.5t10 7q20 15 46 44.5t32 41.5q-93 -29 -115 2q-25 45 -15 90.5t38 81.5t71.5 58t86.5 19
q40 -9 57 -40t11.5 -68.5t-26.5 -71.5q3 -1 21 1q20 0 20 -7zM273 279q25 53 -20 64q-49 0 -87 -65q-10 -20 -12 -36.5t5.5 -27t23.5 -10.5q26 0 56 7q4 5 14.5 32t19.5 37v-1z" />
    <glyph glyph-name="afii10071" unicode="&#x451;" horiz-adv-x="347" 
d="M39 39q0 7 -7.5 16.5t-16 34.5t-9.5 68q0 23 36 92q4 6 12.5 21.5t15.5 25t14 12.5q30 37 64 54q6 15 35.5 18t52.5 -20q11 -5 12.5 -35t-12.5 -36q2 -12 -33.5 -54t-67.5 -57q-5 -7 -11 -12t-13 -10l-10 -7q-10 -31 4 -46t40 -14.5t51.5 7t41.5 14.5q3 2 13 8t15 11
q2 0 17 10q30 22 29 11q0 -4 -3 -12q0 -39 -6 -48q-22 -9 -63.5 -33.5t-67 -37t-62.5 -11t-71 29.5zM161 286q-19 0 -52 -43q-15 -27 -3 -26q8 0 17.5 6t11.5 13q8 2 22.5 22.5t3.5 27.5zM274 449q-36 4 -31 36q5 29 33 45q28 15 52 -4q13 5 17 -16q4 -26 -6 -41
q-3 -2 -9.5 -3.5t-11 -5.5t-9.5 -13q-10 8 -35 2zM124 447q-29 17 -23.5 44.5t30.5 37.5t53 -3q7 2 10.5 -2t3.5 -15.5t-0.5 -15.5t-1.5 -16q-1 -4 -15.5 -12.5t-17.5 -15.5q-11 2 -13.5 2.5t-12 -1.5t-13.5 -3z" />
    <glyph glyph-name="afii10103" unicode="&#x456;" horiz-adv-x="308" 
d="M129 435q-18 26 -2 57.5t46 40.5q0 12 22.5 24t36.5 7q14 0 15 -17.5t-4.5 -35.5t-10.5 -24q-4 -20 -17 -34.5t-27 -21.5t-15 -9h-7.5h-9h-8.5t-8 1t-6 2.5t-4.5 4t-0.5 5.5zM4 87q-5 17 4 67q4 4 13.5 16t16.5 18.5t16 9.5q2 8 20 29.5t28 26.5q5 8 13 16l8 8
q35 2 60 -28q5 -19 8 -48.5t5 -39.5q5 -20 11.5 -31t15.5 -13t15 -1t17.5 6t15.5 6q5 10 17 20t19 13q0 -17 -1 -33t-1 -31q-69 -80 -127 -63q-29 17 -44 36.5t-15 33.5q-10 8 -14 23t-13 24q-8 7 -26.5 -9t-32.5 -35q-8 -3 -16.5 -12t-12.5 -9z" />
    <glyph glyph-name="afii10104" unicode="&#x457;" horiz-adv-x="309" 
d="M237 450q-36 4 -30 36q5 30 34 45q27 15 51 -4q13 5 17 -16q4 -26 -7 -41q-3 -2 -9 -3.5t-10.5 -5.5t-8.5 -13q-10 8 -37 2zM89 448q-37 23 -21 56q14 29 46 31q18 2 34 -8q7 2 10.5 -3t4 -14t-0.5 -16.5l-2 -15.5q-1 -4 -15.5 -12.5t-17.5 -15.5q-11 2 -14 2.5
t-11.5 -1.5zM5 87q-6 14 4 67q4 4 11 13t11 13.5t10.5 10t13.5 7.5q2 9 20 31t28 26q3 5 21 23q35 4 60 -28q4 -17 7 -45.5t6 -41.5q4 -17 10 -27.5t11 -14.5t13 -4t13 1.5t14 6t12 5.5q6 10 18.5 20t19.5 13q0 -17 -1 -33t-1 -32q-69 -79 -128 -63q-28 17 -43.5 37
t-15.5 34q-9 7 -13 22t-14 24q-7 7 -25.5 -8.5t-33.5 -35.5q-8 -2 -16 -11.5t-12 -9.5z" />
    <glyph glyph-name="endash" unicode="&#x2013;" 
d="M17 188q0 4 -2.5 23.5t-1.5 33t8 17.5q81 0 239 -1t238 -1q13 0 16 -8v-61q-6 -6 -16 -9t-23.5 -3t-23.5 1t-24.5 3.5t-18.5 2.5q-25 0 -64.5 1t-62 1t-32.5 -2q-25 0 -90 -3.5t-103 -3t-39 8.5z" />
    <glyph glyph-name="emdash" unicode="&#x2014;" horiz-adv-x="1005" 
d="M997 260q20 -4 6 -74q-116 -8 -394.5 -1.5t-395.5 3.5q-22 -1 -65.5 -4.5t-61.5 -3t-68 5.5q-4 0 -5 2t-0.5 6t1 9t1.5 10.5t0 10.5q-4 11 -3.5 19.5t3 13.5t5.5 5q131 -5 626 -5q54 2 183 1t168 2z" />
    <glyph glyph-name="quoteleft" unicode="&#x2018;" horiz-adv-x="147" 
d="M45 444q-37 15 -39 25q24 101 48 123q4 18 17 36.5t13 39.5q10 14 22 21.5t20.5 7.5t11.5 -7q0 -6 -6 -28t-15 -52t-13 -46q0 -26 -8 -46q2 -13 1 -22.5t-3.5 -19.5t-2.5 -12q-7 -7 -46 -20z" />
    <glyph glyph-name="quoteright" unicode="&#x2019;" horiz-adv-x="229" 
d="M169 477q-1 -15 -28 -28q-28 -13 -28 3q0 4 2 10q11 28 19 57t11 46t5.5 37t3.5 25q-1 9 0.5 27.5t1.5 19.5q8 8 50 22q56 -14 34 -47q-9 -27 -35.5 -83.5t-35.5 -88.5z" />
    <glyph glyph-name="quotedblleft" unicode="&#x201c;" horiz-adv-x="289" 
d="M253 518q8 -23 0 -36q-2 -3 -7 -9l-7 -8.5t-6 -7t-8 -6.5t-10 -4t-13 -3q-3 -1 -10.5 2t-13.5 7l-6 4q-7 2 -8.5 6t-0.5 7t5 13q1 3 2 5q7 27 22 65t21 40q0 22 21.5 62.5t43.5 40.5h3q9 0 11 -2.5t-1 -17.5q-1 -11 -15.5 -60.5t-14.5 -55.5q0 -42 -8 -42zM107 518
q9 -23 0 -36q-9 -29 -41 -36q-32 -6 -40 17q-4 11 0 25l7.5 21.5l10 28l9.5 25.5t9.5 21t7.5 9q0 23 20.5 63t43.5 40q11 0 13 -1.5t0 -18.5q-1 -11 -16 -60.5t-15 -55.5q0 -42 -9 -42z" />
    <glyph glyph-name="quotedblright" unicode="&#x201d;" horiz-adv-x="289" 
d="M48 627q-8 20 0 33q10 16 20 23.5t32 14.5q1 2 8.5 -1t13.5 -7l7 -4q3 -1 5 -2t3 -2t1.5 -3t0.5 -3t-0.5 -4t-1 -4.5t-1.5 -5.5t-2 -6l-8.5 -23.5t-10.5 -28l-10 -25.5t-9.5 -20.5t-7.5 -8.5q0 -23 -20.5 -63t-41.5 -40q-15 0 -16 4q-2 5 1 18q1 6 8.5 32.5l14 50.5
t6.5 31q0 44 8 44zM193 627q-7 20 0 33q9 16 19.5 23.5t32.5 14.5q3 2 10 -1t13 -7l5 -4q3 -1 5.5 -2t3.5 -3l1.5 -3t0 -4t-1.5 -5t-2 -6t-2 -7q-2 -6 -14 -38.5t-19.5 -49.5t-12.5 -18q0 -22 -22.5 -62.5t-42.5 -40.5h-9t-5 5t1 17q1 4 10 32t15.5 51.5t6.5 30.5q0 44 7 44
z" />
    <glyph glyph-name="quotedblbase" unicode="&#x201e;" horiz-adv-x="288" 
d="M50 169q1 1 2 12t2 23.5t2 16.5q28 18 43 17t44 -14q2 -2 -10.5 -38t-19.5 -46q-5 -17 -24 -56t-22 -61q0 -7 -19.5 -21.5t-24.5 -12.5q-9 0 -10 3.5t2 22.5q6 25 17 76.5t18 77.5zM195 167q2 8 1 27t4 27q25 21 47 21q18 0 27 -6.5t8 -20t-4 -23.5t-10.5 -27.5
t-8.5 -21.5l-7 -20t-5 -14.5t-3.5 -8t-6.5 -8.5q0 -2 -14 -29t-12 -40q-4 -12 -21 -24t-25 -10q-8 0 -9 5t3 21q23 76 23 77q5 20 6.5 37t2 25t4.5 13z" />
    <glyph glyph-name="daggerdbl" unicode="&#x2021;" horiz-adv-x="532" 
d="M128 -6q-17 2 -34 16t-23 14q-4 10 -38 53.5t-33 63.5q2 3 10 19t15 25t14 6q22 0 59.5 -29t53.5 -28q8 0 12.5 20.5t17.5 29.5q0 12 4.5 39t5.5 37q-41 0 -75 -10q-17 0 -38 -3.5t-27 -3.5q-10 9 -4 33t20 43q28 19 73 19q1 -12 22.5 -11.5t47.5 11.5q25 130 40 155
q1 19 5.5 41.5t8.5 36.5t11 32.5t8 23.5q0 15 7 25.5t13.5 13.5t17.5 7q78 74 92 -80q-6 -41 0 -109l7 -10t6.5 -9.5t1.5 -9t-5 -12.5t-15.5 -15t-28.5 -20q-21 -6 -23 14v40q1 13 1 29t-0.5 30t-1.5 26t-2 20v8q-2 10 -7.5 10t-7.5 -12q-3 -17 -21.5 -98t-27.5 -126
q21 -2 94.5 5t83.5 7q4 -4 4.5 -9t-2.5 -10.5t-7 -10.5t-11 -10.5t-12 -9t-11.5 -8.5t-8.5 -6q-111 -8 -151 -24q-8 -15 -15.5 -54.5t-15.5 -51.5q0 -13 -10.5 -38t-7.5 -42q49 -52 121 -52q16 0 34.5 10.5t29 19t33 32.5t28.5 29q15 39 42 61q14 11 18 2q-20 -54 -22 -78
q-46 -73 -84.5 -107.5t-71 -37.5t-72.5 3q-35 4 -111 52q-10 0 -21.5 -12.5t-15.5 -14.5z" />
    <glyph glyph-name="bullet" unicode="&#x2022;" horiz-adv-x="369" 
d="M186 160q-77 0 -129 53.5t-52 129.5q4 73 55.5 124t125.5 51t128.5 -52t54.5 -123q0 -74 -53.5 -128.5t-129.5 -54.5z" />
    <glyph glyph-name="ellipsis" unicode="&#x2026;" horiz-adv-x="809" 
d="M99 0q-10 6 -20 16t-17.5 22t-3 23t24.5 17q2 1 8 8.5t11.5 12.5t14 8t14.5 -5q17 -1 30.5 -8.5t19 -18.5t5.5 -22.5t-11 -21t-30 -12.5q-25 -16 -46 -19zM431 0q-20 12 -30.5 22.5t-9 26t23.5 31.5q2 1 12.5 11.5t18 14t17.5 -3.5q30 0 45 -15t14 -31q-23 -32 -45 -37
q-20 -16 -46 -19zM761 0q-21 11 -30.5 20t-7.5 15q0 11 8 25.5t14 19.5q2 1 12.5 11.5t18.5 14t20 -3.5q29 -1 43 -15.5t13 -30.5q-6 -12 -19.5 -24t-22.5 -13q-25 -16 -49 -19z" />
    <glyph glyph-name="guilsinglleft" unicode="&#x2039;" horiz-adv-x="243" 
d="M186 354q2 1 11.5 4.5t12.5 4.5t11 2.5t12.5 1t11 -3t12.5 -7.5q5 -8 -3 -20t-24 -19q-35 -35 -57 -43q-9 -15 -30.5 -38t-26.5 -35q-15 -18 -10.5 -42t14 -39.5l24 -38t18.5 -37.5q11 -11 -19 -23q-38 -12 -52 0q-9 8 -21 27.5t-18 27.5q-1 2 -8 18l-9.5 22t-7 20.5
t-4.5 23.5t1.5 20.5t7.5 20.5q5 18 32 40.5t32 34.5q31 19 90 78z" />
    <glyph glyph-name="guilsinglright" unicode="&#x203a;" horiz-adv-x="229" 
d="M86 27q-2 -1 -8.5 -3.5t-9.5 -3.5l-9 -3t-9 -2t-8 -0.5t-8.5 0.5t-8 3.5t-7.5 5.5q-5 5 -6.5 9t2 8.5t7 8t10.5 9l11 8.5q6 5 17.5 15.5t19 16t15.5 6.5q7 15 19 29.5t25.5 27.5t17.5 19q8 19 7.5 33.5t-9 33.5t-17.5 33t-19.5 32t-14.5 30q-1 9 30.5 19t39.5 1
q37 -32 60.5 -89t1.5 -96q-5 -19 -28 -39.5t-28 -29.5q-7 -3 -28.5 -22.5t-34.5 -27.5l-8 -8l-10 -10.5z" />
    <glyph glyph-name="Euro" unicode="&#x20ac;" horiz-adv-x="438" 
d="M402 653v-55q-42 45 -118 45q-72 0 -109 -63t-43 -169h230l-12 -44h-222v-45v-42h198l-12 -44h-182q7 -116 46 -175.5t105 -59.5q72 0 119 45v-55q-41 -39 -125 -39q-174 0 -195 284h-58l13 44h42q-1 10 -1 42v45h-54l13 44h45q20 282 196 282q82 0 124 -40z" />
    <glyph glyph-name="afii61352" unicode="&#x2116;" horiz-adv-x="868" 
d="M24 -20q33 221 41 237q10 52 19 129l15 129.5t12 66.5q-4 26 5 59.5t22 31.5q19 5 36.5 2.5t20.5 -11.5q2 -2 30 21q41 36 45 8q1 -4 1 -9q-33 -81 -33 -119q9 -40 38.5 -115t37.5 -106q15 -33 36 -91t35.5 -87.5t28.5 -35.5q10 15 40 222q4 37 5.5 120t11.5 144t37 112
q4 4 10 9t9.5 7.5l8 6t6.5 4t5.5 1.5t4 -2t2.5 -6.5t1 -11.5t0 -17q-6 -46 -25 -270t-49 -341q0 -28 -27 -65q-8 -3 -29.5 -14t-35.5 -13q-10 -2 -26 18.5t-34.5 58t-32.5 70l-32 75.5t-23 54q-38 95 -54 117q-3 -1 -8 -12t-11 -30.5l-11 -37l-12 -41.5t-10 -36
q-7 -39 -19.5 -83.5l-28.5 -97.5t-24 -82q-3 -8 -15 -8t-16 -8q-7 3 -10 10t-2 13.5t2.5 14.5t1.5 9zM762 281q3 5 7 14.5t7 14.5q2 19 -8.5 25.5t-24 1.5t-21.5 -14q-8 -17 -22 -17q-11 -8 -18 -30t7 -35q24 -10 73 40zM640 204q-25 14 -25 49t15.5 67.5t34.5 50.5
q7 2 51 46q29 0 29 -12q-8 -8 -8 -15q64 22 92 -11q14 -25 0.5 -69t-38.5 -58q-8 -15 -21 -19q-4 -8 -10.5 -14t-17 -10.5t-17.5 -7t-19 -6t-15 -4.5q-41 5 -51 13zM729 108q-23 -4 -46 -4.5t-56.5 0.5t-46.5 1t-16 5.5t0.5 11.5t8.5 9q3 0 16 13.5t18 13.5q12 -2 41 -2
t70 1t58 1q14 1 16 -17q3 -26 -22 -34q-16 -6 -41 1z" />
    <glyph glyph-name="trademark" unicode="&#x2122;" horiz-adv-x="866" 
d="M4 699h326v-62h-128v-350h-70v350h-128v62zM399 697h111l119 -304l118 304h111v-408h-72v338l-135 -338h-46l-134 338v-338h-72v408z" />
    <glyph glyph-name="hyphenminus" horiz-adv-x="299" 
d="M199 186q-23 -6 -47.5 -7t-60 0.5t-49.5 1.5q-11 0 -15.5 4.5t-3 11.5t4.5 13t6 9q4 0 17 19.5t19 19.5h178q12 2 18 -17q8 -30 -12 -50q-19 -19 -55 -5z" />
    </font>
</defs>
</svg>
