<?xml version="1.0" standalone="no"?>
<!DOCTYPE svg PUBLIC "-//W3C//DTD SVG 1.1//EN" "http://www.w3.org/Graphics/SVG/1.1/DTD/svg11.dtd" >
<svg>
<metadata>
Created by FontForge 20090622 at Fri Nov 25 10:51:02 2016
 By deploy user
Copyright (c) ParaType Inc., 2001. All rights reserved.
</metadata>
<defs>
<font id="AdventureC" horiz-adv-x="511" >
  <font-face 
    font-family="AdventureC"
    font-weight="400"
    font-stretch="normal"
    units-per-em="1000"
    panose-1="0 0 5 0 0 0 0 0 0 0"
    ascent="578"
    descent="-422"
    x-height="440"
    cap-height="675"
    bbox="-222 -422 1087 921"
    underline-thickness="20"
    underline-position="-113"
    unicode-range="U+0020-U+2265"
  />
<missing-glyph horiz-adv-x="475" 
 />
    <glyph glyph-name=".notdef" horiz-adv-x="475" 
 />
    <glyph glyph-name=".null" horiz-adv-x="0" 
 />
    <glyph glyph-name="nonmarkingreturn" horiz-adv-x="333" 
 />
    <glyph glyph-name="space" unicode=" " horiz-adv-x="475" 
 />
    <glyph glyph-name="space" unicode="&#xa0;" horiz-adv-x="475" 
 />
    <glyph glyph-name="exclam" unicode="!" horiz-adv-x="328" 
d="M391 712q-36 -78 -54 -128l-49 -132q-65 -176 -116 -267q-18 -31 -35 -31q-18 0 -16 16q0 7 160 450q24 68 42 83q17 13 32 16q4 1 14.5 1.5t15.5 0.5t6 -9zM148 46q-3 -26 -20 -44.5t-46 -18.5q-21 0 -28.5 9t-4.5 33q5 34 20.5 51t49.5 17q21 0 26.5 -11t2.5 -36z" />
    <glyph glyph-name="quotedbl" unicode="&#x22;" horiz-adv-x="400" 
d="M411 694q-1 -17 -43 -98q-38 -70 -60 -91q-13 -12 -24 -12t-11 6q1 11 25 81t27 80q13 47 73 47q6 0 9.5 -1t4 -2t0 -5t-0.5 -5zM281 694q-1 -9 -41 -100l-19 -40t-17 -25.5t-24 -20.5q-2 -1 -6 -3.5t-8 -4t-7 -1.5q-7 0 -6 7q0 2 9.5 34l20 69.5t12.5 50.5q9 47 73 47
q6 0 9.5 -1t4 -2t0 -5t-0.5 -5z" />
    <glyph glyph-name="numbersign" unicode="#" horiz-adv-x="600" 
d="M607 676q0 -4 -7.5 -22t-23 -52.5l-23.5 -53.5q-24 -60 -34 -88l49 2q20 1 20 -8q-2 -10 -21 -22q-27 -18 -65 -19q-7 -22 -52 -149l65 3q19 1 19 -11t-20 -21q-23 -11 -47 -14t-35 -3l-15 -46.5t-21 -67.5q-4 -15 -9 -40q-8 -33 -16 -53q-7 -17 -31 -37t-44 -20
q-21 0 -21 14q0 15 14 53l21 59l24 74t19 61q-34 -2 -57 -2l-73.5 -2t-47.5 -1q-12 -36 -27 -86q-5 -20 -9 -40q-6 -28 -8 -33q-9 -20 -37.5 -48.5t-46.5 -28.5q-21 0 -21 14q0 9 15 53l26 80t29 87q-11 0 -36 -0.5t-32 -0.5q-18 0 -18 11q1 22 23 32q12 6 54 8h10.5h8h6.5
q8 24 26.5 73.5t25.5 71.5q-15 1 -47.5 0t-35.5 -1q-17 0 -17 11q0 24 22 32q18 6 55 8h42q24 69 57 153q28 69 31 72q15 18 50 25q16 2 31 2q6 0 6 -9l-54 -128q-11 -27 -42 -113q34 0 72.5 0.5t61.5 1t44 0.5q31 86 48 129q25 63 31 72q13 20 51 25q16 2 26 2q11 0 11 -9z
M423 410q-35 0 -100.5 -2.5t-79.5 -2.5l-49 -140l-3 -6q64 1 178 3q16 47 30 82q4 10 12 32.5z" />
    <glyph glyph-name="dollar" unicode="$" horiz-adv-x="497" 
d="M533 643q0 -27 -14 -51q-22 -34 -43 -34q2 29 -16.5 54.5t-48.5 33.5l-90 -253q77 -68 103.5 -107.5t23.5 -85.5q-6 -83 -82.5 -153t-198.5 -70q-11 -23 -26.5 -45t-23.5 -22q-9 0 -15.5 3.5t-5.5 10.5q0 12 3.5 25.5t6.5 20.5l4 8q-46 5 -83 31.5t-35 59.5q3 53 68 69
q10 -82 69 -104l112 316q-52 50 -69 84.5t-15 71.5q6 74 61.5 121.5t146.5 61.5q20 43 41 52q11 4 28 4q9 0 9 -11l-15 -43q38 -1 71.5 -18t33.5 -30zM351 651q-51 -5 -83 -33t-35 -72q-2 -28 5.5 -48t35.5 -55l39 104.5l25.5 67.5t12.5 36zM373 170q4 51 -85 135l-104 -283
q177 -16 189 148z" />
    <glyph glyph-name="percent" unicode="%" horiz-adv-x="675" 
d="M386 601q-5 -68 -65.5 -127t-140.5 -59q-46 0 -67 25t-19 62q6 72 95 140q39 30 84 41q21 10 54 10q30 0 46 -25t13 -67zM614 721q0 -11 -6.5 -22.5t-19.5 -30.5t-21 -32q-64 -107 -203.5 -311t-159.5 -235q-19 -29 -39 -54q-15 -18 -33.5 -28t-29.5 -10q-6 0 -6 6
q1 7 49 74l187 275t208 314q24 39 60 54q15 6 14 0zM602 197q-5 -69 -61.5 -128t-136.5 -59q-46 0 -67 25t-19 62q5 85 93 155q56 45 130 45q29 0 46.5 -28.5t14.5 -71.5zM319 576q2 31 -7 49q-9 19 -25 19q-1 0 -9.5 0.5t-13.5 0.5q-36 0 -60 -25.5t-31 -48.5t-8 -39
q-3 -30 9.5 -55t38.5 -25q17 0 32 5t31.5 17t28 38t14.5 64zM535 172q5 84 -40 84q-97 0 -106 -129q-3 -31 9 -55.5t38 -24.5q33 0 64 33.5t35 91.5z" />
    <glyph glyph-name="ampersand" unicode="&#x26;" horiz-adv-x="719" 
d="M722 354q-1 -18 -13 -27.5t-38 -14.5q-21 -4 -75 -7q-19 -32 -69 -90t-108 -110q47 -65 121 -65q18 0 34 2t29.5 6.5l23.5 8t21 11l15.5 10.5t14 10.5t10.5 8.5q5 4 15 4q3 0 3 -4q0 -9 -8 -17q-27 -23 -45.5 -37t-65 -31.5t-98.5 -17.5q-35 0 -66.5 15t-45.5 28t-19 22
q-1 -1 -11 -7.5l-21 -13.5t-29 -16t-36 -16t-41.5 -11.5t-46.5 -4.5q-62 0 -102 32t-40 97q0 36 19.5 70.5t50 60.5t59 45t56.5 34t32 18q-2 42 -2 79q0 60 43 128t103 112t109 44q46 0 62.5 -19.5t13.5 -54.5q-3 -36 -35 -80.5t-80.5 -86t-80 -65.5t-60.5 -43
q9 -58 35.5 -129t48.5 -103q50 48 80.5 91.5t36.5 63.5l5 19q-15 0 -27.5 -1t-19.5 -1q-3 0 -9 -0.5t-8 -0.5t-5 1t-3.5 4t-0.5 8q2 36 88 38l70 2q15 0 36.5 1t36.5 2t18 1q19 -2 19 -3zM501 612q4 56 -37 56q-68 0 -109.5 -66.5t-41.5 -155.5l3 -58q40 28 63.5 46.5t55 48
t48 62t18.5 67.5zM340 82q-37 61 -53 106.5t-36 128.5q-5 -3 -31.5 -17.5t-41 -25t-35 -30t-30.5 -45.5t-10 -57q0 -54 25.5 -83.5t71.5 -29.5q69 0 140 53z" />
    <glyph glyph-name="quotesingle" unicode="'" horiz-adv-x="258" 
d="M202 694q-1 -9 -41 -100l-19 -40t-17 -25.5t-24 -20.5q-2 -1 -6 -3.5t-8 -4t-7 -1.5q-7 0 -6 7q0 2 9.5 34l20 69.5t12.5 50.5q9 47 73 47q6 0 9.5 -1t4 -2t0 -5t-0.5 -5z" />
    <glyph glyph-name="parenleft" unicode="(" horiz-adv-x="314" 
d="M418 725q-43 -33 -73.5 -60.5t-73.5 -79t-71 -106.5t-51.5 -138t-30.5 -179q-9 -129 32 -204q-6 -29 -20 -42q-2 -2 -4.5 -6.5t-6.5 -6t-14 -1.5q-26 0 -47.5 61t-15.5 142q17 232 128 404.5t241 228.5z" />
    <glyph glyph-name="parenright" unicode=")" horiz-adv-x="339" 
d="M-90 -85q43 33 73.5 60.5t73.5 79t71 106.5t51.5 138t30.5 179q9 129 -32 204q6 29 20 42q2 2 4.5 6.5t6.5 6t14 1.5q26 0 47.5 -61t15.5 -142q-17 -232 -128 -404.5t-241 -228.5z" />
    <glyph glyph-name="asterisk" unicode="*" horiz-adv-x="369" 
d="M406 690q0 -14 -16 -36.5t-34 -39.5q-50 -46 -88 -69q22 -15 55.5 -32.5t39.5 -23.5q-5 -17 -19 -33.5t-27 -16.5q-20 0 -81 38q-3 -13 -16 -49q-7 -18 -13 -23.5t-17 -5.5q-18 0 -26 8q4 18 8.5 33.5l9 32.5t7.5 27q-73 -40 -94 -40q-14 0 -14 12q0 4 10 9.5t35 18
l47 24.5q-77 66 -74 98q1 15 16.5 33.5t31.5 18.5q11 0 23 -24q12 -28 43 -58q23 94 37 115q5 7 31 14q16 4 24 4t5 -13q-24 -77 -43 -130q44 32 98 89q1 1 6.5 8t9 11t9 7.5t9.5 3.5q7 0 7 -11z" />
    <glyph glyph-name="plus" unicode="+" horiz-adv-x="450" 
d="M462 348q-2 -26 -54 -36q-23 -3 -125 -5q-8 -21 -24 -70.5t-17 -53.5q-11 -33 -27.5 -49t-45.5 -16q-22 0 -22 14q0 8 7 25l19.5 47.5l19.5 48.5l18 53l-118 -1q-4 0 -11.5 -0.5t-12 -1t-9.5 0.5t-7.5 3.5t-2.5 7.5q1 18 15 27.5t27 11t35 1.5q50 0 100 -1l31 95
q29 86 61 100q13 6 39 6q8 0 8 -15q0 -6 -4 -17t-16.5 -41.5t-23.5 -61.5q-16 -42 -23 -65h23q14 0 43.5 1t52 2t25.5 1q21 0 19 -11z" />
    <glyph glyph-name="comma" unicode="," horiz-adv-x="233" 
d="M142 18q-5 -63 -43 -122t-75.5 -88.5t-53.5 -29.5q-5 0 -6 1t-0.5 3t0.5 4q0 5 12.5 14t30.5 24t29 31q24 35 28 88q2 20 -5 45.5t-6 44.5q1 18 26 38q26 21 39 21q15 0 21.5 -15.5t2.5 -58.5z" />
    <glyph glyph-name="hyphen" unicode="-" horiz-adv-x="324" 
d="M291 284l-16 -51h-241l18 51h239z" />
    <glyph glyph-name="hyphen" unicode="&#xad;" horiz-adv-x="324" 
d="M291 284l-16 -51h-241l18 51h239z" />
    <glyph glyph-name="period" unicode="." horiz-adv-x="245" 
d="M173 68q0 -33 -16 -59t-51 -26q-34 0 -34 29q0 81 71 81q30 0 30 -25z" />
    <glyph glyph-name="slash" unicode="/" horiz-adv-x="355" 
d="M448 768l-371 -830q-6 -15 -20 -28t-23 -14q-6 0 -7.5 1.5t-1.5 9.5q0 23 182.5 428t204.5 434q16 8 29 8q9 0 7 -9z" />
    <glyph glyph-name="zero" unicode="0" 
d="M557 559q0 -149 -139 -363t-287 -214q-64 0 -86 41.5t-22 120.5q0 84 70.5 226t174.5 236q79 73 138 82q36 16 74 16q77 0 77 -145zM474 532q0 110 -56 110q-64 0 -118 -47t-114 -149q-31 -53 -55.5 -143.5t-24.5 -139.5q0 -64 18.5 -95t62.5 -31q36 0 85.5 34t86.5 92
q44 70 79.5 182t35.5 187z" />
    <glyph glyph-name="one" unicode="1" 
d="M457 696q0 -1 -9 -22l-23 -53t-22 -53q-67 -165 -100 -265q-37 -110 -56 -179q0 -1 -4 -18.5t-8.5 -34.5t-6.5 -24q-10 -35 -55 -63q-17 -10 -27 -10q-21 0 -21 14q0 5 4 18t13.5 41l17.5 53q37 117 90 264l99 266q2 4 -20.5 -5.5l-49 -21.5t-32.5 -12q-11 0 -11 10
q0 6 13 15t38 22.5t35 19.5q63 36 80 42q18 6 44 6q11 0 11 -10z" />
    <glyph glyph-name="two" unicode="2" horiz-adv-x="644" 
d="M577 588q0 -72 -49.5 -138.5t-139.5 -143.5q-103 -88 -184.5 -166.5t-81.5 -87.5q139 25 192 30q26 2 116 2q25 0 46 -8t20 -25q-1 -14 -14 -28t-31 -22q-41 19 -139 19q-26 0 -73 -6t-81 -12l-33 -6q-48 -6 -53 -6q-24 0 -24 19q0 8 28.5 40.5t82.5 85.5t116 106
q92 78 131 124q83 99 90 197q4 58 -24 85t-71 27q-65 0 -111 -30.5t-48 -83.5q-1 -22 -28 -22q-12 0 -15 5.5t-3 22.5q0 49 79 93.5t154 44.5q148 0 148 -116z" />
    <glyph glyph-name="three" unicode="3" 
d="M571 658q0 -9 -76.5 -82.5l-131.5 -123.5q56 -13 80 -49.5t19 -104.5q-5 -71 -64 -138.5t-120 -102.5q-105 -61 -219 -61q-30 0 -53 8t-23 22q0 22 17.5 35.5t31.5 12.5l5 -9q5 -9 9 -12l12.5 -9.5t22.5 -9t32 -2.5q106 0 186.5 78t80.5 186q0 44 -12.5 63t-36.5 32
q-6 4 -19 6.5t-22 4.5t-9 6q0 7 9 16t25 21t19 15q108 95 154 154q-9 -1 -42 -2l-85.5 -2.5t-98.5 -4.5q-4 0 -12.5 -1t-14 -1.5t-11.5 0t-9 3t-3 6.5q2 27 39.5 44t72.5 17h101q15 0 43.5 1t51.5 2t25 1q14 0 20 -3.5t6 -15.5z" />
    <glyph glyph-name="four" unicode="4" 
d="M517 617q0 -1 -5.5 -12.5l-16 -33.5t-19.5 -44q-60 -145 -86 -213q38 0 38 -19q0 -12 -9.5 -23t-16.5 -11l-31 2q-5 -15 -22 -57.5t-24 -65.5q-15 -42 -23 -82q-4 -29 -12 -40q-6 -10 -31 -24q-20 -11 -30 -11q-18 0 -18 15q1 11 37 110l57 153q-41 -2 -107 -11
q-21 -3 -55 -8.5l-56 -9t-32 -3.5q-9 0 -14.5 3t-4.5 12t34 45q86 92 154 184q44 60 79 125t43 99q20 22 47 22q5 0 12 -4q-16 -49 -109 -186q-28 -42 -75 -103l-79 -101l-33 -40q81 13 112 16l106 11q103 272 114 285q13 16 33 24q12 5 37 5q7 0 6 -9z" />
    <glyph glyph-name="five" unicode="5" 
d="M593 679q-2 -16 -32 -42q-22 -19 -36 -19q-4 0 -12.5 5t-18.5 5q-4 0 -34 2.5t-48 2.5l-118 -6l-65 -192q23 4 81 4q13 0 28.5 -3t36.5 -12.5t37.5 -24.5t28 -42.5t11.5 -62.5q0 -56 -31 -108.5t-79.5 -90t-101.5 -64t-103 -37.5q-45 -10 -93 -10q-79 0 -76 30
q1 15 16 26.5t27 15.5q24 -40 92 -40q55 0 115.5 33t104.5 94t44 129q0 114 -110 114q-18 0 -42 -6l-35 -16q-18 0 -18 10q0 6 4 16t5 12l88 246q-2 21 17 28q13 6 31 7q67 6 164 7h103q19 0 19 -11z" />
    <glyph glyph-name="six" unicode="6" horiz-adv-x="547" 
d="M620 692q0 -4 -3.5 -7t-6.5 -4l-3 -1q-16 -1 -62.5 -13t-120.5 -46t-122 -78q-185 -172 -185 -345q0 -26 4 -51t14.5 -52t32 -43t51.5 -16q72 0 128.5 59t63.5 163q2 36 -7 62.5t-25.5 40t-33.5 19.5t-34 6q-73 0 -140 -53l-2 17q42 44 97 65t97 21q54 0 90 -31.5
t36 -100.5q0 -85 -55 -162t-129.5 -118.5t-139.5 -41.5q-66 0 -98 46.5t-32 124.5q0 106 54.5 204.5t139.5 168.5t184 117.5t192 62.5q1 -1 4.5 0t7 -2.5t3.5 -11.5z" />
    <glyph glyph-name="seven" unicode="7" 
d="M541 668q0 -48 -41 -104q-24 -32 -91.5 -106.5l-88.5 -98.5q-124 -147 -155 -214q-18 -41 -18 -71q0 -20 6 -26q8 -6 8 -12q0 -10 -25 -29q-23 -17 -35 -17q-26 0 -26 30q0 46 67 146q60 93 164 214q152 179 165 236q-16 -3 -132 -6q-47 -2 -86.5 -4.5t-60.5 -2.5
q-16 0 -16 9q0 18 41 43q29 18 71 18h101l120 4q5 0 11 0.5t9 0.5q12 0 12 -10z" />
    <glyph glyph-name="eight" unicode="8" horiz-adv-x="547" 
d="M574 594q0 -119 -203 -214q2 -2 14.5 -12.5t19 -17l18.5 -18.5t19.5 -23t15 -24.5t11.5 -28.5t4 -30q0 -61 -27.5 -111t-70.5 -80t-92.5 -46.5t-97.5 -16.5q-74 0 -120 38.5t-46 113.5q0 76 72.5 139t175.5 104q-1 1 -9.5 8.5t-12 11l-12 12t-13 15t-12 16t-11.5 19
l-8.5 20.5t-6.5 23t-2 24q0 60 39.5 103t91 60t106.5 17q157 0 157 -102zM503 574q0 40 -24 65t-70 25q-69 0 -113 -30.5t-44 -79.5q0 -34 11.5 -62t20 -38.5t34.5 -32t28 -23.5q157 74 157 176zM406 184q0 77 -115 163q-3 -2 -32 -15.5t-43 -21.5t-40 -26.5t-39.5 -35.5
t-25 -43.5t-11.5 -56.5q0 -35 10.5 -61t25 -39.5t34.5 -21.5t34.5 -10t29.5 -2q71 0 121.5 46t50.5 124z" />
    <glyph glyph-name="nine" unicode="9" horiz-adv-x="547" 
d="M591 553q0 -121 -70 -229q-182 -283 -503 -335q-1 1 -4.5 0t-7 2.5t-3.5 11.5q0 4 3.5 7t6.5 4l3 1q18 1 61.5 12t120 48.5t131.5 89.5q117 114 155 218q-48 -51 -112 -77.5t-105 -26.5q-56 0 -91 34t-35 98q0 80 53 148.5t125.5 104t140.5 35.5q70 0 100.5 -40.5
t30.5 -105.5zM511 534q0 65 -22 97t-79 32q-27 0 -59.5 -14.5t-62.5 -40.5t-50 -68.5t-20 -92.5q0 -118 100 -118q35 0 83.5 22.5t95.5 73.5q14 61 14 109z" />
    <glyph glyph-name="colon" unicode=":" horiz-adv-x="233" 
d="M153 68q0 25 -30 25q-71 0 -71 -81q0 -29 34 -29q35 0 51 26t16 59zM227 410q0 25 -30 25q-71 0 -71 -81q0 -29 34 -29q35 0 51 26t16 59z" />
    <glyph glyph-name="semicolon" unicode=";" horiz-adv-x="233" 
d="M142 18q-5 -63 -43 -122t-75.5 -88.5t-53.5 -29.5q-5 0 -6 1t-0.5 3t0.5 4q0 5 12.5 14t30.5 24t29 31q24 35 28 88q2 20 -5 45.5t-6 44.5q1 18 26 38q26 21 39 21q15 0 21.5 -15.5t2.5 -58.5zM227 410q0 -33 -16 -59t-51 -26q-34 0 -34 29q0 81 71 81q30 0 30 -25z" />
    <glyph glyph-name="less" unicode="&#x3c;" horiz-adv-x="513" 
d="M463 579q0 -4 -3.5 -8.5t-7.5 -7.5t-12 -8.5l-11 -7.5l-309 -227q169 -135 274 -198q-3 -5 -7 -14.5t-7 -15t-8.5 -10t-13.5 -4.5t-85.5 57.5l-150.5 114.5l-73 58l385 279q10 7 19 7q10 0 10 -15z" />
    <glyph glyph-name="equal" unicode="=" horiz-adv-x="450" 
d="M413 348q0 -27 -54 -36q-27 -4 -97 -5q-16 0 -69.5 -0.5t-78.5 -1.5q-12 -1 -26 -1q-17 0 -17 11q2 25 22 32q20 8 55 8h155l91 4q19 1 19 -11zM392 208q0 -8 -21 -19q-20 -10 -62 -18q-24 -4 -75 -4q-80 0 -107 -2q-12 -1 -26 -1q-18 0 -18 11q0 23 23 32q20 8 54 8h121
l91 4q20 2 20 -11z" />
    <glyph glyph-name="greater" unicode="&#x3e;" horiz-adv-x="491" 
d="M49 93q0 4 3.5 8.5t7.5 7.5t12 8.5l11 7.5l309 227q-169 135 -274 198q3 5 7 14.5t7 15t8.5 10t13.5 4.5t85.5 -57.5l150.5 -114.5l73 -58l-385 -279q-10 -7 -19 -7q-10 0 -10 15z" />
    <glyph glyph-name="question" unicode="?" horiz-adv-x="473" 
d="M483 588q-2 -31 -17 -63t-47.5 -69.5t-53.5 -59l-66 -64.5q-96 -92 -99 -135q-1 -11 -22.5 -25.5t-34.5 -14.5q-8 0 -6 11q3 22 23.5 49t92.5 105q8 9 30 32l33 34.5t28.5 34t26.5 40t16.5 42t9.5 49.5q8 117 -65 117q-66 0 -111.5 -36.5t-50.5 -108.5q-1 -6 -2 -10
t-5 -5.5t-5 -2.5t-7 0h-6q-12 0 -15.5 6t-2.5 22q4 49 72.5 107t160.5 58q26 0 45 -3t40 -13.5t31 -35t7 -61.5zM169 67q0 -33 -16 -59t-51 -26q-34 0 -34 29q0 81 71 81q30 0 30 -25z" />
    <glyph glyph-name="at" unicode="@" horiz-adv-x="888" 
d="M912 475q0 -133 -77.5 -241t-193.5 -166q-48 -24 -88 -24t-40 69q0 23 21 96q-123 -159 -193 -161q-28 -1 -41 21.5t-11 56.5q6 108 110 211q93 92 183 105q8 0 31 4q6 1 13.5 2t12 1.5t6.5 0.5q23 0 23 -10q0 -9 -9 -16t-23 -7q-5 0 -24.5 2t-25.5 2q-20 0 -40 -9
q-31 -15 -71.5 -55.5t-69.5 -92.5q-31 -54 -36 -116q-3 -49 19 -49q31 0 104 90q43 55 63 92q34 86 42 95q22 26 62 30q6 0 7 -7q0 -3 -7.5 -22.5l-19 -49t-17.5 -49.5q-40 -130 -41 -161q-2 -31 22 -31q36 0 81.5 32t85.5 82.5t67.5 120.5t27.5 138q0 119 -60.5 187
t-177.5 68q-95 0 -186.5 -41t-166 -114.5t-120 -188.5t-45.5 -251q0 -142 81.5 -223t207.5 -81q108 0 213 64.5t167 148.5q8 11 19 13q10 0 10 -14q0 -7 -10 -19q-51 -57 -89 -92t-88.5 -66.5t-111 -45t-137.5 -13.5q-137 0 -228 94.5t-91 261.5q0 130 51.5 243t134 186
t182.5 114.5t199 41.5q293 0 293 -257z" />
    <glyph glyph-name="A" unicode="A" horiz-adv-x="590" 
d="M644 678q0 -5 -57 -181q-37 -110 -68 -214q5 0 34 -1t42 -2q-15 -31 -86 -37l-40 -147q-19 -72 -60 -72q-14 0 -29 23t-33.5 56.5t-31.5 48.5q-46 50 -106 58q-149 -231 -168 -234q-15 2 -17.5 4.5t-2.5 17.5q0 13 21 51.5t57.5 96.5t43.5 70q-7 0 -24.5 -2t-33.5 -2
q-24 0 -31 6.5t-7 23.5q0 40 74 42h69q80 103 197.5 218t219.5 188q7 4 19 4q18 0 18 -16zM547 615q-40 -33 -119.5 -123t-167.5 -213q27 1 90.5 0t90.5 1l75 231q31 94 31 104zM464 555l-2 1q-137 -121 -248 -274h7zM432 235q-98 0 -113 1q64 -39 90 -80q7 17 23 79z" />
    <glyph glyph-name="B" unicode="B" horiz-adv-x="581" 
d="M589 604q0 -29 -29.5 -62.5t-65 -58t-65 -47.5t-29.5 -32q0 -15 27.5 -41t60.5 -51.5t60.5 -63.5t27.5 -74q0 -85 -81 -134.5t-195 -49.5q-87 0 -150 42q-30 -40 -65 -40q-14 0 -14 10q0 12 20 68q-13 24 -13 40q0 38 39 33q87 278 156 433q20 30 41 44.5t32 13.5h12
q-34 -82 -111 -308l-77 -242q17 -24 62 -46t83 -22q92 0 140.5 28.5t48.5 97.5q0 26 -7 48t-22.5 40.5t-26.5 29.5t-32 27t-26 21q-4 4 -12.5 11t-12 10.5t-10 9t-9 9t-5.5 8.5t-4 10t-1 10q0 13 8.5 25t15.5 18t24 16t18 11q56 38 84 68t28 68q0 88 -102 88
q-147 0 -258 -112q-10 -10 -16 -23t-7.5 -22t-6 -15t-14.5 -6t-14 0.5t-9 5.5t-5 16q0 33 55.5 77t144.5 77t170 33q137 0 137 -97z" />
    <glyph glyph-name="C" unicode="C" horiz-adv-x="477" 
d="M537 650q0 -40 -36 -77q-11 -13 -33.5 -27.5t-38.5 -14.5q-6 0 -6 7q35 30 35 80q0 28 -42 28q-61 0 -128.5 -59.5t-115.5 -162t-48 -211.5q0 -179 131 -179q43 0 89 17t75.5 37.5l53.5 37.5t29 17q8 0 5 -15q-1 -7 -27.5 -28t-78 -51t-106.5 -50q-54 -19 -107 -19
q-62 0 -100 40.5t-38 115.5q0 106 45 215q85 209 249 309q69 42 125 42q68 0 68 -52z" />
    <glyph glyph-name="D" unicode="D" horiz-adv-x="792" 
d="M798 262q0 -62 -53.5 -129.5t-121.5 -100.5q-51 -25 -108.5 -37t-95 -14t-110.5 -2q-26 0 -44 -0.5t-26 -0.5h-11q-31 0 -31 10q0 3 8 16.5l23.5 40.5t27.5 55q167 375 236 500q-103 62 -218 62q-80 0 -118 -38q-35 -36 -35 -85q0 -9 7.5 -26.5t7.5 -24.5
q0 -13 -12 -27.5t-23 -14.5q-27 0 -27 37q0 99 72 161q30 26 79.5 43.5t81.5 17.5q131 0 218 -47q1 2 14.5 23l22 33.5t21.5 30t23 26.5t17 9q16 0 16 -9t-34 -62l-18 -26.5l-18.5 -28l-9.5 -14.5q239 -154 239 -378zM724 236q0 103 -55 193t-146 149q-46 -77 -129 -261
t-109 -265q29 -3 102 -3q7 0 41 -1t58 -0.5t57.5 3t61 10t46.5 19.5q37 24 55 69.5t18 86.5z" />
    <glyph glyph-name="E" unicode="E" horiz-adv-x="546" 
d="M614 670q0 -29 -20.5 -49t-47.5 -28l-6 3q14 16 14 43q0 20 -22.5 33.5t-63.5 13.5q-84 0 -134.5 -47.5t-50.5 -106.5q0 -38 21.5 -64.5t47 -36.5l47 -19t21.5 -16q0 -12 -11.5 -22t-28.5 -13q-94 0 -168 -55t-74 -150q0 -65 35.5 -104.5t109.5 -39.5q145 0 301 122
l11 -14q-30 -25 -77.5 -54.5t-130.5 -60t-156 -30.5q-89 0 -136 37.5t-47 104.5q0 44 23 87t57 73.5t71.5 54.5t66.5 36.5t43 13.5q-96 43 -96 116q0 90 97.5 157t219.5 67q35 0 59.5 -13t24.5 -39z" />
    <glyph glyph-name="F" unicode="F" horiz-adv-x="518" 
d="M626 663q0 -30 -36.5 -54.5t-71.5 -32.5l-3 7q35 20 35 46t-78 26q-38 0 -107 -13l-73 -266q66 -2 109 1q27 2 57 6.5t35 4.5q6 0 6 -3q0 -30 -133 -50q-42 -7 -92 -7q-56 -160 -109.5 -258t-87.5 -98q-42 0 -42 99l7 1q16 -20 41 -20q60 0 125 271q-9 -1 -20 -3
q-4 0 -14.5 -3t-13.5 -3q-6 0 -6 6q0 10 11 23.5t22 19.5q14 9 35 10q60 200 72 253q-147 -33 -221 -85q-3 -3 -7.5 -6.5t-6.5 -6t-6 -4t-8 -1.5q-18 0 -18 17q0 15 89 53t217 72t216 34q77 0 77 -36z" />
    <glyph glyph-name="G" unicode="G" horiz-adv-x="525" 
d="M594 309q-5 -18 -27.5 -32.5t-57.5 -16.5h-55q0 -22 -11.5 -55.5t-35 -72.5t-54 -73t-74.5 -56.5t-91 -22.5q-144 0 -144 174q0 84 42 182.5t106 178.5t145.5 133.5t153.5 53.5q64 0 64 -54q0 -36 -27 -66.5t-44 -30.5q-6 0 -6 7q0 2 2 6.5t4 15t2 25.5q0 41 -48 41
q-74 0 -145 -66.5t-116.5 -166.5t-52.5 -200q-6 -89 17 -143.5t79 -54.5q54 0 95.5 49.5t58.5 104.5t15 91q-18 -4 -37.5 -1t-19.5 22q0 15 11.5 23.5t26.5 8.5q18 0 41.5 -2.5t36.5 -2.5q68 -2 78 -2q23 0 68 3z" />
    <glyph glyph-name="H" unicode="H" horiz-adv-x="569" 
d="M621 132q-79 -75 -125 -104q-68 -44 -108 -44q-56 0 -56 72q0 47 28 157t50 179q-14 -10 -37.5 -24t-78.5 -38t-89 -24l-44 5l-23.5 -83l-37 -127.5t-25.5 -71.5q-22 -37 -52 -37q-18 0 -23 7.5t-5 25.5q0 10 21 75t35 102l51 131q-12 14 -12 41q0 18 14.5 34t31.5 15
q63 195 80 219q15 21 29.5 30.5t18 9.5h15.5q8 0 8 -14t-33 -102l-64 -168q1 -3 3.5 -8t19.5 -13.5t45 -8.5q50 0 102 27.5t62 44.5q5 14 14.5 48t13.5 47q34 105 72 130q27 18 41 18q9 0 9 -13v-3q0 -7 -9 -32.5t-30.5 -81.5t-36.5 -99q-89 -254 -89 -377q0 -43 31 -43
q24 0 55 17.5t53.5 37t64.5 59.5z" />
    <glyph glyph-name="I" unicode="I" horiz-adv-x="328" 
d="M358 696q0 -2 -4.5 -11t-18.5 -40.5t-31 -76.5q-56 -146 -110 -303q-42 -125 -46 -141q-23 -87 -26 -93q-7 -14 -32 -35.5t-43 -21.5q-21 0 -21 14q0 8 7 29.5l16.5 49.5t11.5 33l34.5 102.5l55.5 161.5q78 214 89 242q28 68 31 72q18 19 50 25q8 2 31 2q6 0 6 -9z" />
    <glyph glyph-name="J" unicode="J" horiz-adv-x="328" 
d="M362 696q0 -2 -8.5 -19.5t-33 -76t-54.5 -140.5l-51 -144q-41 -114 -68 -175t-65 -111q-24 -32 -67.5 -64t-71.5 -32q-4 0 -5 1t-2 5v3q0 1 8.5 6.5l20 13.5t17.5 14q25 27 37 47t29 63q31 76 103 277l85 234q4 10 7.5 20.5t6 16.5t3.5 9q10 22 18 33.5t13.5 14.5t19.5 8
q18 5 52 5q6 0 6 -9z" />
    <glyph glyph-name="K" unicode="K" horiz-adv-x="612" 
d="M651 662q0 -30 -30 -62.5t-67 -50.5l-4 6q24 26 24 48q0 18 -20 18q-47 0 -110 -62l-136 -142q11 -21 22 -56q26 -85 66 -192q56 -151 114 -151q27 0 50.5 12t59.5 42l7 -21q-93 -92 -179 -92q-34 0 -69 34.5t-63 113.5q-17 48 -44 132t-32 97q-2 -4 -16.5 -23t-30 -46
t-28.5 -60l-36 -107q-3 -8 -7.5 -25t-7.5 -22q-5 -12 -12 -20q-9 -12 -24.5 -22t-28.5 -10q-21 0 -21 18q0 10 69 232l105 335q25 72 38 92q12 16 36 25.5t41 9.5q4 0 4 -13q0 -5 -5.5 -18.5l-13.5 -32l-12 -27.5q-19 -51 -55 -163.5t-48 -155.5l3 -1l40 54q6 37 27 58
q13 13 30 13q82 93 160 170q40 39 87 63t81 24q36 0 36 -22z" />
    <glyph glyph-name="L" unicode="L" horiz-adv-x="386" 
d="M364 21q0 -9 -20 -19q-26 -13 -62 -18q-15 -2 -78 -4q-13 0 -53 -0.5t-62 -1.5q-25 0 -31 -1q-11 -3 -18 -3q-14 0 -14 14t35 112l174 484q21 59 41 79q42 42 80 42q6 0 6 -9q0 -3 -8 -20t-21.5 -48.5l-24.5 -59.5q-57 -149 -110 -303q-29 -81 -73 -237h129q28 0 50 1
t33.5 2.5t14.5 1.5q12 0 12 -12z" />
    <glyph glyph-name="M" unicode="M" horiz-adv-x="819" 
d="M877 136q-68 -51 -127 -86q-111 -66 -146 -66q-34 0 -34 40q0 22 28 116.5t56 178.5l28 84l-4 1q-140 -180 -268 -328q-66 -75 -86 -75q-12 0 -15.5 6t-3.5 20t15.5 74l41.5 153l38 138l16 63l-5 2q-14 -26 -88 -139.5t-108 -157.5q-74 -97 -118 -132.5t-81 -35.5
q-41 0 -41 57q0 34 19 62.5t44 41.5l6 -1q-5 -70 28 -70q43 0 138 122q50 64 120 175.5t100 174.5q27 75 34 86q20 32 48 32h8h7h5.5t5 -0.5t3.5 -2t3 -3t1.5 -4t0.5 -6.5q0 -20 -5.5 -41t-18 -55.5l-18.5 -51.5q-72 -225 -96 -339q-12 -49 -5 -49q8 0 65 65.5t132 164.5
t118 174l12.5 37.5t11.5 33l9.5 24t11 23.5t13.5 20q24 31 60 31q15 0 15 -33q0 -21 -24 -79t-44 -91l-77 -231.5t-49 -163.5q0 -3 -1.5 -13t-1 -14.5t7 -9t20.5 -4.5q42 0 185 98z" />
    <glyph glyph-name="N" unicode="N" horiz-adv-x="571" 
d="M621 696q0 -3 -7.5 -23l-20 -53l-19.5 -52q-49 -138 -97 -303q-11 -37 -24.5 -91l-22 -85.5t-14.5 -41.5q-24 -41 -47 -63q-11 -10 -23 -10q-19 0 -31 45q-17 68 -37 230q-33 267 -40 329q-58 -154 -101 -313l-57 -218q-2 -4 -3.5 -10t-3 -9t-3.5 -7.5t-6.5 -8.5
l-10.5 -9q-21 -14 -37 -14q-7 0 -7 10q0 5 10 35q31 87 174 564q20 69 30 79q6 8 11 12q19 16 42 16q13 0 17 -1q11 -2 13 -18q5 -37 7 -55q12 -120 33 -284q16 -125 40 -233l143 486q23 75 25 77q12 22 44 27q7 1 18 1q5 0 5 -9z" />
    <glyph glyph-name="O" unicode="O" horiz-adv-x="663" 
d="M642 532q0 -176 -110 -335q-149 -215 -330 -215q-70 0 -107 50.5t-37 117.5q0 77 23.5 151t59 128.5t71 92t66.5 56.5q32 63 91.5 96.5t126.5 33.5q75 0 110.5 -52t35.5 -124zM564 512q0 26 -4.5 50t-15.5 50t-35 41.5t-59 15.5q-46 0 -81 -23.5t-49 -51.5q61 39 117 39
q22 0 31 -3t9 -12q0 -8 -7 -8q-4 0 -14 3t-19 3q-30 0 -68.5 -15t-60.5 -38q-1 -5 -0.5 -13.5t-1.5 -13.5q-5 -16 -30 -16q-13 0 -8 20q-33 -36 -55.5 -70.5t-44.5 -107t-22 -160.5q0 -71 28.5 -118t93.5 -47q101 0 192 126q47 65 75.5 165t28.5 184z" />
    <glyph glyph-name="P" unicode="P" horiz-adv-x="643" 
d="M708 582q0 -68 -55.5 -134t-144 -109t-182.5 -49l-18.5 -57l-18 -56t-9.5 -41q-3 -17 -3.5 -30.5t0.5 -27.5t1 -18t-6.5 -19t-11.5 -21q-27 -36 -56 -36q-8 0 -14.5 7.5t-6.5 23.5q0 50 43 175l33 93q-58 2 -58 24q0 32 15 33q6 0 14 -9t14 -12q5 -3 12 -4t12 -1h4
l108 294q17 16 37 22.5t31 5.5l12 -2q-6 -19 -54.5 -141.5t-67.5 -176.5q109 3 201.5 75t92.5 167q0 53 -40 82.5t-119 29.5q-108 0 -216.5 -37.5t-156.5 -92.5q-8 -9 -10.5 -23.5t-5.5 -22.5t-14 -8q-10 0 -14 0.5t-9 5.5t-5 16q0 19 42 52.5t106 67.5t154 59t174 25
q190 0 190 -130z" />
    <glyph glyph-name="Q" unicode="Q" horiz-adv-x="619" 
d="M637 546q-6 -89 -39 -173q-40 -105 -113 -200t-154 -144q9 -12 27 -39.5t29 -42.5q31 -42 61 -67q-13 -20 -50 -20q-36 0 -73 52q-8 11 -17 25t-20 33t-18 29q-48 -17 -91 -17q-75 -1 -110.5 37.5t-30.5 114.5q8 105 81 235.5t183 226.5q98 85 166 85q48 18 85 18
q45 0 67 -41t17 -112zM552 507q5 70 -12.5 101.5t-61.5 31.5q-71 0 -147 -62q-73 -61 -136 -181.5t-71 -233.5q-4 -61 23 -96t76 -33l23 1q-9 15 -22 27q7 14 52 14q19 0 36 -19q114 50 194 256q38 101 46 194z" />
    <glyph glyph-name="R" unicode="R" horiz-adv-x="571" 
d="M582 610q0 -43 -26 -84.5t-63 -73t-74.5 -58t-63.5 -50t-26 -40.5q0 -11 3.5 -24.5t7.5 -23.5t13.5 -28t14.5 -25.5t18.5 -30t17.5 -28.5q37 -61 88 -117q8 -9 17.5 -18.5t13.5 -14t4 -6.5q0 -16 -35 -16q-75 0 -152 124q-89 142 -89 181q0 17 21 36q4 4 47 36t79.5 62.5
t69 77.5t32.5 89q0 93 -143 93q-71 0 -159.5 -29.5t-129.5 -81.5q-7 -9 -11.5 -25.5t-10 -26.5t-16.5 -10h-4q-7 0 -9.5 0.5t-4.5 5t-2 14.5q0 19 33 51t84.5 64t126 55.5t146.5 23.5q182 0 182 -102zM324 634l-171 -502q0 -3 -3.5 -14.5t-5.5 -21.5q-10 -46 -21 -63
t-35.5 -35t-39.5 -18q-21 0 -21 14q0 9 4 22.5t12.5 38.5t11.5 35q11 33 27.5 77.5l59.5 160l102 280.5q17 16 37 22.5t31 5.5z" />
    <glyph glyph-name="S" unicode="S" horiz-adv-x="497" 
d="M540 666q9 -25 -11 -53q-21 -27 -45 -33q0 41 -28 66q-30 28 -72 28q-58 0 -103 -34.5t-49 -95.5q-2 -35 15.5 -68.5t40 -54.5l59 -52.5t54.5 -50.5q51 -54 48 -112q-7 -99 -98.5 -164.5t-209.5 -65.5q-53 0 -102 24.5t-47 68.5q2 32 24 53.5t56 22.5q-4 -58 22 -90.5
t97 -32.5q82 0 130 48.5t52 99.5q3 56 -53 105q-68 60 -121 116q-47 51 -42 115q5 81 80.5 144.5t173.5 63.5q49 0 83 -14t46 -34z" />
    <glyph glyph-name="T" unicode="T" horiz-adv-x="474" 
d="M624 655q0 -23 -35.5 -44.5t-72.5 -32.5l-3 7q35 21 35 50q0 22 -78 22q-47 0 -107 -13q-44 -192 -117 -359q-77 -176 -123.5 -247.5t-81.5 -71.5q-42 0 -42 99l7 1q16 -20 41 -20q11 0 16.5 1t21.5 14t30.5 38.5t38 80.5t48.5 134q48 149 90 314q-71 -16 -123 -35
t-72 -32.5l-33 -23t-19 -9.5q-9 0 -12 0.5t-5.5 3.5t-2.5 10q0 15 89 53t214.5 72t208.5 34q87 0 87 -46z" />
    <glyph glyph-name="U" unicode="U" horiz-adv-x="743" 
d="M778 104q-85 -71 -148 -104.5t-94 -33.5q-20 0 -31 10t-13 20.5t-2 27.5q0 68 118 436l-235 -275q-109 -124 -174 -181q-8 -8 -30 -17q-18 -8 -32 -9q-14 0 -21 14q-4 13 -3 35q2 21 37 113l54 135.5l37 92t22.5 58.5l21.5 60l24 71q12 36 12 56q0 9 -1.5 14t-7.5 9.5
t-17 4.5q-28 0 -64 -19.5t-53 -33.5q-1 -1 -14.5 -12t-18 -15.5l-15 -14.5t-18.5 -19.5t-16 -20.5q-11 -16 -16 -42t-11 -41t-23 -15q-22 0 -22 16q0 44 55.5 104.5t108.5 93.5q57 37 98.5 54.5t83.5 17.5q14 0 21.5 -10t8.5 -20t1 -28q0 -64 -105 -326q-68 -173 -70 -203
q-1 -10 6 -11q29 0 128 112q139 159 234 288q46 62 69 100q20 31 54 50q11 6 43 6q8 0 8 -9q0 -3 -2 -6.5t-6.5 -12.5t-8.5 -18q-36 -76 -103 -256q-25 -67 -50.5 -162t-25.5 -138q0 -30 26 -30q57 0 170 100z" />
    <glyph glyph-name="V" unicode="V" horiz-adv-x="546" 
d="M736 681q0 -2 -0.5 -5t-1 -5t-0.5 -3q-9 -48 -53 -130q-102 -187 -222.5 -333.5t-191.5 -202.5q-35 -28 -60 -28q-20 0 -20 43q0 35 91 362q53 194 53 234q0 28 -26 28q-40 0 -99.5 -44t-89.5 -94q-10 -16 -16 -42t-12.5 -39.5t-21.5 -13.5q-22 0 -22 16q0 42 55.5 104
t105.5 94q60 39 96.5 55.5t78.5 16.5q14 0 21.5 -10t8.5 -20t1 -28q0 -33 -34 -164q-11 -45 -38.5 -147.5l-41 -156.5t-13.5 -65q0 -15 12 -15q14 0 63.5 52t119.5 148.5t127 197.5q44 78 47 165q12 15 32.5 28t36.5 13q13 0 14 -11z" />
    <glyph glyph-name="W" unicode="W" horiz-adv-x="952" 
d="M1047 685q0 -2 -0.5 -5t-1 -5t-0.5 -3q-6 -34 -53 -130q-116 -235 -386 -538q-19 -21 -43.5 -36.5t-40.5 -15.5q-17 0 -17 28q0 31 17 109q14 64 43 177.5l51 194.5l22 81l-5 2q-66 -109 -135 -210q-104 -153 -240 -306q-19 -21 -43.5 -36.5t-40.5 -15.5q-17 0 -17 28
q0 31 17 109q10 47 43 166.5l58 216t25 117.5q0 9 -1.5 14t-7.5 9.5t-17 4.5q-41 0 -88.5 -38.5t-68.5 -80.5q-9 -18 -15 -45.5t-12.5 -40t-22.5 -12.5q-22 0 -22 16q0 50 53.5 111t126 102t124.5 41q14 0 21.5 -10t8.5 -20t1 -28q0 -6 -13.5 -64l-34.5 -143.5t-39 -151.5
l-10.5 -39.5l-10.5 -41t-9 -40.5t-5.5 -33t-1 -24.5t6.5 -8.5q18 0 84.5 85t126.5 175l94.5 145t82.5 126q28 22 59 30q14 0 14 -19q0 -20 -6 -46l-33.5 -123l-39 -148.5t-33.5 -140.5q-4 -19 -7 -35t-4.5 -34t1 -28.5t9.5 -10.5q32 0 211 260q47 69 110 216q6 15 16 55.5
t16 57.5q12 15 32.5 28t36.5 13q13 0 14 -11z" />
    <glyph glyph-name="X" unicode="X" horiz-adv-x="505" 
d="M552 117q-1 -1 -21.5 -19t-28.5 -23.5t-29 -22t-35 -24l-34 -18t-39 -14.5t-37 -4q-97 0 -130 267q-67 -85 -106 -159q-11 -21 -23.5 -56t-21 -55.5t-15.5 -20.5q-26 0 -26 31q15 35 66.5 122t115.5 170q-28 194 -34 247q-5 43 -20 52q-3 2 -9.5 2.5t-9.5 3.5t-3 10
q0 28 34 72q16 22 30 22q9 0 13.5 -1.5t12 -13t11.5 -34.5q8 -43 18.5 -146.5t15.5 -138.5q50 71 192 250q60 75 77 75q21 0 21 -22q0 -17 -6 -26t-30 -29.5t-42 -39.5q-38 -39 -102 -114.5t-101 -132.5q23 -153 50 -218t70 -65q36 0 84.5 28t81.5 61z" />
    <glyph glyph-name="Y" unicode="Y" horiz-adv-x="623" 
d="M693 683q0 -15 -8.5 -37t-16 -35t-25 -40.5t-20.5 -32.5q-77 -225 -110 -294q-59 -126 -150 -196.5t-197 -70.5q-88 0 -86 31q0 3 1 7t6 8.5t12 4.5q10 0 24.5 -15.5t34.5 -15.5q83 0 137 39t114 140q14 23 29 56l25.5 57.5t31.5 78.5l33 83l-3 1q-21 -26 -82 -76.5
t-122 -93.5q-50 -34 -95 -34q-12 0 -16.5 9t-4.5 30q0 28 66 181q51 114 51 167q0 9 -1.5 14t-7.5 9.5t-17 4.5q-28 0 -64 -19.5t-53 -33.5q-1 -1 -14.5 -12t-18 -15.5l-15 -14.5t-18.5 -19.5t-16 -20.5q-11 -16 -16 -42t-11 -41t-23 -15q-22 0 -22 16q0 44 55.5 104.5
t108.5 93.5q57 37 98.5 54.5t83.5 17.5q14 0 21.5 -10t8.5 -20t1 -28q0 -33 -50 -171q-52 -142 -52 -153t13 -11q7 0 29 10q43 19 111 85t100 119q17 52 36 92q17 35 31 47q26 22 60 23q13 0 13 -16z" />
    <glyph glyph-name="Z" unicode="Z" horiz-adv-x="531" 
d="M642 667q0 -20 -37 -60l-239 -262q-198 -208 -267 -303q13 2 64 12.5t94.5 17t76.5 6.5q94 0 118 -7q22 -6 22 -18q0 -13 -14 -33t-32 -29q-44 19 -138 19q-56 0 -188 -24q-30 -6 -52 -6q-25 0 -25 19q1 15 57 83q37 44 229 251l92 99l66 71l42.5 45.5t26 30t13.5 16.5
t9 11.5t7 10.5q-77 8 -274 -21q-78 -12 -83 -12q-13 0 -13 12q57 64 164 82q31 6 97 6q124 0 159 -4q25 -3 25 -13z" />
    <glyph glyph-name="bracketleft" unicode="[" horiz-adv-x="388" 
d="M489 710q0 -22 -80 -37q-15 -3 -57 -5l-31 -89q-19 -55 -52 -200q-19 -86 -103 -432q-2 -11 -6 -29t-6.5 -26.5t-5.5 -20t-6 -18.5t-6 -12h17q21 0 56 2l35 2q20 0 20 -11q0 -22 -80 -37q-15 -3 -38 -4.5t-38 -1.5h-16q-3 0 -11 -1t-12.5 -1t-10 1t-8 3.5t-2.5 7.5
q0 8 17 63q4 13 7 24.5l5.5 21.5t3.5 13q29 115 89 384q13 60 33.5 136.5t34.5 122.5l13 47q5 18 15 46q1 3 3.5 8.5t3.5 7.5q20 45 62 45q27 0 29 -3h14q15 0 36.5 1t37 2t17.5 1q20 0 20 -11z" />
    <glyph glyph-name="backslash" unicode="\" horiz-adv-x="369" 
d="M370 -70q0 -18 -22 -18h-4.5h-4t-3 1t-3.5 2.5l-3 4.5t-5 8l-283 816q15 25 38 24q18 -24 145.5 -401.5t144.5 -436.5z" />
    <glyph glyph-name="bracketright" unicode="]" horiz-adv-x="384" 
d="M-43 -200q0 22 80 37q15 3 57 5l31 89q19 55 52 200q19 86 103 432q2 11 6 29t6.5 26.5t5.5 20t6 18.5t6 12h-17q-21 0 -56 -2l-35 -2q-20 0 -20 11q0 22 80 37q15 3 38 4.5t38 1.5h16q3 0 11 1t12.5 1t10 -1t8 -3.5t2.5 -7.5q0 -8 -17 -63q-4 -13 -7 -24.5l-5.5 -21.5
t-3.5 -13q-29 -115 -89 -384q-13 -60 -33.5 -136.5t-34.5 -122.5l-13 -47q-5 -18 -15 -46q-1 -3 -3.5 -8.5t-3.5 -7.5q-20 -45 -62 -45q-27 0 -29 3h-14q-21 0 -56 -2l-35 -2q-20 0 -20 11z" />
    <glyph glyph-name="asciicircum" unicode="^" horiz-adv-x="434" 
d="M402 540q1 -10 -9.5 -22t-19.5 -12q-8 0 -13 5l-135 125l-117 -119q-4 -11 -13 -11q-10 0 -11.5 9t5.5 16l151 154l6 1q111 -95 156 -146z" />
    <glyph glyph-name="underscore" unicode="_" horiz-adv-x="563" 
d="M574 -116h-581v40h581v-40z" />
    <glyph glyph-name="grave" unicode="`" horiz-adv-x="273" 
d="M273 582q0 -9 -11 -20.5t-24 -12.5q-13 5 -70 84q-36 50 -36 61q0 7 14 15.5t28 8.5q3 0 9 -7.5t20.5 -30.5l20.5 -32q8 -12 21 -27.5t20.5 -25.5t7.5 -13z" />
    <glyph glyph-name="a" unicode="a" horiz-adv-x="492" 
d="M526 123q-58 -51 -135.5 -103t-111.5 -52q-15 0 -23 12.5t-8 31.5q0 47 14 98h-4q-45 -55 -95.5 -88t-91.5 -33q-35 0 -48.5 22.5t-13.5 66.5q0 57 32 130t83 122q114 109 236 109q16 0 35 -4.5t37 -18t18 -34.5q0 -14 -4 -23.5t-9.5 -16t-21.5 -21.5q-5 -12 -18.5 -40
t-22.5 -51q-54 -145 -54 -163q0 -35 19 -35q10 0 21.5 3t24.5 9.5t24 13t27.5 18l26 18.5l28 21l26.5 20zM383 372q-3 13 -23.5 22.5t-32.5 9.5q-54 0 -95 -25.5t-84 -90.5q-23 -35 -41 -92t-18 -89q0 -55 39 -55q37 0 80 36t75 106q11 24 24 61.5t18 48.5q9 22 26.5 45.5
t31.5 22.5z" />
    <glyph glyph-name="b" unicode="b" horiz-adv-x="421" 
d="M489 718q0 -35 -51.5 -105.5t-159.5 -162.5l-126 -106q-25 -64 -34 -89h3q36 52 88.5 81t88.5 29q46 0 64.5 -24t18.5 -69q0 -46 -31 -111t-82 -109q34 0 90.5 24.5t91.5 49.5l1 -20q-40 -27 -98 -50.5t-109 -26.5q-66 -61 -133 -61q-25 0 -43 8t-27.5 20t-15 30t-7 32.5
t-1.5 33.5q0 60 50 202q-13 -6 -13 6q0 4 5.5 9t10.5 9l6 3q65 164 121 249q136 200 242 200q18 0 29 -4.5t15 -14t5 -15.5t1 -18zM421 686q0 21 -7 29.5t-25 8.5q-44 0 -104.5 -90.5t-122.5 -251.5q3 3 49.5 41t80.5 72q70 70 99.5 110.5t29.5 80.5zM304 240q0 43 -12 60
t-40 17q-41 0 -81.5 -43t-40.5 -120q0 -59 24 -82t69 -21q12 11 24 27q28 38 42.5 85.5t14.5 76.5zM194 27q-66 -4 -95 58l-3 -1q-1 -33 14.5 -54t36.5 -21q11 0 23 4.5t18 8.5z" />
    <glyph glyph-name="c" unicode="c" horiz-adv-x="373" 
d="M417 117q0 -7 -46.5 -38t-121.5 -62.5t-135 -31.5q-106 0 -106 117q0 55 33.5 124t91.5 128q48 50 107.5 80.5t92.5 30.5q14 0 22 -1.5t15.5 -10.5t7.5 -26q0 -51 -34 -79q-28 -23 -53 -23q-5 0 -8 6l10 22q10 22 10 40q0 21 -21 21q-64 0 -124 -88t-60 -184
q0 -109 73 -109q49 0 107 24q33 14 64 32.5t46.5 29.5t16.5 11h4t4 -1t3.5 -4t0.5 -8z" />
    <glyph glyph-name="d" unicode="d" horiz-adv-x="534" 
d="M582 119q-57 -50 -136 -89.5t-109 -39.5q-23 0 -32.5 13.5t-9.5 46.5q0 26 19 111l-3 1q-45 -60 -110 -118q-61 -55 -110 -63q-33 0 -49 23t-13 62q9 131 122 249q107 112 225 125l35 4q69 185 77 216q5 18 28 34q12 9 26.5 14t22.5 6h8q9 0 9 -10q-25 -60 -41 -104
l-80 -219q-72 -201 -79 -232q-13 -54 -13 -70q0 -11 6 -22.5t19 -11.5q32 0 83.5 28t96.5 63zM394 399h-36q-55 0 -107 -40t-88 -116q-36 -74 -42 -143q-3 -43 18 -52q18 3 24.5 5t26.5 17t48 46q77 82 98 136z" />
    <glyph glyph-name="e" unicode="e" horiz-adv-x="380" 
d="M429 104q-1 -7 -43 -35t-113 -56t-131 -28q-126 0 -126 125q0 46 25 107t74 119q56 67 117 101t103 34q28 0 39.5 -7.5t11.5 -26.5q0 -38 -120 -151l-158 -146q-4 -60 19.5 -85t72.5 -25q29 0 63 9.5t61.5 23t50.5 27.5t36 24l13 9q6 -10 5 -19zM301 392q0 24 -29 24
q-21 0 -49.5 -16.5t-51.5 -45.5q-24 -31 -44 -81.5t-22 -99.5q70 58 120 109q76 78 76 110z" />
    <glyph glyph-name="f" unicode="f" horiz-adv-x="332" 
d="M503 690q-1 -16 -12 -30q-7 -12 -25 -18q-32 34 -68 34q-25 0 -39 -10q-57 -40 -131 -283h48l91 4q18 1 18 -7q-2 -9 -21 -19q-52 -26 -133 -26h-20l-28 -88q-69 -217 -125 -328q-76 -151 -162 -206q-54 -34 -83 -34q-9 0 -9 6q0 7 3 9q4 2 30 16.5t45 29.5
q86 65 197 409l60 186q-30 2 -59 -2l-26 -1q-17 0 -17 11q1 21 20 33q15 8 48 8l50 -1q40 128 77 190q31 53 74 87q62 52 140 52q57 0 57 -22z" />
    <glyph glyph-name="g" unicode="g" horiz-adv-x="469" 
d="M483 382q0 -14 -4 -23.5t-9.5 -16t-21.5 -21.5q-5 -12 -19.5 -41.5t-21.5 -49.5q-120 -332 -157 -398q-47 -84 -94.5 -134.5t-112.5 -84.5q-68 -35 -150 -35q-38 0 -60 8q-20 8 -20 21q1 4 11 4q34 -10 58 -10q72 0 126 31q81 45 154 171q35 59 73.5 149t59.5 158h-4
q-45 -55 -95.5 -88t-91.5 -33q-35 0 -48.5 22.5t-13.5 66.5q0 59 31.5 131t83.5 121q114 109 236 109q16 0 35 -4.5t37 -18t18 -34.5zM416 372q-3 13 -23.5 22.5t-32.5 9.5q-54 0 -95 -25.5t-84 -90.5q-23 -35 -41 -92t-18 -89q0 -55 39 -55q37 0 80 36t75 106
q11 24 24 61.5t18 48.5q9 22 26.5 45.5t31.5 22.5z" />
    <glyph glyph-name="h" unicode="h" horiz-adv-x="436" 
d="M491 123q-12 -12 -118 -79q-104 -67 -137 -67q-13 0 -13 21q0 23 43 166q48 161 49 174v3v4.5t-3 3t-9 1.5q-13 0 -57 -41.5t-89 -95.5q-30 -37 -81 -141q-27 -56 -42 -72.5t-33 -16.5q-13 0 -13 19q0 25 19 66q5 10 10 24l10 29t7 20l115 331l29.5 80.5l30 82.5t19.5 55
q7 20 28 34q12 9 26.5 14t22.5 6h8q9 0 9 -10q-25 -60 -41 -104l-156 -412h3q68 76 128 127t92.5 68.5t48.5 17.5q14 0 12 -19q-1 -25 -53 -193l-15 -48.5l-21.5 -69.5t-9.5 -37v-5q-1 -10 9 -10q30 0 163 86z" />
    <glyph glyph-name="i" unicode="i" horiz-adv-x="303" 
d="M273 591q0 -27 -17.5 -45t-49.5 -18q-33 0 -33 42q0 67 70 68q17 1 23.5 -9.5t6.5 -37.5zM389 164q-108 -80 -156 -110q-124 -76 -178 -76q-40 0 -40 48q0 36 31 131l87 255q8 24 40 36q20 7 39 7q8 0 8 -11q0 -5 -6.5 -24.5t-18.5 -52l-19 -52.5q-9 -29 -33 -97
t-35.5 -105t-11.5 -47q0 -14 0.5 -19.5t5.5 -11t15 -5.5q40 0 131 57.5t139 100.5z" />
    <glyph glyph-name="j" unicode="j" horiz-adv-x="230" 
d="M273 591q0 -27 -17.5 -45t-49.5 -18q-33 0 -33 42q0 67 70 68q17 1 23.5 -9.5t6.5 -37.5zM227 444q0 -6 -6.5 -26t-19.5 -53.5t-18 -49.5l-88 -239q-67 -182 -131 -268q-65 -88 -140 -122q-21 -9 -35 -9q-11 0 -11 8q0 4 5.5 7.5t14.5 6.5t13 5q58 41 97.5 108t91.5 199
q34 86 79 212.5t61 188.5q2 10 13.5 20.5t26.5 15.5q20 7 39 7q8 0 8 -11z" />
    <glyph glyph-name="k" unicode="k" horiz-adv-x="502" 
d="M546 79q-141 -119 -236 -119q-89 0 -120 117q-21 78 -30 138q-22 -31 -31 -51l-35 -85q-18 -45 -27 -53q-8 -7 -26.5 -16t-28.5 -9q-21 0 -21 14q0 7 22 65l40 112q161 443 172 484q3 14 3 20q0 3 -0.5 8t-0.5 8q3 23 58 41q17 6 39 7q12 0 9 -9l-128 -357
q-55 -145 -56 -147l5 -1q60 68 90 94q19 17 58 48t85.5 50t79.5 19q36 0 36 -23q0 -25 -24 -49.5t-81 -60.5l-4 7q33 25 33 62q0 14 -20 14q-46 0 -108 -49q-25 -20 -47 -41t-32 -33l-10 -11q11 1 16 1q14 0 18 -19q22 -114 26 -133q25 -108 93 -108q72 0 174 83z" />
    <glyph glyph-name="l" unicode="l" horiz-adv-x="373" 
d="M521 732q0 -80 -121 -250t-262 -293q-7 -16 -16.5 -52t-9.5 -50q0 -52 36 -52q19 0 41 5t48.5 17.5t45 22t49.5 30l43 28t44.5 31t35.5 25.5l1 -26q-245 -186 -374 -186q-52 0 -52 66q0 77 51 208t102 224l51 92q136 200 242 200q21 0 31.5 -6.5t12 -13.5t1.5 -20z
M455 692q0 20 -4.5 27.5t-22.5 7.5q-25 0 -48.5 -27t-77.5 -116q-17 -28 -42 -85t-44.5 -106.5l-40.5 -103.5l-24 -62q67 55 185.5 215.5t118.5 249.5z" />
    <glyph glyph-name="m" unicode="m" horiz-adv-x="666" 
d="M694 123l-118 -79q-104 -67 -137 -67q-17 0 -17 28q0 14 47 159q47 149 49 174q0 2 1 6.5t0 6t-5 1.5q-15 0 -48 -33q-55 -55 -108 -127q-12 -16 -29.5 -45.5l-30.5 -52.5t-15 -25q-57 -49 -77 -49q-4 0 -4 4q0 12 22 75l63 180q18 52 20 71q0 8 -5 9q-17 0 -82 -67
q-87 -88 -164 -250q-10 -12 -30 -25t-35 -13q-11 0 -11 15q0 12 23 74q33 89 55 167q26 95 37 120q11 27 39.5 45t46.5 18q7 0 7 -11q-1 -11 -21 -73q-10 -33 -27 -79l-28 -76l-12 -30l4 -3q22 36 60 84t70 79q113 108 150 107q16 0 16 -19q0 -13 -12 -52t-34 -101l-21 -62
h3q98 117 166 170.5t98 53.5q12 0 12 -19q0 -20 -53 -193l-15.5 -47.5t-21.5 -69t-9 -38.5q0 -15 9 -15q30 0 163 86z" />
    <glyph glyph-name="n" unicode="n" horiz-adv-x="464" 
d="M536 147q-36 -34 -144 -103q-104 -67 -137 -67q-13 0 -13 21q0 23 43 166q47 152 47 168q0 8 -0.5 11t-2.5 5.5t-7 2.5q-13 0 -57 -41.5t-89 -96.5q-44 -54 -75 -117q-27 -56 -41.5 -72.5t-33.5 -16.5q-13 0 -13 19q0 22 19 66q20 46 21 49l40 138q6 20 16.5 60t11.5 43
q8 29 37 46t49 17q7 0 7 -11q0 -4 -23 -74l-47 -142h3q88 94 162.5 153.5t106.5 59.5q14 0 12 -19q-1 -25 -53 -193l-15 -48.5l-21.5 -69.5t-9.5 -37q0 -15 9 -15q6 0 13.5 2.5t17.5 7t20 10t23 13.5l23 14.5l25 16.5l23.5 16l23 16l20.5 14z" />
    <glyph glyph-name="o" unicode="o" horiz-adv-x="462" 
d="M501 110q-73 -52 -132 -78t-128 -26q-21 0 -33 4q-47 -25 -99 -25q-40 0 -67.5 26.5t-27.5 82.5q0 43 19 106q33 111 76 154q18 18 43 18q13 0 22 -9h3q3 3 9 8q28 25 44 37t47 24.5t65 12.5q89 0 89 -108q0 -75 -53.5 -165t-129.5 -135q4 -4 35 -4q88 0 209 89zM351 304
q0 83 -68 83q-40 0 -71 -26q-25 -21 -48 -69t-28 -115q-5 -119 78 -133q60 30 98.5 109.5t38.5 150.5zM157 28q-66 41 -50 172h-3q-11 -34 -14 -75q-2 -29 4 -50t17 -30t20 -13t16 -4h10z" />
    <glyph glyph-name="p" unicode="p" horiz-adv-x="436" 
d="M444 364q0 -86 -64.5 -184.5t-131.5 -144.5q-71 -49 -120 -49q-35 0 -35 26q0 39 37 87.5t90 90.5q60 48 138 90q5 18 5 54q0 75 -60 75q-51 0 -137 -92q-23 -53 -114 -314q-79 -226 -103 -309q0 -2 -1.5 -15t-2.5 -20q-4 -24 -32 -47q-22 -17 -45 -17q-20 0 -20 26
t22 83l152 406l86 240q34 93 39 98q13 13 32 22.5t25 9.5q9 0 9 -6q0 -19 -34 -107l5 -1q38 38 91 68t87 30q42 0 62 -23t20 -77zM351 246q-22 -8 -59 -31t-64 -50q-72 -72 -72 -117q0 -18 28 -18q33 0 66 33q77 77 101 183z" />
    <glyph glyph-name="q" unicode="q" horiz-adv-x="433" 
d="M471 421q0 -3 -4.5 -15t-12.5 -30.5t-12 -29.5l-161 -432l-46 -124q-29 -78 -30 -106q-1 -4 0 -11.5t1 -12.5q-1 -15 -11 -25q-13 -14 -38 -29t-40 -15q-19 0 -22 14q1 16 64 181l143 375l-3 2q-85 -104 -111 -129q-54 -53 -97 -53q-62 0 -62 85q0 49 31.5 120.5
t83.5 130.5q54 60 124 99.5t129 39.5q47 0 52 -27l13 1q9 0 9 -9zM404 410q-14 18 -24 18q-64 0 -138 -70q-46 -44 -82.5 -120t-41.5 -145q-2 -49 19 -49q26 0 87 67t100 139q9 16 21 52q21 59 30.5 77t28.5 31z" />
    <glyph glyph-name="r" unicode="r" horiz-adv-x="417" 
d="M454 114q-49 -38 -124 -80q-100 -56 -147 -56q-21 0 -21 27q0 40 41 153q30 80 70 172l-3 4q-57 -20 -91 -20q-51 0 -72 43l-8 -6q-13 -10 -19 -10q-7 0 -7 9q0 7 16 21l12 10q-3 22 0 51t20.5 57t48.5 28q32 0 32 -28q0 -21 -10 -47.5t-22 -42.5q2 -38 48 -38
q39 0 74 16q38 18 51 18q12 0 12 -11q0 -18 -26 -83q-22 -55 -51.5 -140.5t-29.5 -95.5q0 -11 3 -15.5t7.5 -5.5t15.5 -1q42 0 171 83z" />
    <glyph glyph-name="s" unicode="s" horiz-adv-x="378" 
d="M404 423q-9 -23 -23 -34.5t-39 -19.5q-5 20 -29.5 29.5t-50.5 9.5q-36 0 -67.5 -18.5t-31.5 -54.5q0 -23 18 -38q16 -13 61.5 -42.5t60.5 -43.5q25 -23 25 -58q0 -40 -45.5 -89.5t-109.5 -71.5q-36 -12 -90 -12q-37 0 -69 17.5t-36 42.5q3 21 32 40q29 18 40 18
q17 -74 88 -74q50 0 84.5 25.5t34.5 63.5q0 35 -30 58q-12 9 -50 34t-55 39q-29 26 -29 60q0 33 34 70.5t111 60.5q36 11 85 11q23 0 43 -6t29 -12z" />
    <glyph glyph-name="t" unicode="t" horiz-adv-x="340" 
d="M427 153q-111 -98 -201.5 -140.5t-145.5 -42.5q-50 0 -50 48q0 37 28 124q15 47 39.5 114.5t43.5 126.5q-41 -3 -54 -3q-18 0 -18 11q0 16 15.5 26t30.5 10h41l37 99q22 58 61 71q13 5 30 5q9 0 9 -9q-21 -42 -30 -66l-38 -100h68q22 0 59 2l37 2q13 0 13 -7
q0 -9 -21 -19q-26 -13 -62 -18l-106 -5q-3 -7 -22 -61.5l-35.5 -101t-31 -94t-14.5 -59.5v-5v-7.5t0.5 -7.5t3 -8.5t5.5 -7t8.5 -5t12.5 -1.5q58 0 148.5 53.5t137.5 103.5z" />
    <glyph glyph-name="u" unicode="u" horiz-adv-x="510" 
d="M549 114q-27 -21 -124 -80q-97 -58 -141 -58q-19 0 -19 22q0 23 43 166l24 80q-118 -124 -242 -223q-35 -27 -54 -27q-20 0 -20 28t32 109l54 137q8 20 17 45l15 41t11 26q14 31 40.5 47t45.5 16q7 0 7 -11q-3 -29 -17 -64l-61 -157q-35 -89 -35 -94q0 -12 8 -12
q20 0 79 54q5 5 19 17.5l18.5 16.5l15.5 14.5l15.5 15l13.5 14t14.5 16l13.5 16t15 19.5l15 21q5 9 14 33.5t19 45t22 32.5q30 30 62 30q16 0 16 -18q0 -34 -50 -104q-10 -23 -37 -109q-46 -153 -46 -160q0 -17 11 -17q23 0 57.5 15t53.5 27l66 42z" />
    <glyph glyph-name="v" unicode="v" horiz-adv-x="414" 
d="M472 439q-1 -18 -32 -76.5t-84 -128.5l-19.5 -26l-18 -24l-16.5 -20.5t-20 -23l-23 -23.5l-30.5 -30t-38.5 -35q-50 -46 -83 -61q-23 -11 -48 -11q-11 0 -11 12q0 6 27 101q46 158 54 189q13 54 17 93q2 18 -6 18t-17 -5t-12 -5q-9 0 -8 10q0 6 35 31q46 32 78 32
q10 0 13 -5.5t3 -22.5q0 -15 -7 -43q-20 -86 -51 -193q-8 -29 -25.5 -84.5l-19.5 -61.5q48 22 113.5 97.5t104.5 158.5q12 25 22 64t11 58q2 2 3.5 4t3 3.5t8 5.5t18.5 10q23 12 47 14q13 0 12 -22z" />
    <glyph glyph-name="w" unicode="w" horiz-adv-x="673" 
d="M712 439q-2 -25 -35.5 -84.5t-80.5 -120.5q-110 -144 -213 -216q-56 -38 -84 -38q-12 0 -12 14q0 5 3.5 16l12 36.5l15.5 46.5q24 79 56 208l-4 1q-129 -203 -206 -275q-31 -29 -50 -38q-18 -9 -45 -9q-11 0 -11 12q1 15 19 80l54 209q17 68 17 91q0 21 -8 21
q-4 0 -15 -5t-14 -5q-9 0 -9 9q0 4 9 12q18 14 53.5 33t51.5 19q19 0 16 -28q-2 -22 -7 -43l-82 -335q84 71 204 267l20.5 37l21.5 40.5t12 21.5q6 9 23 16q18 7 29 7q15 0 15 -19q0 -12 -8 -47q-41 -159 -50 -189l-37 -140q44 29 90 77q115 122 146 254q11 46 11 49
q4 8 30.5 22.5t49.5 14.5q13 0 12 -22z" />
    <glyph glyph-name="x" unicode="x" horiz-adv-x="448" 
d="M489 118q-26 -35 -94.5 -90.5t-119.5 -55.5q-70 0 -113 170q-12 -15 -39.5 -46.5t-43.5 -51.5l-18.5 -24l-19 -24.5l-15.5 -19.5t-14.5 -15t-10.5 -5q-5 0 -7.5 1.5t-2.5 3.5t1 6.5t1 8.5q14 28 160 191q-12 45 -21.5 77.5l-13 44.5t-5.5 21q-8 31 -17.5 45t-9.5 24
q0 16 31 45q18 16 32 16q8 0 12.5 -1t11 -10t10.5 -27l36 -168q69 81 124 138q56 58 70 58q19 0 19 -17q0 -10 -5 -17.5t-12.5 -13l-23.5 -17.5t-30 -25q-84 -76 -134 -138q24 -93 45.5 -130t62.5 -37q23 0 64.5 28.5t80.5 66.5z" />
    <glyph glyph-name="y" unicode="y" horiz-adv-x="465" 
d="M481 441q0 -15 -16 -51q-8 -17 -53 -94q-80 -221 -112 -299q-87 -214 -168 -291q-125 -119 -218 -119q-44 0 -71.5 11.5t-34.5 22.5t-7 20q17 44 23 55q13 -22 40.5 -42t60.5 -20h15h17.5t16.5 1.5t20 4l19.5 8t23.5 12.5t23.5 18.5t27.5 25.5q23 24 56.5 91.5
t57.5 125.5l63.5 159l48.5 124l-3 1q-75 -86 -166 -156.5t-125 -70.5q-16 0 -16 25q0 27 32 107l56.5 149.5t46.5 120.5q11 27 39.5 45t46.5 18q7 0 7 -11q-2 -24 -17 -64q-107 -252 -107 -287q0 -9 9 -10q10 0 37.5 18t45.5 35q88 85 141 171l28 74q18 46 39 65
q28 23 60 23q13 0 13 -16z" />
    <glyph glyph-name="z" unicode="z" horiz-adv-x="379" 
d="M407 441q0 -4 -9 -22q-22 -43 -119 -145q-12 -13 -61.5 -61t-88 -89t-50.5 -64q62 15 146 15q76 0 104 -4q22 -4 22 -24q0 -10 -13.5 -30t-27.5 -30q-18 20 -92 20q-71 0 -168 -15q-18 -3 -33 -3q-21 0 -21 15q0 29 103 137l85 83q82 79 110 110t42 58h-38
q-76 0 -175 -19q-25 -5 -38 -5q-10 0 -10 9q0 6 31 35q28 24 43 29q40 16 134 15l100 -2q24 0 24 -13z" />
    <glyph glyph-name="braceleft" unicode="{" horiz-adv-x="334" 
d="M365 743q0 -6 -14 -9q-17 -4 -33 -18t-24 -30q-12 -19 -35 -153q-23 -147 -50 -184q-25 -45 -90 -57l-1 -4q100 -24 81 -156l-26 -167q-8 -54 2 -89t42 -35l3 1q3 0 4 -0.5t2.5 -2t1.5 -5.5q0 -7 -12 -7q-47 0 -78 27.5t-31 76.5q0 18 18.5 120t19.5 148q1 29 -18.5 51
t-57.5 22q-9 0 -9 7q0 18 13 20q19 2 29 4t25.5 11t27.5 25q11 14 20.5 58t18 101.5t10.5 69.5l4 20.5t4 20t4.5 17.5t6 18.5t7.5 15.5t10 16.5t12.5 15t16.5 15.5q15 12 46.5 26.5t39.5 14.5q10 0 10 -5z" />
    <glyph glyph-name="bar" unicode="|" horiz-adv-x="145" 
d="M289 802l-246 -1019h-43l245 1019h44z" />
    <glyph glyph-name="braceright" unicode="}" horiz-adv-x="334" 
d="M0 -169q0 6 14 9q17 4 33 18t24 30q12 19 35 153q23 147 50 184q25 45 90 57l1 4q-100 24 -81 156l26 167q8 54 -2 89t-42 35l-3 -1q-3 0 -4 0.5t-2.5 2t-1.5 5.5q0 7 12 7q47 0 78 -27.5t31 -76.5q0 -18 -18.5 -120t-19.5 -148q-1 -29 18.5 -51t57.5 -22q9 0 9 -7
q0 -18 -13 -20q-19 -2 -29 -4t-25.5 -11t-27.5 -25q-11 -14 -20.5 -58t-18 -101.5t-10.5 -69.5l-4 -20.5t-4 -20t-4.5 -17.5t-6 -18.5t-7.5 -15.5t-10 -16.5t-12.5 -15t-16.5 -15.5q-15 -12 -46.5 -26.5t-39.5 -14.5q-10 0 -10 5z" />
    <glyph glyph-name="asciitilde" unicode="~" horiz-adv-x="541" 
d="M527 314q-76 -103 -148 -103q-31 0 -100 37t-96 37q-64 0 -121 -68l-10 13q1 1 11.5 13t12.5 15t12.5 13.5t14.5 14t14.5 12t17 12l17.5 9.5t20 8t21 4t24 2q28 0 104.5 -35.5t87.5 -35.5q53 0 105 63z" />
    <glyph glyph-name="currency" unicode="&#xa4;" horiz-adv-x="622" 
d="M575 89l-34 -34l-84 86q-67 -55 -150 -55t-150 55l-84 -86l-33 34l85 84q-55 67 -55 150t55 150l-85 84l33 34l84 -86q67 55 150 55t150 -55l84 86l34 -34l-86 -84q55 -67 55 -150t-55 -150zM496 323q0 80 -55.5 137t-133.5 57t-133.5 -57t-55.5 -137t55.5 -137
t133.5 -57t133.5 57t55.5 137z" />
    <glyph glyph-name="section" unicode="&#xa7;" horiz-adv-x="423" 
d="M433 636q-2 -4 -4 -9t-2.5 -6l-2 -4t-3.5 -4.5t-6 -5.5q-17 -16 -38 -27q10 33 -19.5 68.5t-78.5 35.5q-43 0 -68.5 -19t-25.5 -77q0 -49 18 -77.5t70 -80.5l14 -14l28 -27.5t27 -27t19.5 -23t17.5 -27t8.5 -27t4.5 -34.5q0 -27 -17 -62t-48 -61l-26 -21q-27 -21 -51 -28
q12 -17 16.5 -24t8.5 -20.5t4 -32.5q0 -58 -55.5 -120t-140.5 -62q-49 0 -83 23t-40 66q7 17 18 28q9 9 18.5 16t14.5 9l5 2q-9 -32 21 -64t80 -32q48 0 78.5 23.5t30.5 74.5q0 27 -10.5 49.5t-22 34t-34.5 30.5t-32 28q-3 3 -16 15t-16.5 16t-14.5 15t-15 16.5l-11.5 16.5
t-11 19t-7.5 19t-5.5 22.5t-1.5 24.5q0 61 30.5 122.5t87.5 85.5q-12 32 -12 56q0 73 49 131.5t127 58.5q49 0 83.5 -23.5t39.5 -65.5zM333 229q-2 24 -19.5 52t-34 45l-45.5 45q-6 6 -20 19t-20.5 19.5t-16 17t-15.5 20.5q-39 -9 -63 -42t-20 -81q3 -37 15 -64.5
t28.5 -46.5t58.5 -61q17 -17 25 -26q32 -2 37 -2q37 0 65 27q28 25 25 78z" />
    <glyph glyph-name="copyright" unicode="&#xa9;" horiz-adv-x="843" 
d="M784 489q0 -218 -137 -360t-335 -142q-60 0 -107.5 18t-76.5 46t-48 64t-26.5 69t-7.5 65q0 103 30.5 188.5t79.5 141t111.5 94.5t124 56t120.5 17q272 0 272 -257zM734 471q0 71 -22.5 120t-64 74t-87.5 35.5t-104 10.5q-8 0 -25.5 -2.5t-53 -13t-70.5 -27.5
t-73.5 -51.5t-68 -79.5t-48.5 -115.5t-19 -156.5q0 -117 65 -188.5t149 -71.5q59 0 117 17t113.5 54.5t98 90.5t68 132t25.5 172zM567 552q0 -24 -24 -49q-27 -27 -49 -27q-4 0 -4 5q23 18 23 50q0 18 -28 18q-65 0 -132 -85.5t-67 -188.5q0 -113 89 -113q38 0 77 17
t63.5 34.5t27.5 17.5q6 0 4 -10q-1 -4 -19 -17.5t-53 -32.5t-72 -32q-41 -12 -73 -12q-42 0 -68 26t-26 73q0 66 31 136q57 134 169 196q46 27 85 27q46 0 46 -33z" />
    <glyph glyph-name="guillemotleft" unicode="&#xab;" horiz-adv-x="340" 
d="M374 429q0 -8 -22 -25t-51.5 -42.5t-43.5 -51.5q1 -29 12.5 -77t11.5 -53q-2 -20 -22 -36q-25 -17 -26 -17q-21 0 -32 78q-11 71 0 101q31 45 91.5 88t75.5 43q6 0 7 -1t0 -4q-1 -2 -1 -3zM274 455q0 -5 -9 -14t-31.5 -27.5t-31.5 -26.5q-61 -53 -75 -79
q-3 -32 7.5 -86.5t10.5 -56.5q-2 -21 -17 -33q-25 -17 -26 -17q-19 0 -31 90q-11 71 0 101q31 45 107 101t90 56q6 0 6 -8z" />
    <glyph glyph-name="logicalnot" unicode="&#xac;" horiz-adv-x="594" 
d="M537 281l-19 -117l-37 -13l12 83h-259q-190 0 -213 -3q13 40 46 47q13 0 224 1t246 2z" />
    <glyph glyph-name="registered" unicode="&#xae;" horiz-adv-x="814" 
d="M774 469q0 -144 -64 -255t-171 -169t-237 -58q-60 0 -107.5 18t-76.5 46.5t-48 65.5t-26.5 72t-7.5 70q0 104 33 189t84 139t117 91t129.5 52.5t122.5 15.5q117 0 184.5 -75t67.5 -202zM724 451q0 136 -71 198t-187 62q-9 0 -27 -2t-55.5 -12.5t-74 -27t-78 -50
t-72 -77.5t-51 -113.5t-20.5 -153.5q0 -122 65 -196t149 -74q75 0 146.5 25t135 76t102 140t38.5 205zM586 512q0 -31 -23.5 -61.5t-51.5 -49.5t-51.5 -38.5t-23.5 -30.5q0 -24 45 -94q22 -37 52 -69q5 -6 10.5 -11.5l8 -8t2.5 -3.5q0 -9 -21 -9q-44 0 -91 72
q-53 86 -53 107q0 9 13 21q2 2 28 21t47.5 37t41 45.5t19.5 52.5q0 55 -85 55q-43 0 -95.5 -17.5t-77.5 -48.5q-4 -5 -6.5 -14.5t-5.5 -15.5t-10 -6q-10 0 -11 4q-1 3 -1 8q0 15 31.5 41.5t88 49.5t112.5 23q108 0 108 -60zM433 526l-40 -115.5l-40.5 -118.5t-21.5 -61
q-4 -15 -5 -22q-6 -27 -13 -37q-6 -10 -20.5 -20.5t-23.5 -10.5q-13 0 -13 8q0 10 17 57q6 19 16 45.5l35.5 94.5l60.5 165q10 9 22 12.5t19 3.5t7 -1z" />
    <glyph glyph-name="degree" unicode="&#xb0;" horiz-adv-x="374" 
d="M344 638q0 -71 -56 -133t-134 -62q-42 0 -60 27.5t-18 62.5q0 87 71 148q39 34 85 44q22 8 47 8q29 0 47 -25.5t18 -69.5zM289 612q0 68 -39 72q-1 0 -10 0.5t-14 0.5q-29 0 -49.5 -15t-30 -37t-13 -39t-3.5 -28q0 -35 13 -59.5t43 -24.5q40 0 71.5 28t31.5 102z" />
    <glyph glyph-name="plusminus" unicode="&#xb1;" horiz-adv-x="481" 
d="M474 342q-1 -20 -54 -30q-23 -3 -126 -5q-14 -49 -28 -89q-21 -55 -68 -55q-22 0 -22 14q0 4 3.5 14t12 29t13.5 33q2 4 18 53l-68 -1q-19 0 -36.5 -0.5t-27.5 -1t-16 -0.5q-13 0 -13 12q0 17 23 25.5t54 8.5l99 -1q1 1 21 58l14 38.5t12.5 21.5t19.5 14q21 7 42 7
q8 0 8 -13q0 -3 -2.5 -9l-8.5 -20.5l-12 -29.5q-5 -14 -22 -66h24q15 0 44 1t52 2t25 1q19 0 19 -11zM344 123q0 -10 -28 -21.5t-55 -15.5q-41 -6 -162 -6q-4 0 -13.5 -0.5t-14.5 -0.5q-16 0 -16 11q0 19 24.5 29.5t52.5 10.5h101q26 0 57 2t34 2q10 0 14.5 -2t5 -3.5
t0.5 -5.5z" />
    <glyph glyph-name="mu" unicode="&#xb5;" horiz-adv-x="562" 
d="M557 159q0 -13 -23 -52.5t-64.5 -78t-79.5 -38.5t-38 56q0 62 6 62h-4q-23 -32 -34.5 -46.5t-30.5 -35t-36.5 -28.5t-37.5 -8q-88 0 -75 173h-3q-72 -176 -72 -302q0 -12 1.5 -21.5t3.5 -13.5t4.5 -8.5t3.5 -6.5q-8 -23 -24 -41t-33 -18q-30 0 -30 47q0 44 27 125l55 151
t71 206l33 107q15 44 24 54q25 27 64 28q8 0 9 -10q-21 -64 -28 -91q-10 -37 -24.5 -120t-14.5 -114q0 -88 40 -88q35 0 69 46.5t44 87.5l50 195q11 41 21 54q20 27 67 27q9 0 9 -10q0 -5 -7.5 -27l-17 -49t-12.5 -38q-22 -85 -37.5 -163t-15.5 -92q0 -32 18 -32
q28 0 57.5 37t40.5 68q7 17 15 17q9 0 9 -9z" />
    <glyph glyph-name="mu" unicode="&#x3bc;" horiz-adv-x="562" 
d="M557 159q0 -13 -23 -52.5t-64.5 -78t-79.5 -38.5t-38 56q0 62 6 62h-4q-23 -32 -34.5 -46.5t-30.5 -35t-36.5 -28.5t-37.5 -8q-88 0 -75 173h-3q-72 -176 -72 -302q0 -12 1.5 -21.5t3.5 -13.5t4.5 -8.5t3.5 -6.5q-8 -23 -24 -41t-33 -18q-30 0 -30 47q0 44 27 125l55 151
t71 206l33 107q15 44 24 54q25 27 64 28q8 0 9 -10q-21 -64 -28 -91q-10 -37 -24.5 -120t-14.5 -114q0 -88 40 -88q35 0 69 46.5t44 87.5l50 195q11 41 21 54q20 27 67 27q9 0 9 -10q0 -5 -7.5 -27l-17 -49t-12.5 -38q-22 -85 -37.5 -163t-15.5 -92q0 -32 18 -32
q28 0 57.5 37t40.5 68q7 17 15 17q9 0 9 -9z" />
    <glyph glyph-name="paragraph" unicode="&#xb6;" horiz-adv-x="373" 
d="M376 662l-121 -736h-48l121 736h48zM248 662l-121 -736h-47l83 519q-64 41 -49 119q15 76 87 98h47z" />
    <glyph glyph-name="guillemotright" unicode="&#xbb;" horiz-adv-x="340" 
d="M-21 139q0 8 22 25t51.5 42.5t43.5 51.5q-1 29 -12.5 77t-11.5 53q2 20 22 36q25 17 26 17q21 0 32 -78q11 -71 0 -101q-31 -45 -91.5 -88t-75.5 -43q-6 0 -7 1t0 4q1 2 1 3zM79 113q0 5 9 14t31.5 27.5t31.5 26.5q61 53 75 79q3 32 -7.5 86.5t-10.5 56.5q2 21 17 33
q25 17 26 17q19 0 31 -90q11 -71 0 -101q-31 -45 -107 -101t-90 -56q-6 0 -6 8z" />
    <glyph glyph-name="divide" unicode="&#xf7;" horiz-adv-x="549" 
d="M274 222q18 0 30.5 -12.5t12.5 -30.5q0 -17 -12.5 -30t-30.5 -13q-17 0 -30 13t-13 30q0 18 12.5 30.5t30.5 12.5zM538 353v-41h-527v41h527zM274 525q18 0 30.5 -12.5t12.5 -30.5q0 -17 -12.5 -29.5t-30.5 -12.5t-30.5 12.5t-12.5 29.5q0 18 12.5 30.5t30.5 12.5z" />
    <glyph glyph-name="Delta" unicode="&#x394;" horiz-adv-x="612" 
d="M74 40h409l-194 472zM319 677l280 -677h-586z" />
    <glyph glyph-name="Delta" unicode="&#x2206;" horiz-adv-x="612" 
d="M74 40h409l-194 472zM319 677l280 -677h-586z" />
    <glyph glyph-name="afii10023" unicode="&#x401;" horiz-adv-x="542" 
d="M624 831q-1 -23 -18 -43q-14 -16 -45 -17q-20 0 -28 7q-5 12 -3 33q0 18 4 29t12 19q14 15 49 16q19 0 24 -11q5 -9 5 -33zM481 831q-1 -26 -18 -43q-13 -16 -45 -17q-19 0 -27 7q-5 13 -4 33q2 34 17 48q14 15 49 16q18 0 24 -10q6 -12 4 -34zM614 670q0 -29 -20.5 -49
t-47.5 -28l-6 3q14 16 14 43q0 20 -22.5 33.5t-63.5 13.5q-84 0 -134.5 -47.5t-50.5 -106.5q0 -38 21.5 -64.5t47 -36.5l47 -19t21.5 -16q0 -12 -11.5 -22t-28.5 -13q-94 0 -168 -55t-74 -150q0 -65 35.5 -104.5t109.5 -39.5q145 0 301 122l11 -14q-30 -25 -77.5 -54.5
t-130.5 -60t-156 -30.5q-89 0 -136 37.5t-47 104.5q0 44 23 87t57 73.5t71.5 54.5t66.5 36.5t43 13.5q-96 43 -96 116q0 90 97.5 157t219.5 67q35 0 59.5 -13t24.5 -39z" />
    <glyph glyph-name="afii10051" unicode="&#x402;" horiz-adv-x="599" 
d="M624 655q0 -9 -7 -18t-22 -18.5t-25 -15t-30.5 -14.5t-23.5 -11l-3 7q35 19 35 50q0 22 -78 22q-21 0 -35.5 -1t-21.5 -2.5l-21.5 -4.5t-28.5 -5q-9 -36 -34 -118t-36 -124q57 11 93 11q32 0 57 -5t51 -19t40.5 -45.5t14.5 -77.5q0 -76 -46.5 -166t-123 -155t-152.5 -65
q-40 0 -62.5 10.5t-22.5 26.5q0 23 17 23q10 0 26 -22t36 -22q67 0 126 57t90.5 132.5t31.5 140.5q0 81 -31 110.5t-89 29.5q-31 0 -71 -9q-13 -32 -31 -109l-14.5 -64.5l-13 -57l-10 -42t-9.5 -36t-8 -21.5q-17 -35 -51 -35q-15 0 -18 6t-3 25q0 22 44 172q29 98 46 144
q-16 -6 -25 -6q-8 0 -9.5 1.5t-1.5 8.5q0 19 51 43q36 117 67 242q-71 -16 -123 -35t-72 -32.5l-33 -23t-19 -9.5q-9 0 -12 0.5t-5.5 3.5t-2.5 10q0 15 89 53t214.5 72t208.5 34q44 0 65.5 -10t21.5 -36z" />
    <glyph glyph-name="afii10052" unicode="&#x403;" horiz-adv-x="493" 
d="M543 883q0 -8 -42 -54t-84 -83q-15 -10 -21 -10t-6 8q0 7 61 105q29 48 80 48q8 0 10 -2.5t2 -11.5zM516 101q-85 -71 -148 -104.5t-94 -33.5t-42.5 12t-11.5 42q0 19 13 74t32 107q46 128 85.5 256.5t39.5 154.5q0 30 -36 30q-28 0 -67 -20t-55 -33q-86 -66 -132 -152
q-8 -16 -13.5 -43t-12.5 -41t-24 -14q-22 0 -22 16q0 62 78.5 145t140.5 123q57 37 98.5 54.5t83.5 17.5q41 0 41 -60q0 -14 -19.5 -78l-47.5 -152t-40 -132q-53 -196 -53 -202l-1 -12q-1 -12 -0.5 -18.5t7 -13.5t20.5 -7q57 0 170 100z" />
    <glyph glyph-name="afii10053" unicode="&#x404;" horiz-adv-x="477" 
d="M537 650q0 -39 -36 -77q-11 -13 -33.5 -27.5t-38.5 -14.5q-6 0 -6 7q35 30 35 80q0 18 -11 23t-31 5q-76 0 -160 -92t-116 -220q36 4 95 4q29 0 65 1t61 1q29 0 29 -9q0 -4 -6.5 -9.5t-24.5 -11.5t-44 -9q-41 -5 -97 -5q-20 0 -52 2t-34 2q-8 -45 -8 -87q0 -179 131 -179
q48 0 95 17t76 37.5t51 37.5t25 17q8 0 5 -15q-1 -6 -31 -29t-82 -53t-99 -47q-48 -17 -82 -18q-11 -1 -25 -1q-64 0 -101 39.5t-37 106.5q0 116 45 225q85 209 249 309q69 42 125 42q68 0 68 -52z" />
    <glyph glyph-name="afii10054" unicode="&#x405;" horiz-adv-x="497" 
d="M540 666q9 -25 -11 -53q-21 -27 -45 -33q0 41 -28 66q-30 28 -72 28q-58 0 -103 -34.5t-49 -95.5q-2 -35 15.5 -68.5t40 -54.5l59 -52.5t54.5 -50.5q51 -54 48 -112q-7 -99 -98.5 -164.5t-209.5 -65.5q-53 0 -102 24.5t-47 68.5q2 32 24 53.5t56 22.5q-4 -58 22 -90.5
t97 -32.5q82 0 130 48.5t52 99.5q3 56 -53 105q-68 60 -121 116q-47 51 -42 115q5 81 80.5 144.5t173.5 63.5q49 0 83 -14t46 -34z" />
    <glyph glyph-name="afii10055" unicode="&#x406;" horiz-adv-x="271" 
d="M358 696q0 -2 -4.5 -11t-18.5 -40.5t-31 -76.5q-56 -146 -110 -303q-42 -125 -46 -141q-23 -87 -26 -93q-7 -14 -32 -35.5t-43 -21.5q-21 0 -21 14q0 8 7 29.5l16.5 49.5t11.5 33l34.5 102.5l55.5 161.5q78 214 89 242q28 68 31 72q18 19 50 25q8 2 31 2q6 0 6 -9z" />
    <glyph glyph-name="afii10056" unicode="&#x407;" horiz-adv-x="321" 
d="M440 798q-2 -23 -15 -38.5t-38 -15.5q-18 0 -25 7.5t-6 28.5q3 57 56 57q17 0 23 -9t5 -30zM330 798q-2 -23 -15 -38.5t-38 -15.5q-18 0 -25 7.5t-6 28.5q3 57 56 57q17 0 23 -9t5 -30zM358 696q0 -2 -4.5 -11t-18.5 -40.5t-31 -76.5q-56 -146 -110 -303
q-42 -125 -46 -141q-23 -87 -26 -93q-7 -14 -32 -35.5t-43 -21.5q-21 0 -21 14q0 8 7 29.5l16.5 49.5t11.5 33l34.5 102.5l55.5 161.5q78 214 89 242q28 68 31 72q18 19 50 25q8 2 31 2q6 0 6 -9z" />
    <glyph glyph-name="afii10057" unicode="&#x408;" horiz-adv-x="362" 
d="M362 696q0 -2 -8.5 -19.5t-33 -76t-54.5 -140.5l-51 -144q-41 -114 -68 -175t-65 -111q-24 -32 -67.5 -64t-71.5 -32q-4 0 -5 1t-2 5v3q0 1 8.5 6.5l20 13.5t17.5 14q25 27 37 47t29 63q31 76 103 277l85 234q4 10 7.5 20.5t6 16.5t3.5 9q10 22 18 33.5t13.5 14.5t19.5 8
q18 5 52 5q6 0 6 -9z" />
    <glyph glyph-name="afii10058" unicode="&#x409;" horiz-adv-x="800" 
d="M464 -22q-94 0 -94 110q0 34 19.5 111t38.5 137l20 60l-5 3q-93 -142 -167 -229q-83 -99 -131 -134.5t-88 -35.5q-20 0 -33.5 13t-13.5 37q0 36 23 62t47 34q-1 -22 7 -41t27 -19q58 0 168 132q107 129 180 260q3 8 12.5 38l15.5 48.5t15 43.5t17.5 43t15.5 29
q42 48 79 48q7 0 9.5 -4t2.5 -15q0 -22 -65 -177q-34 -79 -76 -219t-42 -209q0 -73 70 -73q84 0 142 73.5t58 145.5q0 45 -14.5 68t-53.5 23q-49 0 -102 -46l-6 14q39 40 83 62.5t78 22.5q86 0 86 -95q0 -60 -50.5 -136t-128 -130.5t-144.5 -54.5z" />
    <glyph glyph-name="afii10059" unicode="&#x40a;" horiz-adv-x="765" 
d="M696 250q0 45 -14.5 68t-53.5 23q-49 0 -102 -46l-6 14q39 40 83 62.5t78 22.5q86 0 86 -95q0 -60 -51.5 -136t-128.5 -130.5t-143 -54.5q-47 0 -75.5 23.5t-28.5 86.5q0 86 70 304q-15 -10 -39 -24t-79 -38t-87 -24l-44 5q-15 -59 -44.5 -161t-41.5 -121
q-22 -37 -52 -37q-18 0 -23 7.5t-5 25.5q0 10 21 75t35 102l51 131q-12 14 -12 41q0 15 15 32.5t31 16.5q63 195 80 219q15 21 29.5 30.5t18 9.5h15.5q8 0 8 -14q-2 -22 -33 -102l-64 -168q1 -3 3.5 -8t19.5 -13.5t45 -8.5q50 0 102 27.5t62 44.5q5 14 14.5 48t13.5 47
q36 110 72 130q32 18 41 18t9 -13v-3q0 -34 -76 -213q-80 -249 -80 -350q0 -33 17.5 -53t52.5 -20q85 0 147.5 74t62.5 145z" />
    <glyph glyph-name="afii10060" unicode="&#x40b;" horiz-adv-x="616" 
d="M673 136q-79 -75 -125 -104q-68 -44 -108 -44q-54 0 -54 64q0 16 23 115.5t23 129.5v6q0 19 -1.5 28t-8 21.5t-24 18t-46.5 5.5q-37 0 -73 -17q-9 -27 -21 -73q-7 -26 -23.5 -95t-27 -104t-18.5 -49q-27 -46 -56 -46q-18 0 -18 23q0 10 8.5 36.5l23 71t24.5 79.5
q36 133 39 141q-3 -1 -8.5 -3.5t-9.5 -4.5t-7 -2q-8 0 -9.5 1.5t-1.5 8.5q0 19 51 43q36 117 67 242q-71 -16 -123 -35t-72 -32.5l-33 -23t-19 -9.5q-9 0 -12 0.5t-5.5 3.5t-2.5 10q0 15 89 53t214.5 72t208.5 34q44 0 65.5 -10t21.5 -36q0 -39 -108 -77l-3 7q35 19 35 50
q0 22 -78 22q-21 0 -35.5 -1t-21.5 -2.5l-21.5 -4.5t-28.5 -5q-31 -133 -70 -242q5 1 23.5 5.5t34 6.5t35.5 2q118 0 118 -92q0 -43 -22.5 -140t-22.5 -103q0 -43 31 -43q24 0 55 17.5t53.5 37t64.5 59.5z" />
    <glyph glyph-name="afii10061" unicode="&#x40c;" horiz-adv-x="610" 
d="M543 883q0 -8 -42 -54t-84 -83q-15 -10 -21 -10t-6 8q0 7 61 105q29 48 80 48q8 0 10 -2.5t2 -11.5zM651 662q0 -30 -30 -62.5t-67 -50.5l-4 6q24 26 24 48q0 18 -20 18q-47 0 -110 -62l-136 -142q11 -21 22 -56q26 -85 66 -192q56 -151 114 -151q27 0 50.5 12t59.5 42
l7 -21q-93 -92 -179 -92q-34 0 -69 34.5t-63 113.5q-17 48 -44 132t-32 97q-2 -4 -16.5 -23t-30 -46t-28.5 -60l-36 -107q-3 -8 -7.5 -25t-7.5 -22q-5 -12 -12 -20q-9 -12 -24.5 -22t-28.5 -10q-21 0 -21 18q0 10 69 232l105 335q25 72 38 92q12 16 36 25.5t41 9.5
q4 0 4 -13q0 -5 -5.5 -18.5l-13.5 -32l-12 -27.5q-19 -51 -55 -163.5t-48 -155.5l3 -1l40 54q6 37 27 58q13 13 30 13q82 93 160 170q40 39 87 63t81 24q36 0 36 -22z" />
    <glyph glyph-name="afii10062" unicode="&#x40e;" horiz-adv-x="624" 
d="M463 753q0 8 7 22q16 35 44 35q4 0 12.5 -5t29 -9.5t55.5 -4.5q24 0 54.5 17t52.5 43q12 13 17 33q5 18 25 18q12 0 11 -16q0 -9 -12 -27.5t-32 -36.5q-48 -43 -83 -60q-68 -34 -123 -34q-24 -1 -41.5 6.5t-16.5 18.5zM693 683q0 -15 -8.5 -37t-16 -35t-25 -40.5
t-20.5 -32.5q-77 -225 -110 -294q-59 -126 -150 -196.5t-197 -70.5q-88 0 -86 31q0 3 1 7t6 8.5t12 4.5q10 0 24.5 -15.5t34.5 -15.5q83 0 137 39t114 140q14 23 29 56l25.5 57.5t31.5 78.5l33 83l-3 1q-21 -26 -82 -76.5t-122 -93.5q-50 -34 -95 -34q-12 0 -16.5 9t-4.5 30
q0 28 66 181q51 114 51 167q0 9 -1.5 14t-7.5 9.5t-17 4.5q-28 0 -64 -19.5t-53 -33.5q-1 -1 -14.5 -12t-18 -15.5l-15 -14.5t-18.5 -19.5t-16 -20.5q-11 -16 -16 -42t-11 -41t-23 -15q-22 0 -22 16q0 44 55.5 104.5t108.5 93.5q57 37 98.5 54.5t83.5 17.5q14 0 21.5 -10
t8.5 -20t1 -28q0 -33 -50 -171q-52 -142 -52 -153t13 -11q7 0 29 10q43 19 111 85t100 119q17 52 36 92q17 35 31 47q26 22 60 23q13 0 13 -16z" />
    <glyph glyph-name="afii10145" unicode="&#x40f;" horiz-adv-x="743" 
d="M378 48q-20 -43 -28 -116q-13 -120 -38 -168q-17 -34 -37.5 -57t-53.5 -48l-5 8q18 22 29.5 51.5t15 46.5t10 63l8.5 60q12 81 91 162zM778 104q-85 -71 -148 -104.5t-94 -33.5q-20 0 -31 10t-13 20.5t-2 27.5q0 68 118 436l-235 -275q-109 -124 -174 -181q-8 -8 -30 -17
q-18 -8 -32 -9q-14 0 -21 14q-4 13 -3 35q2 21 37 113l54 135.5l37 92t22.5 58.5l21.5 60l24 71q12 36 12 56q0 9 -1.5 14t-7.5 9.5t-17 4.5q-28 0 -64 -19.5t-53 -33.5q-1 -1 -14.5 -12t-18 -15.5l-15 -14.5t-18.5 -19.5t-16 -20.5q-11 -16 -16 -42t-11 -41t-23 -15
q-22 0 -22 16q0 44 55.5 104.5t108.5 93.5q57 37 98.5 54.5t83.5 17.5q14 0 21.5 -10t8.5 -20t1 -28q0 -64 -105 -326q-68 -173 -70 -203q-1 -10 6 -11q29 0 128 112q139 159 234 288q46 62 69 100q20 31 54 50q11 6 43 6q8 0 8 -9q0 -3 -2 -6.5t-6.5 -12.5t-8.5 -18
q-36 -76 -103 -256q-25 -67 -50.5 -162t-25.5 -138q0 -30 26 -30q57 0 170 100z" />
    <glyph glyph-name="afii10017" unicode="&#x410;" horiz-adv-x="590" 
d="M644 678q0 -5 -57 -181q-37 -110 -68 -214q5 0 34 -1t42 -2q-15 -31 -86 -37l-40 -147q-19 -72 -60 -72q-14 0 -29 23t-33.5 56.5t-31.5 48.5q-46 50 -106 58q-149 -231 -168 -234q-15 2 -17.5 4.5t-2.5 17.5q0 13 21 51.5t57.5 96.5t43.5 70q-7 0 -24.5 -2t-33.5 -2
q-24 0 -31 6.5t-7 23.5q0 40 74 42h69q80 103 197.5 218t219.5 188q7 4 19 4q18 0 18 -16zM547 615q-40 -33 -119.5 -123t-167.5 -213q27 1 90.5 0t90.5 1l75 231q31 94 31 104zM464 555l-2 1q-137 -121 -248 -274h7zM432 235q-98 0 -113 1q64 -39 90 -80q7 17 23 79z" />
    <glyph glyph-name="afii10018" unicode="&#x411;" horiz-adv-x="594" 
d="M715 652q0 -9 -7 -18t-22 -18.5t-25 -15t-30.5 -14.5t-23.5 -11l-3 7q35 19 35 50q0 22 -78 22q-60 0 -160 -16q-40 -92 -82 -224q51 15 113 15q29 0 46.5 -1t42.5 -6t39 -14.5t24.5 -29t10.5 -46.5q0 -67 -63 -140t-149 -126q-44 -28 -98.5 -44t-78.5 -12
q-12 -14 -23 -16l-29 -2q-17 -1 -17 16q0 43 14 94q11 40 27 90l26 80l11 29q1 4 3 9t5 14t5 16q-15 -7 -25 -7q-8 0 -9.5 1.5t-1.5 8.5q0 10 13 21.5t27 17.5l13 7q7 18 36.5 103.5t48.5 129.5q-71 -16 -119 -32.5t-63.5 -26.5l-25 -16.5t-15.5 -6.5q-9 0 -12 0.5t-5.5 3.5
t-2.5 10q0 14 99.5 49t232.5 65t209 30q44 0 65.5 -10t21.5 -36zM515 292q0 24 -7 40.5t-15 24.5t-25.5 12t-28.5 4.5t-33 0.5h-11q-19 0 -51.5 -6.5t-42.5 -10.5q-36 -92 -52 -153q-29 -112 -29 -153q2 -4 7 -5t10 -1t15.5 0.5t16.5 0.5q42 0 100 37.5t102 96.5t44 112z
" />
    <glyph glyph-name="afii10019" unicode="&#x412;" horiz-adv-x="581" 
d="M589 604q0 -29 -29.5 -62.5t-65 -58t-65 -47.5t-29.5 -32q0 -15 27.5 -41t60.5 -51.5t60.5 -63.5t27.5 -74q0 -85 -81 -134.5t-195 -49.5q-87 0 -150 42q-30 -40 -65 -40q-14 0 -14 10q0 12 20 68q-13 24 -13 40q0 38 39 33q87 278 156 433q20 30 41 44.5t32 13.5h12
q-34 -82 -111 -308l-77 -242q17 -24 62 -46t83 -22q92 0 140.5 28.5t48.5 97.5q0 26 -7 48t-22.5 40.5t-26.5 29.5t-32 27t-26 21q-4 4 -12.5 11t-12 10.5t-10 9t-9 9t-5.5 8.5t-4 10t-1 10q0 13 8.5 25t15.5 18t24 16t18 11q56 38 84 68t28 68q0 88 -102 88
q-147 0 -258 -112q-10 -10 -16 -23t-7.5 -22t-6 -15t-14.5 -6t-14 0.5t-9 5.5t-5 16q0 33 55.5 77t144.5 77t170 33q137 0 137 -97z" />
    <glyph glyph-name="afii10020" unicode="&#x413;" horiz-adv-x="493" 
d="M516 101q-85 -71 -148 -104.5t-94 -33.5t-42.5 12t-11.5 42q0 19 13 74t32 107q46 128 85.5 256.5t39.5 154.5q0 30 -36 30q-28 0 -67 -20t-55 -33q-86 -66 -132 -152q-8 -16 -13.5 -43t-12.5 -41t-24 -14q-22 0 -22 16q0 62 78.5 145t140.5 123q57 37 98.5 54.5
t83.5 17.5q41 0 41 -60q0 -14 -19.5 -78l-47.5 -152t-40 -132q-53 -196 -53 -202l-1 -12q-1 -12 -0.5 -18.5t7 -13.5t20.5 -7q57 0 170 100z" />
    <glyph glyph-name="afii10021" unicode="&#x414;" horiz-adv-x="748" 
d="M798 262q0 -62 -53.5 -129.5t-121.5 -100.5q-51 -25 -108.5 -37t-95 -14t-110.5 -2q-26 0 -44 -0.5t-26 -0.5h-11q-31 0 -31 10q0 3 8 16.5l23.5 40.5t27.5 55q167 375 236 500q-103 62 -218 62q-80 0 -118 -38q-35 -36 -35 -85q0 -9 7.5 -26.5t7.5 -24.5
q0 -13 -12 -27.5t-23 -14.5q-27 0 -27 37q0 99 72 161q30 26 79.5 43.5t81.5 17.5q131 0 218 -47q1 2 14.5 23l22 33.5t21.5 30t23 26.5t17 9q16 0 16 -9t-34 -62l-18 -26.5l-18.5 -28l-9.5 -14.5q239 -154 239 -378zM724 236q0 103 -55 193t-146 149q-46 -77 -129 -261
t-109 -265q29 -3 102 -3q7 0 41 -1t58 -0.5t57.5 3t61 10t46.5 19.5q37 24 55 69.5t18 86.5z" />
    <glyph glyph-name="afii10022" unicode="&#x415;" horiz-adv-x="546" 
d="M614 670q0 -29 -20.5 -49t-47.5 -28l-6 3q14 16 14 43q0 20 -22.5 33.5t-63.5 13.5q-84 0 -134.5 -47.5t-50.5 -106.5q0 -38 21.5 -64.5t47 -36.5l47 -19t21.5 -16q0 -12 -11.5 -22t-28.5 -13q-94 0 -168 -55t-74 -150q0 -65 35.5 -104.5t109.5 -39.5q145 0 301 122
l11 -14q-30 -25 -77.5 -54.5t-130.5 -60t-156 -30.5q-89 0 -136 37.5t-47 104.5q0 44 23 87t57 73.5t71.5 54.5t66.5 36.5t43 13.5q-96 43 -96 116q0 90 97.5 157t219.5 67q35 0 59.5 -13t24.5 -39z" />
    <glyph glyph-name="afii10024" unicode="&#x416;" horiz-adv-x="973" 
d="M1046 127q0 -6 -15.5 -21.5t-44 -34.5t-63.5 -36.5t-79 -29.5t-84 -12q-39 0 -62.5 24t-23.5 69q0 58 22.5 134.5t41.5 118.5l-2 4q-19 -20 -58 -69l-84.5 -108l-63.5 -81q-47 -57 -71 -57q-12 0 -12 10q0 17 37 114q73 188 126 352q-25 -17 -63.5 -50l-64.5 -57l-27 -24
q-19 -59 -63.5 -149.5t-81.5 -145.5q-29 -42 -63 -74t-64 -32q-27 0 -27 32q0 34 56.5 130t97.5 140l64 68q13 27 22.5 86.5t9.5 99.5q0 56 -11 84t-43 28q-44 0 -104 -43.5t-104 -96.5q-34 -42 -69 -104.5t-35 -88.5q0 -3 1 -13t1 -16t-4.5 -11.5t-13.5 -5.5q-16 0 -16 16
q0 23 8 44q35 99 128 205q75 86 146 129.5t122 43.5q72 0 72 -107q0 -91 -20 -178q47 34 101 84l39.5 36l32.5 27.5t32.5 23t22.5 6.5q4 0 7 -3.5t1 -8.5l-157 -433l3 -2l233 300q43 78 73 118q26 34 62 34q4 0 7 -1t4 -4t1 -4v-6.5v-6.5q0 -6 -7.5 -20t-22.5 -37t-18 -29
q-29 -51 -50 -100q-24 -59 -49 -141t-25 -127q0 -84 62 -84q35 0 69 10t58 24t42.5 28t28.5 24l9 10q13 8 18 8t5 -13zM363 300q-37 -35 -91 -123.5t-54 -133.5q0 -16 12 -16q22 0 70.5 106.5t62.5 166.5z" />
    <glyph glyph-name="afii10025" unicode="&#x417;" horiz-adv-x="524" 
d="M560 630q0 -97 -167 -211q12 -3 24 -10t26.5 -20t24 -36.5t9.5 -53.5q0 -79 -62 -153t-143.5 -115t-147.5 -41q-122 0 -122 84q0 37 29.5 59.5t58.5 24.5l2 -3q-23 -28 -23 -63q0 -68 99 -68q63 0 116 41t80 98t27 111q0 73 -46 93q-10 5 -29 7q-22 3 -22 10q0 9 11 15
q50 24 72 37q43 26 75 68t32 92q0 78 -73 78q-53 0 -105 -30q-32 -18 -54.5 -42t-33 -38t-18.5 -14q-13 0 -14 3q-2 3 -2 13q0 37 115 98q78 42 157 42q104 0 104 -76z" />
    <glyph glyph-name="afii10026" unicode="&#x418;" horiz-adv-x="743" 
d="M778 104q-85 -71 -148 -104.5t-94 -33.5q-20 0 -31 10t-13 20.5t-2 27.5q0 68 118 436l-235 -275q-109 -124 -174 -181q-8 -8 -30 -17q-18 -8 -32 -9q-14 0 -21 14q-4 13 -3 35q2 21 37 113l54 135.5l37 92t22.5 58.5l21.5 60l24 71q12 36 12 56q0 9 -1.5 14t-7.5 9.5
t-17 4.5q-28 0 -64 -19.5t-53 -33.5q-1 -1 -14.5 -12t-18 -15.5l-15 -14.5t-18.5 -19.5t-16 -20.5q-11 -16 -16 -42t-11 -41t-23 -15q-22 0 -22 16q0 44 55.5 104.5t108.5 93.5q57 37 98.5 54.5t83.5 17.5q14 0 21.5 -10t8.5 -20t1 -28q0 -64 -105 -326q-68 -173 -70 -203
q-1 -10 6 -11q29 0 128 112q139 159 234 288q46 62 69 100q20 31 54 50q11 6 43 6q8 0 8 -9q0 -3 -2 -6.5t-6.5 -12.5t-8.5 -18q-36 -76 -103 -256q-25 -67 -50.5 -162t-25.5 -138q0 -30 26 -30q57 0 170 100z" />
    <glyph glyph-name="afii10027" unicode="&#x419;" horiz-adv-x="755" 
d="M801 866q0 -9 -12 -27.5t-32 -36.5q-48 -43 -83 -60q-68 -34 -123 -34q-24 -1 -41.5 6.5t-16.5 18.5q0 8 7 22q16 35 44 35q4 0 12.5 -5t29 -9.5t55.5 -4.5q24 0 54.5 17t52.5 43q12 13 17 33q5 18 25 18q12 0 11 -16zM778 104q-85 -71 -148 -104.5t-94 -33.5
q-20 0 -31 10t-13 20.5t-2 27.5q0 68 118 436l-235 -275q-109 -124 -174 -181q-8 -8 -30 -17q-18 -8 -32 -9q-14 0 -21 14q-4 13 -3 35q2 21 37 113l54 135.5l37 92t22.5 58.5l21.5 60l24 71q12 36 12 56q0 9 -1.5 14t-7.5 9.5t-17 4.5q-28 0 -64 -19.5t-53 -33.5
q-1 -1 -14.5 -12t-18 -15.5l-15 -14.5t-18.5 -19.5t-16 -20.5q-11 -16 -16 -42t-11 -41t-23 -15q-22 0 -22 16q0 44 55.5 104.5t108.5 93.5q57 37 98.5 54.5t83.5 17.5q14 0 21.5 -10t8.5 -20t1 -28q0 -64 -105 -326q-68 -173 -70 -203q-1 -10 6 -11q29 0 128 112
q139 159 234 288q46 62 69 100q20 31 54 50q11 6 43 6q8 0 8 -9q0 -3 -2 -6.5t-6.5 -12.5t-8.5 -18q-36 -76 -103 -256q-25 -67 -50.5 -162t-25.5 -138q0 -30 26 -30q57 0 170 100z" />
    <glyph glyph-name="afii10028" unicode="&#x41a;" horiz-adv-x="612" 
d="M651 662q0 -30 -30 -62.5t-67 -50.5l-4 6q24 26 24 48q0 18 -20 18q-47 0 -110 -62l-136 -142q11 -21 22 -56q26 -85 66 -192q56 -151 114 -151q27 0 50.5 12t59.5 42l7 -21q-93 -92 -179 -92q-34 0 -69 34.5t-63 113.5q-17 48 -44 132t-32 97q-2 -4 -16.5 -23t-30 -46
t-28.5 -60l-36 -107q-3 -8 -7.5 -25t-7.5 -22q-5 -12 -12 -20q-9 -12 -24.5 -22t-28.5 -10q-21 0 -21 18q0 10 69 232l105 335q25 72 38 92q12 16 36 25.5t41 9.5q4 0 4 -13q0 -5 -5.5 -18.5l-13.5 -32l-12 -27.5q-19 -51 -55 -163.5t-48 -155.5l3 -1l40 54q6 37 27 58
q13 13 30 13q82 93 160 170q40 39 87 63t81 24q36 0 36 -22z" />
    <glyph glyph-name="afii10029" unicode="&#x41b;" horiz-adv-x="604" 
d="M655 131q-57 -48 -123 -87q-58 -35 -83.5 -46.5t-46.5 -11.5q-40 0 -40 54q0 39 21.5 128t42.5 158l22 70l-5 3q-93 -142 -167 -229q-83 -98 -131.5 -134t-87.5 -36q-47 0 -47 60q0 28 24 58q13 17 46 28q0 -1 0.5 -10t1 -12t2 -10.5t4 -11t6 -8t8.5 -6.5t12 -2
q31 0 68 28t100 104q107 129 180 260q3 8 12.5 38l15.5 48.5t15 43.5t17.5 43t15.5 29q42 48 79 48q7 0 9.5 -4t2.5 -15q0 -22 -65 -177q-24 -56 -72 -231t-48 -199q0 -2 -0.5 -11t0 -14t2.5 -12.5t8.5 -11t16.5 -3.5q50 0 177 93z" />
    <glyph glyph-name="afii10030" unicode="&#x41c;" horiz-adv-x="819" 
d="M877 136q-68 -51 -127 -86q-111 -66 -146 -66q-34 0 -34 40q0 22 28 116.5t56 178.5l28 84l-4 1q-140 -180 -268 -328q-66 -75 -86 -75q-12 0 -15.5 6t-3.5 20t15.5 74l41.5 153l38 138l16 63l-5 2q-14 -26 -88 -139.5t-108 -157.5q-74 -97 -118 -132.5t-81 -35.5
q-41 0 -41 57q0 34 19 62.5t44 41.5l6 -1q-5 -70 28 -70q43 0 138 122q50 64 120 175.5t100 174.5q27 75 34 86q20 32 48 32h8h7h5.5t5 -0.5t3.5 -2t3 -3t1.5 -4t0.5 -6.5q0 -20 -5.5 -41t-18 -55.5l-18.5 -51.5q-72 -225 -96 -339q-12 -49 -5 -49q8 0 65 65.5t132 164.5
t118 174l12.5 37.5t11.5 33l9.5 24t11 23.5t13.5 20q24 31 60 31q15 0 15 -33q0 -21 -24 -79t-44 -91l-77 -231.5t-49 -163.5q0 -3 -1.5 -13t-1 -14.5t7 -9t20.5 -4.5q42 0 185 98z" />
    <glyph glyph-name="afii10031" unicode="&#x41d;" horiz-adv-x="569" 
d="M621 132q-79 -75 -125 -104q-68 -44 -108 -44q-56 0 -56 72q0 47 28 157t50 179q-14 -10 -37.5 -24t-78.5 -38t-89 -24l-44 5l-23.5 -83l-37 -127.5t-25.5 -71.5q-22 -37 -52 -37q-18 0 -23 7.5t-5 25.5q0 10 21 75t35 102l51 131q-12 14 -12 41q0 18 14.5 34t31.5 15
q63 195 80 219q15 21 29.5 30.5t18 9.5h15.5q8 0 8 -14t-33 -102l-64 -168q1 -3 3.5 -8t19.5 -13.5t45 -8.5q50 0 102 27.5t62 44.5q5 14 14.5 48t13.5 47q34 105 72 130q27 18 41 18q9 0 9 -13v-3q0 -7 -9 -32.5t-30.5 -81.5t-36.5 -99q-89 -254 -89 -377q0 -43 31 -43
q24 0 55 17.5t53.5 37t64.5 59.5z" />
    <glyph glyph-name="afii10032" unicode="&#x41e;" horiz-adv-x="676" 
d="M667 532q0 -176 -110 -335q-149 -215 -330 -215q-70 0 -107 50.5t-37 117.5q0 77 23.5 151t59 128.5t71 92t66.5 56.5q32 63 91.5 96.5t126.5 33.5q75 0 110.5 -52t35.5 -124zM589 512q0 26 -4.5 50t-15.5 50t-35 41.5t-59 15.5q-46 0 -81 -23.5t-49 -51.5q61 39 117 39
q22 0 31 -3t9 -12q0 -8 -7 -8q-4 0 -14 3t-19 3q-30 0 -68.5 -15t-60.5 -38q-1 -5 -0.5 -13.5t-1.5 -13.5q-5 -16 -30 -16q-13 0 -8 20q-33 -36 -55.5 -70.5t-44.5 -107t-22 -160.5q0 -71 28.5 -118t93.5 -47q101 0 192 126q47 65 75.5 165t28.5 184z" />
    <glyph glyph-name="afii10033" unicode="&#x41f;" horiz-adv-x="639" 
d="M674 116q-85 -71 -148 -104.5t-94 -33.5t-42.5 12t-11.5 42q0 31 45 181q93 312 93 369q0 14 -10 14q-14 0 -44 -29t-53 -58l-23 -29q-44 -43 -100.5 -137.5t-89.5 -162.5t-58 -125q-10 -15 -33 -32.5t-41 -17.5q-4 0 -6.5 0.5t-3.5 1.5t-1.5 3t-1 3.5t-0.5 5.5v6
q1 7 29 98l58.5 169t53.5 155q1 5 11.5 36t18.5 57t8 32q0 20 -2 23.5t-9 3.5q-38 0 -153 -115l-6 20q82 80 148 125.5t94 45.5q22 0 22 -23q0 -17 -19 -85q-12 -43 -41 -128l-52 -149l-23 -64l5 -4q63 115 128 206.5t114 142t85 76.5t54 26q14 0 20.5 -9.5t7.5 -19t1 -30.5
q0 -17 -12.5 -67.5t-37.5 -140.5t-33 -121q-53 -196 -53 -202l-1 -12q-1 -12 -0.5 -18.5t7 -13.5t20.5 -7q57 0 170 100z" />
    <glyph glyph-name="afii10034" unicode="&#x420;" horiz-adv-x="643" 
d="M708 582q0 -68 -55.5 -134t-144 -109t-182.5 -49l-18.5 -57l-18 -56t-9.5 -41q-3 -17 -3.5 -30.5t0.5 -27.5t1 -18t-6.5 -19t-11.5 -21q-27 -36 -56 -36q-8 0 -14.5 7.5t-6.5 23.5q0 50 43 175l33 93q-58 2 -58 24q0 32 15 33q6 0 14 -9t14 -12q5 -3 12 -4t12 -1h4
l108 294q17 16 37 22.5t31 5.5l12 -2q-6 -19 -54.5 -141.5t-67.5 -176.5q109 3 201.5 75t92.5 167q0 53 -40 82.5t-119 29.5q-108 0 -216.5 -37.5t-156.5 -92.5q-8 -9 -10.5 -23.5t-5.5 -22.5t-14 -8q-10 0 -14 0.5t-9 5.5t-5 16q0 19 42 52.5t106 67.5t154 59t174 25
q190 0 190 -130z" />
    <glyph glyph-name="afii10035" unicode="&#x421;" horiz-adv-x="477" 
d="M537 650q0 -40 -36 -77q-11 -13 -33.5 -27.5t-38.5 -14.5q-6 0 -6 7q35 30 35 80q0 28 -42 28q-61 0 -128.5 -59.5t-115.5 -162t-48 -211.5q0 -179 131 -179q43 0 89 17t75.5 37.5l53.5 37.5t29 17q8 0 5 -15q-1 -7 -27.5 -28t-78 -51t-106.5 -50q-54 -19 -107 -19
q-62 0 -100 40.5t-38 115.5q0 106 45 215q85 209 249 309q69 42 125 42q68 0 68 -52z" />
    <glyph glyph-name="afii10036" unicode="&#x422;" horiz-adv-x="872" 
d="M904 116q-212 -146 -285 -146q-24 0 -20 37q2 21 54 206q10 37 35 116.5l42.5 137.5t18.5 72q0 2 0.5 5.5t0.5 5.5t-0.5 4t-1.5 3t-4 1q-4 0 -11.5 -7t-24 -25.5l-22.5 -25.5q-23 -25 -78.5 -100t-103.5 -148q-19 -28 -43 -78.5t-40.5 -89t-17.5 -39.5q-29 -43 -73 -43
q-5 0 -5 5q0 15 27 101l111 355q21 67 23 92q0 10 -6 12q-22 0 -94 -87q-56 -68 -136.5 -210.5t-111.5 -214.5q-10 -15 -33 -32.5t-41 -17.5q-4 0 -6.5 0.5t-3.5 1.5t-1.5 3t-1 3.5t-0.5 5.5v6q1 7 29 98l58.5 169t53.5 155q1 5 11.5 36t18.5 57t8 32q0 20 -2 23.5t-9 3.5
q-38 0 -153 -115l-6 20q82 80 148 125.5t94 45.5q22 0 22 -23q0 -17 -19 -85q-12 -43 -41 -128l-52 -149l-23 -64l5 -4q67 125 131.5 218.5t112.5 141t82 69.5t55 22q11 0 14.5 -4t3.5 -20q0 -17 -24.5 -97t-55.5 -172.5t-36 -110.5h3l53.5 73l51 69l45 60.5t43 55.5
l37.5 45t36 38.5t31.5 26.5t30 18.5t25.5 5.5q18 0 18 -25q0 -13 -17.5 -73.5l-44 -147.5t-38.5 -130q-53 -196 -53 -202q0 -1 -2.5 -13t0.5 -18t14 -6q57 0 184 86z" />
    <glyph glyph-name="afii10037" unicode="&#x423;" horiz-adv-x="623" 
d="M693 683q0 -15 -8.5 -37t-16 -35t-25 -40.5t-20.5 -32.5q-77 -225 -110 -294q-59 -126 -150 -196.5t-197 -70.5q-88 0 -86 31q0 3 1 7t6 8.5t12 4.5q10 0 24.5 -15.5t34.5 -15.5q83 0 137 39t114 140q14 23 29 56l25.5 57.5t31.5 78.5l33 83l-3 1q-21 -26 -82 -76.5
t-122 -93.5q-50 -34 -95 -34q-12 0 -16.5 9t-4.5 30q0 28 66 181q51 114 51 167q0 9 -1.5 14t-7.5 9.5t-17 4.5q-28 0 -64 -19.5t-53 -33.5q-1 -1 -14.5 -12t-18 -15.5l-15 -14.5t-18.5 -19.5t-16 -20.5q-11 -16 -16 -42t-11 -41t-23 -15q-22 0 -22 16q0 44 55.5 104.5
t108.5 93.5q57 37 98.5 54.5t83.5 17.5q14 0 21.5 -10t8.5 -20t1 -28q0 -33 -50 -171q-52 -142 -52 -153t13 -11q7 0 29 10q43 19 111 85t100 119q17 52 36 92q17 35 31 47q26 22 60 23q13 0 13 -16z" />
    <glyph glyph-name="afii10038" unicode="&#x424;" horiz-adv-x="817" 
d="M810 442q0 -63 -33.5 -124t-84.5 -104q-134 -113 -291 -113q-1 -5 -7.5 -35.5t-10.5 -41.5q-4 -9 -9 -19q-9 -21 -46 -46q-10 -7 -29 -11q-20 0 -21 14q0 5 7.5 27l18.5 55.5t17 55.5q-112 0 -170.5 47t-58.5 134q0 70 38.5 130.5t99.5 98.5t130 60.5t136 25.5
q36 93 48 109q10 14 27 19q26 7 52 7q7 0 7 -9l-54 -118h20q214 0 214 -162zM725 434q0 138 -145 138h-17q-70 -185 -124 -350q-25 -74 -30 -92q127 0 210 74q53 47 79.5 108.5t26.5 121.5zM482 564q-55 -2 -108 -20.5t-98 -52.5t-72.5 -89t-27.5 -122q0 -149 154 -152
q24 79 33 106z" />
    <glyph glyph-name="afii10039" unicode="&#x425;" horiz-adv-x="505" 
d="M552 117q-1 -1 -21.5 -19t-28.5 -23.5t-29 -22t-35 -24l-34 -18t-39 -14.5t-37 -4q-97 0 -130 267q-67 -85 -106 -159q-11 -21 -23.5 -56t-21 -55.5t-15.5 -20.5q-26 0 -26 31q15 35 66.5 122t115.5 170q-28 194 -34 247q-5 43 -20 52q-3 2 -9.5 2.5t-9.5 3.5t-3 10
q0 28 34 72q16 22 30 22q9 0 13.5 -1.5t12 -13t11.5 -34.5q8 -43 18.5 -146.5t15.5 -138.5q50 71 192 250q60 75 77 75q21 0 21 -22q0 -17 -6 -26t-30 -29.5t-42 -39.5q-38 -39 -102 -114.5t-101 -132.5q23 -153 50 -218t70 -65q36 0 84.5 28t81.5 61z" />
    <glyph glyph-name="afii10040" unicode="&#x426;" horiz-adv-x="737" 
d="M773 658q0 -3 -2 -6.5t-6.5 -12.5t-8.5 -18q-34 -71 -108 -271q-26 -70 -53 -167t-27 -141q0 -42 17 -102.5t17 -77.5q0 -74 -58 -145t-135 -109l-6 10q141 88 141 191q0 32 -27 106t-27 109q0 68 118 436l-238 -284q-83 -94 -171 -172q-8 -8 -30 -17t-32 -9
q-24 0 -24 41q0 25 37 121l54 135.5l37 92t22.5 58.5l21.5 60l24 71q12 36 12 56q0 9 -1.5 14t-7.5 9.5t-17 4.5q-28 0 -64 -19.5t-53 -33.5q-1 -1 -14.5 -12t-18 -15.5l-15 -14.5t-18.5 -19.5t-16 -20.5q-11 -16 -16 -42t-11 -41t-23 -15q-22 0 -22 16q0 44 55.5 104.5
t108.5 93.5q57 37 98.5 54.5t83.5 17.5q15 0 22 -9t8 -19t1 -30q0 -54 -105 -326q-69 -178 -70 -203q-1 -10 6 -11q29 0 128 112q139 159 234 288q19 25 74 115q20 31 54 50q11 6 43 6q8 0 8 -9z" />
    <glyph glyph-name="afii10041" unicode="&#x427;" horiz-adv-x="656" 
d="M705 683q0 -15 -8.5 -37t-16 -35t-25 -40.5t-20.5 -32.5q-7 -21 -51 -131.5t-70 -196t-26 -139.5q0 -29 18 -34q5 -1 11 -1q24 0 55 17.5t53.5 37t64.5 59.5l10 -16q-79 -75 -125 -104q-75 -48 -112 -48q-50 0 -50 68q0 90 117 376q7 17 10 25l-3 1q-21 -26 -82 -76.5
t-122 -93.5q-50 -34 -95 -34q-12 0 -16.5 9t-4.5 30q0 28 66 181q51 114 51 167q0 9 -1.5 14t-7.5 9.5t-17 4.5q-28 0 -67 -20t-55 -33q-86 -66 -132 -152q-8 -16 -13.5 -43t-12.5 -41t-24 -14q-22 0 -22 16q0 62 78.5 145t140.5 123q57 37 98.5 54.5t83.5 17.5
q14 0 21.5 -10t8.5 -20t1 -28q0 -33 -50 -171q-52 -142 -52 -153t13 -11q7 0 29 10q43 19 111 85t100 119q17 52 36 92q17 35 31 47q26 22 60 23q13 0 13 -16z" />
    <glyph glyph-name="afii10042" unicode="&#x428;" horiz-adv-x="1040" 
d="M1056 102q-85 -71 -148 -104.5t-94 -33.5q-20 0 -31 10t-13 20.5t-2 27.5q0 93 109 405l-63.5 -84.5l-93.5 -123t-94 -114.5t-93 -97q-28 -23 -62 -26q-24 0 -24 49q0 34 33 153t77 245l-188.5 -232.5t-181.5 -192.5q-12 -10 -30 -17q-18 -8 -32 -9q-14 0 -21 14
q-4 13 -3 35q2 21 37 113l54 135.5l37 92t22.5 58.5l21.5 60l24 71q12 36 12 56q0 9 -1.5 14t-7.5 9.5t-17 4.5q-50 0 -121.5 -60t-105.5 -123q-8 -16 -13.5 -43t-12.5 -41t-24 -14q-22 0 -22 16q0 44 70.5 127.5t119.5 114.5q60 39 101 57.5t83 18.5q14 0 21.5 -10t8.5 -20
t1 -28q0 -64 -105 -326q-68 -173 -70 -203q-2 -11 6 -11q24 0 112.5 100t209.5 263q28 37 52 85t27 52q20 31 54 50q11 6 43 6q8 0 8 -9q0 -3 -2 -6.5t-6.5 -12.5t-8.5 -18q-36 -76 -103 -256q-18 -50 -44 -150t-26 -113q0 -11 6 -11q23 0 100.5 95t219.5 286q28 37 52 85
t27 52q20 31 54 50q11 6 43 6q8 0 8 -9q0 -3 -2 -6.5t-6.5 -12.5t-8.5 -18q-36 -76 -103 -256q-25 -67 -50.5 -162t-25.5 -138q0 -30 26 -30q57 0 170 100z" />
    <glyph glyph-name="afii10043" unicode="&#x429;" horiz-adv-x="1015" 
d="M1058 641q0 -3 -2 -6.5t-6.5 -12.5t-8.5 -18q-36 -76 -103 -256q-3 -7 -22 -56.5t-27 -73.5t-17.5 -67t-9.5 -79q0 -49 17 -107t17 -73q0 -72 -67 -150t-120 -95l-12 1q38 27 64.5 49.5t51.5 62t25 79.5q0 32 -26.5 105t-26.5 107q0 44 9.5 91t19 77t36 100.5l39.5 107.5
l-63.5 -84.5l-93.5 -123t-94 -114.5t-93 -97q-28 -23 -62 -26q-24 0 -24 49q0 34 33 153t77 245l-188.5 -232.5t-181.5 -192.5q-12 -10 -30 -17q-18 -8 -32 -9q-14 0 -21 14q-4 13 -3 35q2 21 37 113l54 135.5l37 92t22.5 58.5l21.5 60l24 71q12 36 12 56q0 9 -1.5 14
t-7.5 9.5t-17 4.5q-50 0 -121.5 -60t-105.5 -123q-8 -16 -13.5 -43t-12.5 -41t-24 -14q-22 0 -22 16q0 44 70.5 127.5t119.5 114.5q60 39 101 57.5t83 18.5q14 0 21.5 -10t8.5 -20t1 -28q0 -64 -105 -326q-68 -173 -70 -203q-2 -11 6 -11q24 0 112.5 100t209.5 263
q28 37 52 85t27 52q20 31 54 50q11 6 43 6q8 0 8 -9q0 -3 -2 -6.5t-6.5 -12.5t-8.5 -18q-36 -76 -103 -256q-18 -50 -44 -150t-26 -113q0 -11 6 -11q23 0 100.5 95t219.5 286q28 37 52 85t27 52q20 31 54 50q11 6 43 6q8 0 8 -9z" />
    <glyph glyph-name="afii10044" unicode="&#x42a;" horiz-adv-x="581" 
d="M508 272q0 90 -68 90q-49 0 -102 -46l-6 14q39 40 83 62.5t78 22.5q86 0 86 -95q0 -74 -56 -153t-131.5 -128t-134.5 -49q-38 0 -66 24t-28 86q0 121 122 394q69 154 75 176q-72 0 -128.5 -22t-111.5 -74q-10 -10 -16 -23t-7.5 -21.5t-6 -15t-14.5 -6.5t-14 0.5t-9 5.5
t-5 16q0 32 68 75t155.5 73.5t142.5 30.5q23 0 23 -20q0 -7 -11.5 -35t-23.5 -53l-11 -25q-3 -8 -30 -72.5t-42 -103.5l-37 -99t-32.5 -106.5t-10.5 -78.5t18 -52.5t50 -20.5q81 0 141.5 75t59.5 154z" />
    <glyph glyph-name="afii10045" unicode="&#x42b;" horiz-adv-x="696" 
d="M706 576q0 -25 -10.5 -65.5t-32 -106.5t-28.5 -91t-13 -51t-10.5 -47.5t-8.5 -46.5t-6.5 -42.5t-4.5 -40.5t-3 -35.5t-2 -34t-1.5 -29t-1 -26.5t-0.5 -22q-30 1 -49 30t-19 64q0 99 48 286q2 10 19 66.5t30.5 107.5t13.5 69q0 21 -5.5 31t-21.5 10q-38 0 -110 -28
t-131 -66.5t-59 -63.5q0 -28 18 -52.5t40 -41.5t40 -44.5t18 -59.5q0 -21 -1.5 -33.5t-11.5 -29.5t-15 -23l-28 -35q-44 -54 -138 -102.5t-154 -48.5q-66 0 -66 76q0 30 10 74.5t21.5 79.5l33 98.5t31.5 95.5q32 100 100 262q32 42 76 42q6 0 6 -10q0 -3 -4.5 -14.5l-13 -33
l-14.5 -36.5l-116 -324q-16 -46 -32 -109t-16 -93q0 -29 8 -42t37 -13q84 0 144.5 65t60.5 126q0 32 -16 59t-35.5 43.5t-35.5 38.5t-16 44q0 47 88 105.5t189.5 96.5t149.5 38q15 0 24 -3.5t16.5 -19t7.5 -44.5z" />
    <glyph glyph-name="afii10046" unicode="&#x42c;" horiz-adv-x="480" 
d="M473 320q0 -74 -57 -153.5t-132.5 -128t-133.5 -48.5q-94 0 -94 110q0 35 10 82t28 98t32.5 88.5t32.5 80t19 45.5q43 111 53.5 132.5t28.5 41.5q15 17 39 29.5t41 12.5q6 0 6 -9l-62 -125q-49 -97 -100.5 -241t-51.5 -219q0 -32 17 -51t47 -19q86 0 146 73t60 153
q0 90 -68 90q-49 0 -102 -46l-6 14q39 40 83 62.5t78 22.5q86 0 86 -95z" />
    <glyph glyph-name="afii10047" unicode="&#x42d;" horiz-adv-x="575" 
d="M580 539q0 -28 -12.5 -87.5t-30.5 -100.5l25 -1q10 -1 12 -2.5t3 -7.5q-3 -17 -18 -21q-13 -4 -40 -5q-22 -56 -85 -141t-131 -130q-90 -61 -183 -61q-95 0 -95 68q0 18 13.5 33t35.5 19q11 -86 86 -86q69 0 150.5 73.5t138.5 223.5q-62 0 -163 -21q-33 -7 -80 -26.5
t-56 -19.5q-8 0 -8 13q0 18 14 33q27 29 114 42q34 5 83 8.5t81 5.5l32 1q25 77 25 149q0 151 -121 151q-116 0 -205 -76q-23 -20 -39 -41.5t-21 -34t-12 -21t-16 -8.5q-10 0 -14 0.5t-9 5.5t-5 16q0 27 61 76.5t156.5 91.5t175.5 42q43 0 72.5 -14t42.5 -39.5t18 -50.5
t5 -57z" />
    <glyph glyph-name="afii10048" unicode="&#x42e;" horiz-adv-x="835" 
d="M882 546q0 -98 -78 -235.5t-195 -241t-215 -103.5q-62 0 -92.5 31.5t-26.5 104.5q6 80 47 196q-60 -34 -135 -34q-13 0 -23.5 1.5t-15.5 2.5l-4 2q-18 -54 -32 -109.5l-22 -85.5t-18 -45q-25 -38 -49 -38q-18 0 -23 7.5t-5 25.5q0 11 53 177l26 84q-4 10 -4.5 16t1 14
t1.5 16q0 15 15 32.5t31 16.5q81 237 98 261q15 21 29.5 30.5t18 9.5h15.5q8 0 8 -14q-2 -22 -33 -102l-82 -210q1 -4 3.5 -11t19.5 -18t45 -11q35 0 60 8t34 15.5t20 20.5q63 126 118 195.5t114 78.5q92 50 182 50q114 0 114 -138zM796 496q0 134 -94 134q-52 0 -84 -12
q-6 -19 -90 -134q-67 -92 -116 -138q-51 -153 -51 -215q0 -58 21 -84.5t70 -26.5q69 0 151 81t137.5 194t55.5 201z" />
    <glyph glyph-name="afii10049" unicode="&#x42f;" horiz-adv-x="643" 
d="M662 107q-63 -50 -137 -87.5t-121 -37.5q-46 0 -46 54q0 32 12 91t12 73q0 4 0.5 13t0 12t-1.5 8t-4 7t-9 3q-84 -129 -160.5 -192t-126.5 -63q-64 0 -64 72q0 20 9 42q22 30 52 34q0 -39 10.5 -61.5t41.5 -22.5q29 0 63.5 23t65 58.5t52 64t36.5 53.5q-21 2 -41 9
t-43.5 23t-38 49t-14.5 78q0 64 30.5 121t72.5 91t82 53.5t65 19.5q40 0 60 -30t20 -66q0 -59 -33 -133.5t-66 -119.5l-33 -46q1 0 3 -1q10 -3 15.5 -6.5t11.5 -15.5t6 -33t-8 -76.5t-8 -75.5q0 -2 -1 -13.5t-0.5 -18t3.5 -15t11.5 -13t22.5 -4.5q17 0 36 5t41.5 17t37 20.5
t41.5 26l36 23.5zM484 545q0 104 -58 104q-56 0 -102 -53.5t-46 -153.5q0 -68 33.5 -100t76.5 -35q38 52 67 123.5t29 114.5z" />
    <glyph glyph-name="afii10065" unicode="&#x430;" horiz-adv-x="484" 
d="M526 123q-58 -51 -135.5 -103t-111.5 -52q-15 0 -23 12.5t-8 31.5q0 47 14 98h-4q-45 -55 -95.5 -88t-91.5 -33q-35 0 -48.5 22.5t-13.5 66.5q0 57 32 130t83 122q114 109 236 109q16 0 35 -4.5t37 -18t18 -34.5q0 -14 -4 -23.5t-9.5 -16t-21.5 -21.5q-5 -12 -18.5 -40
t-22.5 -51q-54 -145 -54 -163q0 -35 19 -35q10 0 21.5 3t24.5 9.5t24 13t27.5 18l26 18.5l28 21l26.5 20zM383 372q-3 13 -23.5 22.5t-32.5 9.5q-54 0 -95 -25.5t-84 -90.5q-23 -35 -41 -92t-18 -89q0 -55 39 -55q37 0 80 36t75 106q11 24 24 61.5t18 48.5q9 22 26.5 45.5
t31.5 22.5z" />
    <glyph glyph-name="afii10066" unicode="&#x431;" horiz-adv-x="389" 
d="M117 104q0 -64 37 -64q54 0 102 84q52 95 52 217q0 99 -119 258q-20 26 -17 55q3 42 73 105q54 49 92 74t116 59q65 29 134 29q17 0 23 -0.5t11 -5t4 -14.5q-1 -11 -9 -25.5t-17 -14.5q-5 0 -33 3t-45 3q-1 0 -14.5 0.5t-19.5 0t-22 -3t-29 -7t-32.5 -13.5t-40.5 -22
q-65 -41 -92 -72t-27 -61q0 -19 12 -42q4 -8 34 -55.5t43 -73.5t27.5 -76.5t14.5 -100.5q0 -47 -21.5 -107.5t-61.5 -117.5q-92 -131 -175 -131t-83 103q0 52 29 124.5t53 112.5q34 57 64.5 91t47.5 34q10 0 13.5 -6.5t3.5 -24.5q0 -35 -35.5 -97.5t-76.5 -117.5
q-16 -46 -16 -100zM203 395q-13 0 -37.5 -64t-26.5 -86q15 16 34.5 52.5t27.5 62.5q1 4 3.5 10.5t3.5 10t1.5 7.5t-1 5.5t-5.5 1.5z" />
    <glyph glyph-name="afii10067" unicode="&#x432;" horiz-adv-x="421" 
d="M489 718q0 -35 -51.5 -105.5t-159.5 -162.5l-126 -106q-25 -64 -34 -89h3q36 52 88.5 81t88.5 29q46 0 64.5 -24t18.5 -69q0 -46 -31 -111t-82 -109q34 0 90.5 24.5t91.5 49.5l1 -20q-40 -27 -98 -50.5t-109 -26.5q-66 -61 -133 -61q-25 0 -43 8t-27.5 20t-15 30t-7 32.5
t-1.5 33.5q0 60 50 202q-13 -6 -13 6q0 4 5.5 9t10.5 9l6 3q65 164 121 249q136 200 242 200q18 0 29 -4.5t15 -14t5 -15.5t1 -18zM421 686q0 21 -7 29.5t-25 8.5q-44 0 -104.5 -90.5t-122.5 -251.5q3 3 49.5 41t80.5 72q70 70 99.5 110.5t29.5 80.5zM304 240q0 43 -12 60
t-40 17q-41 0 -81.5 -43t-40.5 -120q0 -59 24 -82t69 -21q12 11 24 27q28 38 42.5 85.5t14.5 76.5zM194 27q-66 -4 -95 58l-3 -1q-1 -33 14.5 -54t36.5 -21q11 0 23 4.5t18 8.5z" />
    <glyph glyph-name="afii10068" unicode="&#x433;" horiz-adv-x="329" 
d="M346 123q-37 -35 -113 -86q-89 -58 -126 -58q-14 0 -20.5 7t-7 12t-0.5 20q0 17 46 147q49 140 49 164q0 20 -15 20q-14 0 -30 -9t-52 -40q-4 0 -7 2.5t-4 5.5l-1 2q125 115 171 115q8 0 12.5 -1t9.5 -10t5 -26q0 -26 -50 -171q-46 -125 -46 -150q0 -24 18 -24
q12 0 27.5 6t33.5 18t31.5 22l33 25.5t26.5 20.5z" />
    <glyph glyph-name="afii10069" unicode="&#x434;" horiz-adv-x="364" 
d="M377 476q0 -58 -24 -141t-61 -153q-107 -199 -218 -199q-50 0 -50 87q0 49 23.5 116.5t43.5 100.5q34 57 64.5 91t47.5 34q10 0 13.5 -6.5t3.5 -24.5q0 -35 -35.5 -97.5t-76.5 -117.5q-4 -35 -4 -46q0 -30 1 -42.5t9 -23t24 -10.5q62 0 128 150q23 53 33.5 119t10.5 107
q0 132 -35.5 192t-88.5 60q-33 0 -48 -9q-25 -15 -25 -33q0 -6 3 -9.5t3 -5.5q0 -6 -5 -6t-10.5 8.5t-5.5 20.5q0 39 34.5 63.5t83.5 24.5q74 0 117.5 -59.5t43.5 -190.5zM178 357q-13 0 -37.5 -64t-26.5 -86q15 16 34.5 52.5t27.5 62.5q1 4 3.5 10.5t3.5 10t1.5 7.5t-1 5.5
t-5.5 1.5z" />
    <glyph glyph-name="afii10070" unicode="&#x435;" horiz-adv-x="399" 
d="M429 104q-1 -7 -43 -35t-113 -56t-131 -28q-126 0 -126 125q0 46 25 107t74 119q56 67 117 101t103 34q28 0 39.5 -7.5t11.5 -26.5q0 -38 -120 -151l-158 -146q-4 -60 19.5 -85t72.5 -25q29 0 63 9.5t61.5 23t50.5 27.5t36 24l13 9q6 -10 5 -19zM301 392q0 24 -29 24
q-21 0 -49.5 -16.5t-51.5 -45.5q-24 -31 -44 -81.5t-22 -99.5q70 58 120 109q76 78 76 110z" />
    <glyph glyph-name="afii10072" unicode="&#x436;" horiz-adv-x="725" 
d="M771 124q0 -22 -86 -75.5t-141 -53.5q-65 0 -65 86q0 48 28 136l-4 4l-48.5 -62.5l-54 -69t-35.5 -43.5q-44 -50 -59 -50q-11 0 -11 10q0 19 27 102q41 128 86 247q-21 -14 -55 -44t-57 -53l-24 -22q-47 -120 -86 -178q-47 -70 -95 -70q-24 0 -24 25t30.5 73.5t63.5 78.5
l29 27q6 10 14.5 54.5t8.5 74.5q0 24 -1 39t-5 32t-13 25t-23 8q-33 0 -85 -52q-15 -15 -28 -31t-25.5 -33t-12.5 -18q-10 0 -10 9q0 5 19 31q38 53 96.5 100.5t107.5 47.5q65 0 65 -95q0 -49 -18 -116q44 46 90 85q85 72 119 72q7 0 7 -9q0 -5 -9.5 -29.5l-38 -100.5
t-61.5 -173l3 -1l160 200q59 90 82 116q19 21 46 21q22 0 22 -19q0 -44 -75 -109q-62 -104 -62 -213q0 -16 0.5 -23.5t3 -20.5t9.5 -19t19 -6q32 0 70.5 22.5t61.5 44.5l23 22q14 6 16 6q6 0 5 -10z" />
    <glyph glyph-name="afii10073" unicode="&#x437;" horiz-adv-x="339" 
d="M357 401q0 -35 -28 -76.5t-61 -70.5l-61 -52.5t-28 -28.5t21.5 -31.5t42.5 -68.5t21 -85q0 -54 -27 -109t-70 -99t-94 -79.5t-102.5 -54.5t-91.5 -19q-94 0 -94 82q0 36 29 74t66.5 63.5t71 42.5t45.5 17q7 0 7 -8q-1 -9 -31 -22q-46 -20 -78.5 -58t-32.5 -79
q0 -26 15 -46t49 -20q32 0 74 19t83.5 51.5t70 85t28.5 111.5q0 44 -13 79t-28 52t-28 34t-13 30q0 9 3.5 17t12.5 16.5t17 14.5t25.5 18t28.5 21q82 60 88 142q2 30 -11 43.5t-46 13.5q-48 0 -81 -44q-34 -45 -54 -45q-24 0 -24 28q0 20 46 49q105 61 180 61q72 0 72 -69z
" />
    <glyph glyph-name="afii10074" unicode="&#x438;" horiz-adv-x="488" 
d="M533 114q-27 -21 -124 -80q-97 -58 -141 -58q-19 0 -19 22q0 23 43 166l24 80q-118 -124 -242 -223q-35 -27 -54 -27q-20 0 -20 28t32 109l54 137q8 20 17 45l15 41t11 26q14 31 40.5 47t45.5 16q7 0 7 -11q-3 -29 -17 -64l-61 -157q-35 -89 -35 -94q0 -12 8 -12
q20 0 79 54q5 5 19 17.5l18.5 16.5l15.5 14.5l15.5 15l13.5 14t14.5 16l13.5 16t15 19.5l15 21q5 9 14 33.5t19 45t22 32.5q30 30 62 30q16 0 16 -18q0 -34 -50 -104q-10 -23 -37 -109q-46 -153 -46 -160q0 -17 11 -17q23 0 57.5 15t53.5 27l66 42z" />
    <glyph glyph-name="afii10075" unicode="&#x439;" horiz-adv-x="503" 
d="M265 533q0 4 6 22q21 47 45 47q4 0 9 -6.5l11 -14t23.5 -14t44.5 -6.5q37 0 75 28.5t49 64.5q6 18 25 18q12 0 11 -16q0 -9 -12 -29t-31 -38q-90 -81 -198 -81q-24 0 -41.5 7.5t-16.5 17.5zM537 114q-27 -21 -124 -80q-97 -58 -141 -58q-19 0 -19 22q0 23 43 166l24 80
q-118 -124 -242 -223q-35 -27 -54 -27q-20 0 -20 28t32 109l54 137q8 20 17 45l15 41t11 26q14 31 40.5 47t45.5 16q7 0 7 -11q-3 -29 -17 -64l-61 -157q-35 -89 -35 -94q0 -12 8 -12q20 0 79 54q5 5 19 17.5l18.5 16.5l15.5 14.5l15.5 15l13.5 14t14.5 16l13.5 16t15 19.5
l15 21q5 9 14 33.5t19 45t22 32.5q30 30 62 30q16 0 16 -18q0 -34 -50 -104q-10 -23 -37 -109q-46 -153 -46 -160q0 -17 11 -17q23 0 57.5 15t53.5 27l66 42z" />
    <glyph glyph-name="afii10076" unicode="&#x43a;" horiz-adv-x="515" 
d="M541 79q-141 -119 -236 -119q-43 0 -73 24.5t-47 92.5q-10 43 -18.5 85.5t-11.5 52.5q-22 -31 -31 -51l-35 -85q-17 -43 -27 -53q-8 -8 -26 -16.5t-29 -8.5q-21 0 -21 14q0 7 22 65l40 112l68 189q16 44 25 54q12 13 34.5 21t38.5 8q7 0 7 -11q0 -10 -21 -59
q-44 -109 -56 -147l5 -1l45 48.5t41.5 40t61.5 53.5q39 31 85.5 50t79.5 19q35 0 35 -25q0 -47 -102 -110l-6 9q33 25 33 62q0 14 -20 14q-45 0 -108 -49q-25 -20 -47.5 -41t-32.5 -33l-9 -11q11 1 16 1q14 0 18 -19q22 -114 26 -133q25 -108 93 -108q72 0 174 83z" />
    <glyph glyph-name="afii10077" unicode="&#x43b;" horiz-adv-x="481" 
d="M522 122q-65 -47 -118 -78q-94 -55 -129 -55q-21 0 -21 28q0 25 38 177l10 40l-4 2q-12 -13 -43.5 -53t-49.5 -61q-100 -119 -166 -119q-39 0 -39 56q0 15 6 39t17 36q12 13 40 22q-4 -74 28 -74q13 0 22 2.5t31 20t53 51.5q79 89 117 145q21 72 48 120q13 15 38 23t40 8
q11 0 11 -14q0 -32 -54 -138q-20 -52 -41.5 -130t-21.5 -96v-5v-5.5t0.5 -4.5t2 -4.5t4.5 -3t7 -1.5q13 0 30 6t45.5 22.5t40.5 24l49 31.5z" />
    <glyph glyph-name="afii10078" unicode="&#x43c;" horiz-adv-x="715" 
d="M749 123q-30 -22 -121 -77q-97 -59 -145 -59q-17 0 -17 28q0 12 12 57t24 84l11 40l-3 1l-24.5 -27t-27 -25.5l-26 -22.5l-40.5 -34l-50 -42q-18 -15 -46 -30t-40 -15q-11 0 -14 4.5t-3 15.5q0 16 46 173l14 48l-4 2q-33 -46 -97 -122q-97 -115 -166 -115q-39 0 -39 52
q0 14 7.5 38.5t17.5 34.5q20 20 38 24q-4 -74 24 -74q14 0 23 2t33 19.5t54 52.5q92 105 124 166q7 18 15 45t19 46q24 27 54 27h7h6h5t4 -0.5t3 -1t2.5 -2t1 -3.5t0.5 -5q0 -48 -41 -128q-61 -177 -61 -194q0 -1 -0.5 -4.5t0 -5t2 -3t5.5 -1.5q8 0 36.5 17.5t73.5 57
t81 86.5q6 15 21 61t29 77.5t28 45.5q19 19 61 19q3 0 5 -0.5t3.5 -1.5t2.5 -2.5t1.5 -3t0.5 -4v-4v-5v-4.5q0 -26 -21 -69.5t-43 -75.5q-15 -38 -38 -119t-23 -94q0 -2 -0.5 -7.5t0 -7.5t2 -5.5t5.5 -4.5t11 -1q32 0 168 88z" />
    <glyph glyph-name="afii10079" unicode="&#x43d;" horiz-adv-x="495" 
d="M533 114q-57 -45 -124 -80q-111 -58 -141 -58q-19 0 -19 22q0 23 43 166l22 68q-39 -33 -127 -58l-60 -11q-5 -32 -20.5 -78t-32.5 -64q-26 -27 -54 -27q-15 0 -19.5 5.5t-4.5 19.5q0 2 29 95l17 53q-9 19 -9 26q0 11 11 19.5t27 9.5l9 22q9 21 21 56t21.5 59t16.5 35
q30 49 76 49q7 0 7 -11q0 -3 -5 -16l-13.5 -33.5t-12.5 -32.5l-48 -140q23 -1 51 3q53 7 87 22.5t42 27.5q8 20 17 47l7 21.5l7 21.5t7 18t8.5 18.5t9 15t12.5 15.5q13 13 35 24q12 6 27 6q16 0 16 -18q0 -53 -74 -158q-59 -164 -59 -210q0 -22 11 -22q22 0 56 14.5t55.5 28
l65.5 41.5z" />
    <glyph glyph-name="afii10080" unicode="&#x43e;" horiz-adv-x="462" 
d="M501 110q-73 -52 -132 -78t-128 -26q-21 0 -33 4q-47 -25 -99 -25q-40 0 -67.5 26.5t-27.5 82.5q0 43 19 106q33 111 76 154q18 18 43 18q13 0 22 -9h3q3 3 9 8q28 25 44 37t47 24.5t65 12.5q89 0 89 -108q0 -75 -53.5 -165t-129.5 -135q4 -4 35 -4q88 0 209 89zM351 304
q0 83 -68 83q-40 0 -71 -26q-25 -21 -48 -69t-28 -115q-5 -119 78 -133q60 30 98.5 109.5t38.5 150.5zM157 28q-66 41 -50 172h-3q-11 -34 -14 -75q-2 -29 4 -50t17 -30t20 -13t16 -4h10z" />
    <glyph glyph-name="afii10081" unicode="&#x43f;" horiz-adv-x="464" 
d="M510 123q-12 -12 -118 -79q-104 -67 -137 -67q-13 0 -13 21q0 23 43 166q48 161 49 174v3v4.5t-3 3t-9 1.5q-13 0 -57 -41.5t-89 -95.5q-44 -54 -75 -117q-27 -56 -42 -72.5t-33 -16.5q-13 0 -13 19q0 25 19 66l13 30t8 19l40 138q6 20 16.5 60t11.5 43q8 29 37 46t49 17
q7 0 7 -11q0 -4 -23 -74l-47 -142h3q68 76 128 127t92.5 68.5t48.5 17.5q14 0 12 -19q-1 -25 -53 -193l-15 -48.5l-21.5 -69.5t-9.5 -37v-5q-1 -10 9 -10q30 0 163 86z" />
    <glyph glyph-name="afii10082" unicode="&#x440;" horiz-adv-x="446" 
d="M444 364q0 -86 -64.5 -184.5t-131.5 -144.5q-71 -49 -120 -49q-35 0 -35 26q0 39 37 87.5t90 90.5q60 48 138 90q5 18 5 54q0 75 -60 75q-51 0 -137 -92q-23 -53 -114 -314q-79 -226 -103 -309q0 -2 -1.5 -15t-2.5 -20q-4 -24 -32 -47q-22 -17 -45 -17q-20 0 -20 26
t22 83l152 406l86 240q34 93 39 98q13 13 32 22.5t25 9.5q9 0 9 -6q0 -19 -34 -107l5 -1q38 38 91 68t87 30q42 0 62 -23t20 -77zM351 246q-22 -8 -59 -31t-64 -50q-72 -72 -72 -117q0 -18 28 -18q33 0 66 33q77 77 101 183z" />
    <glyph glyph-name="afii10083" unicode="&#x441;" horiz-adv-x="385" 
d="M417 117q0 -7 -46.5 -38t-121.5 -62.5t-135 -31.5q-106 0 -106 117q0 55 33.5 124t91.5 128q48 50 107.5 80.5t92.5 30.5q14 0 22 -1.5t15.5 -10.5t7.5 -26q0 -51 -34 -79q-28 -23 -53 -23q-5 0 -8 6l10 22q10 22 10 40q0 21 -21 21q-64 0 -124 -88t-60 -184
q0 -109 73 -109q49 0 107 24q33 14 64 32.5t46.5 29.5t16.5 11h4t4 -1t3.5 -4t0.5 -8z" />
    <glyph glyph-name="afii10084" unicode="&#x442;" horiz-adv-x="669" 
d="M737 592q-54 -34 -158.5 -63t-230.5 -29q-57 0 -96 21q18 27 38 43q42 -20 160 -20q48 0 90.5 4t74 11.5t52 13.5t40.5 14t24 9zM706 123l-118 -79q-104 -67 -137 -67q-17 0 -17 28q0 14 47 159q47 149 49 174q0 2 1 6.5t0 6t-5 1.5q-15 0 -48 -33q-55 -55 -108 -127
q-12 -16 -29.5 -45.5l-30.5 -52.5t-15 -25q-57 -49 -77 -49q-4 0 -4 4q0 12 22 75l63 180q18 52 20 71q0 8 -5 9q-17 0 -82 -67q-87 -88 -164 -250q-10 -12 -30 -25t-35 -13q-11 0 -11 15q0 12 23 74q33 89 55 167q26 95 37 120q11 27 39.5 45t46.5 18q7 0 7 -11
q-1 -11 -21 -73q-10 -33 -27 -79l-28 -76l-12 -30l4 -3q22 36 60 84t70 79q113 108 150 107q16 0 16 -19q0 -13 -12 -52t-34 -101l-21 -62h3q98 117 166 170.5t98 53.5q12 0 12 -19q0 -20 -53 -193l-15.5 -47.5t-21.5 -69t-9 -38.5q0 -15 9 -15q30 0 163 86z" />
    <glyph glyph-name="afii10085" unicode="&#x443;" horiz-adv-x="452" 
d="M481 441q0 -15 -16 -51q-8 -17 -53 -94q-80 -221 -112 -299q-87 -214 -168 -291q-125 -119 -218 -119q-44 0 -71.5 11.5t-34.5 22.5t-7 20q17 44 23 55q13 -22 40.5 -42t60.5 -20h15h17.5t16.5 1.5t20 4l19.5 8t23.5 12.5t23.5 18.5t27.5 25.5q23 24 56.5 91.5
t57.5 125.5l63.5 159l48.5 124l-3 1q-75 -86 -166 -156.5t-125 -70.5q-16 0 -16 25q0 27 32 107l56.5 149.5t46.5 120.5q11 27 39.5 45t46.5 18q7 0 7 -11q-2 -24 -17 -64q-107 -252 -107 -287q0 -9 9 -10q10 0 37.5 18t45.5 35q88 85 141 171l28 74q18 46 39 65
q28 23 60 23q13 0 13 -16z" />
    <glyph glyph-name="afii10086" unicode="&#x444;" horiz-adv-x="615" 
d="M610 317q0 -65 -43.5 -137.5t-125 -129t-176.5 -64.5q-40 -108 -68 -206q-7 -24 -26 -136q-26 -58 -60 -58q-17 0 -17 19q0 32 35 151q13 45 28 91.5l28.5 86.5t16.5 51q-178 14 -178 156q0 97 116 180q27 55 97 97t136 46l40 104q19 49 39.5 88.5t37 62t32 38t24 20.5
t12.5 5q6 0 7.5 -1.5t0.5 -5.5q0 -3 -4 -10t-5 -8q-39 -78 -44 -89q-16 -37 -45.5 -114l-34.5 -90q73 1 125 -34t52 -113zM357 414q-3 0 -16.5 -1t-21 -2l-22 -3t-25.5 -6.5l-26 -10.5t-29.5 -15.5t-29.5 -22.5l2 -2q40 24 81 38t62 15l21 2zM529 283q0 40 -12.5 68
t-33 40.5t-38 17t-35.5 4.5l-3 -12q13 1 20 -1q33 -7 33 -24q0 -8 -2.5 -11.5t-4.5 -4t-7 -0.5h-2q-7 0 -22.5 4.5t-25.5 5.5q-7 -24 -51.5 -154t-61.5 -184q84 -14 165 58t81 193zM342 374q-31 4 -76.5 -10.5t-84.5 -47.5q-22 -44 -22 -66q0 -26 16 -38q-10 -11 -28 -11
q-21 0 -32 25q-9 -22 -9 -65q0 -52 35 -85.5t82 -37.5z" />
    <glyph glyph-name="afii10087" unicode="&#x445;" horiz-adv-x="448" 
d="M489 118q-26 -35 -94.5 -90.5t-119.5 -55.5q-70 0 -113 170q-12 -15 -39.5 -46.5t-43.5 -51.5l-18.5 -24l-19 -24.5l-15.5 -19.5t-14.5 -15t-10.5 -5q-5 0 -7.5 1.5t-2.5 3.5t1 6.5t1 8.5q14 28 160 191q-12 45 -21.5 77.5l-13 44.5t-5.5 21q-8 31 -17.5 45t-9.5 24
q0 16 31 45q18 16 32 16q8 0 12.5 -1t11 -10t10.5 -27l36 -168q69 81 124 138q56 58 70 58q19 0 19 -17q0 -10 -5 -17.5t-12.5 -13l-23.5 -17.5t-30 -25q-84 -76 -134 -138q24 -93 45.5 -130t62.5 -37q23 0 64.5 28.5t80.5 66.5z" />
    <glyph glyph-name="afii10088" unicode="&#x446;" horiz-adv-x="482" 
d="M473 432q0 -12 -1.5 -20.5t-13.5 -30t-35 -53.5q-7 -15 -20.5 -58t-16.5 -51q-28 -84 -28 -145q0 -21 10 -60t10 -76q0 -73 -66.5 -181.5t-116.5 -139.5l-12 1q49 51 89 128t40 138q0 46 -16 99t-16 73q0 29 10 76t20 80l10 32q-122 -124 -242 -223q-33 -27 -54 -27
q-13 0 -16.5 8.5t-3.5 30.5q0 15 32 98l54 137l27.5 71.5l15.5 40.5q11 27 39.5 45t46.5 18q7 0 7 -11q0 -21 -17 -64l-61 -157q-35 -90 -35 -94q0 -12 8 -12q20 0 79 54q115 105 140 150q3 6 21 50.5t34 60.5q13 13 35 24q12 6 27 6q16 0 16 -18z" />
    <glyph glyph-name="afii10089" unicode="&#x447;" horiz-adv-x="417" 
d="M454 114q-49 -38 -124 -80q-100 -56 -147 -56q-21 0 -21 27q0 40 41 153q30 80 70 172l-3 4q-57 -20 -91 -20q-51 0 -72 43l-8 -6q-13 -10 -19 -10q-7 0 -7 9q0 7 16 21l12 10q-3 22 0 51t20.5 57t48.5 28q32 0 32 -28q0 -21 -10 -47.5t-22 -42.5q2 -38 48 -38
q39 0 74 16q38 18 51 18q12 0 12 -11q0 -18 -26 -83q-22 -55 -51.5 -140.5t-29.5 -95.5q0 -11 3 -15.5t7.5 -5.5t15.5 -1q42 0 171 83z" />
    <glyph glyph-name="afii10090" unicode="&#x448;" horiz-adv-x="751" 
d="M800 123q-57 -45 -124 -80q-110 -58 -141 -58q-22 0 -22 28q0 19 3 40.5t10.5 48.5t12.5 42l16 47.5l13 38.5l-3 1q-218 -224 -291 -224q-18 0 -18 20t20 76l45 122l-2 1q-57 -64 -152.5 -148t-129.5 -84q-23 0 -23 32q0 23 31 105q52 136 100 249q11 27 39.5 45t46.5 18
q7 0 7 -11q-3 -27 -17 -64l-102 -257q-8 -23 4 -23q19 0 88.5 62t124.5 127q4 9 16.5 39.5t24.5 56t23 38.5q31 36 66 36q21 0 21 -21q0 -14 -18.5 -50.5t-42.5 -70.5q-49 -130 -65 -183q0 -2 -1.5 -5.5t-2 -6t-1 -5.5t-0.5 -5.5t0.5 -4.5t2.5 -3t5 -1q20 0 97.5 70.5
t118.5 118.5l12 31.5t13.5 35t15 30.5t19.5 29q27 32 60 32q21 0 21 -19q0 -44 -63 -130q-62 -161 -62 -216q0 -22 18 -22q22 0 56 14.5t55.5 28l65.5 41.5z" />
    <glyph glyph-name="afii10091" unicode="&#x449;" horiz-adv-x="740" 
d="M721 419q0 -44 -63 -130q-64 -166 -64 -241q0 -17 6 -54t6 -64q0 -74 -57 -172t-118 -167l-15 1q52 71 88 147.5t36 136.5q0 35 -11.5 85t-11.5 83q0 28 11.5 74t23.5 78l12 33l-4 2q-44 -54 -144.5 -139t-141.5 -85q-18 0 -18 24q0 10 18 64l47 130l-2 1
q-83 -87 -169.5 -159.5t-112.5 -72.5q-24 0 -24 31q0 21 32 106q52 136 100 249q11 27 39.5 45t46.5 18q7 0 7 -11q0 -16 -19 -63l-58 -147q-45 -114 -45 -124t7 -10q16 0 88 63t125 126q46 110 67 134t35.5 30t34.5 6q14 0 14 -21q0 -14 -18.5 -50.5t-42.5 -70.5l-65 -183
q0 -2 -1.5 -6.5t-2 -8t-1 -7.5t1.5 -6.5t6 -2.5q24 0 96.5 67t116.5 124q4 8 18 38t26.5 53t21.5 34q26 31 57 31q21 0 21 -19z" />
    <glyph glyph-name="afii10092" unicode="&#x44a;" horiz-adv-x="388" 
d="M368 222q0 -24 -14.5 -60t-40.5 -66q-101 -119 -203 -119q-24 0 -37 17.5t-13 41.5q0 21 8 51t29.5 80.5l33 77l42.5 93.5q15 35 15 51q0 19 -37 19q-46 0 -105 -33l14 24q19 16 69.5 32t93.5 16q39 0 39 -30q0 -28 -12 -55l-51 -120q42 42 103 42q66 0 66 -62zM289 168
q0 46 -33 57.5t-67 -7.5q-2 -6 -12 -31l-13.5 -34t-9.5 -28t-8 -33.5t-2 -28.5q0 -34 44 -34q32 0 66.5 47t34.5 92z" />
    <glyph glyph-name="afii10093" unicode="&#x44b;" horiz-adv-x="586" 
d="M634 114q-57 -45 -124 -80q-88 -46 -125 -46q-25 0 -25 36q0 31 33 140q2 5 15.5 47t23.5 77.5t10 49.5q0 30 -24 30q-33 0 -91.5 -25t-63.5 -39q44 -46 52 -67q7 -15 7 -31q0 -58 -51 -110q-115 -119 -227 -119q-47 0 -47 43q0 52 56 181q0 1 19.5 49.5l38.5 93t30 66.5
q12 15 36 26t33 11q15 0 15 -13q0 -10 -19 -55l-90 -215q-34 -86 -34 -100q0 -19 9 -27t31 -8q51 0 88 48.5t37 90.5q0 26 -12.5 49t-25 39t-12.5 24q0 13 39 39t86 47q102 44 134 44q19 0 28 -0.5t21.5 -11t12.5 -32.5q0 -34 -30 -124q-51 -152 -51 -178q0 -22 11 -22
q22 0 56 14.5t55.5 28l65.5 41.5z" />
    <glyph glyph-name="afii10094" unicode="&#x44c;" horiz-adv-x="338" 
d="M317 222q0 -24 -14.5 -60t-40.5 -66q-101 -119 -203 -119q-24 0 -37 17.5t-13 41.5q0 55 44 166q33 82 86 162q22 33 48.5 57t45.5 24q13 0 13 -10q0 -5 -5.5 -14l-16 -25.5l-17.5 -27.5q-21 -38 -59 -126q42 42 103 42q66 0 66 -62zM238 168q0 46 -33 57.5t-67 -7.5
l-8.5 -22t-9 -23t-7.5 -20t-7 -22t-4.5 -20.5t-3.5 -23.5t-1 -23q0 -35 40 -35q32 0 66.5 47t34.5 92z" />
    <glyph glyph-name="afii10095" unicode="&#x44d;" horiz-adv-x="442" 
d="M474 267q-6 -23 -24 -33q-9 -7 -25 -8q-47 -94 -109 -156q-92 -90 -176 -90q-94 0 -94 70q0 26 18.5 42t39.5 18q11 -84 74 -84q54 0 104 50q27 28 48.5 73t27.5 72l-86 -4l-92 -5q-17 -2 -17 8q0 13 29 20q18 5 62 10l113 11q7 35 7 65q0 76 -70 76q-43 0 -109 -32
t-111 -82q-4 -6 -13 -6t-9 8l6 18q66 65 148.5 105.5t141.5 40.5q96 0 96 -94q0 -56 -12 -92q20 -1 32 -1z" />
    <glyph glyph-name="afii10096" unicode="&#x44e;" horiz-adv-x="653" 
d="M711 110q-73 -52 -132 -78t-128 -26l-33 4q-47 -25 -89 -25q-38 0 -62.5 26.5t-24.5 82.5q0 53 18 110q-40 -21 -73 -30l-60 -11q-28 -115 -53 -142t-54 -27q-15 0 -19.5 5.5t-4.5 19.5q0 5 29 95l17 53q-9 19 -9 26q0 11 11 19.5t27 9.5l9 22q17 43 29.5 77.5l17.5 48
t12 24.5q16 25 37.5 37t38.5 12q7 0 7 -11q0 -4 -5 -17t-13 -32t-13 -33l-48 -140q23 -1 51 3q53 8 80 31q30 85 55 110q18 18 43 18q13 0 22 -9h3q2 1 16 14t17 15.5l16 13t19 13.5t18.5 10t21.5 9t21.5 4.5t25.5 2.5q89 0 89 -108q0 -75 -53.5 -165t-129.5 -135
q4 -4 35 -4q88 0 209 89zM561 304q0 83 -68 83q-15 0 -39 -13t-50 -36.5t-45 -66t-19 -93.5q0 -117 79 -132q42 9 76 54.5t50 100t16 103.5z" />
    <glyph glyph-name="afii10097" unicode="&#x44f;" horiz-adv-x="457" 
d="M493 112q-44 -32 -116 -74q-84 -49 -124 -49q-28 0 -28 28q0 20 19.5 70t19.5 56q0 4 -2.5 6.5t-5.5 2.5l-2 1q-45 -53 -92 -94q-78 -67 -139 -67q-50 0 -50 53q0 29 19.5 52t37.5 29q-2 -7 -0.5 -18.5t4.5 -23t13 -20t26 -8.5q43 0 91 38q34 27 73 69l-18 12t-21 14.5
t-18.5 16.5t-18 22t-10.5 26.5t-5 34.5q0 70 68 119t118 49q37 0 52 -15.5t15 -47.5q0 -40 -24.5 -87t-48.5 -74l-24 -27l10 -5t11.5 -6t9 -6.5t7.5 -11t2 -14.5q0 -15 -13 -47.5t-13 -43.5q0 -22 17 -22q36 0 151 74zM344 358q0 62 -41 62q-37 0 -62 -28t-25 -73
q0 -40 13 -60.5t52 -44.5q29 31 46 72.5t17 71.5z" />
    <glyph glyph-name="afii10071" unicode="&#x451;" horiz-adv-x="378" 
d="M489 581q-2 -24 -18 -43q-14 -16 -45 -17q-2 0 -8.5 -0.5t-8.5 0t-5.5 2t-5.5 5.5q-6 10 -4 33q4 34 17 48q15 15 49 16q18 0 24 -11t5 -33zM346 581q-1 -26 -18 -43q-16 -16 -45 -17q-19 0 -27 7q-3 3 -4.5 7t-1.5 7t0.5 9t0.5 10q3 34 18 48q15 15 49 16q18 0 24 -10
q6 -12 4 -34zM429 104q-1 -7 -43 -35t-113 -56t-131 -28q-126 0 -126 125q0 46 25 107t74 119q56 67 117 101t103 34q28 0 39.5 -7.5t11.5 -26.5q0 -38 -120 -151l-158 -146q-4 -60 19.5 -85t72.5 -25q29 0 63 9.5t61.5 23t50.5 27.5t36 24l13 9q6 -10 5 -19zM301 392
q0 24 -29 24q-21 0 -49.5 -16.5t-51.5 -45.5q-24 -31 -44 -81.5t-22 -99.5q70 58 120 109q76 78 76 110z" />
    <glyph glyph-name="afii10099" unicode="&#x452;" horiz-adv-x="428" 
d="M409 412q-1 -15 -8 -42.5t-23.5 -80.5l-21.5 -70q-82 -281 -156 -405q-50 -82 -132 -121q-23 -10 -34 -10q-9 0 -9 6q0 4 3.5 6.5t7.5 4t10 3.5t9 4q32 21 54.5 48.5t49.5 86.5q29 63 63 175l27 87l22 71.5l16.5 54l13 42.5t8 29.5t5 22.5t1.5 14v3v4.5t-3 3t-9 1.5
q-13 0 -57 -41.5t-89 -95.5q-30 -37 -81 -141q-27 -56 -42 -72.5t-33 -16.5q-13 0 -13 19q0 25 19 66q5 10 10 24l10 29t7 20l115 331q6 19 13 35q-10 0 -31.5 -0.5t-28.5 -1.5q-10 -1 -26 -1q-17 0 -17 11q1 21 20 33q15 8 48 8h52q41 110 49 134q7 20 28 34q12 9 26.5 14
t22.5 6h8q9 0 9 -10q-25 -60 -41 -104q-18 -50 -28 -75h35l91 4q18 1 18 -7q-2 -9 -21 -19q-52 -26 -133 -26h-8l-110 -289h3q68 76 128 127t92.5 68.5t48.5 17.5q14 0 12 -19z" />
    <glyph glyph-name="afii10100" unicode="&#x453;" horiz-adv-x="329" 
d="M374 665q0 -8 -42 -54t-84 -83q-15 -10 -21 -10t-6 8q0 7 61 105q29 48 80 48q8 0 10 -2.5t2 -11.5zM346 123q-37 -35 -113 -86q-89 -58 -126 -58q-14 0 -20.5 7t-7 12t-0.5 20q0 17 46 147q49 140 49 164q0 20 -15 20q-14 0 -30 -9t-52 -40q-4 0 -7 2.5t-4 5.5l-1 2
q125 115 171 115q8 0 12.5 -1t9.5 -10t5 -26q0 -26 -50 -171q-46 -125 -46 -150q0 -24 18 -24q12 0 27.5 6t33.5 18t31.5 22l33 25.5t26.5 20.5z" />
    <glyph glyph-name="afii10101" unicode="&#x454;" horiz-adv-x="245" 
d="M181 334q-2 -26 -17.5 -44.5t-44.5 -18.5q-21 0 -29 9t-7 33q2 34 16.5 51t48.5 17q21 0 28 -11t5 -36z" />
    <glyph glyph-name="afii10102" unicode="&#x455;" horiz-adv-x="378" 
d="M404 423q-9 -23 -23 -34.5t-39 -19.5q-5 20 -29.5 29.5t-50.5 9.5q-36 0 -67.5 -18.5t-31.5 -54.5q0 -23 18 -38q16 -13 61.5 -42.5t60.5 -43.5q25 -23 25 -58q0 -40 -45.5 -89.5t-109.5 -71.5q-36 -12 -90 -12q-37 0 -69 17.5t-36 42.5q3 21 32 40q29 18 40 18
q17 -74 88 -74q50 0 84.5 25.5t34.5 63.5q0 35 -30 58q-12 9 -50 34t-55 39q-29 26 -29 60q0 33 34 70.5t111 60.5q36 11 85 11q23 0 43 -6t29 -12z" />
    <glyph glyph-name="afii10103" unicode="&#x456;" horiz-adv-x="303" 
d="M273 591q0 -27 -17.5 -45t-49.5 -18q-33 0 -33 42q0 67 70 68q17 1 23.5 -9.5t6.5 -37.5zM389 164q-108 -80 -156 -110q-124 -76 -178 -76q-40 0 -40 48q0 36 31 131l87 255q8 24 40 36q20 7 39 7q8 0 8 -11q0 -5 -6.5 -24.5t-18.5 -52l-19 -52.5q-9 -29 -33 -97
t-35.5 -105t-11.5 -47q0 -14 0.5 -19.5t5.5 -11t15 -5.5q40 0 131 57.5t139 100.5z" />
    <glyph glyph-name="afii10104" unicode="&#x457;" horiz-adv-x="317" 
d="M333 591q0 -27 -17 -45t-50 -18q-20 0 -26.5 10t-6.5 32q0 31 18 51q15 17 52 17q17 0 23.5 -10t6.5 -37zM213 591q0 -27 -17 -45t-50 -18q-20 0 -26.5 10t-6.5 32q0 31 18 51q15 17 52 17q17 0 23.5 -10t6.5 -37zM381 136q-107 -81 -198 -119.5t-128 -38.5q-41 0 -41 48
q0 38 29 124q17 53 90 262q7 21 40 36q16 7 39 7q8 0 8 -11q0 -5 -44 -129q-5 -15 -15.5 -44l-16.5 -45.5l-15 -41.5t-14 -41l-10 -33.5t-7.5 -29.5t-2.5 -20q0 -9 0.5 -12.5t2 -8.5t6.5 -7t13 -2q40 0 113.5 35.5t144.5 84.5z" />
    <glyph glyph-name="afii10105" unicode="&#x458;" horiz-adv-x="230" 
d="M273 591q0 -27 -17.5 -45t-49.5 -18q-33 0 -33 42q0 67 70 68q17 1 23.5 -9.5t6.5 -37.5zM227 444q0 -6 -6.5 -26t-19.5 -53.5t-18 -49.5l-88 -239q-67 -182 -131 -268q-65 -88 -140 -122q-21 -9 -35 -9q-11 0 -11 8q0 4 5.5 7.5t14.5 6.5t13 5q58 41 97.5 108t91.5 199
q34 86 79 212.5t61 188.5q2 10 13.5 20.5t26.5 15.5q20 7 39 7q8 0 8 -11z" />
    <glyph glyph-name="afii10106" unicode="&#x459;" horiz-adv-x="598" 
d="M568 222q0 -24 -15 -60t-40 -66q-101 -119 -193 -119q-28 0 -41.5 17.5t-13.5 40.5q0 52 27 159l10 40l-4 2q-12 -13 -43.5 -53t-49.5 -61q-100 -119 -166 -119q-39 0 -39 56q0 15 6 39t17 36q12 13 40 22q0 -2 0.5 -18t2 -26t8 -20t17.5 -10q13 0 22 2.5t31 20t53 51.5
q79 89 117 145q21 72 48 120q13 15 38 23t40 8q11 0 11 -14q0 -7 -12.5 -43l-28 -81.5t-20.5 -69.5q55 40 112 40q66 0 66 -62zM489 168q0 31 -17.5 45.5t-41 13.5t-47.5 -12q-4 -8 -19.5 -70t-15.5 -81q0 -35 30 -35q42 0 76.5 45.5t34.5 93.5z" />
    <glyph glyph-name="afii10107" unicode="&#x45a;" horiz-adv-x="579" 
d="M548 222q0 -25 -14.5 -61t-40.5 -65q-106 -119 -203 -119q-50 0 -50 59t41 157q-24 -10 -62.5 -17.5t-64.5 -9.5l-26 -3q-2 -27 -18.5 -75t-34.5 -67q-26 -27 -54 -27q-15 0 -19.5 5.5t-4.5 19.5q0 5 29 95l17 53q-9 19 -9 26q0 11 11 19.5t27 9.5l9 22l31 78t18 47
t10 25q12 27 34 38t42 11q7 0 7 -11q0 -4 -5 -17t-13 -32t-13 -33l-48 -140q78 -7 152 20q30 69 74 134q22 33 48.5 57t45.5 24q13 0 13 -10q0 -5 -5.5 -14l-16 -25.5l-17.5 -27.5q-21 -38 -59 -126q16 16 48 29t55 13q66 0 66 -62zM469 168q0 46 -33 57.5t-67 -7.5
l-8.5 -22t-9 -23t-7.5 -20t-7 -22t-4.5 -20.5t-3.5 -23.5t-1 -23q0 -35 30 -35q44 0 77.5 45.5t33.5 93.5z" />
    <glyph glyph-name="afii10108" unicode="&#x45b;" horiz-adv-x="491" 
d="M551 116q-93 -72 -169 -105t-107 -33q-40 0 -40 48q0 36 28 124q52 161 52 188v3v4.5t-3 3t-9 1.5q-13 0 -57 -41.5t-89 -95.5q-30 -37 -81 -141q-27 -56 -42 -72.5t-33 -16.5q-13 0 -13 19q0 25 19 66q5 10 10 24l10 29t7 20l115 331q6 19 13 35q-10 0 -31.5 -0.5
t-28.5 -1.5q-10 -1 -26 -1q-17 0 -17 11q1 21 20 33q15 8 48 8h52q41 110 49 134q7 20 28 34q12 9 26.5 14t22.5 6h8q9 0 9 -10q-25 -60 -41 -104q-18 -50 -28 -75h35l91 4q18 1 18 -7q-2 -9 -21 -19q-52 -26 -133 -26h-8l-110 -289h3q68 76 128 127t92.5 68.5t48.5 17.5
q14 0 12 -19q-2 -39 -53 -193q-40 -119 -42 -147q-4 -42 23 -42q64 0 208 100z" />
    <glyph glyph-name="afii10109" unicode="&#x45c;" horiz-adv-x="409" 
d="M444 665q0 -8 -42 -54t-84 -83q-15 -10 -21 -10t-6 8q0 7 61 105q29 48 80 48q8 0 10 -2.5t2 -11.5zM541 79q-141 -119 -236 -119q-43 0 -73 24.5t-47 92.5q-10 43 -18.5 85.5t-11.5 52.5q-22 -31 -31 -51l-35 -85q-17 -43 -27 -53q-8 -8 -26 -16.5t-29 -8.5
q-21 0 -21 14q0 7 22 65l40 112l68 189q16 44 25 54q12 13 34.5 21t38.5 8q7 0 7 -11q0 -10 -21 -59q-44 -109 -56 -147l5 -1l45 48.5t41.5 40t61.5 53.5q39 31 85.5 50t79.5 19q35 0 35 -25q0 -47 -102 -110l-6 9q33 25 33 62q0 14 -20 14q-45 0 -108 -49
q-25 -20 -47.5 -41t-32.5 -33l-9 -11q11 1 16 1q14 0 18 -19q22 -114 26 -133q25 -108 93 -108q72 0 174 83z" />
    <glyph glyph-name="afii10110" unicode="&#x45e;" horiz-adv-x="499" 
d="M265 533q0 4 6 22q21 47 45 47q4 0 9 -6.5l11 -14t23.5 -14t44.5 -6.5q37 0 75 28.5t49 64.5q6 18 25 18q12 0 11 -16q0 -9 -12 -29t-31 -38q-90 -81 -198 -81q-24 0 -41.5 7.5t-16.5 17.5zM481 441q0 -15 -16 -51q-8 -17 -53 -94q-80 -221 -112 -299q-87 -214 -168 -291
q-125 -119 -218 -119q-44 0 -71.5 11.5t-34.5 22.5t-7 20q17 44 23 55q13 -22 40.5 -42t60.5 -20h15h17.5t16.5 1.5t20 4l19.5 8t23.5 12.5t23.5 18.5t27.5 25.5q23 24 56.5 91.5t57.5 125.5l63.5 159l48.5 124l-3 1q-75 -86 -166 -156.5t-125 -70.5q-16 0 -16 25
q0 27 32 107l56.5 149.5t46.5 120.5q11 27 39.5 45t46.5 18q7 0 7 -11q-2 -24 -17 -64q-107 -252 -107 -287q0 -9 9 -10q10 0 37.5 18t45.5 35q88 85 141 171l28 74q18 46 39 65q28 23 60 23q13 0 13 -16z" />
    <glyph glyph-name="afii10193" unicode="&#x45f;" horiz-adv-x="525" 
d="M217 48q-20 -43 -28 -116q-10 -95 -38 -148q-17 -34 -37.5 -57t-53.5 -48l-5 8q15 18 24.5 34.5t15.5 39.5t8.5 34.5t7.5 45.5l7 47q12 81 91 162zM549 114q-27 -21 -124 -80q-97 -58 -141 -58q-19 0 -19 22q0 23 43 166l24 80q-118 -124 -242 -223q-35 -27 -54 -27
q-20 0 -20 28t32 109l54 137q8 20 17 45l15 41t11 26q14 31 40.5 47t45.5 16q7 0 7 -11q-3 -29 -17 -64l-61 -157q-35 -89 -35 -94q0 -12 8 -12q20 0 79 54q5 5 19 17.5l18.5 16.5l15.5 14.5l15.5 15l13.5 14t14.5 16l13.5 16t15 19.5l15 21q5 9 14 33.5t19 45t22 32.5
q30 30 62 30q16 0 16 -18q0 -34 -50 -104q-10 -23 -37 -109q-46 -153 -46 -160q0 -17 11 -17q23 0 57.5 15t53.5 27l66 42z" />
    <glyph glyph-name="afii10050" unicode="&#x490;" horiz-adv-x="363" 
d="M471 748q6 0 -15 -79q-11 -41 -34 -41q-11 -3 -18 -1q-2 0 -12.5 -3t-17.5 -4q-18 -4 -43 -6t-41 -2h-16l-23 -78l-82 -285q-22 -76 -34 -133q-1 -7 -5.5 -33t-6.5 -35q-5 -20 -13 -32q-12 -12 -32 -26t-31 -14q-22 0 -22 12q0 13 11 51l41.5 156.5t39.5 146.5l65 221
q1 5 3.5 14t5 19.5l3.5 14.5q-16 0 -24 1q-13 0 -14 10q0 8 19 17q15 6 44 13q23 4 51 4l130 3l14 49q7 15 23 27.5t34 12.5z" />
    <glyph glyph-name="afii10098" unicode="&#x491;" horiz-adv-x="334" 
d="M395 546q1 0 1.5 -1.5t0.5 -4.5t-0.5 -7t-2 -9.5t-2.5 -10.5t-3 -12l-3.5 -12.5l-3.5 -13.5t-3 -13q-6 -23 -16.5 -33.5t-20.5 -10.5q-11 -3 -19 -1l-12 -3q-12 -3 -19 -4q-25 -5 -45.5 -6.5t-29.5 -2.5q-9 -27 -56 -212q-29 -111 -29 -117q0 -5 1.5 -13.5t1.5 -11.5
q0 -21 -31 -47q-21 -17 -50 -22q-22 0 -23 14q0 11 7 33q33 99 40 123q10 35 25 95l11.5 45.5l12 47.5t8.5 37t4 28h-12h-19.5h-13.5q-13 1 -14 11q0 9 20 18q16 8 47 14q24 4 54 4l118 3l15 53q7 15 24.5 28.5t36.5 13.5z" />
    <glyph glyph-name="endash" unicode="&#x2013;" horiz-adv-x="573" 
d="M560 344q0 -12 -21 -22q-24 -12 -62 -18q-10 -2 -187 -8q-106 -4 -187 -4q-17 0 -17 11q0 23 22 32q22 8 54 8q12 1 31 1h28q13 0 102 1.5t126 2.5q19 1 52 2.5t39 1.5q20 0 20 -8z" />
    <glyph glyph-name="emdash" unicode="&#x2014;" horiz-adv-x="675" 
d="M629 261q0 -9 -20 -19q-30 -15 -62 -18q-16 -2 -156 -6q-56 -2 -117 -3.5t-69 -1.5q-4 -1 -42.5 -0.5t-43.5 0.5q-7 0 -15.5 -0.5t-10.5 -0.5q-17 0 -17 11q0 23 22 32q19 8 54 8q19 0 44.5 0.5t34.5 0.5q69 1 151.5 1.5t136.5 2.5l91 4q19 1 19 -11z" />
    <glyph glyph-name="quoteleft" unicode="&#x2018;" horiz-adv-x="233" 
d="M207 648q-5 -63 -43 -122t-75.5 -88.5t-53.5 -29.5q-5 0 -6 1t-0.5 3t0.5 4q0 5 12.5 14t30.5 24t29 31q24 35 28 88q2 20 -5 45.5t-6 44.5q1 18 26 38q26 21 39 21q15 0 21.5 -15.5t2.5 -58.5z" />
    <glyph glyph-name="quoteright" unicode="&#x2019;" horiz-adv-x="233" 
d="M41 482q5 63 43 122t75.5 88.5t53.5 29.5q5 0 6 -1t0.5 -3t-0.5 -4q0 -5 -12.5 -14t-30.5 -24t-29 -31q-24 -35 -28 -88q-2 -20 5 -45.5t6 -44.5q-1 -18 -26 -38q-26 -21 -39 -21q-15 0 -21.5 15.5t-2.5 58.5z" />
    <glyph glyph-name="quotedblleft" unicode="&#x201c;" horiz-adv-x="340" 
d="M201 622q4 43 -2.5 58.5t-21.5 15.5q-13 0 -39 -21q-25 -20 -26 -38q-1 -19 6 -44.5t5 -45.5q-4 -53 -28 -88q-11 -16 -29 -31t-30.5 -24t-12.5 -14v-7q1 -1 6 -1q16 0 53.5 29.5t75.5 88.5t43 122zM331 622q4 43 -2.5 58.5t-21.5 15.5q-13 0 -39 -21q-25 -20 -26 -38
q-1 -19 6 -44.5t5 -45.5q-4 -53 -28 -88q-11 -16 -29 -31t-30.5 -24t-12.5 -14v-7q1 -1 6 -1q16 0 53.5 29.5t75.5 88.5t43 122z" />
    <glyph glyph-name="quotedblright" unicode="&#x201d;" horiz-adv-x="340" 
d="M139 457q-4 -43 2.5 -58.5t21.5 -15.5q13 0 39 21q25 20 26 38q1 19 -6 44.5t-5 45.5q4 53 28 88q11 16 29 31t30.5 24t12.5 14v7q-1 1 -6 1q-16 0 -53.5 -29.5t-75.5 -88.5t-43 -122zM9 457q-4 -43 2.5 -58.5t21.5 -15.5q13 0 39 21q25 20 26 38q1 19 -6 44.5t-5 45.5
q4 53 28 88q11 16 29 31t30.5 24t12.5 14v7q-1 1 -6 1q-16 0 -53.5 -29.5t-75.5 -88.5t-43 -122z" />
    <glyph glyph-name="quotedblbase" unicode="&#x201e;" horiz-adv-x="233" 
d="M142 18q-5 -63 -43 -122t-75.5 -88.5t-53.5 -29.5q-5 0 -6 1t-0.5 3t0.5 4q0 5 12.5 14t30.5 24t29 31q24 35 28 88q2 20 -5 45.5t-6 44.5q1 18 26 38q26 21 39 21q15 0 21.5 -15.5t2.5 -58.5zM272 18q-5 -63 -43 -122t-75.5 -88.5t-53.5 -29.5q-5 0 -6 1t-0.5 3t0.5 4
q0 5 12.5 14t30.5 24t29 31q24 35 28 88q2 20 -5 45.5t-6 44.5q1 18 26 38q26 21 39 21q15 0 21.5 -15.5t2.5 -58.5z" />
    <glyph glyph-name="dagger" unicode="&#x2020;" horiz-adv-x="347" 
d="M416 546q0 -12 -21 -23q-34 -18 -110 -23l-12 -1l-107 -559q-3 -15 -30 -29t-40 -15q-6 0 -7.5 1.5t-1.5 9.5q0 43 113 589q-84 0 -108 2q-18 2 -18 11q0 14 17 29q9 7 46 7h74q35 163 38 173q16 8 59 8q9 0 7 -9l-33 -172h23q23 0 56 2t35 2q20 0 20 -3z" />
    <glyph glyph-name="bullet" unicode="&#x2022;" horiz-adv-x="349" 
d="M303 235q0 -50 -35.5 -86t-85.5 -36q-51 0 -86 35.5t-35 86.5q0 50 36 85.5t86 35.5t85 -35.5t35 -85.5z" />
    <glyph glyph-name="ellipsis" unicode="&#x2026;" horiz-adv-x="850" 
d="M773 46q-2 -26 -19 -45q-16 -18 -47 -18q-20 0 -29 9q-4 7 -4 33q2 34 17 51q15 16 53 17q18 0 25 -11q4 -9 4 -36zM482 46q-2 -26 -19 -45q-17 -18 -47 -18q-20 0 -29 9q-4 7 -4 33q2 34 17 51q16 16 53 17q18 0 25 -11q4 -9 4 -36zM172 46q-2 -26 -19 -45
q-17 -18 -47 -18q-20 0 -29 9q-4 7 -4 33q2 34 17 51q16 16 53 17q18 0 25 -11q4 -9 4 -36z" />
    <glyph glyph-name="Euro" unicode="&#x20ac;" 
d="M471 568h-19q-6 48 -38.5 72.5t-84.5 24.5q-79 0 -116.5 -63.5t-47.5 -188.5h257l-14 -36h-245q0 -5 -0.5 -16t-0.5 -15q0 -26 1 -35h220l-14 -35h-205q8 -125 49.5 -190t116.5 -65q47 0 81 24t41 75h19l-5 -77q-44 -60 -153 -60q-209 0 -229 293h-65l13 35h48
q-1 9 -1 36q0 4 0.5 14.5t0.5 15.5h-61l13 36h51q13 147 66 219t164 72q109 0 153 -57z" />
    <glyph glyph-name="afii61352" unicode="&#x2116;" horiz-adv-x="938" 
d="M950 428q-2 -25 -15 -54q-19 -45 -46 -69q-54 -48 -84 -65q-41 -21 -95 -21q-52 0 -74 22q-21 21 -19 58q3 44 23 82q30 60 96 97q22 12 49 20q14 3 42 5q5 1 23 4q10 1 23 2.5t14 1.5l10 -1q28 -3 42 -27q14 -23 11 -55zM842 131q0 -8 -20 -19q-20 -9 -62 -18
q-16 -2 -69 -4q-32 0 -94 -2h-14.5t-11.5 -1q-9 0 -13.5 2.5t-3.5 8.5q1 23 22 32q22 8 55 8h101l91 4q19 1 19 -11zM621 696l-47 -128l-42 -128l-24.5 -76.5t-30.5 -98.5l-40 -141l-21 -77q-5 -15 -6 -17q-2 -6 -9 -15q-2 -2 -6 -6.5t-6 -7.5q-3 -4 -20 -17q-16 -9 -23 -10
q-18 0 -31 45q-3 11 -13 69q-11 65 -25 161q-10 65 -22 164q-3 25 -8.5 80.5l-8.5 84.5q-8 -20 -42 -129q-50 -152 -59 -184l-40 -141l-17 -77q-5 -15 -6 -17q-2 -7 -8 -12q-7 -9 -13 -15q-8 -8 -24 -19q-3 -2 -2 -8l-1 -2q-18 0 -18 14q2 17 11 46q19 61 20 66
q25 91 44 152l35 112l75 234l15 46q11 29 15 33q6 8 11 12q6 5 17 11q2 2 4 3q1 0 21 2q5 -3 5 -7q6 6 12 6q7 0 13 -18q6 -48 7 -55l19 -131q5 -40 11 -82.5l9.5 -68.5t5.5 -39q13 -104 29 -190l142 480l8 28.5t6 22.5q6 21 11 26q3 7 10 12t16 10q6 3 18 5q11 0 18 1
q5 0 5 -9zM882 433q3 42 -33 43q-9 0 -20 -5l-14 3q-30 0 -55 -19q-23 -17 -44 -52q-15 -27 -22 -47q-8 -24 -10 -47q-3 -25 12 -45q14 -19 40 -19q27 -1 50 12q19 11 40 35q21 25 38 67q15 39 18 74z" />
    <glyph glyph-name="trademark" unicode="&#x2122;" horiz-adv-x="1115" 
d="M1087 477q-47 -33 -73 -49q-62 -37 -83 -37q-19 0 -19 22q0 12 16 66t32 102l16 48l-3 1q-74 -97 -153 -187q-37 -43 -49 -43q-10 0 -10 15q0 8 9 42l24 88t21 78l9 36l-3 1q-7 -14 -49.5 -78.5t-62.5 -90.5q-42 -55 -67 -75.5t-46 -20.5q-23 0 -23 33q0 40 35 59l4 -1
q-2 -39 16 -39q25 0 79 69q28 36 68 100t57 100q17 46 19 49q11 18 28 18t18 -4q1 -2 1 -5q0 -11 -3 -23t-10.5 -32t-10.5 -30q-21 -64 -55 -193q-2 -9 -3 -15.5t1 -12.5q4 0 36.5 37.5t75.5 94t67 98.5q22 66 33 79q13 18 34 18q9 0 9 -19q0 -12 -13.5 -45t-25.5 -52
q-72 -210 -72 -225q0 -2 -1 -7.5t-0.5 -8t4.5 -5t12 -2.5q25 0 105 55zM572 466q-125 -85 -172 -85q-14 0 -12 21q3 19 33 121l21 67.5l25.5 81t10.5 42.5q0 1 0.5 5t0 5t-3.5 1q-2 0 -34 -34q-43 -46 -110 -145q-11 -17 -25.5 -46.5t-24.5 -52t-11 -23.5q-17 -25 -44 -25
q-3 0 -3 3q0 9 17 59l66 208q14 40 14 54q0 6 -3 7q-13 0 -57 -51q-34 -40 -82 -123t-67 -126q-23 -29 -45 -29q-7 0 -8 8v4q1 9 18 57q9 29 35 100t32 90q23 69 23 73q0 11 -1 13.5t-6 2.5q-22 0 -92 -67l-3 11q49 47 89 73.5t56 26.5q14 0 14 -13q0 -8 -12 -50
q-7 -25 -24.5 -75l-31.5 -87l-14 -38l3 -2q41 73 80 128t67.5 82.5t49 40.5t33.5 13q7 0 9 -2t2 -12t-15 -57l-33.5 -100.5t-21.5 -64.5h2l32 42.5l30.5 40.5l27 35l26 32.5l22.5 26.5t21.5 22.5t18.5 15.5t18.5 11t15.5 3q11 0 11 -14q0 -8 -11 -44l-26.5 -86t-22.5 -76
q-32 -110 -32 -118q0 -1 -1.5 -8t0 -10.5t8.5 -3.5q35 0 111 50z" />
    <glyph glyph-name="radical" unicode="&#x221a;" horiz-adv-x="549" 
d="M385 119l127 794h36l-152 -951l-242 498l-97 -44l-16 31l146 74z" />
    <glyph glyph-name="infinity" unicode="&#x221e;" horiz-adv-x="713" 
d="M305 288q-24 55 -55 80t-76 25q-52 0 -86.5 -37t-34.5 -97q0 -66 34 -104q35 -39 78 -39q46 0 82 42q24 29 58 130zM366 227q34 -74 69.5 -101.5t82.5 -27.5q61 0 101 44t40 115q0 73 -43 119q-42 47 -95 47q-66 0 -104 -72q-13 -24 -51 -124zM319 326q33 76 72 105
q41 30 109 30q78 0 133 -57q54 -56 54 -147q0 -88 -53 -147q-52 -58 -118 -58q-48 0 -90 36q-27 23 -74 104q-32 -61 -69 -87.5t-90 -26.5q-70 0 -118 50q-49 50 -49 130t45 130q45 49 105 49q43 0 74 -22q31 -21 69 -89z" />
    <glyph glyph-name="approxequal" unicode="&#x2248;" horiz-adv-x="549" 
d="M514 267h21q-2 -61 -35.5 -97.5t-82.5 -36.5q-23 0 -74 15l-109 45q-75 31 -108 31q-73 0 -90 -90h-21q-1 61 32.5 96.5t79.5 37.5q21 0 44 -6q49 -15 142 -54q44 -19 77 -28q12 -4 32 -4q38 0 62.5 23.5t29.5 67.5zM514 507h21q-2 -61 -35.5 -97t-82.5 -36q-25 0 -49 7
q-26 8 -134 52q-75 31 -108 31q-72 0 -90 -89h-21q-1 60 33 95.5t80 37.5q22 0 43 -7q47 -12 142 -53q50 -22 77 -29q13 -3 32 -3q38 0 62.5 23.5t29.5 67.5z" />
    <glyph glyph-name="notequal" unicode="&#x2260;" horiz-adv-x="549" 
d="M12 354v45h294l103 261h39l-101 -261h190v-45h-208l-70 -181h278v-46h-296l-103 -258h-39l102 258h-189v46h207l71 181h-278z" />
    <glyph glyph-name="lessequal" unicode="&#x2264;" horiz-adv-x="549" 
d="M12 -79v45h525v-45h-525zM536 170v-50l-524 223v40l524 222v-50l-464 -192z" />
    <glyph glyph-name="greaterequal" unicode="&#x2265;" horiz-adv-x="549" 
d="M12 -79v45h525v-45h-525zM12 555v50l524 -223v-40l-524 -222v50l464 192z" />
    <glyph glyph-name="nbspace" horiz-adv-x="475" 
 />
    </font>
</defs>
</svg>
